<svg width="30" height="30" viewBox="0 0 30 30" fill="none" xmlns="http://www.w3.org/2000/svg">
<path d="M19.7289 15.2991L28.6426 26.4135C29.4525 27.2337 29.4525 28.564 28.6426 29.3843C27.8329 30.2052 26.5193 30.2052 25.7092 29.3843L15 20.0831L4.2908 29.3843C3.4807 30.2052 2.1671 30.2052 1.35738 29.3843C0.54754 28.564 0.54754 27.2337 1.35738 26.4135L10.2711 15.2991C10.257 15.1999 10.25 15.0998 10.25 14.9997C10.25 14.8997 10.257 14.7996 10.271 14.7004L1.3577 3.58643C0.54787 2.76586 0.54787 1.43566 1.3577 0.615424C2.1675 -0.205141 3.481 -0.205141 4.2912 0.615424L15 9.91643L25.7088 0.615424C26.519 -0.205141 27.8325 -0.205141 28.6423 0.615424C29.4521 1.43566 29.4521 2.76586 28.6423 3.58643L19.729 14.7004C19.743 14.7996 19.75 14.8997 19.75 14.9997C19.75 15.0998 19.743 15.1999 19.7289 15.2991Z" fill="black"/>
</svg>
