<svg width="300" height="300" viewBox="0 0 300 300" fill="none" xmlns="http://www.w3.org/2000/svg">
<circle cx="150" cy="150" r="150" fill="#5B5658"/>
<path d="M180.894 100.324C179.621 100.324 152.442 100.359 126.243 100.43C125.988 100.431 125.757 100.266 125.757 100.011L128.621 77.291C128.731 76.74 128.65 76.2844 128.379 75.9242C128.293 75.8108 128.199 75.7041 128.103 75.5992C127.739 75.1996 127.275 74.9999 126.711 74.9999H105.9C105.264 74.9999 104.691 75.2544 104.182 75.7636C103.8 76.1454 103.545 76.6546 103.418 77.291L100.554 100.011C100.554 100.327 100.256 100.517 99.9408 100.518C87.8826 100.57 81.3142 100.633 79.8534 100.706C78.5298 100.826 77.7181 101.572 77.4182 102.944C77.3829 103.105 77.3714 103.271 77.3714 103.436L75.0042 121.326C75.0042 121.986 75.0631 122.34 75.5769 122.854C76.0908 123.367 76.4679 123.617 77.1044 123.617H173.066C179.176 123.617 182.231 126.736 182.231 132.973C182.231 134.246 182.167 135.264 182.04 136.028L174.925 181.425C174.666 183.761 174.925 184.79 177.903 184.79H197.067C198.583 184.79 199.86 183.66 200.045 182.157L208.579 125.336C208.833 123.045 208.961 121.39 208.961 120.372C208.961 112.734 206.67 107.452 202.087 104.525C197.378 101.724 190.313 100.324 180.894 100.324Z" fill="white"/>
<path d="M125.043 118.577C125.332 116.381 124.948 115.212 122.065 115.212H102.901C101.386 115.212 100.109 116.342 99.9234 117.845L91.3898 174.664C91.1352 176.955 91.0079 178.61 91.0079 179.628C91.0079 187.265 93.299 192.548 97.8813 195.475C102.591 198.275 109.655 199.676 119.074 199.676C120.347 199.676 147.526 199.64 173.726 199.57C173.98 199.569 174.212 199.734 174.212 199.988L171.348 222.709C171.238 223.26 171.318 223.715 171.59 224.076C171.675 224.189 171.77 224.296 171.866 224.401C172.23 224.8 172.694 225 173.257 225H194.068C194.705 225 195.278 224.745 195.787 224.236C196.169 223.854 196.423 223.345 196.55 222.709L199.414 199.988C199.414 199.673 199.712 199.483 200.028 199.481C212.086 199.429 218.725 199.367 220.186 199.294C221.509 199.173 222.321 198.427 222.621 197.056C222.656 196.894 222.668 196.729 222.668 196.563L224.964 178.674C224.964 178.014 224.906 177.66 224.392 177.146C223.878 176.632 223.501 176.382 222.864 176.382H126.902C120.793 176.382 117.738 173.264 117.738 167.027C117.738 165.754 117.801 164.736 117.929 163.972L125.043 118.577Z" fill="white"/>
</svg>
