<svg width="401" height="400" viewBox="0 0 401 400" fill="none" xmlns="http://www.w3.org/2000/svg">
<path fill-rule="evenodd" clip-rule="evenodd" d="M200.5 0C90.0431 0 0.5 89.5431 0.5 200C0.5 310.457 90.0431 400 200.5 400C310.957 400 400.5 310.457 400.5 200C400.5 89.5431 310.957 0 200.5 0ZM167.37 130.848C203.93 130.749 241.856 130.7 243.632 130.7C256.776 130.7 266.634 132.653 273.205 136.56C279.599 140.644 282.797 148.013 282.797 158.667C282.797 160.088 282.619 162.396 282.264 165.592L278.03 201.614C277.772 203.711 275.989 205.287 273.875 205.287H247.133C242.978 205.287 242.616 203.851 242.978 200.593L245.231 180.508C245.408 179.443 245.497 178.022 245.497 176.246C245.497 167.546 241.234 163.195 232.709 163.195H98.8018C97.9137 163.195 97.3874 162.846 96.6704 162.13C95.9534 161.413 95.8712 160.919 95.8712 159.999L99.1744 135.042C99.1744 134.811 99.1906 134.58 99.2398 134.355C99.6582 132.441 100.791 131.401 102.638 131.233C104.676 131.131 113.842 131.044 130.668 130.971C131.108 130.969 131.524 130.704 131.524 130.264L135.521 98.5676C135.698 97.6798 136.053 96.9695 136.586 96.4368C137.297 95.7265 138.096 95.3714 138.984 95.3714H168.024C168.811 95.3714 169.458 95.6501 169.966 96.2074C170.1 96.3538 170.232 96.5027 170.351 96.6609C170.73 97.1633 170.842 97.7989 170.689 98.5676L166.692 130.264C166.692 130.618 167.015 130.849 167.37 130.848ZM153.867 195.413C157.889 195.413 158.425 197.044 158.022 200.108L155.769 219.492C155.591 220.557 155.502 221.978 155.502 223.754C155.502 232.455 159.765 236.805 168.291 236.805H302.198C303.086 236.805 303.612 237.154 304.329 237.87C305.046 238.587 305.128 239.081 305.128 240.001L301.923 264.958C301.923 265.189 301.907 265.42 301.858 265.645C301.44 267.559 300.307 268.6 298.46 268.767C296.422 268.869 287.158 268.957 270.331 269.029C269.891 269.031 269.475 269.297 269.475 269.736L265.479 301.432C265.301 302.32 264.946 303.031 264.413 303.563C263.703 304.274 262.904 304.629 262.016 304.629H232.975C232.189 304.629 231.541 304.35 231.033 303.793C230.9 303.646 230.768 303.497 230.649 303.339C230.27 302.837 230.157 302.201 230.311 301.432L234.307 269.736C234.307 269.382 233.984 269.152 233.629 269.152C197.07 269.251 159.144 269.3 157.367 269.3C144.224 269.3 134.366 267.347 127.794 263.44C121.4 259.356 118.203 251.987 118.203 241.333C118.203 239.912 118.381 237.604 118.736 234.408L122.969 199.087C123.227 196.989 125.01 195.413 127.124 195.413H153.867Z" fill="black"/>
</svg>
