<svg width="595" height="226" viewBox="0 0 595 226" fill="none" xmlns="http://www.w3.org/2000/svg">
<rect width="595" height="226" fill="white"/>
<rect x="0.00012207" y="6.10352e-05" width="595" height="226" fill="#20263D"/>
<path opacity="0.5" d="M561.054 175.951L546.054 167.291V184.611L561.054 175.951ZM33.9458 177.451H547.554V174.451H33.9458V177.451Z" fill="white"/>
<path d="M561.054 175.951L546.054 167.291L546.054 184.611L561.054 175.951ZM355.031 177.451L547.554 177.451L547.554 174.451L355.031 174.451L355.031 177.451Z" fill="#1F709E"/>
<path opacity="0.6" d="M284.37 197.801C284.351 197.82 284.342 197.839 284.342 197.857C284.351 197.876 284.37 197.885 284.398 197.885H288.388C288.435 197.885 288.472 197.904 288.5 197.941C288.537 197.969 288.556 198.007 288.556 198.053V199.117C288.556 199.164 288.537 199.206 288.5 199.243C288.472 199.271 288.435 199.285 288.388 199.285H282.368C282.321 199.285 282.279 199.271 282.242 199.243C282.214 199.206 282.2 199.164 282.2 199.117V198.109C282.2 198.025 282.228 197.955 282.284 197.899C282.993 197.143 283.815 196.215 284.748 195.113L285.406 194.343C286.265 193.345 286.694 192.589 286.694 192.075C286.694 191.693 286.559 191.38 286.288 191.137C286.017 190.895 285.667 190.773 285.238 190.773C284.809 190.773 284.459 190.895 284.188 191.137C283.927 191.38 283.796 191.702 283.796 192.103V192.467C283.796 192.514 283.777 192.556 283.74 192.593C283.712 192.621 283.675 192.635 283.628 192.635H282.326C282.279 192.635 282.237 192.621 282.2 192.593C282.172 192.556 282.158 192.514 282.158 192.467V191.865C282.177 191.361 282.321 190.923 282.592 190.549C282.863 190.176 283.227 189.887 283.684 189.681C284.151 189.476 284.669 189.373 285.238 189.373C285.863 189.373 286.409 189.49 286.876 189.723C287.343 189.957 287.702 190.279 287.954 190.689C288.206 191.091 288.332 191.543 288.332 192.047C288.332 192.813 287.926 193.695 287.114 194.693C286.666 195.253 285.929 196.093 284.902 197.213L284.37 197.801ZM293.173 199.439C292.193 199.439 291.414 199.164 290.835 198.613C290.266 198.053 289.981 197.302 289.981 196.359V192.411C289.981 191.478 290.266 190.741 290.835 190.199C291.414 189.649 292.193 189.373 293.173 189.373C294.153 189.373 294.932 189.649 295.511 190.199C296.099 190.741 296.393 191.478 296.393 192.411V196.359C296.393 197.302 296.099 198.053 295.511 198.613C294.932 199.164 294.153 199.439 293.173 199.439ZM293.173 198.025C293.658 198.025 294.046 197.885 294.335 197.605C294.624 197.316 294.769 196.929 294.769 196.443V192.355C294.769 191.87 294.624 191.487 294.335 191.207C294.046 190.918 293.658 190.773 293.173 190.773C292.697 190.773 292.314 190.918 292.025 191.207C291.745 191.487 291.605 191.87 291.605 192.355V196.443C291.605 196.929 291.745 197.316 292.025 197.605C292.314 197.885 292.697 198.025 293.173 198.025ZM300.038 197.801C300.019 197.82 300.01 197.839 300.01 197.857C300.019 197.876 300.038 197.885 300.066 197.885H304.056C304.103 197.885 304.14 197.904 304.168 197.941C304.205 197.969 304.224 198.007 304.224 198.053V199.117C304.224 199.164 304.205 199.206 304.168 199.243C304.14 199.271 304.103 199.285 304.056 199.285H298.036C297.989 199.285 297.947 199.271 297.91 199.243C297.882 199.206 297.868 199.164 297.868 199.117V198.109C297.868 198.025 297.896 197.955 297.952 197.899C298.661 197.143 299.483 196.215 300.416 195.113L301.074 194.343C301.933 193.345 302.362 192.589 302.362 192.075C302.362 191.693 302.227 191.38 301.956 191.137C301.685 190.895 301.335 190.773 300.906 190.773C300.477 190.773 300.127 190.895 299.856 191.137C299.595 191.38 299.464 191.702 299.464 192.103V192.467C299.464 192.514 299.445 192.556 299.408 192.593C299.38 192.621 299.343 192.635 299.296 192.635H297.994C297.947 192.635 297.905 192.621 297.868 192.593C297.84 192.556 297.826 192.514 297.826 192.467V191.865C297.845 191.361 297.989 190.923 298.26 190.549C298.531 190.176 298.895 189.887 299.352 189.681C299.819 189.476 300.337 189.373 300.906 189.373C301.531 189.373 302.077 189.49 302.544 189.723C303.011 189.957 303.37 190.279 303.622 190.689C303.874 191.091 304 191.543 304 192.047C304 192.813 303.594 193.695 302.782 194.693C302.334 195.253 301.597 196.093 300.57 197.213L300.038 197.801ZM308.841 199.439C307.861 199.439 307.082 199.164 306.503 198.613C305.934 198.053 305.649 197.302 305.649 196.359V192.411C305.649 191.478 305.934 190.741 306.503 190.199C307.082 189.649 307.861 189.373 308.841 189.373C309.821 189.373 310.6 189.649 311.179 190.199C311.767 190.741 312.061 191.478 312.061 192.411V196.359C312.061 197.302 311.767 198.053 311.179 198.613C310.6 199.164 309.821 199.439 308.841 199.439ZM308.841 198.025C309.326 198.025 309.714 197.885 310.003 197.605C310.292 197.316 310.437 196.929 310.437 196.443V192.355C310.437 191.87 310.292 191.487 310.003 191.207C309.714 190.918 309.326 190.773 308.841 190.773C308.365 190.773 307.982 190.918 307.693 191.207C307.413 191.487 307.273 191.87 307.273 192.355V196.443C307.273 196.929 307.413 197.316 307.693 197.605C307.982 197.885 308.365 198.025 308.841 198.025Z" fill="white"/>
<line opacity="0.5" x1="243.511" y1="176.625" x2="243.511" y2="93.1925" stroke="white" stroke-width="2"/>
<rect x="216.66" y="73.6828" width="75.7589" height="32.0729" fill="url(#paint0_linear)"/>
<path opacity="0.8" d="M223.156 90.1093C223.1 90.1373 223.1 90.1653 223.156 90.1933C224.108 90.6413 224.584 91.4113 224.584 92.5033C224.584 93.39 224.285 94.0666 223.688 94.5333C223.1 94.9906 222.33 95.2193 221.378 95.2193H217.85C217.803 95.2193 217.761 95.2053 217.724 95.1773C217.696 95.14 217.682 95.098 217.682 95.0513V85.5873C217.682 85.5406 217.696 85.5033 217.724 85.4753C217.761 85.438 217.803 85.4193 217.85 85.4193H221.266C222.283 85.4193 223.067 85.6386 223.618 86.0773C224.168 86.516 224.444 87.1786 224.444 88.0653C224.444 89.0453 224.014 89.7266 223.156 90.1093ZM219.376 86.8193C219.329 86.8193 219.306 86.8426 219.306 86.8893V89.4793C219.306 89.526 219.329 89.5493 219.376 89.5493H221.266C221.76 89.5493 222.148 89.4326 222.428 89.1993C222.717 88.9566 222.862 88.6253 222.862 88.2053C222.862 87.776 222.717 87.44 222.428 87.1973C222.148 86.9453 221.76 86.8193 221.266 86.8193H219.376ZM221.378 93.8053C221.863 93.8053 222.246 93.6746 222.526 93.4133C222.815 93.152 222.96 92.7973 222.96 92.3493C222.96 91.892 222.815 91.5373 222.526 91.2853C222.236 91.024 221.844 90.8933 221.35 90.8933H219.376C219.329 90.8933 219.306 90.9166 219.306 90.9633V93.7353C219.306 93.782 219.329 93.8053 219.376 93.8053H221.378ZM232.271 90.8373C232.308 91.0706 232.327 91.332 232.327 91.6213L232.313 92.0553C232.313 92.1673 232.257 92.2233 232.145 92.2233H227.763C227.716 92.2233 227.693 92.2466 227.693 92.2933C227.721 92.6013 227.763 92.8113 227.819 92.9233C228.043 93.5953 228.589 93.936 229.457 93.9453C230.091 93.9453 230.595 93.684 230.969 93.1613C231.006 93.1053 231.053 93.0773 231.109 93.0773C231.146 93.0773 231.179 93.0913 231.207 93.1193L232.075 93.8333C232.159 93.8986 232.173 93.9733 232.117 94.0573C231.827 94.468 231.44 94.7853 230.955 95.0093C230.479 95.2333 229.947 95.3453 229.359 95.3453C228.631 95.3453 228.01 95.182 227.497 94.8553C226.993 94.5286 226.624 94.0713 226.391 93.4833C226.176 92.9793 226.069 92.2793 226.069 91.3833C226.069 90.842 226.125 90.4033 226.237 90.0673C226.423 89.414 226.773 88.9006 227.287 88.5273C227.809 88.1446 228.435 87.9533 229.163 87.9533C231.001 87.9533 232.037 88.9146 232.271 90.8373ZM229.163 89.3533C228.817 89.3533 228.528 89.442 228.295 89.6193C228.071 89.7873 227.912 90.0253 227.819 90.3333C227.763 90.492 227.725 90.6973 227.707 90.9493C227.688 90.996 227.707 91.0193 227.763 91.0193H230.605C230.651 91.0193 230.675 90.996 230.675 90.9493C230.656 90.716 230.628 90.5386 230.591 90.4173C230.507 90.0813 230.339 89.82 230.087 89.6333C229.844 89.4466 229.536 89.3533 229.163 89.3533ZM237.468 89.2133C237.468 89.26 237.45 89.302 237.412 89.3393C237.384 89.3673 237.347 89.3813 237.3 89.3813H235.872C235.826 89.3813 235.802 89.4046 235.802 89.4513V92.8253C235.802 93.18 235.877 93.4366 236.026 93.5953C236.185 93.754 236.432 93.8333 236.768 93.8333H237.188C237.235 93.8333 237.272 93.852 237.3 93.8893C237.338 93.9173 237.356 93.9546 237.356 94.0013V95.0513C237.356 95.154 237.3 95.2146 237.188 95.2333L236.46 95.2473C235.723 95.2473 235.172 95.1213 234.808 94.8693C234.444 94.6173 234.258 94.1413 234.248 93.4413V89.4513C234.248 89.4046 234.225 89.3813 234.178 89.3813H233.38C233.334 89.3813 233.292 89.3673 233.254 89.3393C233.226 89.302 233.212 89.26 233.212 89.2133V88.2333C233.212 88.1866 233.226 88.1493 233.254 88.1213C233.292 88.084 233.334 88.0653 233.38 88.0653H234.178C234.225 88.0653 234.248 88.042 234.248 87.9953V86.3573C234.248 86.3106 234.262 86.2733 234.29 86.2453C234.328 86.208 234.37 86.1893 234.416 86.1893H235.634C235.681 86.1893 235.718 86.208 235.746 86.2453C235.784 86.2733 235.802 86.3106 235.802 86.3573V87.9953C235.802 88.042 235.826 88.0653 235.872 88.0653H237.3C237.347 88.0653 237.384 88.084 237.412 88.1213C237.45 88.1493 237.468 88.1866 237.468 88.2333V89.2133ZM241.641 87.9533C242.229 87.9533 242.747 88.056 243.195 88.2613C243.643 88.4666 243.988 88.7513 244.231 89.1153C244.473 89.47 244.595 89.876 244.595 90.3333V95.0513C244.595 95.098 244.576 95.14 244.539 95.1773C244.511 95.2053 244.473 95.2193 244.427 95.2193H243.139C243.092 95.2193 243.05 95.2053 243.013 95.1773C242.985 95.14 242.971 95.098 242.971 95.0513V94.6033C242.971 94.5753 242.961 94.5613 242.943 94.5613C242.924 94.552 242.905 94.5566 242.887 94.5753C242.429 95.0793 241.767 95.3313 240.899 95.3313C240.199 95.3313 239.62 95.154 239.163 94.7993C238.715 94.4446 238.491 93.9173 238.491 93.2173C238.491 92.4893 238.743 91.9246 239.247 91.5233C239.76 91.1126 240.479 90.9073 241.403 90.9073H242.901C242.947 90.9073 242.971 90.884 242.971 90.8373V90.5013C242.971 90.1373 242.863 89.8573 242.649 89.6613C242.434 89.456 242.112 89.3533 241.683 89.3533C241.328 89.3533 241.039 89.4186 240.815 89.5493C240.6 89.6706 240.465 89.8433 240.409 90.0673C240.381 90.1793 240.315 90.226 240.213 90.2073L238.855 90.0393C238.808 90.03 238.766 90.016 238.729 89.9973C238.701 89.9693 238.691 89.9366 238.701 89.8993C238.775 89.33 239.079 88.8633 239.611 88.4993C240.152 88.1353 240.829 87.9533 241.641 87.9533ZM241.305 94.0433C241.762 94.0433 242.154 93.922 242.481 93.6793C242.807 93.4366 242.971 93.1286 242.971 92.7553V92.0973C242.971 92.0506 242.947 92.0273 242.901 92.0273H241.725C241.23 92.0273 240.838 92.1206 240.549 92.3073C240.269 92.494 240.129 92.76 240.129 93.1053C240.129 93.404 240.236 93.6373 240.451 93.8053C240.675 93.964 240.959 94.0433 241.305 94.0433ZM253.116 85.4053C253.704 85.4053 254.222 85.5266 254.67 85.7693C255.118 86.012 255.463 86.3573 255.706 86.8053C255.958 87.244 256.084 87.7526 256.084 88.3313C256.084 88.9006 255.958 89.4046 255.706 89.8433C255.454 90.282 255.094 90.6226 254.628 90.8653C254.17 91.0986 253.638 91.2153 253.032 91.2153H250.792C250.745 91.2153 250.722 91.2386 250.722 91.2853V95.0513C250.722 95.098 250.703 95.14 250.666 95.1773C250.638 95.2053 250.6 95.2193 250.554 95.2193H249.266C249.219 95.2193 249.177 95.2053 249.14 95.1773C249.112 95.14 249.098 95.098 249.098 95.0513V85.5733C249.098 85.5266 249.112 85.4893 249.14 85.4613C249.177 85.424 249.219 85.4053 249.266 85.4053H253.116ZM252.878 89.8993C253.354 89.8993 253.736 89.7593 254.026 89.4793C254.315 89.1993 254.46 88.8306 254.46 88.3733C254.46 87.9066 254.315 87.5286 254.026 87.2393C253.736 86.95 253.354 86.8053 252.878 86.8053H250.792C250.745 86.8053 250.722 86.8286 250.722 86.8753V89.8293C250.722 89.876 250.745 89.8993 250.792 89.8993H252.878ZM260.686 87.9813C260.985 87.9813 261.246 88.042 261.47 88.1633C261.545 88.2006 261.573 88.2706 261.554 88.3733L261.316 89.6333C261.307 89.7453 261.241 89.778 261.12 89.7313C260.98 89.6846 260.817 89.6613 260.63 89.6613C260.509 89.6613 260.415 89.666 260.35 89.6753C259.958 89.694 259.631 89.834 259.37 90.0953C259.109 90.3473 258.978 90.6786 258.978 91.0893V95.0513C258.978 95.098 258.959 95.14 258.922 95.1773C258.894 95.2053 258.857 95.2193 258.81 95.2193H257.522C257.475 95.2193 257.433 95.2053 257.396 95.1773C257.368 95.14 257.354 95.098 257.354 95.0513V88.2333C257.354 88.1866 257.368 88.1493 257.396 88.1213C257.433 88.084 257.475 88.0653 257.522 88.0653H258.81C258.857 88.0653 258.894 88.084 258.922 88.1213C258.959 88.1493 258.978 88.1866 258.978 88.2333V88.8633C258.978 88.9006 258.983 88.924 258.992 88.9333C259.011 88.9333 259.029 88.9193 259.048 88.8913C259.44 88.2846 259.986 87.9813 260.686 87.9813ZM265.519 95.3313C264.782 95.3313 264.147 95.1446 263.615 94.7713C263.092 94.398 262.724 93.88 262.509 93.2173C262.35 92.7133 262.271 92.1813 262.271 91.6213C262.271 91.024 262.346 90.492 262.495 90.0253C262.71 89.372 263.083 88.8633 263.615 88.4993C264.147 88.1353 264.786 87.9533 265.533 87.9533C266.242 87.9533 266.854 88.1353 267.367 88.4993C267.89 88.8633 268.258 89.3673 268.473 90.0113C268.641 90.4593 268.725 90.9913 268.725 91.6073C268.725 92.1953 268.646 92.7273 268.487 93.2033C268.272 93.866 267.904 94.3886 267.381 94.7713C266.858 95.1446 266.238 95.3313 265.519 95.3313ZM265.519 93.9313C265.864 93.9313 266.158 93.8333 266.401 93.6373C266.653 93.4413 266.835 93.166 266.947 92.8113C267.04 92.5033 267.087 92.1113 267.087 91.6353C267.087 91.1313 267.04 90.7393 266.947 90.4593C266.844 90.1046 266.667 89.834 266.415 89.6473C266.163 89.4513 265.855 89.3533 265.491 89.3533C265.146 89.3533 264.847 89.4513 264.595 89.6473C264.343 89.834 264.161 90.1046 264.049 90.4593C263.956 90.786 263.909 91.178 263.909 91.6353C263.909 92.0926 263.956 92.4846 264.049 92.8113C264.152 93.166 264.329 93.4413 264.581 93.6373C264.842 93.8333 265.155 93.9313 265.519 93.9313ZM274.698 85.5873C274.698 85.5406 274.712 85.5033 274.74 85.4753C274.777 85.438 274.819 85.4193 274.866 85.4193H276.154C276.201 85.4193 276.238 85.438 276.266 85.4753C276.303 85.5033 276.322 85.5406 276.322 85.5873V95.0513C276.322 95.098 276.303 95.14 276.266 95.1773C276.238 95.2053 276.201 95.2193 276.154 95.2193H274.866C274.819 95.2193 274.777 95.2053 274.74 95.1773C274.712 95.14 274.698 95.098 274.698 95.0513V94.6313C274.698 94.6033 274.689 94.5846 274.67 94.5753C274.651 94.566 274.633 94.5753 274.614 94.6033C274.203 95.0886 273.667 95.3313 273.004 95.3313C272.341 95.3313 271.781 95.1586 271.324 94.8133C270.867 94.468 270.535 93.9873 270.33 93.3713C270.162 92.8486 270.078 92.2653 270.078 91.6213C270.078 90.9586 270.157 90.3893 270.316 89.9133C270.521 89.2973 270.853 88.8166 271.31 88.4713C271.767 88.126 272.341 87.9533 273.032 87.9533C273.676 87.9533 274.203 88.1866 274.614 88.6533C274.633 88.672 274.651 88.6813 274.67 88.6813C274.689 88.672 274.698 88.6533 274.698 88.6253V85.5873ZM274.362 93.2593C274.577 92.8766 274.684 92.3353 274.684 91.6353C274.684 90.9073 274.567 90.352 274.334 89.9693C274.082 89.5586 273.727 89.3533 273.27 89.3533C272.794 89.3533 272.421 89.5493 272.15 89.9413C271.87 90.352 271.73 90.9213 271.73 91.6493C271.73 92.3026 271.842 92.8393 272.066 93.2593C272.327 93.7073 272.724 93.9313 273.256 93.9313C273.732 93.9313 274.101 93.7073 274.362 93.2593ZM282.308 88.2333C282.308 88.1866 282.322 88.1493 282.35 88.1213C282.388 88.084 282.43 88.0653 282.476 88.0653H283.75C283.797 88.0653 283.834 88.084 283.862 88.1213C283.9 88.1493 283.918 88.1866 283.918 88.2333V95.0513C283.918 95.098 283.9 95.14 283.862 95.1773C283.834 95.2053 283.797 95.2193 283.75 95.2193H282.476C282.43 95.2193 282.388 95.2053 282.35 95.1773C282.322 95.14 282.308 95.098 282.308 95.0513V94.6033C282.308 94.5753 282.299 94.5566 282.28 94.5473C282.262 94.538 282.243 94.5473 282.224 94.5753C281.842 95.07 281.268 95.3173 280.502 95.3173C279.793 95.3173 279.196 95.112 278.71 94.7013C278.234 94.2906 277.996 93.7073 277.996 92.9513V88.2333C277.996 88.1866 278.01 88.1493 278.038 88.1213C278.076 88.084 278.118 88.0653 278.164 88.0653H279.452C279.499 88.0653 279.536 88.084 279.564 88.1213C279.602 88.1493 279.62 88.1866 279.62 88.2333V92.4893C279.62 92.928 279.732 93.278 279.956 93.5393C280.19 93.8006 280.512 93.9313 280.922 93.9313C281.342 93.9313 281.678 93.8006 281.93 93.5393C282.182 93.278 282.308 92.928 282.308 92.4893V88.2333ZM288.637 95.3313C287.918 95.3313 287.297 95.1493 286.775 94.7853C286.252 94.412 285.888 93.9126 285.683 93.2873C285.533 92.8673 285.459 92.3073 285.459 91.6073C285.459 90.9353 285.533 90.3846 285.683 89.9553C285.879 89.3393 286.238 88.854 286.761 88.4993C287.293 88.1353 287.918 87.9533 288.637 87.9533C289.365 87.9533 289.999 88.1353 290.541 88.4993C291.082 88.8633 291.441 89.3206 291.619 89.8713C291.665 90.0206 291.698 90.17 291.717 90.3193V90.3473C291.717 90.4406 291.665 90.4966 291.563 90.5153L290.303 90.6973H290.275C290.191 90.6973 290.135 90.6506 290.107 90.5573C290.107 90.5106 290.102 90.4733 290.093 90.4453C290.074 90.3706 290.055 90.3053 290.037 90.2493C289.953 89.988 289.785 89.7733 289.533 89.6053C289.281 89.4373 288.982 89.3533 288.637 89.3533C288.282 89.3533 287.979 89.4466 287.727 89.6333C287.484 89.8106 287.321 90.058 287.237 90.3753C287.143 90.674 287.097 91.0893 287.097 91.6213C287.097 92.1346 287.139 92.55 287.223 92.8673C287.316 93.194 287.484 93.4553 287.727 93.6513C287.969 93.838 288.273 93.9313 288.637 93.9313C288.991 93.9313 289.295 93.8426 289.547 93.6653C289.808 93.4786 289.976 93.2313 290.051 92.9233C290.06 92.9046 290.065 92.8813 290.065 92.8533C290.074 92.844 290.079 92.83 290.079 92.8113C290.107 92.6993 290.172 92.6526 290.275 92.6713L291.535 92.8673C291.581 92.8766 291.619 92.9 291.647 92.9373C291.684 92.9653 291.698 93.0073 291.689 93.0633C291.661 93.2126 291.637 93.32 291.619 93.3853C291.441 93.9826 291.082 94.4586 290.541 94.8133C289.999 95.1586 289.365 95.3313 288.637 95.3313ZM296.886 89.2133C296.886 89.26 296.868 89.302 296.83 89.3393C296.802 89.3673 296.765 89.3813 296.718 89.3813H295.29C295.244 89.3813 295.22 89.4046 295.22 89.4513V92.8253C295.22 93.18 295.295 93.4366 295.444 93.5953C295.603 93.754 295.85 93.8333 296.186 93.8333H296.606C296.653 93.8333 296.69 93.852 296.718 93.8893C296.756 93.9173 296.774 93.9546 296.774 94.0013V95.0513C296.774 95.154 296.718 95.2146 296.606 95.2333L295.878 95.2473C295.141 95.2473 294.59 95.1213 294.226 94.8693C293.862 94.6173 293.676 94.1413 293.666 93.4413V89.4513C293.666 89.4046 293.643 89.3813 293.596 89.3813H292.798C292.752 89.3813 292.71 89.3673 292.672 89.3393C292.644 89.302 292.63 89.26 292.63 89.2133V88.2333C292.63 88.1866 292.644 88.1493 292.672 88.1213C292.71 88.084 292.752 88.0653 292.798 88.0653H293.596C293.643 88.0653 293.666 88.042 293.666 87.9953V86.3573C293.666 86.3106 293.68 86.2733 293.708 86.2453C293.746 86.208 293.788 86.1893 293.834 86.1893H295.052C295.099 86.1893 295.136 86.208 295.164 86.2453C295.202 86.2733 295.22 86.3106 295.22 86.3573V87.9953C295.22 88.042 295.244 88.0653 295.29 88.0653H296.718C296.765 88.0653 296.802 88.084 296.83 88.1213C296.868 88.1493 296.886 88.1866 296.886 88.2333V89.2133ZM300.989 95.3033C300.401 95.3033 299.883 95.2193 299.435 95.0513C298.996 94.874 298.655 94.636 298.413 94.3373C298.17 94.0293 298.049 93.6886 298.049 93.3153V93.1893C298.049 93.1426 298.063 93.1053 298.091 93.0773C298.128 93.04 298.17 93.0213 298.217 93.0213H299.449C299.495 93.0213 299.533 93.04 299.561 93.0773C299.598 93.1053 299.617 93.1426 299.617 93.1893V93.2173C299.617 93.4506 299.743 93.656 299.995 93.8333C300.256 94.0013 300.583 94.0853 300.975 94.0853C301.348 94.0853 301.651 94.0106 301.885 93.8613C302.118 93.7026 302.235 93.5066 302.235 93.2733C302.235 93.0586 302.137 92.9 301.941 92.7973C301.754 92.6853 301.446 92.5686 301.017 92.4473L300.485 92.2793C300.009 92.1393 299.607 91.99 299.281 91.8313C298.954 91.6726 298.679 91.458 298.455 91.1873C298.231 90.9073 298.119 90.5526 298.119 90.1233C298.119 89.47 298.375 88.952 298.889 88.5693C299.402 88.1773 300.079 87.9813 300.919 87.9813C301.488 87.9813 301.987 88.0746 302.417 88.2613C302.846 88.4386 303.177 88.6906 303.411 89.0173C303.644 89.3346 303.761 89.6986 303.761 90.1093C303.761 90.156 303.742 90.198 303.705 90.2353C303.677 90.2633 303.639 90.2773 303.593 90.2773H302.403C302.356 90.2773 302.314 90.2633 302.277 90.2353C302.249 90.198 302.235 90.156 302.235 90.1093C302.235 89.8666 302.113 89.666 301.871 89.5073C301.637 89.3393 301.315 89.2553 300.905 89.2553C300.541 89.2553 300.242 89.3253 300.009 89.4653C299.785 89.596 299.673 89.7826 299.673 90.0253C299.673 90.2493 299.78 90.422 299.995 90.5433C300.219 90.6553 300.587 90.7813 301.101 90.9213L301.409 91.0053C301.903 91.1546 302.319 91.3086 302.655 91.4673C302.991 91.6166 303.275 91.8313 303.509 92.1113C303.742 92.382 303.859 92.7366 303.859 93.1753C303.859 93.838 303.597 94.3606 303.075 94.7433C302.552 95.1166 301.857 95.3033 300.989 95.3033Z" fill="white"/>
<circle cx="243.605" cy="175.83" r="6.43724" fill="#20263D"/>
<circle cx="243.605" cy="175.83" r="5.43724" stroke="white" stroke-opacity="0.5" stroke-width="2"/>
<line opacity="0.5" x1="188.763" y1="176.625" x2="188.763" y2="127.709" stroke="white" stroke-width="2"/>
<rect x="163.879" y="109.234" width="90.6606" height="32.0729" fill="url(#paint1_linear)"/>
<path opacity="0.8" d="M173.851 124.338C173.795 124.366 173.795 124.394 173.851 124.422C174.803 124.87 175.279 125.64 175.279 126.732C175.279 127.619 174.98 128.295 174.383 128.762C173.795 129.219 173.025 129.448 172.073 129.448H168.545C168.498 129.448 168.456 129.434 168.419 129.406C168.391 129.369 168.377 129.327 168.377 129.28V119.816C168.377 119.769 168.391 119.732 168.419 119.704C168.456 119.667 168.498 119.648 168.545 119.648H171.961C172.978 119.648 173.762 119.867 174.313 120.306C174.864 120.745 175.139 121.407 175.139 122.294C175.139 123.274 174.71 123.955 173.851 124.338ZM170.071 121.048C170.024 121.048 170.001 121.071 170.001 121.118V123.708C170.001 123.755 170.024 123.778 170.071 123.778H171.961C172.456 123.778 172.843 123.661 173.123 123.428C173.412 123.185 173.557 122.854 173.557 122.434C173.557 122.005 173.412 121.669 173.123 121.426C172.843 121.174 172.456 121.048 171.961 121.048H170.071ZM172.073 128.034C172.558 128.034 172.941 127.903 173.221 127.642C173.51 127.381 173.655 127.026 173.655 126.578C173.655 126.121 173.51 125.766 173.221 125.514C172.932 125.253 172.54 125.122 172.045 125.122H170.071C170.024 125.122 170.001 125.145 170.001 125.192V127.964C170.001 128.011 170.024 128.034 170.071 128.034H172.073ZM182.966 125.066C183.003 125.299 183.022 125.561 183.022 125.85L183.008 126.284C183.008 126.396 182.952 126.452 182.84 126.452H178.458C178.411 126.452 178.388 126.475 178.388 126.522C178.416 126.83 178.458 127.04 178.514 127.152C178.738 127.824 179.284 128.165 180.152 128.174C180.787 128.174 181.291 127.913 181.664 127.39C181.701 127.334 181.748 127.306 181.804 127.306C181.841 127.306 181.874 127.32 181.902 127.348L182.77 128.062C182.854 128.127 182.868 128.202 182.812 128.286C182.523 128.697 182.135 129.014 181.65 129.238C181.174 129.462 180.642 129.574 180.054 129.574C179.326 129.574 178.705 129.411 178.192 129.084C177.688 128.757 177.319 128.3 177.086 127.712C176.871 127.208 176.764 126.508 176.764 125.612C176.764 125.071 176.82 124.632 176.932 124.296C177.119 123.643 177.469 123.129 177.982 122.756C178.505 122.373 179.13 122.182 179.858 122.182C181.697 122.182 182.733 123.143 182.966 125.066ZM179.858 123.582C179.513 123.582 179.223 123.671 178.99 123.848C178.766 124.016 178.607 124.254 178.514 124.562C178.458 124.721 178.421 124.926 178.402 125.178C178.383 125.225 178.402 125.248 178.458 125.248H181.3C181.347 125.248 181.37 125.225 181.37 125.178C181.351 124.945 181.323 124.767 181.286 124.646C181.202 124.31 181.034 124.049 180.782 123.862C180.539 123.675 180.231 123.582 179.858 123.582ZM188.164 123.442C188.164 123.489 188.145 123.531 188.108 123.568C188.08 123.596 188.042 123.61 187.996 123.61H186.568C186.521 123.61 186.498 123.633 186.498 123.68V127.054C186.498 127.409 186.572 127.665 186.722 127.824C186.88 127.983 187.128 128.062 187.464 128.062H187.884C187.93 128.062 187.968 128.081 187.996 128.118C188.033 128.146 188.052 128.183 188.052 128.23V129.28C188.052 129.383 187.996 129.443 187.884 129.462L187.156 129.476C186.418 129.476 185.868 129.35 185.504 129.098C185.14 128.846 184.953 128.37 184.944 127.67V123.68C184.944 123.633 184.92 123.61 184.874 123.61H184.076C184.029 123.61 183.987 123.596 183.95 123.568C183.922 123.531 183.908 123.489 183.908 123.442V122.462C183.908 122.415 183.922 122.378 183.95 122.35C183.987 122.313 184.029 122.294 184.076 122.294H184.874C184.92 122.294 184.944 122.271 184.944 122.224V120.586C184.944 120.539 184.958 120.502 184.986 120.474C185.023 120.437 185.065 120.418 185.112 120.418H186.33C186.376 120.418 186.414 120.437 186.442 120.474C186.479 120.502 186.498 120.539 186.498 120.586V122.224C186.498 122.271 186.521 122.294 186.568 122.294H187.996C188.042 122.294 188.08 122.313 188.108 122.35C188.145 122.378 188.164 122.415 188.164 122.462V123.442ZM192.336 122.182C192.924 122.182 193.442 122.285 193.89 122.49C194.338 122.695 194.683 122.98 194.926 123.344C195.169 123.699 195.29 124.105 195.29 124.562V129.28C195.29 129.327 195.271 129.369 195.234 129.406C195.206 129.434 195.169 129.448 195.122 129.448H193.834C193.787 129.448 193.745 129.434 193.708 129.406C193.68 129.369 193.666 129.327 193.666 129.28V128.832C193.666 128.804 193.657 128.79 193.638 128.79C193.619 128.781 193.601 128.785 193.582 128.804C193.125 129.308 192.462 129.56 191.594 129.56C190.894 129.56 190.315 129.383 189.858 129.028C189.41 128.673 189.186 128.146 189.186 127.446C189.186 126.718 189.438 126.153 189.942 125.752C190.455 125.341 191.174 125.136 192.098 125.136H193.596C193.643 125.136 193.666 125.113 193.666 125.066V124.73C193.666 124.366 193.559 124.086 193.344 123.89C193.129 123.685 192.807 123.582 192.378 123.582C192.023 123.582 191.734 123.647 191.51 123.778C191.295 123.899 191.16 124.072 191.104 124.296C191.076 124.408 191.011 124.455 190.908 124.436L189.55 124.268C189.503 124.259 189.461 124.245 189.424 124.226C189.396 124.198 189.387 124.165 189.396 124.128C189.471 123.559 189.774 123.092 190.306 122.728C190.847 122.364 191.524 122.182 192.336 122.182ZM192 128.272C192.457 128.272 192.849 128.151 193.176 127.908C193.503 127.665 193.666 127.357 193.666 126.984V126.326C193.666 126.279 193.643 126.256 193.596 126.256H192.42C191.925 126.256 191.533 126.349 191.244 126.536C190.964 126.723 190.824 126.989 190.824 127.334C190.824 127.633 190.931 127.866 191.146 128.034C191.37 128.193 191.655 128.272 192 128.272ZM205.575 119.816C205.575 119.769 205.589 119.732 205.617 119.704C205.654 119.667 205.696 119.648 205.743 119.648H207.031C207.078 119.648 207.115 119.667 207.143 119.704C207.18 119.732 207.199 119.769 207.199 119.816V129.28C207.199 129.327 207.18 129.369 207.143 129.406C207.115 129.434 207.078 129.448 207.031 129.448H205.785C205.692 129.448 205.626 129.411 205.589 129.336L201.557 122.728C201.538 122.7 201.52 122.691 201.501 122.7C201.482 122.7 201.473 122.719 201.473 122.756L201.501 129.28C201.501 129.327 201.482 129.369 201.445 129.406C201.417 129.434 201.38 129.448 201.333 129.448H200.045C199.998 129.448 199.956 129.434 199.919 129.406C199.891 129.369 199.877 129.327 199.877 129.28V119.816C199.877 119.769 199.891 119.732 199.919 119.704C199.956 119.667 199.998 119.648 200.045 119.648H201.291C201.384 119.648 201.45 119.685 201.487 119.76L205.505 126.368C205.524 126.396 205.542 126.41 205.561 126.41C205.58 126.401 205.589 126.377 205.589 126.34L205.575 119.816ZM215.122 125.066C215.16 125.299 215.178 125.561 215.178 125.85L215.164 126.284C215.164 126.396 215.108 126.452 214.996 126.452H210.614C210.568 126.452 210.544 126.475 210.544 126.522C210.572 126.83 210.614 127.04 210.67 127.152C210.894 127.824 211.44 128.165 212.308 128.174C212.943 128.174 213.447 127.913 213.82 127.39C213.858 127.334 213.904 127.306 213.96 127.306C213.998 127.306 214.03 127.32 214.058 127.348L214.926 128.062C215.01 128.127 215.024 128.202 214.968 128.286C214.679 128.697 214.292 129.014 213.806 129.238C213.33 129.462 212.798 129.574 212.21 129.574C211.482 129.574 210.862 129.411 210.348 129.084C209.844 128.757 209.476 128.3 209.242 127.712C209.028 127.208 208.92 126.508 208.92 125.612C208.92 125.071 208.976 124.632 209.088 124.296C209.275 123.643 209.625 123.129 210.138 122.756C210.661 122.373 211.286 122.182 212.014 122.182C213.853 122.182 214.889 123.143 215.122 125.066ZM212.014 123.582C211.669 123.582 211.38 123.671 211.146 123.848C210.922 124.016 210.764 124.254 210.67 124.562C210.614 124.721 210.577 124.926 210.558 125.178C210.54 125.225 210.558 125.248 210.614 125.248H213.456C213.503 125.248 213.526 125.225 213.526 125.178C213.508 124.945 213.48 124.767 213.442 124.646C213.358 124.31 213.19 124.049 212.938 123.862C212.696 123.675 212.388 123.582 212.014 123.582ZM220.32 123.442C220.32 123.489 220.301 123.531 220.264 123.568C220.236 123.596 220.198 123.61 220.152 123.61H218.724C218.677 123.61 218.654 123.633 218.654 123.68V127.054C218.654 127.409 218.728 127.665 218.878 127.824C219.036 127.983 219.284 128.062 219.62 128.062H220.04C220.086 128.062 220.124 128.081 220.152 128.118C220.189 128.146 220.208 128.183 220.208 128.23V129.28C220.208 129.383 220.152 129.443 220.04 129.462L219.312 129.476C218.574 129.476 218.024 129.35 217.66 129.098C217.296 128.846 217.109 128.37 217.1 127.67V123.68C217.1 123.633 217.076 123.61 217.03 123.61H216.232C216.185 123.61 216.143 123.596 216.106 123.568C216.078 123.531 216.064 123.489 216.064 123.442V122.462C216.064 122.415 216.078 122.378 216.106 122.35C216.143 122.313 216.185 122.294 216.232 122.294H217.03C217.076 122.294 217.1 122.271 217.1 122.224V120.586C217.1 120.539 217.114 120.502 217.142 120.474C217.179 120.437 217.221 120.418 217.268 120.418H218.486C218.532 120.418 218.57 120.437 218.598 120.474C218.635 120.502 218.654 120.539 218.654 120.586V122.224C218.654 122.271 218.677 122.294 218.724 122.294H220.152C220.198 122.294 220.236 122.313 220.264 122.35C220.301 122.378 220.32 122.415 220.32 122.462V123.442ZM223.456 129.448C223.353 129.448 223.288 129.401 223.26 129.308L221.258 122.476L221.244 122.42C221.244 122.327 221.295 122.28 221.398 122.28H222.728C222.831 122.28 222.896 122.327 222.924 122.42L224.086 127.096C224.095 127.124 224.109 127.138 224.128 127.138C224.147 127.138 224.161 127.124 224.17 127.096L225.388 122.42C225.416 122.327 225.481 122.28 225.584 122.28H226.746C226.849 122.28 226.914 122.327 226.942 122.42L228.188 127.096C228.197 127.124 228.211 127.138 228.23 127.138C228.249 127.138 228.263 127.124 228.272 127.096L229.518 122.42C229.546 122.327 229.611 122.28 229.714 122.28L231.03 122.308C231.086 122.308 231.123 122.327 231.142 122.364C231.17 122.392 231.179 122.434 231.17 122.49L229.154 129.308C229.126 129.401 229.065 129.448 228.972 129.448H227.628C227.525 129.448 227.46 129.401 227.432 129.308L226.2 125.038C226.191 125.01 226.177 124.996 226.158 124.996C226.139 124.996 226.125 125.01 226.116 125.038L224.982 129.308C224.954 129.401 224.889 129.448 224.786 129.448H223.456ZM235.068 129.56C234.33 129.56 233.696 129.373 233.164 129C232.641 128.627 232.272 128.109 232.058 127.446C231.899 126.942 231.82 126.41 231.82 125.85C231.82 125.253 231.894 124.721 232.044 124.254C232.258 123.601 232.632 123.092 233.164 122.728C233.696 122.364 234.335 122.182 235.082 122.182C235.791 122.182 236.402 122.364 236.916 122.728C237.438 123.092 237.807 123.596 238.022 124.24C238.19 124.688 238.274 125.22 238.274 125.836C238.274 126.424 238.194 126.956 238.036 127.432C237.821 128.095 237.452 128.617 236.93 129C236.407 129.373 235.786 129.56 235.068 129.56ZM235.068 128.16C235.413 128.16 235.707 128.062 235.95 127.866C236.202 127.67 236.384 127.395 236.496 127.04C236.589 126.732 236.636 126.34 236.636 125.864C236.636 125.36 236.589 124.968 236.496 124.688C236.393 124.333 236.216 124.063 235.964 123.876C235.712 123.68 235.404 123.582 235.04 123.582C234.694 123.582 234.396 123.68 234.144 123.876C233.892 124.063 233.71 124.333 233.598 124.688C233.504 125.015 233.458 125.407 233.458 125.864C233.458 126.321 233.504 126.713 233.598 127.04C233.7 127.395 233.878 127.67 234.13 127.866C234.391 128.062 234.704 128.16 235.068 128.16ZM243.141 122.21C243.44 122.21 243.701 122.271 243.925 122.392C244 122.429 244.028 122.499 244.009 122.602L243.771 123.862C243.762 123.974 243.696 124.007 243.575 123.96C243.435 123.913 243.272 123.89 243.085 123.89C242.964 123.89 242.87 123.895 242.805 123.904C242.413 123.923 242.086 124.063 241.825 124.324C241.564 124.576 241.433 124.907 241.433 125.318V129.28C241.433 129.327 241.414 129.369 241.377 129.406C241.349 129.434 241.312 129.448 241.265 129.448H239.977C239.93 129.448 239.888 129.434 239.851 129.406C239.823 129.369 239.809 129.327 239.809 129.28V122.462C239.809 122.415 239.823 122.378 239.851 122.35C239.888 122.313 239.93 122.294 239.977 122.294H241.265C241.312 122.294 241.349 122.313 241.377 122.35C241.414 122.378 241.433 122.415 241.433 122.462V123.092C241.433 123.129 241.438 123.153 241.447 123.162C241.466 123.162 241.484 123.148 241.503 123.12C241.895 122.513 242.441 122.21 243.141 122.21ZM245.241 129.448C245.194 129.448 245.152 129.434 245.115 129.406C245.087 129.369 245.073 129.327 245.073 129.28V119.816C245.073 119.769 245.087 119.732 245.115 119.704C245.152 119.667 245.194 119.648 245.241 119.648H246.529C246.575 119.648 246.613 119.667 246.641 119.704C246.678 119.732 246.697 119.769 246.697 119.816V124.87C246.697 124.898 246.706 124.917 246.725 124.926C246.743 124.935 246.762 124.926 246.781 124.898L249.049 122.392C249.114 122.327 249.184 122.294 249.259 122.294H250.743C250.836 122.294 250.883 122.327 250.883 122.392C250.883 122.42 250.869 122.457 250.841 122.504L249.063 124.632C249.035 124.66 249.03 124.693 249.049 124.73L251.149 129.252C251.167 129.289 251.177 129.317 251.177 129.336C251.177 129.411 251.125 129.448 251.023 129.448H249.665C249.571 129.448 249.506 129.406 249.469 129.322L247.943 125.766C247.933 125.747 247.915 125.738 247.887 125.738C247.868 125.729 247.854 125.733 247.845 125.752L246.725 127.04C246.706 127.077 246.697 127.11 246.697 127.138V129.28C246.697 129.327 246.678 129.369 246.641 129.406C246.613 129.434 246.575 129.448 246.529 129.448H245.241Z" fill="white"/>
<circle cx="188.857" cy="175.83" r="6.43724" fill="#20263D"/>
<circle cx="188.857" cy="175.83" r="5.43724" stroke="white" stroke-opacity="0.5" stroke-width="2"/>
<line opacity="0.5" x1="149.784" y1="176.625" x2="149.784" y2="60.6614" stroke="white" stroke-width="2"/>
<rect x="122.933" y="40.644" width="90.6606" height="32.0729" fill="url(#paint2_linear)"/>
<path opacity="0.8" d="M126.732 50.8614C126.779 50.8614 126.816 50.8801 126.844 50.9174C126.881 50.9454 126.9 50.9827 126.9 51.0294V52.1074C126.9 52.1541 126.881 52.1961 126.844 52.2334C126.816 52.2614 126.779 52.2754 126.732 52.2754H124.156C124.109 52.2754 124.086 52.2987 124.086 52.3454V60.4934C124.086 60.5401 124.067 60.5821 124.03 60.6194C124.002 60.6474 123.965 60.6614 123.918 60.6614H122.63C122.583 60.6614 122.541 60.6474 122.504 60.6194C122.476 60.5821 122.462 60.5401 122.462 60.4934V52.3454C122.462 52.2987 122.439 52.2754 122.392 52.2754H119.914C119.867 52.2754 119.825 52.2614 119.788 52.2334C119.76 52.1961 119.746 52.1541 119.746 52.1074V51.0294C119.746 50.9827 119.76 50.9454 119.788 50.9174C119.825 50.8801 119.867 50.8614 119.914 50.8614H126.732ZM133.172 56.2794C133.209 56.5127 133.228 56.7741 133.228 57.0634L133.214 57.4974C133.214 57.6094 133.158 57.6654 133.046 57.6654H128.664C128.617 57.6654 128.594 57.6887 128.594 57.7354C128.622 58.0434 128.664 58.2534 128.72 58.3654C128.944 59.0374 129.49 59.3781 130.358 59.3874C130.993 59.3874 131.497 59.1261 131.87 58.6034C131.907 58.5474 131.954 58.5194 132.01 58.5194C132.047 58.5194 132.08 58.5334 132.108 58.5614L132.976 59.2754C133.06 59.3407 133.074 59.4154 133.018 59.4994C132.729 59.9101 132.341 60.2274 131.856 60.4514C131.38 60.6754 130.848 60.7874 130.26 60.7874C129.532 60.7874 128.911 60.6241 128.398 60.2974C127.894 59.9707 127.525 59.5134 127.292 58.9254C127.077 58.4214 126.97 57.7214 126.97 56.8254C126.97 56.2841 127.026 55.8454 127.138 55.5094C127.325 54.8561 127.675 54.3427 128.188 53.9694C128.711 53.5867 129.336 53.3954 130.064 53.3954C131.903 53.3954 132.939 54.3567 133.172 56.2794ZM130.064 54.7954C129.719 54.7954 129.429 54.8841 129.196 55.0614C128.972 55.2294 128.813 55.4674 128.72 55.7754C128.664 55.9341 128.627 56.1394 128.608 56.3914C128.589 56.4381 128.608 56.4614 128.664 56.4614H131.506C131.553 56.4614 131.576 56.4381 131.576 56.3914C131.557 56.1581 131.529 55.9807 131.492 55.8594C131.408 55.5234 131.24 55.2621 130.988 55.0754C130.745 54.8887 130.437 54.7954 130.064 54.7954ZM137.263 60.7454C136.675 60.7454 136.157 60.6614 135.709 60.4934C135.27 60.3161 134.929 60.0781 134.687 59.7794C134.444 59.4714 134.323 59.1307 134.323 58.7574V58.6314C134.323 58.5847 134.337 58.5474 134.365 58.5194C134.402 58.4821 134.444 58.4634 134.491 58.4634H135.723C135.769 58.4634 135.807 58.4821 135.835 58.5194C135.872 58.5474 135.891 58.5847 135.891 58.6314V58.6594C135.891 58.8927 136.017 59.0981 136.269 59.2754C136.53 59.4434 136.857 59.5274 137.249 59.5274C137.622 59.5274 137.925 59.4527 138.159 59.3034C138.392 59.1447 138.509 58.9487 138.509 58.7154C138.509 58.5007 138.411 58.3421 138.215 58.2394C138.028 58.1274 137.72 58.0107 137.291 57.8894L136.759 57.7214C136.283 57.5814 135.881 57.4321 135.555 57.2734C135.228 57.1147 134.953 56.9001 134.729 56.6294C134.505 56.3494 134.393 55.9947 134.393 55.5654C134.393 54.9121 134.649 54.3941 135.163 54.0114C135.676 53.6194 136.353 53.4234 137.193 53.4234C137.762 53.4234 138.261 53.5167 138.691 53.7034C139.12 53.8807 139.451 54.1327 139.685 54.4594C139.918 54.7767 140.035 55.1407 140.035 55.5514C140.035 55.5981 140.016 55.6401 139.979 55.6774C139.951 55.7054 139.913 55.7194 139.867 55.7194H138.677C138.63 55.7194 138.588 55.7054 138.551 55.6774C138.523 55.6401 138.509 55.5981 138.509 55.5514C138.509 55.3087 138.387 55.1081 138.145 54.9494C137.911 54.7814 137.589 54.6974 137.179 54.6974C136.815 54.6974 136.516 54.7674 136.283 54.9074C136.059 55.0381 135.947 55.2247 135.947 55.4674C135.947 55.6914 136.054 55.8641 136.269 55.9854C136.493 56.0974 136.861 56.2234 137.375 56.3634L137.683 56.4474C138.177 56.5967 138.593 56.7507 138.929 56.9094C139.265 57.0587 139.549 57.2734 139.783 57.5534C140.016 57.8241 140.133 58.1787 140.133 58.6174C140.133 59.2801 139.871 59.8027 139.349 60.1854C138.826 60.5587 138.131 60.7454 137.263 60.7454ZM145.287 54.6554C145.287 54.7021 145.269 54.7441 145.231 54.7814C145.203 54.8094 145.166 54.8234 145.119 54.8234H143.691C143.645 54.8234 143.621 54.8467 143.621 54.8934V58.2674C143.621 58.6221 143.696 58.8787 143.845 59.0374C144.004 59.1961 144.251 59.2754 144.587 59.2754H145.007C145.054 59.2754 145.091 59.2941 145.119 59.3314C145.157 59.3594 145.175 59.3967 145.175 59.4434V60.4934C145.175 60.5961 145.119 60.6567 145.007 60.6754L144.279 60.6894C143.542 60.6894 142.991 60.5634 142.627 60.3114C142.263 60.0594 142.077 59.5834 142.067 58.8834V54.8934C142.067 54.8467 142.044 54.8234 141.997 54.8234H141.199C141.153 54.8234 141.111 54.8094 141.073 54.7814C141.045 54.7441 141.031 54.7021 141.031 54.6554V53.6754C141.031 53.6287 141.045 53.5914 141.073 53.5634C141.111 53.5261 141.153 53.5074 141.199 53.5074H141.997C142.044 53.5074 142.067 53.4841 142.067 53.4374V51.7994C142.067 51.7527 142.081 51.7154 142.109 51.6874C142.147 51.6501 142.189 51.6314 142.235 51.6314H143.453C143.5 51.6314 143.537 51.6501 143.565 51.6874C143.603 51.7154 143.621 51.7527 143.621 51.7994V53.4374C143.621 53.4841 143.645 53.5074 143.691 53.5074H145.119C145.166 53.5074 145.203 53.5261 145.231 53.5634C145.269 53.5914 145.287 53.6287 145.287 53.6754V54.6554ZM149.854 60.6614C149.808 60.6614 149.766 60.6474 149.728 60.6194C149.7 60.5821 149.686 60.5401 149.686 60.4934V51.0294C149.686 50.9827 149.7 50.9454 149.728 50.9174C149.766 50.8801 149.808 50.8614 149.854 50.8614H153.27C153.933 50.8614 154.516 50.9781 155.02 51.2114C155.524 51.4447 155.912 51.7807 156.182 52.2194C156.462 52.6487 156.602 53.1527 156.602 53.7314V57.7914C156.602 58.3701 156.462 58.8787 156.182 59.3174C155.912 59.7467 155.524 60.0781 155.02 60.3114C154.516 60.5447 153.933 60.6614 153.27 60.6614H149.854ZM151.31 59.1914C151.31 59.2381 151.334 59.2614 151.38 59.2614H153.34C153.835 59.2614 154.227 59.1074 154.516 58.7994C154.815 58.4821 154.969 58.0621 154.978 57.5394V53.9974C154.978 53.4654 154.829 53.0454 154.53 52.7374C154.232 52.4201 153.83 52.2614 153.326 52.2614H151.38C151.334 52.2614 151.31 52.2847 151.31 52.3314V59.1914ZM164.977 52.0934C164.977 52.1401 164.958 52.1821 164.921 52.2194C164.893 52.2474 164.855 52.2614 164.809 52.2614H160.035C159.988 52.2614 159.965 52.2847 159.965 52.3314V54.9494C159.965 54.9961 159.988 55.0194 160.035 55.0194H163.241C163.287 55.0194 163.325 55.0381 163.353 55.0754C163.39 55.1034 163.409 55.1407 163.409 55.1874V56.2514C163.409 56.2981 163.39 56.3401 163.353 56.3774C163.325 56.4054 163.287 56.4194 163.241 56.4194H160.035C159.988 56.4194 159.965 56.4427 159.965 56.4894V59.1914C159.965 59.2381 159.988 59.2614 160.035 59.2614H164.809C164.855 59.2614 164.893 59.2801 164.921 59.3174C164.958 59.3454 164.977 59.3827 164.977 59.4294V60.4934C164.977 60.5401 164.958 60.5821 164.921 60.6194C164.893 60.6474 164.855 60.6614 164.809 60.6614H158.509C158.462 60.6614 158.42 60.6474 158.383 60.6194C158.355 60.5821 158.341 60.5401 158.341 60.4934V51.0294C158.341 50.9827 158.355 50.9454 158.383 50.9174C158.42 50.8801 158.462 50.8614 158.509 50.8614H164.809C164.855 50.8614 164.893 50.8801 164.921 50.9174C164.958 50.9454 164.977 50.9827 164.977 51.0294V52.0934ZM166.22 60.6614C166.155 60.6614 166.108 60.6474 166.08 60.6194C166.061 60.5821 166.071 60.5307 166.108 60.4654L168.894 55.8034C168.913 55.7754 168.913 55.7474 168.894 55.7194L166.108 51.0574C166.089 51.0014 166.08 50.9687 166.08 50.9594C166.08 50.8941 166.127 50.8614 166.22 50.8614H167.62C167.723 50.8614 167.793 50.8987 167.83 50.9734L169.874 54.4454C169.902 54.5014 169.93 54.5014 169.958 54.4454L172.016 50.9734C172.053 50.8987 172.119 50.8614 172.212 50.8614H173.612C173.677 50.8614 173.719 50.8801 173.738 50.9174C173.766 50.9454 173.761 50.9921 173.724 51.0574L170.938 55.7194C170.929 55.7474 170.929 55.7754 170.938 55.8034L173.724 60.4654C173.743 60.5214 173.752 60.5541 173.752 60.5634C173.752 60.6287 173.705 60.6614 173.612 60.6614H172.212C172.119 60.6614 172.053 60.6241 172.016 60.5494L169.958 57.0914C169.93 57.0354 169.902 57.0354 169.874 57.0914L167.816 60.5494C167.779 60.6241 167.713 60.6614 167.62 60.6614H166.22Z" fill="white"/>
<circle cx="149.879" cy="175.83" r="6.43724" fill="#20263D"/>
<circle cx="149.879" cy="175.83" r="5.43724" stroke="white" stroke-opacity="0.5" stroke-width="2"/>
<line opacity="0.5" x1="104.454" y1="176.625" x2="104.454" y2="93.1925" stroke="white" stroke-width="2"/>
<rect x="77.6033" y="73.6828" width="75.7589" height="32.0729" fill="url(#paint3_linear)"/>
<path opacity="0.8" d="M88.9447 85.4193C88.9913 85.4193 89.0287 85.438 89.0567 85.4753C89.094 85.5033 89.1127 85.5406 89.1127 85.5873V86.6653C89.1127 86.712 89.094 86.754 89.0567 86.7913C89.0287 86.8193 88.9913 86.8333 88.9447 86.8333H86.3687C86.322 86.8333 86.2987 86.8566 86.2987 86.9033V95.0513C86.2987 95.098 86.28 95.14 86.2427 95.1773C86.2147 95.2053 86.1773 95.2193 86.1307 95.2193H84.8427C84.796 95.2193 84.754 95.2053 84.7167 95.1773C84.6887 95.14 84.6747 95.098 84.6747 95.0513V86.9033C84.6747 86.8566 84.6513 86.8333 84.6047 86.8333H82.1267C82.08 86.8333 82.038 86.8193 82.0007 86.7913C81.9727 86.754 81.9587 86.712 81.9587 86.6653V85.5873C81.9587 85.5406 81.9727 85.5033 82.0007 85.4753C82.038 85.438 82.08 85.4193 82.1267 85.4193H88.9447ZM95.3847 90.8373C95.422 91.0706 95.4407 91.332 95.4407 91.6213L95.4267 92.0553C95.4267 92.1673 95.3707 92.2233 95.2587 92.2233H90.8767C90.83 92.2233 90.8067 92.2466 90.8067 92.2933C90.8347 92.6013 90.8767 92.8113 90.9327 92.9233C91.1567 93.5953 91.7027 93.936 92.5707 93.9453C93.2053 93.9453 93.7093 93.684 94.0827 93.1613C94.12 93.1053 94.1667 93.0773 94.2227 93.0773C94.26 93.0773 94.2927 93.0913 94.3207 93.1193L95.1887 93.8333C95.2727 93.8986 95.2867 93.9733 95.2307 94.0573C94.9413 94.468 94.554 94.7853 94.0687 95.0093C93.5927 95.2333 93.0607 95.3453 92.4727 95.3453C91.7447 95.3453 91.124 95.182 90.6107 94.8553C90.1067 94.5286 89.738 94.0713 89.5047 93.4833C89.29 92.9793 89.1827 92.2793 89.1827 91.3833C89.1827 90.842 89.2387 90.4033 89.3507 90.0673C89.5373 89.414 89.8873 88.9006 90.4007 88.5273C90.9233 88.1446 91.5487 87.9533 92.2767 87.9533C94.1153 87.9533 95.1513 88.9146 95.3847 90.8373ZM92.2767 89.3533C91.9313 89.3533 91.642 89.442 91.4087 89.6193C91.1847 89.7873 91.026 90.0253 90.9327 90.3333C90.8767 90.492 90.8393 90.6973 90.8207 90.9493C90.802 90.996 90.8207 91.0193 90.8767 91.0193H93.7187C93.7653 91.0193 93.7887 90.996 93.7887 90.9493C93.77 90.716 93.742 90.5386 93.7047 90.4173C93.6207 90.0813 93.4527 89.82 93.2007 89.6333C92.958 89.4466 92.65 89.3533 92.2767 89.3533ZM99.4755 95.3033C98.8875 95.3033 98.3695 95.2193 97.9215 95.0513C97.4828 94.874 97.1422 94.636 96.8995 94.3373C96.6568 94.0293 96.5355 93.6886 96.5355 93.3153V93.1893C96.5355 93.1426 96.5495 93.1053 96.5775 93.0773C96.6148 93.04 96.6568 93.0213 96.7035 93.0213H97.9355C97.9822 93.0213 98.0195 93.04 98.0475 93.0773C98.0848 93.1053 98.1035 93.1426 98.1035 93.1893V93.2173C98.1035 93.4506 98.2295 93.656 98.4815 93.8333C98.7428 94.0013 99.0695 94.0853 99.4615 94.0853C99.8348 94.0853 100.138 94.0106 100.372 93.8613C100.605 93.7026 100.722 93.5066 100.722 93.2733C100.722 93.0586 100.624 92.9 100.428 92.7973C100.241 92.6853 99.9328 92.5686 99.5035 92.4473L98.9715 92.2793C98.4955 92.1393 98.0942 91.99 97.7675 91.8313C97.4408 91.6726 97.1655 91.458 96.9415 91.1873C96.7175 90.9073 96.6055 90.5526 96.6055 90.1233C96.6055 89.47 96.8622 88.952 97.3755 88.5693C97.8888 88.1773 98.5655 87.9813 99.4055 87.9813C99.9748 87.9813 100.474 88.0746 100.904 88.2613C101.333 88.4386 101.664 88.6906 101.898 89.0173C102.131 89.3346 102.248 89.6986 102.248 90.1093C102.248 90.156 102.229 90.198 102.192 90.2353C102.164 90.2633 102.126 90.2773 102.08 90.2773H100.89C100.843 90.2773 100.801 90.2633 100.764 90.2353C100.736 90.198 100.722 90.156 100.722 90.1093C100.722 89.8666 100.6 89.666 100.358 89.5073C100.124 89.3393 99.8022 89.2553 99.3915 89.2553C99.0275 89.2553 98.7288 89.3253 98.4955 89.4653C98.2715 89.596 98.1595 89.7826 98.1595 90.0253C98.1595 90.2493 98.2668 90.422 98.4815 90.5433C98.7055 90.6553 99.0742 90.7813 99.5875 90.9213L99.8955 91.0053C100.39 91.1546 100.806 91.3086 101.142 91.4673C101.478 91.6166 101.762 91.8313 101.996 92.1113C102.229 92.382 102.346 92.7366 102.346 93.1753C102.346 93.838 102.084 94.3606 101.562 94.7433C101.039 95.1166 100.344 95.3033 99.4755 95.3033ZM107.5 89.2133C107.5 89.26 107.481 89.302 107.444 89.3393C107.416 89.3673 107.379 89.3813 107.332 89.3813H105.904C105.857 89.3813 105.834 89.4046 105.834 89.4513V92.8253C105.834 93.18 105.909 93.4366 106.058 93.5953C106.217 93.754 106.464 93.8333 106.8 93.8333H107.22C107.267 93.8333 107.304 93.852 107.332 93.8893C107.369 93.9173 107.388 93.9546 107.388 94.0013V95.0513C107.388 95.154 107.332 95.2146 107.22 95.2333L106.492 95.2473C105.755 95.2473 105.204 95.1213 104.84 94.8693C104.476 94.6173 104.289 94.1413 104.28 93.4413V89.4513C104.28 89.4046 104.257 89.3813 104.21 89.3813H103.412C103.365 89.3813 103.323 89.3673 103.286 89.3393C103.258 89.302 103.244 89.26 103.244 89.2133V88.2333C103.244 88.1866 103.258 88.1493 103.286 88.1213C103.323 88.084 103.365 88.0653 103.412 88.0653H104.21C104.257 88.0653 104.28 88.042 104.28 87.9953V86.3573C104.28 86.3106 104.294 86.2733 104.322 86.2453C104.359 86.208 104.401 86.1893 104.448 86.1893H105.666C105.713 86.1893 105.75 86.208 105.778 86.2453C105.815 86.2733 105.834 86.3106 105.834 86.3573V87.9953C105.834 88.042 105.857 88.0653 105.904 88.0653H107.332C107.379 88.0653 107.416 88.084 107.444 88.1213C107.481 88.1493 107.5 88.1866 107.5 88.2333V89.2133ZM113.985 95.2193C113.883 95.2193 113.817 95.1726 113.789 95.0793L111.241 85.6013L111.227 85.5453C111.227 85.4613 111.279 85.4193 111.381 85.4193H112.753C112.856 85.4193 112.921 85.466 112.949 85.5593L114.545 91.9433C114.555 91.9713 114.569 91.9853 114.587 91.9853C114.606 91.9853 114.62 91.9713 114.629 91.9433L116.155 85.5593C116.183 85.466 116.244 85.4193 116.337 85.4193H117.681C117.784 85.4193 117.849 85.466 117.877 85.5593L119.501 91.9573C119.511 91.9853 119.525 91.9993 119.543 91.9993C119.562 91.9993 119.576 91.9853 119.585 91.9573L121.153 85.5593C121.181 85.466 121.247 85.4193 121.349 85.4193H122.651C122.782 85.4193 122.833 85.48 122.805 85.6013L120.383 95.0793C120.355 95.1726 120.29 95.2193 120.187 95.2193H118.885C118.783 95.2193 118.717 95.1726 118.689 95.0793L117.051 88.4013C117.042 88.3733 117.028 88.3593 117.009 88.3593C116.991 88.35 116.977 88.364 116.967 88.4013L115.399 95.0793C115.371 95.1726 115.311 95.2193 115.217 95.2193H113.985ZM125.987 87.9533C126.575 87.9533 127.093 88.056 127.541 88.2613C127.989 88.4666 128.334 88.7513 128.577 89.1153C128.82 89.47 128.941 89.876 128.941 90.3333V95.0513C128.941 95.098 128.922 95.14 128.885 95.1773C128.857 95.2053 128.82 95.2193 128.773 95.2193H127.485C127.438 95.2193 127.396 95.2053 127.359 95.1773C127.331 95.14 127.317 95.098 127.317 95.0513V94.6033C127.317 94.5753 127.308 94.5613 127.289 94.5613C127.27 94.552 127.252 94.5566 127.233 94.5753C126.776 95.0793 126.113 95.3313 125.245 95.3313C124.545 95.3313 123.966 95.154 123.509 94.7993C123.061 94.4446 122.837 93.9173 122.837 93.2173C122.837 92.4893 123.089 91.9246 123.593 91.5233C124.106 91.1126 124.825 90.9073 125.749 90.9073H127.247C127.294 90.9073 127.317 90.884 127.317 90.8373V90.5013C127.317 90.1373 127.21 89.8573 126.995 89.6613C126.78 89.456 126.458 89.3533 126.029 89.3533C125.674 89.3533 125.385 89.4186 125.161 89.5493C124.946 89.6706 124.811 89.8433 124.755 90.0673C124.727 90.1793 124.662 90.226 124.559 90.2073L123.201 90.0393C123.154 90.03 123.112 90.016 123.075 89.9973C123.047 89.9693 123.038 89.9366 123.047 89.8993C123.122 89.33 123.425 88.8633 123.957 88.4993C124.498 88.1353 125.175 87.9533 125.987 87.9533ZM125.651 94.0433C126.108 94.0433 126.5 93.922 126.827 93.6793C127.154 93.4366 127.317 93.1286 127.317 92.7553V92.0973C127.317 92.0506 127.294 92.0273 127.247 92.0273H126.071C125.576 92.0273 125.184 92.1206 124.895 92.3073C124.615 92.494 124.475 92.76 124.475 93.1053C124.475 93.404 124.582 93.6373 124.797 93.8053C125.021 93.964 125.306 94.0433 125.651 94.0433ZM130.739 95.2193C130.693 95.2193 130.651 95.2053 130.613 95.1773C130.585 95.14 130.571 95.098 130.571 95.0513V85.5873C130.571 85.5406 130.585 85.5033 130.613 85.4753C130.651 85.438 130.693 85.4193 130.739 85.4193H132.027C132.074 85.4193 132.111 85.438 132.139 85.4753C132.177 85.5033 132.195 85.5406 132.195 85.5873V95.0513C132.195 95.098 132.177 95.14 132.139 95.1773C132.111 95.2053 132.074 95.2193 132.027 95.2193H130.739ZM134.089 95.2193C134.042 95.2193 134 95.2053 133.963 95.1773C133.935 95.14 133.921 95.098 133.921 95.0513V85.5873C133.921 85.5406 133.935 85.5033 133.963 85.4753C134 85.438 134.042 85.4193 134.089 85.4193H135.377C135.424 85.4193 135.461 85.438 135.489 85.4753C135.526 85.5033 135.545 85.5406 135.545 85.5873V95.0513C135.545 95.098 135.526 95.14 135.489 95.1773C135.461 95.2053 135.424 95.2193 135.377 95.2193H134.089ZM143.305 90.8373C143.342 91.0706 143.361 91.332 143.361 91.6213L143.347 92.0553C143.347 92.1673 143.291 92.2233 143.179 92.2233H138.797C138.75 92.2233 138.727 92.2466 138.727 92.2933C138.755 92.6013 138.797 92.8113 138.853 92.9233C139.077 93.5953 139.623 93.936 140.491 93.9453C141.125 93.9453 141.629 93.684 142.003 93.1613C142.04 93.1053 142.087 93.0773 142.143 93.0773C142.18 93.0773 142.213 93.0913 142.241 93.1193L143.109 93.8333C143.193 93.8986 143.207 93.9733 143.151 94.0573C142.861 94.468 142.474 94.7853 141.989 95.0093C141.513 95.2333 140.981 95.3453 140.393 95.3453C139.665 95.3453 139.044 95.182 138.531 94.8553C138.027 94.5286 137.658 94.0713 137.425 93.4833C137.21 92.9793 137.103 92.2793 137.103 91.3833C137.103 90.842 137.159 90.4033 137.271 90.0673C137.457 89.414 137.807 88.9006 138.321 88.5273C138.843 88.1446 139.469 87.9533 140.197 87.9533C142.035 87.9533 143.071 88.9146 143.305 90.8373ZM140.197 89.3533C139.851 89.3533 139.562 89.442 139.329 89.6193C139.105 89.7873 138.946 90.0253 138.853 90.3333C138.797 90.492 138.759 90.6973 138.741 90.9493C138.722 90.996 138.741 91.0193 138.797 91.0193H141.639C141.685 91.0193 141.709 90.996 141.709 90.9493C141.69 90.716 141.662 90.5386 141.625 90.4173C141.541 90.0813 141.373 89.82 141.121 89.6333C140.878 89.4466 140.57 89.3533 140.197 89.3533ZM148.502 89.2133C148.502 89.26 148.483 89.302 148.446 89.3393C148.418 89.3673 148.381 89.3813 148.334 89.3813H146.906C146.859 89.3813 146.836 89.4046 146.836 89.4513V92.8253C146.836 93.18 146.911 93.4366 147.06 93.5953C147.219 93.754 147.466 93.8333 147.802 93.8333H148.222C148.269 93.8333 148.306 93.852 148.334 93.8893C148.371 93.9173 148.39 93.9546 148.39 94.0013V95.0513C148.39 95.154 148.334 95.2146 148.222 95.2333L147.494 95.2473C146.757 95.2473 146.206 95.1213 145.842 94.8693C145.478 94.6173 145.291 94.1413 145.282 93.4413V89.4513C145.282 89.4046 145.259 89.3813 145.212 89.3813H144.414C144.367 89.3813 144.325 89.3673 144.288 89.3393C144.26 89.302 144.246 89.26 144.246 89.2133V88.2333C144.246 88.1866 144.26 88.1493 144.288 88.1213C144.325 88.084 144.367 88.0653 144.414 88.0653H145.212C145.259 88.0653 145.282 88.042 145.282 87.9953V86.3573C145.282 86.3106 145.296 86.2733 145.324 86.2453C145.361 86.208 145.403 86.1893 145.45 86.1893H146.668C146.715 86.1893 146.752 86.208 146.78 86.2453C146.817 86.2733 146.836 86.3106 146.836 86.3573V87.9953C146.836 88.042 146.859 88.0653 146.906 88.0653H148.334C148.381 88.0653 148.418 88.084 148.446 88.1213C148.483 88.1493 148.502 88.1866 148.502 88.2333V89.2133Z" fill="white"/>
<circle cx="104.549" cy="175.83" r="6.43724" fill="#20263D"/>
<circle cx="104.549" cy="175.83" r="5.43724" stroke="white" stroke-opacity="0.5" stroke-width="2"/>
<line opacity="0.5" x1="55.3536" y1="176.625" x2="55.3536" y2="134.13" stroke="white" stroke-width="2"/>
<rect x="30.4694" y="118.093" width="90.6606" height="32.0729" fill="url(#paint4_linear)"/>
<path opacity="0.8" d="M41.4078 128.507C41.4545 128.507 41.4918 128.526 41.5198 128.563C41.5571 128.591 41.5758 128.628 41.5758 128.675V129.753C41.5758 129.8 41.5571 129.842 41.5198 129.879C41.4918 129.907 41.4545 129.921 41.4078 129.921H38.8318C38.7851 129.921 38.7618 129.944 38.7618 129.991V138.139C38.7618 138.186 38.7431 138.228 38.7058 138.265C38.6778 138.293 38.6405 138.307 38.5938 138.307H37.3058C37.2591 138.307 37.2171 138.293 37.1798 138.265C37.1518 138.228 37.1378 138.186 37.1378 138.139V129.991C37.1378 129.944 37.1145 129.921 37.0678 129.921H34.5898C34.5431 129.921 34.5011 129.907 34.4638 129.879C34.4358 129.842 34.4218 129.8 34.4218 129.753V128.675C34.4218 128.628 34.4358 128.591 34.4638 128.563C34.5011 128.526 34.5431 128.507 34.5898 128.507H41.4078ZM47.8478 133.925C47.8851 134.158 47.9038 134.42 47.9038 134.709L47.8898 135.143C47.8898 135.255 47.8338 135.311 47.7218 135.311H43.3398C43.2931 135.311 43.2698 135.334 43.2698 135.381C43.2978 135.689 43.3398 135.899 43.3958 136.011C43.6198 136.683 44.1658 137.024 45.0338 137.033C45.6685 137.033 46.1725 136.772 46.5458 136.249C46.5831 136.193 46.6298 136.165 46.6858 136.165C46.7231 136.165 46.7558 136.179 46.7838 136.207L47.6518 136.921C47.7358 136.986 47.7498 137.061 47.6938 137.145C47.4045 137.556 47.0171 137.873 46.5318 138.097C46.0558 138.321 45.5238 138.433 44.9358 138.433C44.2078 138.433 43.5871 138.27 43.0738 137.943C42.5698 137.616 42.2011 137.159 41.9678 136.571C41.7531 136.067 41.6458 135.367 41.6458 134.471C41.6458 133.93 41.7018 133.491 41.8138 133.155C42.0005 132.502 42.3505 131.988 42.8638 131.615C43.3865 131.232 44.0118 131.041 44.7398 131.041C46.5785 131.041 47.6145 132.002 47.8478 133.925ZM44.7398 132.441C44.3945 132.441 44.1051 132.53 43.8718 132.707C43.6478 132.875 43.4891 133.113 43.3958 133.421C43.3398 133.58 43.3025 133.785 43.2838 134.037C43.2651 134.084 43.2838 134.107 43.3398 134.107H46.1818C46.2285 134.107 46.2518 134.084 46.2518 134.037C46.2331 133.804 46.2051 133.626 46.1678 133.505C46.0838 133.169 45.9158 132.908 45.6638 132.721C45.4211 132.534 45.1131 132.441 44.7398 132.441ZM51.9386 138.391C51.3506 138.391 50.8326 138.307 50.3846 138.139C49.946 137.962 49.6053 137.724 49.3626 137.425C49.12 137.117 48.9986 136.776 48.9986 136.403V136.277C48.9986 136.23 49.0126 136.193 49.0406 136.165C49.078 136.128 49.12 136.109 49.1666 136.109H50.3986C50.4453 136.109 50.4826 136.128 50.5106 136.165C50.548 136.193 50.5666 136.23 50.5666 136.277V136.305C50.5666 136.538 50.6926 136.744 50.9446 136.921C51.206 137.089 51.5326 137.173 51.9246 137.173C52.298 137.173 52.6013 137.098 52.8346 136.949C53.068 136.79 53.1846 136.594 53.1846 136.361C53.1846 136.146 53.0866 135.988 52.8906 135.885C52.704 135.773 52.396 135.656 51.9666 135.535L51.4346 135.367C50.9586 135.227 50.5573 135.078 50.2306 134.919C49.904 134.76 49.6286 134.546 49.4046 134.275C49.1806 133.995 49.0686 133.64 49.0686 133.211C49.0686 132.558 49.3253 132.04 49.8386 131.657C50.352 131.265 51.0286 131.069 51.8686 131.069C52.438 131.069 52.9373 131.162 53.3666 131.349C53.796 131.526 54.1273 131.778 54.3606 132.105C54.594 132.422 54.7106 132.786 54.7106 133.197C54.7106 133.244 54.692 133.286 54.6546 133.323C54.6266 133.351 54.5893 133.365 54.5426 133.365H53.3526C53.306 133.365 53.264 133.351 53.2266 133.323C53.1986 133.286 53.1846 133.244 53.1846 133.197C53.1846 132.954 53.0633 132.754 52.8206 132.595C52.5873 132.427 52.2653 132.343 51.8546 132.343C51.4906 132.343 51.192 132.413 50.9586 132.553C50.7346 132.684 50.6226 132.87 50.6226 133.113C50.6226 133.337 50.73 133.51 50.9446 133.631C51.1686 133.743 51.5373 133.869 52.0506 134.009L52.3586 134.093C52.8533 134.242 53.2686 134.396 53.6046 134.555C53.9406 134.704 54.2253 134.919 54.4586 135.199C54.692 135.47 54.8086 135.824 54.8086 136.263C54.8086 136.926 54.5473 137.448 54.0246 137.831C53.502 138.204 52.8066 138.391 51.9386 138.391ZM59.9633 132.301C59.9633 132.348 59.9446 132.39 59.9073 132.427C59.8793 132.455 59.8419 132.469 59.7953 132.469H58.3673C58.3206 132.469 58.2973 132.492 58.2973 132.539V135.913C58.2973 136.268 58.3719 136.524 58.5213 136.683C58.6799 136.842 58.9273 136.921 59.2633 136.921H59.6833C59.7299 136.921 59.7673 136.94 59.7953 136.977C59.8326 137.005 59.8513 137.042 59.8513 137.089V138.139C59.8513 138.242 59.7953 138.302 59.6833 138.321L58.9553 138.335C58.2179 138.335 57.6673 138.209 57.3033 137.957C56.9393 137.705 56.7526 137.229 56.7433 136.529V132.539C56.7433 132.492 56.7199 132.469 56.6733 132.469H55.8753C55.8286 132.469 55.7866 132.455 55.7493 132.427C55.7213 132.39 55.7073 132.348 55.7073 132.301V131.321C55.7073 131.274 55.7213 131.237 55.7493 131.209C55.7866 131.172 55.8286 131.153 55.8753 131.153H56.6733C56.7199 131.153 56.7433 131.13 56.7433 131.083V129.445C56.7433 129.398 56.7573 129.361 56.7853 129.333C56.8226 129.296 56.8646 129.277 56.9113 129.277H58.1293C58.1759 129.277 58.2133 129.296 58.2413 129.333C58.2786 129.361 58.2973 129.398 58.2973 129.445V131.083C58.2973 131.13 58.3206 131.153 58.3673 131.153H59.7953C59.8419 131.153 59.8793 131.172 59.9073 131.209C59.9446 131.237 59.9633 131.274 59.9633 131.321V132.301ZM70.0603 128.675C70.0603 128.628 70.0743 128.591 70.1023 128.563C70.1397 128.526 70.1817 128.507 70.2283 128.507H71.5163C71.563 128.507 71.6003 128.526 71.6283 128.563C71.6657 128.591 71.6843 128.628 71.6843 128.675V138.139C71.6843 138.186 71.6657 138.228 71.6283 138.265C71.6003 138.293 71.563 138.307 71.5163 138.307H70.2703C70.177 138.307 70.1117 138.27 70.0743 138.195L66.0423 131.587C66.0237 131.559 66.005 131.55 65.9863 131.559C65.9677 131.559 65.9583 131.578 65.9583 131.615L65.9863 138.139C65.9863 138.186 65.9677 138.228 65.9303 138.265C65.9023 138.293 65.865 138.307 65.8183 138.307H64.5303C64.4837 138.307 64.4417 138.293 64.4043 138.265C64.3763 138.228 64.3623 138.186 64.3623 138.139V128.675C64.3623 128.628 64.3763 128.591 64.4043 128.563C64.4417 128.526 64.4837 128.507 64.5303 128.507H65.7763C65.8697 128.507 65.935 128.544 65.9723 128.619L69.9903 135.227C70.009 135.255 70.0277 135.269 70.0463 135.269C70.065 135.26 70.0743 135.236 70.0743 135.199L70.0603 128.675ZM79.6076 133.925C79.6449 134.158 79.6636 134.42 79.6636 134.709L79.6496 135.143C79.6496 135.255 79.5936 135.311 79.4816 135.311H75.0996C75.0529 135.311 75.0296 135.334 75.0296 135.381C75.0576 135.689 75.0996 135.899 75.1556 136.011C75.3796 136.683 75.9256 137.024 76.7936 137.033C77.4282 137.033 77.9322 136.772 78.3056 136.249C78.3429 136.193 78.3896 136.165 78.4456 136.165C78.4829 136.165 78.5156 136.179 78.5436 136.207L79.4116 136.921C79.4956 136.986 79.5096 137.061 79.4536 137.145C79.1642 137.556 78.7769 137.873 78.2916 138.097C77.8156 138.321 77.2836 138.433 76.6956 138.433C75.9676 138.433 75.3469 138.27 74.8336 137.943C74.3296 137.616 73.9609 137.159 73.7276 136.571C73.5129 136.067 73.4056 135.367 73.4056 134.471C73.4056 133.93 73.4616 133.491 73.5736 133.155C73.7602 132.502 74.1102 131.988 74.6236 131.615C75.1462 131.232 75.7716 131.041 76.4996 131.041C78.3382 131.041 79.3742 132.002 79.6076 133.925ZM76.4996 132.441C76.1542 132.441 75.8649 132.53 75.6316 132.707C75.4076 132.875 75.2489 133.113 75.1556 133.421C75.0996 133.58 75.0622 133.785 75.0436 134.037C75.0249 134.084 75.0436 134.107 75.0996 134.107H77.9416C77.9882 134.107 78.0116 134.084 78.0116 134.037C77.9929 133.804 77.9649 133.626 77.9276 133.505C77.8436 133.169 77.6756 132.908 77.4236 132.721C77.1809 132.534 76.8729 132.441 76.4996 132.441ZM84.8051 132.301C84.8051 132.348 84.7864 132.39 84.7491 132.427C84.7211 132.455 84.6837 132.469 84.6371 132.469H83.2091C83.1624 132.469 83.1391 132.492 83.1391 132.539V135.913C83.1391 136.268 83.2137 136.524 83.3631 136.683C83.5217 136.842 83.7691 136.921 84.1051 136.921H84.5251C84.5717 136.921 84.6091 136.94 84.6371 136.977C84.6744 137.005 84.6931 137.042 84.6931 137.089V138.139C84.6931 138.242 84.6371 138.302 84.5251 138.321L83.7971 138.335C83.0597 138.335 82.5091 138.209 82.1451 137.957C81.7811 137.705 81.5944 137.229 81.5851 136.529V132.539C81.5851 132.492 81.5617 132.469 81.5151 132.469H80.7171C80.6704 132.469 80.6284 132.455 80.5911 132.427C80.5631 132.39 80.5491 132.348 80.5491 132.301V131.321C80.5491 131.274 80.5631 131.237 80.5911 131.209C80.6284 131.172 80.6704 131.153 80.7171 131.153H81.5151C81.5617 131.153 81.5851 131.13 81.5851 131.083V129.445C81.5851 129.398 81.5991 129.361 81.6271 129.333C81.6644 129.296 81.7064 129.277 81.7531 129.277H82.9711C83.0177 129.277 83.0551 129.296 83.0831 129.333C83.1204 129.361 83.1391 129.398 83.1391 129.445V131.083C83.1391 131.13 83.1624 131.153 83.2091 131.153H84.6371C84.6837 131.153 84.7211 131.172 84.7491 131.209C84.7864 131.237 84.8051 131.274 84.8051 131.321V132.301ZM87.9414 138.307C87.8387 138.307 87.7734 138.26 87.7454 138.167L85.7434 131.335L85.7294 131.279C85.7294 131.186 85.7807 131.139 85.8834 131.139H87.2134C87.3161 131.139 87.3814 131.186 87.4094 131.279L88.5714 135.955C88.5807 135.983 88.5947 135.997 88.6134 135.997C88.6321 135.997 88.6461 135.983 88.6554 135.955L89.8734 131.279C89.9014 131.186 89.9667 131.139 90.0694 131.139H91.2314C91.3341 131.139 91.3994 131.186 91.4274 131.279L92.6734 135.955C92.6827 135.983 92.6967 135.997 92.7154 135.997C92.7341 135.997 92.7481 135.983 92.7574 135.955L94.0034 131.279C94.0314 131.186 94.0967 131.139 94.1994 131.139L95.5154 131.167C95.5714 131.167 95.6087 131.186 95.6274 131.223C95.6554 131.251 95.6647 131.293 95.6554 131.349L93.6394 138.167C93.6114 138.26 93.5507 138.307 93.4574 138.307H92.1134C92.0107 138.307 91.9454 138.26 91.9174 138.167L90.6854 133.897C90.6761 133.869 90.6621 133.855 90.6434 133.855C90.6247 133.855 90.6107 133.869 90.6014 133.897L89.4674 138.167C89.4394 138.26 89.3741 138.307 89.2714 138.307H87.9414ZM99.553 138.419C98.8156 138.419 98.181 138.232 97.649 137.859C97.1263 137.486 96.7576 136.968 96.543 136.305C96.3843 135.801 96.305 135.269 96.305 134.709C96.305 134.112 96.3796 133.58 96.529 133.113C96.7436 132.46 97.117 131.951 97.649 131.587C98.181 131.223 98.8203 131.041 99.567 131.041C100.276 131.041 100.888 131.223 101.401 131.587C101.924 131.951 102.292 132.455 102.507 133.099C102.675 133.547 102.759 134.079 102.759 134.695C102.759 135.283 102.68 135.815 102.521 136.291C102.306 136.954 101.938 137.476 101.415 137.859C100.892 138.232 100.272 138.419 99.553 138.419ZM99.553 137.019C99.8983 137.019 100.192 136.921 100.435 136.725C100.687 136.529 100.869 136.254 100.981 135.899C101.074 135.591 101.121 135.199 101.121 134.723C101.121 134.219 101.074 133.827 100.981 133.547C100.878 133.192 100.701 132.922 100.449 132.735C100.197 132.539 99.889 132.441 99.525 132.441C99.1796 132.441 98.881 132.539 98.629 132.735C98.377 132.922 98.195 133.192 98.083 133.547C97.9896 133.874 97.943 134.266 97.943 134.723C97.943 135.18 97.9896 135.572 98.083 135.899C98.1856 136.254 98.363 136.529 98.615 136.725C98.8763 136.921 99.189 137.019 99.553 137.019ZM107.626 131.069C107.925 131.069 108.186 131.13 108.41 131.251C108.485 131.288 108.513 131.358 108.494 131.461L108.256 132.721C108.247 132.833 108.182 132.866 108.06 132.819C107.92 132.772 107.757 132.749 107.57 132.749C107.449 132.749 107.356 132.754 107.29 132.763C106.898 132.782 106.572 132.922 106.31 133.183C106.049 133.435 105.918 133.766 105.918 134.177V138.139C105.918 138.186 105.9 138.228 105.862 138.265C105.834 138.293 105.797 138.307 105.75 138.307H104.462C104.416 138.307 104.374 138.293 104.336 138.265C104.308 138.228 104.294 138.186 104.294 138.139V131.321C104.294 131.274 104.308 131.237 104.336 131.209C104.374 131.172 104.416 131.153 104.462 131.153H105.75C105.797 131.153 105.834 131.172 105.862 131.209C105.9 131.237 105.918 131.274 105.918 131.321V131.951C105.918 131.988 105.923 132.012 105.932 132.021C105.951 132.021 105.97 132.007 105.988 131.979C106.38 131.372 106.926 131.069 107.626 131.069ZM109.726 138.307C109.679 138.307 109.637 138.293 109.6 138.265C109.572 138.228 109.558 138.186 109.558 138.139V128.675C109.558 128.628 109.572 128.591 109.6 128.563C109.637 128.526 109.679 128.507 109.726 128.507H111.014C111.061 128.507 111.098 128.526 111.126 128.563C111.163 128.591 111.182 128.628 111.182 128.675V133.729C111.182 133.757 111.191 133.776 111.21 133.785C111.229 133.794 111.247 133.785 111.266 133.757L113.534 131.251C113.599 131.186 113.669 131.153 113.744 131.153H115.228C115.321 131.153 115.368 131.186 115.368 131.251C115.368 131.279 115.354 131.316 115.326 131.363L113.548 133.491C113.52 133.519 113.515 133.552 113.534 133.589L115.634 138.111C115.653 138.148 115.662 138.176 115.662 138.195C115.662 138.27 115.611 138.307 115.508 138.307H114.15C114.057 138.307 113.991 138.265 113.954 138.181L112.428 134.625C112.419 134.606 112.4 134.597 112.372 134.597C112.353 134.588 112.339 134.592 112.33 134.611L111.21 135.899C111.191 135.936 111.182 135.969 111.182 135.997V138.139C111.182 138.186 111.163 138.228 111.126 138.265C111.098 138.293 111.061 138.307 111.014 138.307H109.726Z" fill="white"/>
<circle cx="55.4481" cy="175.83" r="6.43724" fill="#20263D"/>
<circle cx="55.4481" cy="175.83" r="5.43724" stroke="white" stroke-opacity="0.5" stroke-width="2"/>
<line opacity="0.5" x1="354.936" y1="176.625" x2="354.936" y2="134.13" stroke="#1EBBFF" stroke-width="2"/>
<rect x="313.5" y="118.093" width="130.64" height="32.0729" fill="url(#paint5_linear)"/>
<path opacity="0.8" d="M324.438 128.507C324.485 128.507 324.522 128.526 324.55 128.563C324.588 128.591 324.606 128.628 324.606 128.675V129.753C324.606 129.8 324.588 129.842 324.55 129.879C324.522 129.907 324.485 129.921 324.438 129.921H321.862C321.816 129.921 321.792 129.944 321.792 129.991V138.139C321.792 138.186 321.774 138.228 321.736 138.265C321.708 138.293 321.671 138.307 321.624 138.307H320.336C320.29 138.307 320.248 138.293 320.21 138.265C320.182 138.228 320.168 138.186 320.168 138.139V129.991C320.168 129.944 320.145 129.921 320.098 129.921H317.62C317.574 129.921 317.532 129.907 317.494 129.879C317.466 129.842 317.452 129.8 317.452 129.753V128.675C317.452 128.628 317.466 128.591 317.494 128.563C317.532 128.526 317.574 128.507 317.62 128.507H324.438ZM328.285 131.041C328.873 131.041 329.391 131.144 329.839 131.349C330.287 131.554 330.633 131.839 330.875 132.203C331.118 132.558 331.239 132.964 331.239 133.421V138.139C331.239 138.186 331.221 138.228 331.183 138.265C331.155 138.293 331.118 138.307 331.071 138.307H329.783C329.737 138.307 329.695 138.293 329.657 138.265C329.629 138.228 329.615 138.186 329.615 138.139V137.691C329.615 137.663 329.606 137.649 329.587 137.649C329.569 137.64 329.55 137.644 329.531 137.663C329.074 138.167 328.411 138.419 327.543 138.419C326.843 138.419 326.265 138.242 325.807 137.887C325.359 137.532 325.135 137.005 325.135 136.305C325.135 135.577 325.387 135.012 325.891 134.611C326.405 134.2 327.123 133.995 328.047 133.995H329.545C329.592 133.995 329.615 133.972 329.615 133.925V133.589C329.615 133.225 329.508 132.945 329.293 132.749C329.079 132.544 328.757 132.441 328.327 132.441C327.973 132.441 327.683 132.506 327.459 132.637C327.245 132.758 327.109 132.931 327.053 133.155C327.025 133.267 326.96 133.314 326.857 133.295L325.499 133.127C325.453 133.118 325.411 133.104 325.373 133.085C325.345 133.057 325.336 133.024 325.345 132.987C325.42 132.418 325.723 131.951 326.255 131.587C326.797 131.223 327.473 131.041 328.285 131.041ZM327.949 137.131C328.407 137.131 328.799 137.01 329.125 136.767C329.452 136.524 329.615 136.216 329.615 135.843V135.185C329.615 135.138 329.592 135.115 329.545 135.115H328.369C327.875 135.115 327.483 135.208 327.193 135.395C326.913 135.582 326.773 135.848 326.773 136.193C326.773 136.492 326.881 136.725 327.095 136.893C327.319 137.052 327.604 137.131 327.949 137.131ZM337.252 131.321C337.252 131.274 337.266 131.237 337.294 131.209C337.331 131.172 337.373 131.153 337.42 131.153H338.708C338.754 131.153 338.792 131.172 338.82 131.209C338.857 131.237 338.876 131.274 338.876 131.321V137.831C338.876 138.998 338.54 139.828 337.868 140.323C337.205 140.827 336.332 141.079 335.25 141.079C334.96 141.079 334.676 141.065 334.396 141.037C334.293 141.028 334.242 140.967 334.242 140.855L334.284 139.707C334.284 139.604 334.349 139.553 334.48 139.553C334.75 139.581 334.993 139.595 335.208 139.595C335.908 139.595 336.421 139.455 336.748 139.175C337.084 138.904 337.252 138.442 337.252 137.789V137.677C337.252 137.649 337.242 137.635 337.224 137.635C337.205 137.626 337.186 137.63 337.168 137.649C336.785 138.06 336.244 138.265 335.544 138.265C334.937 138.265 334.382 138.111 333.878 137.803C333.374 137.495 333.024 137.024 332.828 136.389C332.706 135.95 332.646 135.386 332.646 134.695C332.646 133.92 332.72 133.328 332.87 132.917C333.056 132.348 333.378 131.895 333.836 131.559C334.293 131.214 334.83 131.041 335.446 131.041C336.183 131.041 336.757 131.256 337.168 131.685C337.186 131.713 337.205 131.722 337.224 131.713C337.242 131.704 337.252 131.685 337.252 131.657V131.321ZM337.154 135.927C337.191 135.787 337.214 135.638 337.224 135.479C337.242 135.311 337.252 135.045 337.252 134.681C337.252 134.326 337.242 134.074 337.224 133.925C337.214 133.766 337.186 133.612 337.14 133.463C337.065 133.155 336.911 132.908 336.678 132.721C336.454 132.534 336.164 132.441 335.81 132.441C335.474 132.441 335.189 132.534 334.956 132.721C334.722 132.908 334.554 133.155 334.452 133.463C334.34 133.724 334.284 134.135 334.284 134.695C334.284 135.274 334.33 135.68 334.424 135.913C334.517 136.212 334.685 136.459 334.928 136.655C335.18 136.842 335.478 136.935 335.824 136.935C336.188 136.935 336.482 136.842 336.706 136.655C336.93 136.468 337.079 136.226 337.154 135.927ZM341.477 130.173C341.188 130.173 340.95 130.08 340.763 129.893C340.577 129.706 340.483 129.468 340.483 129.179C340.483 128.89 340.577 128.652 340.763 128.465C340.95 128.278 341.188 128.185 341.477 128.185C341.767 128.185 342.005 128.278 342.191 128.465C342.378 128.652 342.471 128.89 342.471 129.179C342.471 129.468 342.378 129.706 342.191 129.893C342.005 130.08 341.767 130.173 341.477 130.173ZM340.805 138.307C340.759 138.307 340.717 138.293 340.679 138.265C340.651 138.228 340.637 138.186 340.637 138.139V131.307C340.637 131.26 340.651 131.223 340.679 131.195C340.717 131.158 340.759 131.139 340.805 131.139H342.093C342.14 131.139 342.177 131.158 342.205 131.195C342.243 131.223 342.261 131.26 342.261 131.307V138.139C342.261 138.186 342.243 138.228 342.205 138.265C342.177 138.293 342.14 138.307 342.093 138.307H340.805ZM347.16 138.419C346.422 138.419 345.788 138.232 345.256 137.859C344.733 137.486 344.364 136.968 344.15 136.305C343.991 135.801 343.912 135.269 343.912 134.709C343.912 134.112 343.986 133.58 344.136 133.113C344.35 132.46 344.724 131.951 345.256 131.587C345.788 131.223 346.427 131.041 347.174 131.041C347.883 131.041 348.494 131.223 349.008 131.587C349.53 131.951 349.899 132.455 350.114 133.099C350.282 133.547 350.366 134.079 350.366 134.695C350.366 135.283 350.286 135.815 350.128 136.291C349.913 136.954 349.544 137.476 349.022 137.859C348.499 138.232 347.878 138.419 347.16 138.419ZM347.16 137.019C347.505 137.019 347.799 136.921 348.042 136.725C348.294 136.529 348.476 136.254 348.588 135.899C348.681 135.591 348.728 135.199 348.728 134.723C348.728 134.219 348.681 133.827 348.588 133.547C348.485 133.192 348.308 132.922 348.056 132.735C347.804 132.539 347.496 132.441 347.132 132.441C346.786 132.441 346.488 132.539 346.236 132.735C345.984 132.922 345.802 133.192 345.69 133.547C345.596 133.874 345.55 134.266 345.55 134.723C345.55 135.18 345.596 135.572 345.69 135.899C345.792 136.254 345.97 136.529 346.222 136.725C346.483 136.921 346.796 137.019 347.16 137.019ZM355.331 131.041C356.087 131.041 356.689 131.265 357.137 131.713C357.594 132.161 357.823 132.772 357.823 133.547V138.139C357.823 138.186 357.804 138.228 357.767 138.265C357.739 138.293 357.702 138.307 357.655 138.307H356.367C356.32 138.307 356.278 138.293 356.241 138.265C356.213 138.228 356.199 138.186 356.199 138.139V133.883C356.199 133.454 356.078 133.108 355.835 132.847C355.592 132.576 355.27 132.441 354.869 132.441C354.468 132.441 354.141 132.572 353.889 132.833C353.646 133.094 353.525 133.44 353.525 133.869V138.139C353.525 138.186 353.506 138.228 353.469 138.265C353.441 138.293 353.404 138.307 353.357 138.307H352.069C352.022 138.307 351.98 138.293 351.943 138.265C351.915 138.228 351.901 138.186 351.901 138.139V131.321C351.901 131.274 351.915 131.237 351.943 131.209C351.98 131.172 352.022 131.153 352.069 131.153H353.357C353.404 131.153 353.441 131.172 353.469 131.209C353.506 131.237 353.525 131.274 353.525 131.321V131.769C353.525 131.797 353.534 131.816 353.553 131.825C353.572 131.834 353.586 131.825 353.595 131.797C353.978 131.293 354.556 131.041 355.331 131.041ZM368.171 128.675C368.171 128.628 368.185 128.591 368.213 128.563C368.25 128.526 368.292 128.507 368.339 128.507H369.627C369.674 128.507 369.711 128.526 369.739 128.563C369.776 128.591 369.795 128.628 369.795 128.675V138.139C369.795 138.186 369.776 138.228 369.739 138.265C369.711 138.293 369.674 138.307 369.627 138.307H368.381C368.288 138.307 368.222 138.27 368.185 138.195L364.153 131.587C364.134 131.559 364.116 131.55 364.097 131.559C364.078 131.559 364.069 131.578 364.069 131.615L364.097 138.139C364.097 138.186 364.078 138.228 364.041 138.265C364.013 138.293 363.976 138.307 363.929 138.307H362.641C362.594 138.307 362.552 138.293 362.515 138.265C362.487 138.228 362.473 138.186 362.473 138.139V128.675C362.473 128.628 362.487 128.591 362.515 128.563C362.552 128.526 362.594 128.507 362.641 128.507H363.887C363.98 128.507 364.046 128.544 364.083 128.619L368.101 135.227C368.12 135.255 368.138 135.269 368.157 135.269C368.176 135.26 368.185 135.236 368.185 135.199L368.171 128.675ZM377.718 133.925C377.756 134.158 377.774 134.42 377.774 134.709L377.76 135.143C377.76 135.255 377.704 135.311 377.592 135.311H373.21C373.164 135.311 373.14 135.334 373.14 135.381C373.168 135.689 373.21 135.899 373.266 136.011C373.49 136.683 374.036 137.024 374.904 137.033C375.539 137.033 376.043 136.772 376.416 136.249C376.454 136.193 376.5 136.165 376.556 136.165C376.594 136.165 376.626 136.179 376.654 136.207L377.522 136.921C377.606 136.986 377.62 137.061 377.564 137.145C377.275 137.556 376.888 137.873 376.402 138.097C375.926 138.321 375.394 138.433 374.806 138.433C374.078 138.433 373.458 138.27 372.944 137.943C372.44 137.616 372.072 137.159 371.838 136.571C371.624 136.067 371.516 135.367 371.516 134.471C371.516 133.93 371.572 133.491 371.684 133.155C371.871 132.502 372.221 131.988 372.734 131.615C373.257 131.232 373.882 131.041 374.61 131.041C376.449 131.041 377.485 132.002 377.718 133.925ZM374.61 132.441C374.265 132.441 373.976 132.53 373.742 132.707C373.518 132.875 373.36 133.113 373.266 133.421C373.21 133.58 373.173 133.785 373.154 134.037C373.136 134.084 373.154 134.107 373.21 134.107H376.052C376.099 134.107 376.122 134.084 376.122 134.037C376.104 133.804 376.076 133.626 376.038 133.505C375.954 133.169 375.786 132.908 375.534 132.721C375.292 132.534 374.984 132.441 374.61 132.441ZM382.916 132.301C382.916 132.348 382.897 132.39 382.86 132.427C382.832 132.455 382.794 132.469 382.748 132.469H381.32C381.273 132.469 381.25 132.492 381.25 132.539V135.913C381.25 136.268 381.324 136.524 381.474 136.683C381.632 136.842 381.88 136.921 382.216 136.921H382.636C382.682 136.921 382.72 136.94 382.748 136.977C382.785 137.005 382.804 137.042 382.804 137.089V138.139C382.804 138.242 382.748 138.302 382.636 138.321L381.908 138.335C381.17 138.335 380.62 138.209 380.256 137.957C379.892 137.705 379.705 137.229 379.696 136.529V132.539C379.696 132.492 379.672 132.469 379.626 132.469H378.828C378.781 132.469 378.739 132.455 378.702 132.427C378.674 132.39 378.66 132.348 378.66 132.301V131.321C378.66 131.274 378.674 131.237 378.702 131.209C378.739 131.172 378.781 131.153 378.828 131.153H379.626C379.672 131.153 379.696 131.13 379.696 131.083V129.445C379.696 129.398 379.71 129.361 379.738 129.333C379.775 129.296 379.817 129.277 379.864 129.277H381.082C381.128 129.277 381.166 129.296 381.194 129.333C381.231 129.361 381.25 129.398 381.25 129.445V131.083C381.25 131.13 381.273 131.153 381.32 131.153H382.748C382.794 131.153 382.832 131.172 382.86 131.209C382.897 131.237 382.916 131.274 382.916 131.321V132.301ZM386.052 138.307C385.949 138.307 385.884 138.26 385.856 138.167L383.854 131.335L383.84 131.279C383.84 131.186 383.891 131.139 383.994 131.139H385.324C385.427 131.139 385.492 131.186 385.52 131.279L386.682 135.955C386.691 135.983 386.705 135.997 386.724 135.997C386.743 135.997 386.757 135.983 386.766 135.955L387.984 131.279C388.012 131.186 388.077 131.139 388.18 131.139H389.342C389.445 131.139 389.51 131.186 389.538 131.279L390.784 135.955C390.793 135.983 390.807 135.997 390.826 135.997C390.845 135.997 390.859 135.983 390.868 135.955L392.114 131.279C392.142 131.186 392.207 131.139 392.31 131.139L393.626 131.167C393.682 131.167 393.719 131.186 393.738 131.223C393.766 131.251 393.775 131.293 393.766 131.349L391.75 138.167C391.722 138.26 391.661 138.307 391.568 138.307H390.224C390.121 138.307 390.056 138.26 390.028 138.167L388.796 133.897C388.787 133.869 388.773 133.855 388.754 133.855C388.735 133.855 388.721 133.869 388.712 133.897L387.578 138.167C387.55 138.26 387.485 138.307 387.382 138.307H386.052ZM397.664 138.419C396.926 138.419 396.292 138.232 395.76 137.859C395.237 137.486 394.868 136.968 394.654 136.305C394.495 135.801 394.416 135.269 394.416 134.709C394.416 134.112 394.49 133.58 394.64 133.113C394.854 132.46 395.228 131.951 395.76 131.587C396.292 131.223 396.931 131.041 397.678 131.041C398.387 131.041 398.998 131.223 399.512 131.587C400.034 131.951 400.403 132.455 400.618 133.099C400.786 133.547 400.87 134.079 400.87 134.695C400.87 135.283 400.79 135.815 400.632 136.291C400.417 136.954 400.048 137.476 399.526 137.859C399.003 138.232 398.382 138.419 397.664 138.419ZM397.664 137.019C398.009 137.019 398.303 136.921 398.546 136.725C398.798 136.529 398.98 136.254 399.092 135.899C399.185 135.591 399.232 135.199 399.232 134.723C399.232 134.219 399.185 133.827 399.092 133.547C398.989 133.192 398.812 132.922 398.56 132.735C398.308 132.539 398 132.441 397.636 132.441C397.29 132.441 396.992 132.539 396.74 132.735C396.488 132.922 396.306 133.192 396.194 133.547C396.1 133.874 396.054 134.266 396.054 134.723C396.054 135.18 396.1 135.572 396.194 135.899C396.296 136.254 396.474 136.529 396.726 136.725C396.987 136.921 397.3 137.019 397.664 137.019ZM405.737 131.069C406.036 131.069 406.297 131.13 406.521 131.251C406.596 131.288 406.624 131.358 406.605 131.461L406.367 132.721C406.358 132.833 406.292 132.866 406.171 132.819C406.031 132.772 405.868 132.749 405.681 132.749C405.56 132.749 405.466 132.754 405.401 132.763C405.009 132.782 404.682 132.922 404.421 133.183C404.16 133.435 404.029 133.766 404.029 134.177V138.139C404.029 138.186 404.01 138.228 403.973 138.265C403.945 138.293 403.908 138.307 403.861 138.307H402.573C402.526 138.307 402.484 138.293 402.447 138.265C402.419 138.228 402.405 138.186 402.405 138.139V131.321C402.405 131.274 402.419 131.237 402.447 131.209C402.484 131.172 402.526 131.153 402.573 131.153H403.861C403.908 131.153 403.945 131.172 403.973 131.209C404.01 131.237 404.029 131.274 404.029 131.321V131.951C404.029 131.988 404.034 132.012 404.043 132.021C404.062 132.021 404.08 132.007 404.099 131.979C404.491 131.372 405.037 131.069 405.737 131.069ZM407.837 138.307C407.79 138.307 407.748 138.293 407.711 138.265C407.683 138.228 407.669 138.186 407.669 138.139V128.675C407.669 128.628 407.683 128.591 407.711 128.563C407.748 128.526 407.79 128.507 407.837 128.507H409.125C409.171 128.507 409.209 128.526 409.237 128.563C409.274 128.591 409.293 128.628 409.293 128.675V133.729C409.293 133.757 409.302 133.776 409.321 133.785C409.339 133.794 409.358 133.785 409.377 133.757L411.645 131.251C411.71 131.186 411.78 131.153 411.855 131.153H413.339C413.432 131.153 413.479 131.186 413.479 131.251C413.479 131.279 413.465 131.316 413.437 131.363L411.659 133.491C411.631 133.519 411.626 133.552 411.645 133.589L413.745 138.111C413.763 138.148 413.773 138.176 413.773 138.195C413.773 138.27 413.721 138.307 413.619 138.307H412.261C412.167 138.307 412.102 138.265 412.065 138.181L410.539 134.625C410.529 134.606 410.511 134.597 410.483 134.597C410.464 134.588 410.45 134.592 410.441 134.611L409.321 135.899C409.302 135.936 409.293 135.969 409.293 135.997V138.139C409.293 138.186 409.274 138.228 409.237 138.265C409.209 138.293 409.171 138.307 409.125 138.307H407.837ZM419.718 138.307C419.625 138.307 419.564 138.26 419.536 138.167L417.282 131.335C417.273 131.316 417.268 131.293 417.268 131.265C417.268 131.181 417.319 131.139 417.422 131.139H418.85C418.953 131.139 419.018 131.186 419.046 131.279L420.404 135.955C420.413 135.983 420.427 135.997 420.446 135.997C420.465 135.997 420.479 135.983 420.488 135.955L421.846 131.279C421.874 131.186 421.939 131.139 422.042 131.139L423.47 131.167C423.526 131.167 423.568 131.186 423.596 131.223C423.624 131.251 423.629 131.298 423.61 131.363L421.37 138.167C421.342 138.26 421.281 138.307 421.188 138.307H419.718ZM426.213 128.549C426.287 128.521 426.357 128.507 426.423 128.507H427.767C427.813 128.507 427.851 128.526 427.879 128.563C427.916 128.591 427.935 128.628 427.935 128.675V138.139C427.935 138.186 427.916 138.228 427.879 138.265C427.851 138.293 427.813 138.307 427.767 138.307H426.479C426.432 138.307 426.39 138.293 426.353 138.265C426.325 138.228 426.311 138.186 426.311 138.139V130.187C426.311 130.168 426.301 130.154 426.283 130.145C426.264 130.126 426.245 130.122 426.227 130.131L424.827 130.565C424.808 130.574 424.785 130.579 424.757 130.579C424.719 130.579 424.687 130.565 424.659 130.537C424.64 130.509 424.631 130.472 424.631 130.425L424.589 129.501C424.589 129.408 424.626 129.342 424.701 129.305L426.213 128.549ZM430.77 138.335C430.481 138.335 430.243 138.242 430.056 138.055C429.869 137.868 429.776 137.63 429.776 137.341C429.776 137.052 429.869 136.814 430.056 136.627C430.243 136.44 430.481 136.347 430.77 136.347C431.059 136.347 431.293 136.44 431.47 136.627C431.657 136.814 431.75 137.052 431.75 137.341C431.75 137.63 431.657 137.868 431.47 138.055C431.283 138.242 431.05 138.335 430.77 138.335ZM436.288 138.461C435.308 138.461 434.529 138.186 433.95 137.635C433.381 137.075 433.096 136.324 433.096 135.381V131.433C433.096 130.5 433.381 129.762 433.95 129.221C434.529 128.67 435.308 128.395 436.288 128.395C437.268 128.395 438.047 128.67 438.626 129.221C439.214 129.762 439.508 130.5 439.508 131.433V135.381C439.508 136.324 439.214 137.075 438.626 137.635C438.047 138.186 437.268 138.461 436.288 138.461ZM436.288 137.047C436.773 137.047 437.161 136.907 437.45 136.627C437.739 136.338 437.884 135.95 437.884 135.465V131.377C437.884 130.892 437.739 130.509 437.45 130.229C437.161 129.94 436.773 129.795 436.288 129.795C435.812 129.795 435.429 129.94 435.14 130.229C434.86 130.509 434.72 130.892 434.72 131.377V135.465C434.72 135.95 434.86 136.338 435.14 136.627C435.429 136.907 435.812 137.047 436.288 137.047Z" fill="#1EBBFF"/>
<circle cx="355.031" cy="175.83" r="6.43724" fill="#20263D"/>
<circle cx="355.031" cy="175.83" r="5.43724" stroke="#1EBBFF" stroke-opacity="0.5" stroke-width="2"/>
<defs>
<linearGradient id="paint0_linear" x1="254.539" y1="73.6828" x2="254.539" y2="105.756" gradientUnits="userSpaceOnUse">
<stop stop-color="#20263D" stop-opacity="0"/>
<stop offset="0.229167" stop-color="#20263D"/>
<stop offset="0.791667" stop-color="#20263D"/>
<stop offset="1" stop-color="#20263D" stop-opacity="0"/>
</linearGradient>
<linearGradient id="paint1_linear" x1="209.209" y1="109.234" x2="209.209" y2="141.307" gradientUnits="userSpaceOnUse">
<stop stop-color="#20263D" stop-opacity="0"/>
<stop offset="0.229167" stop-color="#20263D"/>
<stop offset="0.791667" stop-color="#20263D"/>
<stop offset="1" stop-color="#20263D" stop-opacity="0"/>
</linearGradient>
<linearGradient id="paint2_linear" x1="168.264" y1="40.644" x2="168.264" y2="72.7169" gradientUnits="userSpaceOnUse">
<stop stop-color="#20263D" stop-opacity="0"/>
<stop offset="0.229167" stop-color="#20263D"/>
<stop offset="0.791667" stop-color="#20263D"/>
<stop offset="1" stop-color="#20263D" stop-opacity="0"/>
</linearGradient>
<linearGradient id="paint3_linear" x1="115.483" y1="73.6828" x2="115.483" y2="105.756" gradientUnits="userSpaceOnUse">
<stop stop-color="#20263D" stop-opacity="0"/>
<stop offset="0.229167" stop-color="#20263D"/>
<stop offset="0.791667" stop-color="#20263D"/>
<stop offset="1" stop-color="#20263D" stop-opacity="0"/>
</linearGradient>
<linearGradient id="paint4_linear" x1="75.7996" y1="118.093" x2="75.7996" y2="150.166" gradientUnits="userSpaceOnUse">
<stop stop-color="#20263D" stop-opacity="0"/>
<stop offset="0.229167" stop-color="#20263D"/>
<stop offset="0.791667" stop-color="#20263D"/>
<stop offset="1" stop-color="#20263D" stop-opacity="0"/>
</linearGradient>
<linearGradient id="paint5_linear" x1="378.82" y1="118.093" x2="378.82" y2="150.166" gradientUnits="userSpaceOnUse">
<stop stop-color="#20263D" stop-opacity="0"/>
<stop offset="0.229167" stop-color="#20263D"/>
<stop offset="0.791667" stop-color="#20263D"/>
<stop offset="1" stop-color="#20263D" stop-opacity="0"/>
</linearGradient>
</defs>
</svg>
