<svg width="473" height="162" viewBox="0 0 473 162" fill="none" xmlns="http://www.w3.org/2000/svg">
<path fill-rule="evenodd" clip-rule="evenodd" d="M76.1786 5.78571C34.1063 5.78571 0 39.892 0 81.9643C0 124.037 34.1063 158.143 76.1786 158.143C118.251 158.143 152.357 124.037 152.357 81.9643C152.357 39.892 118.251 5.78571 76.1786 5.78571ZM63.2595 54.9975C77.5163 54.9591 92.306 54.9399 92.9988 54.9399C98.1243 54.9399 101.968 55.7016 104.531 57.225C107.025 58.8176 108.271 61.6913 108.271 65.846C108.271 66.4 108.202 67.3002 108.064 68.5466L106.413 82.5935C106.312 83.4116 105.617 84.0261 104.792 84.0261H94.3638C92.7435 84.0261 92.6024 83.4662 92.7435 82.1954L93.6222 74.3632C93.6914 73.9477 93.7261 73.3937 93.7261 72.7013C93.7261 69.3083 92.0637 67.6118 88.7391 67.6118H36.5205C36.1741 67.6118 35.9689 67.4758 35.6893 67.1963C35.4097 66.9168 35.3776 66.724 35.3776 66.3654L36.6657 56.633C36.6657 56.5431 36.672 56.4529 36.6912 56.3651C36.8544 55.6189 37.2961 55.2131 38.0164 55.1477C38.8113 55.1079 42.3856 55.0739 48.9472 55.0456C49.1188 55.0448 49.281 54.9413 49.281 54.7698L50.8394 42.4095C50.9086 42.0633 51.0472 41.7863 51.255 41.5786C51.532 41.3016 51.8437 41.1631 52.19 41.1631H63.5146C63.8214 41.1631 64.0738 41.2718 64.2719 41.4891C64.3239 41.5462 64.3754 41.6043 64.4219 41.666C64.5696 41.8619 64.6135 42.1098 64.5535 42.4095L62.9951 54.7698C62.9951 54.9081 63.1211 54.9979 63.2595 54.9975ZM57.9936 80.1757C59.562 80.1757 59.7713 80.8113 59.6139 82.0064L58.7354 89.5654C58.6661 89.9809 58.6315 90.5348 58.6315 91.2273C58.6315 94.6203 60.2938 96.3168 63.6185 96.3168H115.837C116.183 96.3168 116.389 96.4527 116.668 96.7323C116.948 97.0118 116.98 97.2045 116.98 97.5632L115.73 107.296C115.73 107.385 115.724 107.476 115.705 107.563C115.541 108.31 115.1 108.715 114.379 108.781C113.585 108.821 109.972 108.855 103.41 108.883C103.239 108.884 103.077 108.987 103.077 109.159L101.518 121.519C101.449 121.865 101.31 122.142 101.103 122.35C100.826 122.627 100.514 122.765 100.168 122.765H88.843C88.5362 122.765 88.2838 122.657 88.0857 122.439C88.0337 122.382 87.9821 122.324 87.9356 122.263C87.7879 122.067 87.7441 121.819 87.804 121.519L89.3625 109.159C89.3625 109.02 89.2364 108.931 89.098 108.931C74.8413 108.969 60.0516 108.989 59.3588 108.989C54.2333 108.989 50.3892 108.227 47.8264 106.704C45.3329 105.111 44.0862 102.237 44.0862 98.0826C44.0862 97.5286 44.1555 96.6284 44.294 95.382L45.9448 81.6083C46.0455 80.7902 46.7406 80.1757 47.565 80.1757H57.9936Z" fill="#20263D"/>
<path d="M215.574 64.9769C215.487 65.4122 215.269 65.8039 214.921 66.1522C214.66 66.4134 214.312 66.544 213.876 66.544H203.56C203.385 66.544 203.211 66.631 203.037 66.8051C202.95 66.8922 202.907 67.0228 202.907 67.1969L198.858 99.9755C198.771 100.585 198.728 101.368 198.728 102.326C198.728 104.677 199.25 106.374 200.295 107.419C201.427 108.377 203.124 108.812 205.388 108.725H207.739C208.174 108.725 208.522 108.899 208.783 109.248C209.044 109.509 209.132 109.857 209.044 110.292L207.739 120.217C207.739 120.653 207.564 121.044 207.216 121.393C206.955 121.654 206.607 121.828 206.171 121.915H200.687C195.028 121.915 190.762 121.044 187.889 119.303C185.103 117.475 183.71 114.166 183.71 109.378C183.71 108.682 183.797 107.463 183.971 105.722L188.672 67.1969C188.846 66.7616 188.672 66.544 188.15 66.544H182.273C181.838 66.544 181.49 66.4134 181.228 66.1522C180.967 65.8039 180.88 65.4122 180.967 64.9769L182.012 56.619C182.099 56.1837 182.273 55.8354 182.534 55.5742C182.883 55.226 183.274 55.0519 183.71 55.0519H189.586C190.022 55.0519 190.239 54.8342 190.239 54.3989L191.545 43.3478C191.632 42.9125 191.806 42.5642 192.068 42.3031C192.416 41.9548 192.808 41.7807 193.243 41.7807H204.474C204.909 41.7807 205.257 41.9548 205.518 42.3031C205.78 42.5642 205.867 42.9125 205.78 43.3478L204.474 54.3989C204.474 54.8342 204.648 55.0519 204.996 55.0519H215.313C215.748 55.0519 216.096 55.226 216.358 55.5742C216.619 55.8354 216.706 56.1837 216.619 56.619L215.574 64.9769Z" fill="#20263D"/>
<path d="M260.371 56.619C260.458 56.1837 260.632 55.8355 260.894 55.5743C261.242 55.2261 261.634 55.0519 262.069 55.0519H273.692C274.649 55.0519 275.128 55.5743 275.128 56.619L267.293 120.217C267.206 120.653 266.988 121.044 266.64 121.393C266.378 121.654 266.03 121.784 265.595 121.784H253.842C253.406 121.784 253.058 121.654 252.797 121.393C252.536 121.044 252.449 120.653 252.536 120.217L253.189 115.124C253.276 114.776 253.232 114.602 253.058 114.602C252.884 114.515 252.71 114.602 252.536 114.863C250.62 117.475 248.357 119.477 245.745 120.87C243.133 122.176 240.304 122.829 237.256 122.829C231.597 122.829 227.201 121.001 224.067 117.344C220.932 113.688 219.365 108.769 219.365 102.587C219.191 100.411 219.583 95.666 220.541 88.3529C221.498 80.8656 222.413 75.9031 223.283 73.4654C224.763 67.5452 227.506 62.8439 231.51 59.3615C235.515 55.792 240.347 54.0072 246.006 54.0072C252.275 54.0072 256.628 56.532 259.065 61.5815C259.152 61.8427 259.283 61.9733 259.457 61.9733C259.631 61.8862 259.762 61.6686 259.849 61.3203L260.371 56.619ZM254.364 100.367C255.148 97.5813 255.844 93.6201 256.453 88.4834C257.063 83.2598 257.368 79.2114 257.368 76.3384C257.368 73.6395 256.584 71.4195 255.017 69.6782C253.45 67.937 251.36 67.0664 248.749 67.0664C246.05 67.0664 243.655 67.937 241.566 69.6782C239.564 71.4195 238.214 73.6395 237.518 76.3384C236.647 79.995 235.951 83.9998 235.428 88.3529C234.906 92.88 234.645 96.8849 234.645 100.367C234.645 103.153 235.428 105.417 236.995 107.158C238.649 108.899 240.826 109.77 243.525 109.77C246.224 109.77 248.531 108.899 250.446 107.158C252.362 105.417 253.668 103.153 254.364 100.367Z" fill="#20263D"/>
<path d="M318.728 56.619C318.815 56.1837 318.989 55.8355 319.25 55.5743C319.598 55.2261 319.99 55.0519 320.425 55.0519H332.048C333.006 55.0519 333.485 55.5743 333.485 56.619L325.91 118.258C324.691 128.357 321.122 135.845 315.202 140.72C309.281 145.683 301.272 148.164 291.173 148.164C290.041 148.164 288.169 148.077 285.557 147.903C284.687 147.816 284.251 147.25 284.251 146.205L285.949 135.758C286.123 134.626 286.733 134.147 287.777 134.321C288.648 134.408 289.91 134.452 291.565 134.452C297.92 134.452 302.621 133.102 305.668 130.403C308.716 127.705 310.587 123.351 311.284 117.344L311.414 116.169C311.502 115.908 311.458 115.734 311.284 115.647C311.11 115.559 310.936 115.647 310.762 115.908C307.105 119.738 302.404 121.654 296.658 121.654C291.173 121.654 286.733 120 283.337 116.691C279.942 113.296 278.157 108.508 277.983 102.326C277.809 99.0179 278.157 94.3166 279.028 88.2223C279.985 80.8221 280.943 75.8596 281.901 73.3348C283.381 67.4146 286.123 62.7133 290.128 59.2309C294.133 55.7484 298.921 54.0072 304.493 54.0072C310.326 54.0072 314.679 55.9661 317.552 59.8838C317.726 60.058 317.901 60.145 318.075 60.145C318.249 60.058 318.336 59.8838 318.336 59.6227L318.728 56.619ZM313.112 99.5838C313.722 96.7107 314.288 92.9236 314.81 88.2223C315.332 84.4786 315.68 80.5609 315.855 76.469C315.855 73.683 315.071 71.4195 313.504 69.6782C311.937 67.937 309.804 67.0664 307.105 67.0664C304.406 67.0664 302.055 67.937 300.053 69.6782C298.051 71.4195 296.658 73.683 295.874 76.469C295.091 79.255 294.35 83.1727 293.654 88.2223C293.132 93.2718 292.914 97.059 293.001 99.5838C293.088 102.283 293.915 104.546 295.482 106.375C297.136 108.116 299.313 108.986 302.012 108.986C304.798 108.986 307.148 108.116 309.064 106.375C311.066 104.633 312.416 102.37 313.112 99.5838Z" fill="#20263D"/>
<path d="M353.103 50.0707C350.753 50.0707 348.837 49.3306 347.357 47.8506C345.964 46.3706 345.268 44.4552 345.268 42.1046C345.268 39.0574 346.225 36.5326 348.141 34.5302C350.143 32.5278 352.581 31.5266 355.454 31.5266C357.892 31.5266 359.807 32.2666 361.2 33.7467C362.68 35.1397 363.42 37.0115 363.42 39.3621C363.42 42.4093 362.419 44.9776 360.416 47.067C358.414 49.0694 355.976 50.0707 353.103 50.0707ZM337.721 121.784C337.286 121.784 336.938 121.654 336.677 121.393C336.415 121.044 336.328 120.653 336.415 120.217L344.251 56.4884C344.338 56.0531 344.512 55.7049 344.773 55.4437C345.122 55.0955 345.513 54.9213 345.949 54.9213H357.702C358.137 54.9213 358.485 55.0955 358.747 55.4437C359.008 55.7049 359.095 56.0531 359.008 56.4884L351.172 120.217C351.085 120.653 350.868 121.044 350.519 121.393C350.258 121.654 349.91 121.784 349.475 121.784H337.721Z" fill="#20263D"/>
<path d="M385.347 122.829C378.556 122.829 373.158 120.957 369.153 117.214C365.235 113.383 363.233 108.246 363.146 101.804C362.972 97.7119 363.189 93.2283 363.799 88.3529C364.321 83.7386 365.192 79.1679 366.411 74.6407C368.152 68.2852 371.46 63.2792 376.336 59.6227C381.298 55.879 387.175 54.0072 393.966 54.0072C400.669 54.0072 405.98 55.879 409.898 59.6227C413.816 63.2792 415.862 68.2417 416.036 74.5101C416.21 78.7761 415.992 83.3468 415.383 88.2223C414.773 93.1848 413.903 97.6684 412.771 101.673C411.117 108.203 407.808 113.383 402.846 117.214C397.97 120.957 392.137 122.829 385.347 122.829ZM387.044 109.77C389.83 109.77 392.268 108.812 394.357 106.897C396.447 104.982 397.927 102.457 398.798 99.3226C399.755 94.0989 400.365 90.4423 400.626 88.3529C400.887 86.6116 401.105 83.9127 401.279 80.2562L401.54 77.2526C401.453 74.2054 400.582 71.7677 398.928 69.9394C397.274 68.0241 395.054 67.0664 392.268 67.0664C389.395 67.0664 386.914 67.9805 384.824 69.8088C382.735 71.6371 381.298 74.1183 380.515 77.2526C379.731 80.5609 379.078 84.261 378.556 88.3529C378.033 93.4024 377.772 97.059 377.772 99.3226C377.772 102.457 378.599 104.982 380.253 106.897C381.908 108.812 384.171 109.77 387.044 109.77Z" fill="#20263D"/>
<path d="M455.751 54.0072C461.236 54.0072 465.458 55.6178 468.418 58.8391C471.379 62.0604 472.859 66.544 472.859 72.2901C472.859 73.0736 472.772 74.5101 472.597 76.5996L467.243 120.217C467.156 120.653 466.938 121.044 466.59 121.393C466.329 121.654 465.981 121.784 465.545 121.784H453.792C453.357 121.784 453.009 121.654 452.747 121.393C452.486 121.044 452.399 120.653 452.486 120.217L457.579 78.6891C457.666 78.1667 457.71 77.3831 457.71 76.3384C457.71 73.4654 456.97 71.2018 455.49 69.5476C454.097 67.8935 452.095 67.0664 449.483 67.0664C446.436 67.0664 443.867 68.1547 441.778 70.3312C439.688 72.4207 438.426 75.2501 437.991 78.8197L432.898 120.217C432.81 120.653 432.593 121.044 432.245 121.393C431.983 121.654 431.635 121.784 431.2 121.784H419.577C418.619 121.784 418.141 121.262 418.141 120.217L425.976 56.619C426.063 56.1837 426.237 55.8355 426.499 55.5743C426.847 55.2261 427.239 55.0519 427.674 55.0519H439.427C439.862 55.0519 440.211 55.2261 440.472 55.5743C440.733 55.8355 440.82 56.1837 440.733 56.619L440.341 60.0144C440.254 60.2756 440.298 60.4497 440.472 60.5368C440.646 60.6239 440.82 60.5368 440.994 60.2756C444.912 56.0967 449.831 54.0072 455.751 54.0072Z" fill="#20263D"/>
</svg>
