<svg width="474" height="154" viewBox="0 0 474 154" fill="none" xmlns="http://www.w3.org/2000/svg">
<path fill-rule="evenodd" clip-rule="evenodd" d="M76.6149 4.89398C36.7918 4.89398 4.50879 37.177 4.50879 77.0001C4.50879 116.823 36.7918 149.106 76.6149 149.106C116.438 149.106 148.721 116.823 148.721 77.0001C148.721 37.177 116.438 4.89398 76.6149 4.89398ZM63.7066 50.0558C77.9514 50.0175 92.7288 49.9983 93.421 49.9983C98.5422 49.9983 102.383 50.7594 104.944 52.2815C107.435 53.8728 108.681 56.744 108.681 60.8953C108.681 61.4488 108.612 62.3482 108.473 63.5936L106.824 77.6288C106.723 78.4462 106.028 79.0602 105.205 79.0602H94.7849C93.1659 79.0602 93.0249 78.5007 93.1659 77.231L94.0438 69.4053C94.113 68.9902 94.1476 68.4367 94.1476 67.7448C94.1476 64.3546 92.4867 62.6596 89.1648 62.6596H36.9898C36.6438 62.6596 36.4387 62.5237 36.1594 62.2444C35.88 61.9651 35.8479 61.7726 35.8479 61.4142L37.135 51.69C37.135 51.6001 37.1413 51.5101 37.1605 51.4223C37.3235 50.6767 37.7648 50.2713 38.4845 50.2059C39.2787 50.1662 42.85 50.1321 49.4061 50.1038C49.5776 50.1031 49.7397 49.9997 49.7397 49.8283L51.2968 37.4784C51.366 37.1324 51.5044 36.8557 51.712 36.6481C51.9888 36.3714 52.3003 36.233 52.6463 36.233H63.9614C64.2679 36.233 64.5201 36.3416 64.7181 36.5588C64.77 36.6158 64.8215 36.6738 64.868 36.7354C65.0156 36.9312 65.0594 37.1789 64.9995 37.4784L63.4423 49.8283C63.4423 49.9665 63.5683 50.0562 63.7066 50.0558ZM58.445 75.213C60.0122 75.213 60.2213 75.8481 60.064 77.0421L59.1862 84.5949C59.117 85.01 59.0824 85.5635 59.0824 86.2554C59.0824 89.6455 60.7433 91.3406 64.0652 91.3406H116.24C116.586 91.3406 116.791 91.4764 117.071 91.7557C117.35 92.035 117.382 92.2276 117.382 92.586L116.133 102.31C116.133 102.4 116.127 102.49 116.108 102.578C115.945 103.323 115.503 103.729 114.784 103.794C113.99 103.834 110.38 103.868 103.824 103.896C103.652 103.897 103.49 104 103.49 104.172L101.933 116.522C101.864 116.868 101.726 117.145 101.518 117.352C101.241 117.629 100.93 117.767 100.584 117.767H89.2686C88.9621 117.767 88.7099 117.659 88.512 117.441C88.46 117.384 88.4085 117.326 88.3621 117.265C88.2145 117.069 88.1706 116.821 88.2306 116.522L89.7877 104.172C89.7877 104.034 89.6618 103.944 89.5235 103.944C75.2786 103.983 60.5013 104.002 59.8091 104.002C54.6879 104.002 50.8469 103.241 48.2863 101.719C45.7949 100.127 44.5492 97.2561 44.5492 93.1049C44.5492 92.5514 44.6185 91.652 44.7569 90.4066L46.4063 76.6444C46.5069 75.827 47.2014 75.213 48.0252 75.213H58.445Z" fill="white"/>
<path d="M215.895 60.0267C215.808 60.4616 215.59 60.8531 215.242 61.201C214.981 61.462 214.633 61.5925 214.198 61.5925H203.89C203.716 61.5925 203.542 61.6795 203.368 61.8535C203.281 61.9404 203.238 62.0709 203.238 62.2449L199.193 94.9961C199.106 95.605 199.062 96.3879 199.062 97.3448C199.062 99.6935 199.584 101.39 200.628 102.434C201.759 103.39 203.455 103.825 205.717 103.738H208.066C208.501 103.738 208.849 103.912 209.11 104.26C209.371 104.521 209.458 104.869 209.371 105.304L208.066 115.221C208.066 115.656 207.892 116.047 207.544 116.395C207.283 116.656 206.935 116.83 206.5 116.917H201.02C195.365 116.917 191.103 116.047 188.232 114.308C185.449 112.481 184.057 109.175 184.057 104.391C184.057 103.695 184.144 102.477 184.318 100.737L189.015 62.2449C189.189 61.81 189.015 61.5925 188.493 61.5925H182.622C182.187 61.5925 181.839 61.462 181.578 61.201C181.317 60.8531 181.23 60.4616 181.317 60.0267L182.361 51.6758C182.448 51.2409 182.622 50.8929 182.883 50.6319C183.231 50.284 183.622 50.11 184.057 50.11H189.929C190.364 50.11 190.581 49.8925 190.581 49.4576L191.886 38.4157C191.973 37.9808 192.147 37.6328 192.408 37.3718C192.756 37.0239 193.147 36.8499 193.582 36.8499H204.804C205.239 36.8499 205.587 37.0239 205.848 37.3718C206.109 37.6328 206.196 37.9808 206.109 38.4157L204.804 49.4576C204.804 49.8925 204.978 50.11 205.326 50.11H215.634C216.069 50.11 216.417 50.284 216.678 50.6319C216.939 50.8929 217.026 51.2409 216.939 51.6758L215.895 60.0267Z" fill="white"/>
<path d="M262.467 51.6759C262.554 51.2409 262.728 50.893 262.989 50.632C263.337 50.2841 263.728 50.1101 264.163 50.1101H275.776C276.733 50.1101 277.211 50.632 277.211 51.6759L269.382 115.221C269.295 115.656 269.078 116.047 268.73 116.395C268.469 116.656 268.121 116.787 267.686 116.787H255.943C255.508 116.787 255.16 116.656 254.899 116.395C254.638 116.047 254.551 115.656 254.638 115.221L255.29 110.132C255.377 109.784 255.334 109.61 255.16 109.61C254.986 109.523 254.812 109.61 254.638 109.871C252.724 112.481 250.462 114.482 247.853 115.873C245.243 117.178 242.416 117.831 239.371 117.831C233.717 117.831 229.324 116.004 226.193 112.35C223.061 108.697 221.495 103.782 221.495 97.6058C221.321 95.4311 221.713 90.6902 222.67 83.3832C223.626 75.9022 224.54 70.9438 225.41 68.5082C226.889 62.5929 229.629 57.8956 233.63 54.416C237.632 50.8495 242.459 49.0662 248.114 49.0662C254.377 49.0662 258.726 51.5889 261.162 56.6342C261.249 56.8952 261.379 57.0257 261.553 57.0257C261.727 56.9387 261.858 56.7212 261.945 56.3733L262.467 51.6759ZM256.465 95.3876C257.248 92.604 257.943 88.646 258.552 83.5137C259.161 78.2944 259.466 74.2494 259.466 71.3788C259.466 68.6821 258.683 66.4639 257.117 64.7242C255.551 62.9844 253.464 62.1145 250.854 62.1145C248.157 62.1145 245.765 62.9844 243.677 64.7242C241.677 66.4639 240.328 68.6821 239.632 71.3788C238.762 75.0323 238.067 79.0338 237.545 83.3832C237.023 87.9066 236.762 91.9081 236.762 95.3876C236.762 98.1712 237.545 100.433 239.11 102.173C240.763 103.912 242.938 104.782 245.635 104.782C248.331 104.782 250.636 103.912 252.55 102.173C254.464 100.433 255.769 98.1712 256.465 95.3876Z" fill="white"/>
<path d="M320.775 51.6759C320.862 51.2409 321.036 50.893 321.297 50.632C321.645 50.2841 322.036 50.1101 322.471 50.1101H334.084C335.041 50.1101 335.519 50.632 335.519 51.6759L327.951 113.264C326.733 123.354 323.167 130.835 317.252 135.707C311.336 140.665 303.333 143.144 293.243 143.144C292.112 143.144 290.242 143.057 287.632 142.883C286.762 142.796 286.327 142.231 286.327 141.187L288.023 130.748C288.197 129.618 288.806 129.139 289.85 129.313C290.72 129.4 291.981 129.444 293.634 129.444C299.984 129.444 304.682 128.095 307.726 125.399C310.771 122.702 312.641 118.353 313.337 112.35L313.468 111.176C313.555 110.915 313.511 110.741 313.337 110.654C313.163 110.567 312.989 110.654 312.815 110.915C309.162 114.743 304.464 116.656 298.723 116.656C293.243 116.656 288.806 115.004 285.414 111.698C282.021 108.305 280.238 103.521 280.064 97.3448C279.89 94.0393 280.238 89.3419 281.108 83.2527C282.065 75.8587 283.022 70.9003 283.978 68.3777C285.457 62.4625 288.197 57.7651 292.199 54.2855C296.2 50.806 300.985 49.0662 306.552 49.0662C312.38 49.0662 316.73 51.0235 319.6 54.9379C319.774 55.1119 319.948 55.1989 320.122 55.1989C320.296 55.1119 320.383 54.938 320.383 54.677L320.775 51.6759ZM315.164 94.6047C315.773 91.7341 316.338 87.9501 316.86 83.2527C317.382 79.5122 317.73 75.5977 317.904 71.5093C317.904 68.7256 317.121 66.4639 315.555 64.7242C313.99 62.9844 311.858 62.1145 309.162 62.1145C306.465 62.1145 304.116 62.9844 302.116 64.7242C300.115 66.4639 298.723 68.7256 297.94 71.5093C297.157 74.2929 296.418 78.2074 295.722 83.2527C295.2 88.298 294.983 92.082 295.07 94.6047C295.157 97.3014 295.983 99.5631 297.549 101.39C299.201 103.13 301.376 103.999 304.073 103.999C306.856 103.999 309.205 103.13 311.119 101.39C313.12 99.65 314.468 97.3883 315.164 94.6047Z" fill="white"/>
<path d="M353.309 45.133C350.96 45.133 349.047 44.3936 347.568 42.9148C346.176 41.436 345.48 39.5222 345.48 37.1735C345.48 34.1289 346.437 31.6063 348.351 29.6055C350.351 27.6048 352.787 26.6044 355.658 26.6044C358.093 26.6044 360.007 27.3438 361.399 28.8226C362.878 30.2145 363.617 32.0847 363.617 34.4334C363.617 37.478 362.617 40.0442 360.616 42.1319C358.615 44.1326 356.18 45.133 353.309 45.133ZM337.94 116.787C337.505 116.787 337.157 116.656 336.896 116.395C336.635 116.047 336.548 115.656 336.635 115.221L344.464 51.5454C344.551 51.1105 344.725 50.7625 344.986 50.5015C345.334 50.1536 345.725 49.9796 346.16 49.9796H357.904C358.339 49.9796 358.687 50.1536 358.948 50.5015C359.209 50.7625 359.296 51.1105 359.209 51.5454L351.38 115.221C351.293 115.656 351.075 116.047 350.727 116.395C350.466 116.656 350.118 116.787 349.683 116.787H337.94Z" fill="white"/>
<path d="M385.525 117.831C378.74 117.831 373.347 115.96 369.345 112.22C365.431 108.392 363.43 103.26 363.343 96.8229C363.169 92.7345 363.387 88.2546 363.996 83.3832C364.517 78.7728 365.387 74.2059 366.605 69.6825C368.345 63.3323 371.651 58.3305 376.522 54.677C381.48 50.9365 387.352 49.0662 394.137 49.0662C400.835 49.0662 406.141 50.9365 410.056 54.677C413.97 58.3305 416.015 63.2888 416.189 69.552C416.363 73.8145 416.145 78.3814 415.536 83.2527C414.927 88.2111 414.057 92.691 412.927 96.6924C411.274 103.217 407.968 108.392 403.01 112.22C398.139 115.96 392.31 117.831 385.525 117.831ZM387.221 104.782C390.005 104.782 392.441 103.825 394.529 101.912C396.616 99.998 398.095 97.4753 398.965 94.3437C399.922 89.1244 400.531 85.4709 400.792 83.3832C401.053 81.6434 401.27 78.9468 401.444 75.2933L401.705 72.2922C401.618 69.2476 400.748 66.8119 399.095 64.9851C397.443 63.0714 395.224 62.1145 392.441 62.1145C389.57 62.1145 387.091 63.0279 385.003 64.8546C382.916 66.6814 381.48 69.1606 380.697 72.2922C379.914 75.5977 379.262 79.2947 378.74 83.3832C378.218 88.4285 377.957 92.082 377.957 94.3437C377.957 97.4753 378.784 99.998 380.436 101.912C382.089 103.825 384.351 104.782 387.221 104.782Z" fill="white"/>
<path d="M455.871 49.0662C461.351 49.0662 465.57 50.6755 468.528 53.8941C471.485 57.1127 472.964 61.5926 472.964 67.3338C472.964 68.1167 472.877 69.552 472.703 71.6397L467.354 115.221C467.267 115.656 467.049 116.047 466.701 116.395C466.44 116.656 466.092 116.787 465.657 116.787H453.914C453.479 116.787 453.131 116.656 452.87 116.395C452.609 116.047 452.522 115.656 452.609 115.221L457.698 73.7275C457.785 73.2055 457.828 72.4226 457.828 71.3788C457.828 68.5082 457.089 66.2465 455.61 64.5937C454.218 62.9409 452.218 62.1145 449.608 62.1145C446.563 62.1145 443.997 63.2019 441.909 65.3766C439.822 67.4643 438.56 70.2914 438.125 73.858L433.037 115.221C432.95 115.656 432.732 116.047 432.384 116.395C432.123 116.656 431.775 116.787 431.34 116.787H419.727C418.77 116.787 418.292 116.265 418.292 115.221L426.121 51.6759C426.208 51.2409 426.382 50.893 426.643 50.632C426.991 50.2841 427.382 50.1101 427.817 50.1101H439.561C439.996 50.1101 440.344 50.2841 440.605 50.632C440.866 50.893 440.953 51.2409 440.866 51.6759L440.474 55.0684C440.387 55.3294 440.431 55.5034 440.605 55.5904C440.779 55.6774 440.953 55.5904 441.126 55.3294C445.041 51.1539 449.956 49.0662 455.871 49.0662Z" fill="white"/>
</svg>
