<svg width="4000" height="2000" viewBox="0 0 4000 2000" fill="none" xmlns="http://www.w3.org/2000/svg">
<path d="M983 1855L632 1678" stroke="#A5A7AE" stroke-width="24" stroke-linecap="round" stroke-linejoin="round"/>
<line x1="1016.88" y1="1101.31" x2="687.312" y2="935.118" stroke="#A5A7AE" stroke-width="24" stroke-linecap="round" stroke-linejoin="round"/>
<line x1="1432.88" y1="1291.31" x2="1103.31" y2="1125.12" stroke="#A5A7AE" stroke-width="24" stroke-linecap="round" stroke-linejoin="round"/>
<line x1="2247.88" y1="1264.31" x2="1918.31" y2="1098.12" stroke="#A5A7AE" stroke-width="24" stroke-linecap="round" stroke-linejoin="round"/>
<line x1="1803.88" y1="560.312" x2="1474.31" y2="394.118" stroke="#A5A7AE" stroke-width="24" stroke-linecap="round" stroke-linejoin="round"/>
<line x1="2246.88" y1="363.312" x2="1917.31" y2="197.118" stroke="#A5A7AE" stroke-width="24" stroke-linecap="round" stroke-linejoin="round"/>
<line x1="2713.88" y1="574.312" x2="2384.31" y2="408.118" stroke="#A5A7AE" stroke-width="24" stroke-linecap="round" stroke-linejoin="round"/>
<line x1="3157.88" y1="778.312" x2="2828.31" y2="612.118" stroke="#A5A7AE" stroke-width="24" stroke-linecap="round" stroke-linejoin="round"/>
<line x1="3097.88" y1="1211.31" x2="2768.31" y2="1045.12" stroke="#A5A7AE" stroke-width="24" stroke-linecap="round" stroke-linejoin="round"/>
<line x1="3558.88" y1="1421.31" x2="3229.31" y2="1255.12" stroke="#A5A7AE" stroke-width="24" stroke-linecap="round" stroke-linejoin="round"/>
<line x1="3944.88" y1="751.312" x2="3615.31" y2="585.118" stroke="#A5A7AE" stroke-width="24" stroke-linecap="round" stroke-linejoin="round"/>
<line x1="3508.88" y1="1826.31" x2="3179.31" y2="1660.12" stroke="#A5A7AE" stroke-width="24" stroke-linecap="round" stroke-linejoin="round"/>
<line x1="1437" y1="766" x2="1437" y2="440" stroke="#A5A7AE" stroke-width="24" stroke-linecap="round" stroke-linejoin="round"/>
<line x1="403" y1="399" x2="403" y2="73" stroke="#A5A7AE" stroke-width="24" stroke-linecap="round" stroke-linejoin="round"/>
<line x1="620" y1="1659" x2="620" y2="1333" stroke="#A5A7AE" stroke-width="24" stroke-linecap="round" stroke-linejoin="round"/>
<line x1="3161" y1="726" x2="3161" y2="400" stroke="#A5A7AE" stroke-width="24" stroke-linecap="round" stroke-linejoin="round"/>
<line x1="1906" y1="1481" x2="1906" y2="1155" stroke="#A5A7AE" stroke-width="24" stroke-linecap="round" stroke-linejoin="round"/>
<line x1="3177" y1="1624" x2="3177" y2="1298" stroke="#A5A7AE" stroke-width="24" stroke-linecap="round" stroke-linejoin="round"/>
<line x1="1437" y1="1259" x2="1437" y2="933" stroke="#A5A7AE" stroke-width="24" stroke-linecap="round" stroke-linejoin="round"/>
<circle cx="617" cy="883" r="199.5" fill="white" stroke="#A5A7AE" stroke-width="27"/>
<circle cx="617" cy="1340" r="157.5" fill="white" stroke="#A5A7AE" stroke-width="27"/>
<circle cx="2260" cy="337" r="157.5" fill="white" stroke="#A5A7AE" stroke-width="27"/>
<circle cx="1449" cy="1322" r="157.5" fill="white" stroke="#A5A7AE" stroke-width="27"/>
<circle cx="2726" cy="529" r="157.5" fill="white" stroke="#A5A7AE" stroke-width="27"/>
<circle cx="3170" cy="1219" r="157.5" fill="white" stroke="#A5A7AE" stroke-width="27"/>
<circle cx="2342" cy="1664" r="157.5" fill="white" stroke="#A5A7AE" stroke-width="27"/>
<circle cx="3575" cy="563" r="157.5" fill="white" stroke="#A5A7AE" stroke-width="27"/>
<circle cx="404" cy="392" r="157.5" fill="white" stroke="#A5A7AE" stroke-width="27"/>
<circle cx="1001" cy="1853" r="83.5" fill="white" stroke="#A5A7AE" stroke-width="27"/>
<circle cx="3575" cy="1390" r="157.5" fill="white" stroke="#A5A7AE" stroke-width="27"/>
<circle cx="3170" cy="1664" r="89.5" fill="white" stroke="#A5A7AE" stroke-width="27"/>
<circle cx="3507" cy="1835" r="89.5" fill="white" stroke="#A5A7AE" stroke-width="27"/>
<circle cx="3151" cy="773" r="89.5" fill="white" stroke="#A5A7AE" stroke-width="27"/>
<circle cx="1907" cy="1096" r="89.5" fill="white" stroke="#A5A7AE" stroke-width="27"/>
<circle cx="1033" cy="1096" r="89.5" fill="white" stroke="#A5A7AE" stroke-width="27"/>
<circle cx="617" cy="1678" r="89.5" fill="white" stroke="#A5A7AE" stroke-width="27"/>
<circle cx="1865" cy="153" r="89.5" fill="white" stroke="#A5A7AE" stroke-width="27"/>
<circle cx="1907" cy="1493" r="89.5" fill="white" stroke="#A5A7AE" stroke-width="27"/>
<circle cx="1449" cy="378" r="89.5" fill="white" stroke="#A5A7AE" stroke-width="27"/>
<circle cx="1449" cy="816" r="199.5" fill="white" stroke="#A5A7AE" stroke-width="27"/>
<circle cx="136" cy="1109" r="83.5" fill="white" stroke="#A5A7AE" stroke-width="27"/>
<circle cx="2726" cy="1006" r="199.5" fill="white" stroke="#A5A7AE" stroke-width="27"/>
</svg>
