<svg width="750" height="458" viewBox="0 0 750 458" fill="none" xmlns="http://www.w3.org/2000/svg">
<rect width="750" height="458" fill="white"/>
<path d="M101.313 116.387C111.96 116.387 120.592 104.827 120.592 90.5666C120.592 76.3063 111.96 64.7461 101.313 64.7461C90.6649 64.7461 82.0333 76.3063 82.0333 90.5666C82.0333 104.827 90.6649 116.387 101.313 116.387Z" stroke="#6D798A" stroke-width="3" stroke-miterlimit="10"/>
<path d="M97.4565 103.695C102.467 103.695 106.529 97.6023 106.529 90.0864C106.529 82.5704 102.467 76.4775 97.4565 76.4775C92.4458 76.4775 88.3839 82.5704 88.3839 90.0864C88.3839 97.6023 92.4458 103.695 97.4565 103.695Z" stroke="#6D798A" stroke-width="3" stroke-miterlimit="10"/>
<path d="M156.428 139.53C137.249 140.564 118.242 130.575 107.563 114.726" stroke="#6D798A" stroke-width="3" stroke-miterlimit="10"/>
<path d="M213.585 88.7236C213.585 116.785 187.992 139.53 156.428 139.53" stroke="#6D798A" stroke-width="3" stroke-miterlimit="10"/>
<path d="M156.428 37.918C187.992 37.918 213.585 60.6629 213.585 88.7243" stroke="#6D798A" stroke-width="3" stroke-miterlimit="10"/>
<path d="M106.021 64.7458C116.464 47.4535 136.577 37.9183 156.428 37.9092" stroke="#6D798A" stroke-width="3" stroke-miterlimit="10"/>
<path d="M136.759 98.4787C138.763 98.4787 140.388 96.854 140.388 94.8497C140.388 92.8455 138.763 91.2207 136.759 91.2207C134.755 91.2207 133.13 92.8455 133.13 94.8497C133.13 96.854 134.755 98.4787 136.759 98.4787Z" fill="#6D798A" stroke="#6D798A" stroke-width="4" stroke-miterlimit="10"/>
<path d="M195.731 98.4787C197.735 98.4787 199.36 96.854 199.36 94.8497C199.36 92.8455 197.735 91.2207 195.731 91.2207C193.726 91.2207 192.102 92.8455 192.102 94.8497C192.102 96.854 193.726 98.4787 195.731 98.4787Z" fill="#6D798A" stroke="#6D798A" stroke-width="4" stroke-miterlimit="10"/>
<path d="M176.17 95.8015C175.127 97.0807 174.945 97.2894 173.956 97.8791C170.654 99.6211 167.696 99.9023 163.468 98.242C163.36 98.1967 163.242 98.1422 163.16 98.1059C161.89 97.5888 160.783 96.6271 159.486 96.2189C158.07 95.9376 157.354 98.0515 158.615 98.7319C162.588 101.236 167.442 102.987 172.115 101.563C174.129 100.982 176.134 100.057 177.513 98.4325C177.903 97.9245 178.493 97.4709 178.484 96.7723C178.529 95.5928 176.968 94.9487 176.17 95.8015Z" fill="#6D798A"/>
<path d="M105.867 235.484C105.667 235.112 105.513 234.703 105.413 234.304C104.379 233.814 103.353 233.288 102.383 232.707C96.1952 229.051 91.2144 223.435 87.5854 217.139C84.791 212.203 83.4029 206.179 82.5047 199.792C80.2003 187.381 83.6479 172.212 89.8444 160.671C94.5168 151.798 100.133 143.443 106.284 135.522C108.135 133.1 112.988 127.674 115.919 124.39C117.144 123.193 115.311 121.178 113.996 122.467C113.288 123.238 112.589 124.018 111.891 124.789C111.746 124.78 111.6 124.798 111.455 124.844C104.841 126.314 98.1367 127.411 91.6861 129.525C89.8716 130.16 87.9482 130.687 86.4241 131.911C86.4059 131.929 86.3878 131.948 86.3605 131.966C86.2154 131.993 86.0612 132.047 85.916 132.138C79.7467 136.502 75.3918 142.771 71.1187 148.877C70.0118 150.437 68.8687 151.971 67.7074 153.486C67.662 153.531 67.5894 153.622 67.5169 153.722C65.3394 152.814 63.3072 151.943 60.7124 150.719C60.2225 150.428 59.7417 150.483 59.3788 150.71C58.8526 150.719 58.3445 151.018 58.154 151.68C56.5663 155.89 55.1872 160.209 54.2981 164.618C53.6177 168.401 53.4453 172.466 55.2236 175.995C56.5209 178.88 59.0068 181.466 62.1731 182.046C63.661 185.775 66.1197 189.15 68.914 191.999C71.2548 194.285 73.9221 196.218 76.6075 198.068C77.7144 198.713 78.7215 199.62 79.8283 200.264C79.8374 200.291 79.8374 200.318 79.8374 200.355C80.4997 204.855 81.289 209.364 82.9765 213.61C86.4694 222.673 93.6639 231.011 102.165 235.719C103.598 236.5 105.086 237.189 106.61 237.788C106.139 237.108 105.867 236.318 105.867 235.484ZM87.8938 134.334C88.1297 133.145 96.6398 130.768 101.53 129.698C103.989 129.153 106.456 128.681 108.915 128.173C105.241 132.447 101.748 136.874 98.4815 141.474C97.9825 141.183 97.42 140.957 97.0027 140.712C96.0319 140.195 95.0702 139.668 94.0995 139.16C90.3253 137.346 87.2134 135.059 87.8938 134.334ZM62.9171 179.442C59.5784 178.735 57.9544 176.213 56.8747 172.611C56.3122 170.842 56.5663 167.439 56.8385 165.888C57.6006 161.678 58.8979 157.568 60.3586 153.549C65.6933 155.999 70.03 157.668 75.2104 159.918C76.0451 160.263 76.8888 160.608 77.7326 160.943C77.3878 161.533 77.0975 162.159 76.8616 162.586C75.664 164.899 74.539 167.258 73.2779 169.535C70.6287 174.707 66.5279 179.442 63.3798 179.461C63.2346 179.424 63.0804 179.415 62.9171 179.442ZM79.3837 196.689C73.8313 192.897 69.1136 189.504 65.9564 183.625C65.6025 183.099 65.3485 182.491 65.0854 181.883C71.1096 180.259 74.9019 172.32 77.542 167.285C78.413 165.607 79.2114 163.901 80.1549 162.259C80.5723 161.66 81.1075 160.898 80.7446 160.2C80.7537 159.828 80.6358 159.447 80.3636 159.183C79.7376 158.675 78.8666 158.557 78.1499 158.194C75.7457 157.215 74.7749 156.797 72.1802 155.681C71.4634 155.382 70.8011 155.101 70.157 154.829C70.6197 154.221 71.0007 153.522 71.4997 152.987C75.41 147.752 78.0229 143.343 82.2507 138.961C83.3666 137.754 84.4281 136.82 85.4352 135.985C85.6801 136.556 86.0793 137.11 86.6055 137.6C89.037 139.877 92.1851 141.138 95.0521 142.753C95.5964 142.962 96.2496 143.433 96.9028 143.778C95.6418 145.62 94.417 147.48 93.2376 149.376C87.4311 158.512 82.5138 168.356 80.3817 179.034C79.0753 184.831 78.794 190.792 79.3837 196.689Z" fill="#6D798A"/>
<path d="M115.393 240.818C107.618 240.818 101.303 231.882 101.303 220.858" stroke="#6D798A" stroke-width="3" stroke-miterlimit="10"/>
<path d="M126.189 233.678C124.066 237.27 120.337 240.809 115.393 240.818" stroke="#6D798A" stroke-width="3" stroke-miterlimit="10"/>
<path d="M129.482 220.858C129.482 221.938 129.419 223.018 129.301 224.097" stroke="#6D798A" stroke-width="3" stroke-miterlimit="10"/>
<path d="M115.393 200.898C123.168 200.898 129.483 209.835 129.483 220.858" stroke="#6D798A" stroke-width="3" stroke-miterlimit="10"/>
<path d="M101.312 220.859C101.312 209.836 107.618 200.899 115.402 200.899" stroke="#6D798A" stroke-width="3" stroke-miterlimit="10"/>
<path d="M127.478 175.742L116.154 162.552L128.879 155.431L137.05 164.886L149.307 172.591L156.428 176.677L150.942 179.828V187.883L145.105 185.548L127.478 175.742Z" fill="white"/>
<path d="M150.041 186.773C137.049 182.491 125.463 174.661 116.418 163.366C115.601 162.341 115.601 162.35 115.111 161.706C114.93 161.397 114.64 161.17 114.295 161.08C113.17 160.735 112.127 162.078 112.762 163.076C117.86 169.871 124.066 175.786 131.07 180.586C135.752 183.679 140.823 186.192 146.049 188.234C147.129 188.642 148.226 189.014 149.315 189.395C149.832 189.54 150.449 189.359 150.748 188.905C151.365 188.207 150.948 186.991 150.041 186.773Z" fill="#6D798A"/>
<path d="M165.147 163.075C163.831 161.859 162.171 160.943 160.51 160.335C160.102 160.254 159.748 160.381 159.494 160.607C159.467 160.245 159.449 159.873 159.413 159.51C159.023 155.273 158.251 151.09 157.38 146.935C156.773 144.486 156.437 141.882 155.384 139.586C154.568 138.398 152.572 139.396 153.007 140.775C156.183 152.179 158.224 163.239 155.829 173.962C155.784 174.307 155.666 174.661 155.593 175.015C145.749 171.313 138.31 166.087 130.988 157.051C130.09 156.162 129.51 154.865 128.457 154.184C127.468 153.694 126.298 154.747 126.624 155.79C131.106 162.014 136.686 167.639 143.091 171.912C146.412 174.089 150.068 175.695 153.742 177.165C154.25 177.364 154.768 177.555 155.276 177.746C155.412 177.646 155.557 177.564 155.729 177.519C155.829 177.491 155.929 177.446 156.029 177.419C156.138 177.265 156.283 177.12 156.428 177.038C156.582 176.956 156.745 176.884 156.9 176.82C157.208 176.811 157.507 176.72 157.752 176.53C157.898 176.494 158.043 176.475 158.197 176.466C158.224 176.448 158.242 176.421 158.27 176.394C158.315 176.339 158.36 176.285 158.406 176.23C158.46 176.176 158.533 176.149 158.587 176.103C158.514 176.067 158.442 176.022 158.36 176.004C158.288 175.976 158.224 175.958 158.152 175.931C158.161 175.904 158.179 175.877 158.188 175.849C158.805 173.137 159.249 170.37 159.467 167.593C160.565 169.063 162.071 170.106 163.985 169.108C165.301 168.437 166.163 166.958 166.29 165.516C166.29 164.563 165.773 163.728 165.147 163.075ZM162.007 166.414C161.935 166.341 161.844 166.242 161.781 166.16C161.155 165.389 160.928 164.318 160.211 163.638C160.021 163.474 159.821 163.393 159.612 163.356C159.612 163.175 159.603 163.003 159.594 162.821C159.612 162.83 159.621 162.839 159.639 162.848C161.354 163.728 162.588 164.255 163.368 165.162C163.441 165.271 163.504 165.38 163.568 165.498C163.55 165.579 163.513 165.652 163.486 165.724C163.377 165.951 163.25 166.178 163.114 166.387C163.051 166.459 162.978 166.523 162.906 166.586C162.842 166.632 162.77 166.668 162.706 166.704C162.633 166.731 162.561 166.741 162.488 166.759C162.47 166.759 162.461 166.759 162.443 166.759H162.434C162.407 166.75 162.388 166.731 162.352 166.713C162.325 166.695 162.298 166.677 162.271 166.659C162.18 166.577 162.071 166.486 162.007 166.414Z" fill="#6D798A"/>
<path d="M168.614 187.996C169.908 183.051 167.039 178.018 162.206 176.754C157.373 175.489 152.407 178.473 151.113 183.417C149.82 188.361 152.689 193.394 157.521 194.659C162.354 195.923 167.321 192.94 168.614 187.996Z" fill="white" stroke="#6D798A" stroke-width="3" stroke-miterlimit="10"/>
<path d="M252.071 155.844C251.781 155.708 251.445 155.662 251.1 155.771C229.771 160.335 208.468 165.007 187.057 169.144C186.939 161.106 184.988 153.095 181.786 145.746C180.243 142.217 178.456 138.805 176.551 135.467C176.487 135.494 176.433 135.53 176.37 135.548C176.27 135.585 176.161 135.612 176.061 135.639C175.843 135.848 175.553 135.993 175.181 136.011C174.655 136.038 174.147 136.229 173.62 136.338C174.337 137.599 175.036 138.86 175.698 140.085C180.788 149.312 183.927 159.046 184.127 169.38C184.136 169.48 184.136 169.589 184.136 169.698C181.595 170.169 178.864 170.677 176.233 171.149C176.125 171.185 176.025 171.222 175.916 171.249C175.535 171.349 175.136 171.385 174.745 171.43C174.537 171.467 174.337 171.503 174.129 171.53C174.265 171.512 174.392 171.494 174.528 171.476C174.274 171.539 174.02 171.576 173.757 171.594C173.693 171.612 173.639 171.657 173.575 171.666C173.394 171.712 173.203 171.721 173.022 171.739C172.913 171.748 172.804 171.757 172.695 171.757C170.962 172.038 169.356 172.283 168.014 172.447C166.898 172.447 166.417 173.445 166.589 174.288C166.499 174.515 166.444 174.769 166.426 175.059C166.072 176.575 165.755 178.099 165.437 179.632C165.718 179.677 165.981 179.804 166.217 179.995C166.58 180.285 166.852 180.657 167.043 181.065C167.106 181.138 167.17 181.211 167.233 181.292C167.515 181.501 167.714 181.791 167.787 182.2C167.841 182.227 167.887 182.263 167.941 182.299C168.395 179.931 168.885 177.573 169.456 175.232C174.782 174.479 180.08 173.535 185.36 172.519C185.642 172.555 185.914 172.492 186.159 172.365C192.5 171.14 198.824 169.806 205.157 168.563C220.126 165.715 234.969 162.231 249.875 159.055C248.279 168.237 245.838 177.264 243.987 186.4C242.88 192.397 241.284 198.294 239.995 204.246C238.78 209.916 237.8 215.632 236.375 221.257C214.547 227.435 192.328 232.099 170.418 237.996C165.882 239.275 161.209 240.246 156.673 241.516C159.132 227.925 161.608 214.344 164.63 200.871C165.219 197.768 165.755 194.647 166.281 191.535C166.045 191.698 165.809 191.88 165.591 192.07C165.374 192.506 164.938 192.742 164.548 193.087C164.094 193.486 163.459 193.595 162.951 193.322C162.661 195.01 162.371 196.707 162.071 198.394C161.091 203.593 159.885 208.737 158.787 213.908C158.451 213.618 157.998 213.482 157.49 213.636C153.398 214.852 149.315 216.086 145.223 217.31C148.435 213.055 150.776 208.156 152.491 203.121C153.761 199.347 154.795 195.237 154.441 191.254C153.96 189.902 151.783 190.338 151.837 191.78C151.774 195.944 151.13 198.902 149.587 203.221C148.108 207.421 146.031 211.713 142.892 215.94C142.874 215.959 142.874 215.968 142.855 215.986C142.756 216.113 142.656 216.231 142.556 216.358C142.084 217.093 141.132 217.637 141.068 218.562C135.398 220.25 129.718 221.91 124.012 223.489C119.231 224.949 114.277 226.056 109.541 227.517C108.969 227.907 108.861 228.551 109.042 229.114C108.688 229.894 108.96 230.992 109.949 231.228C124.502 235.437 138.755 240.972 153.343 244.927C153.479 245.036 153.634 245.127 153.806 245.172C154.468 245.662 155.512 245.517 155.965 244.809C167.841 241.779 179.699 238.667 191.575 235.646C206.835 231.981 222.159 228.515 237.237 224.115C237.274 224.124 237.31 224.115 237.346 224.124C237.391 224.106 237.446 224.088 237.491 224.069C237.537 224.051 237.582 224.024 237.636 224.015C237.727 223.988 237.809 223.97 237.9 223.942C237.945 223.924 237.99 223.915 238.036 223.906C238.045 223.906 238.054 223.897 238.063 223.897C238.099 223.87 238.135 223.843 238.172 223.815C238.226 223.779 238.299 223.77 238.353 223.743C238.362 223.734 238.371 223.725 238.389 223.725V223.716C238.462 223.607 238.553 223.516 238.625 223.416L238.662 223.38C238.78 223.235 238.898 223.08 239.034 222.935C239.07 222.854 239.097 222.772 239.133 222.69C239.142 222.627 239.142 222.554 239.161 222.491C239.188 222.409 239.206 222.337 239.224 222.255L239.215 222.291C239.233 222.219 239.251 222.146 239.279 222.073C239.288 221.974 239.297 221.874 239.324 221.774C239.342 221.711 239.369 221.647 239.387 221.593C239.406 221.529 239.406 221.456 239.424 221.393C239.469 221.23 239.514 221.066 239.56 220.903C239.578 220.685 239.614 220.513 239.669 220.341H239.66C241.093 214.207 242.155 208.002 243.57 201.869C245.502 194.248 246.927 186.518 248.678 178.852C250.265 171.821 252.007 164.798 253.123 157.676C253.395 156.715 252.797 156.043 252.071 155.844ZM154.232 238.431C154.006 239.611 153.797 240.799 153.579 241.979C143.146 238.849 132.821 235.374 122.488 231.926C119.639 231.146 116.808 230.13 113.968 229.286C128.847 225.385 143.672 221.039 158.297 216.403C158.188 216.929 158.079 217.446 157.979 217.973C156.637 224.777 155.548 231.627 154.232 238.431Z" fill="#6D798A"/>
<path d="M213.032 114.129C211.245 114.129 209.503 113.721 207.951 113.022" stroke="#6D798A" stroke-width="3" stroke-miterlimit="10"/>
<path d="M230.397 88.7266C230.397 102.753 222.621 114.13 213.032 114.13" stroke="#6D798A" stroke-width="3" stroke-miterlimit="10"/>
<path d="M213.032 63.3232C222.621 63.3232 230.397 74.7002 230.397 88.7264" stroke="#6D798A" stroke-width="3" stroke-miterlimit="10"/>
<path d="M207.715 64.4764C209.33 63.7416 211.163 63.3242 213.032 63.3242" stroke="#6D798A" stroke-width="3" stroke-miterlimit="10"/>
<path d="M94.0544 65.9176C97.8286 55.0305 112.572 42.3017 112.572 42.3017C112.572 42.3017 153.135 5.06798 199.804 44.8148C199.804 44.8148 208.278 53.1979 211.88 64.4751" stroke="#6D798A" stroke-width="3" stroke-miterlimit="10"/>
<path d="M206.5 202.414C209.005 202.414 211.036 200.383 211.036 197.878C211.036 195.373 209.005 193.342 206.5 193.342C203.994 193.342 201.963 195.373 201.963 197.878C201.963 200.383 203.994 202.414 206.5 202.414Z" stroke="#6D798A" stroke-width="3" stroke-miterlimit="10"/>
<path d="M151.157 418.641C90.0261 418.641 40.4718 368.769 40.4718 307.257" stroke="#6D798A" stroke-width="3" stroke-miterlimit="10"/>
<path d="M261.842 307.257C261.842 368.769 212.288 418.641 151.157 418.641" stroke="#6D798A" stroke-width="3" stroke-miterlimit="10"/>
<path d="M225.824 225.031C243.343 241.144 255.41 262.8 259.864 286.189C261.18 293.13 261.842 300.188 261.842 307.256" stroke="#6D798A" stroke-width="3" stroke-miterlimit="10"/>
<path d="M40.4719 307.256C41.86 271.555 57.2834 236.172 86.7964 216.621" stroke="#6D798A" stroke-width="3" stroke-miterlimit="10"/>
<path d="M74.1492 280.654C72.5615 277.669 70.0303 275.229 67.0182 273.705C66.0656 273.296 65.0585 272.652 63.997 272.67C62.5636 272.788 62.4275 274.984 63.8156 275.319C68.9688 276.826 72.997 282.124 73.369 287.195C73.9315 293.982 69.1412 298.436 62.5908 300.278C62.1916 300.423 61.7107 300.423 61.3841 300.723C60.6039 301.24 60.7128 302.528 61.5202 302.964C62.5908 303.463 63.7793 302.673 64.8317 302.419C74.5212 299.207 79.0575 289.899 74.1492 280.654Z" fill="#6D798A"/>
<path d="M77.1159 345.995C73.8498 340.968 67.3175 338.773 61.5293 339.589C59.6149 339.889 57.8458 340.76 56.2127 341.776C55.4597 342.375 54.3256 342.719 53.9809 343.672C53.6361 344.797 54.9789 345.831 55.9769 345.205C60.1502 342.066 63.2621 341.54 67.5897 342.601C74.4395 344.089 78.3316 351.148 76.6623 357.644C76.0544 359.794 74.8024 362.017 73.4687 363.496C72.9244 364.23 72.0262 364.711 71.5907 365.51C70.9466 366.807 72.8155 368.059 73.7954 366.998C79.8921 361.799 81.8336 352.745 77.1159 345.995Z" fill="#6D798A"/>
<path d="M142.021 352.319C141.976 351.647 141.341 351.148 140.687 351.139C139.68 351.275 138.882 352.101 137.929 352.455C137.385 352.763 135.443 353.471 133.819 353.707C131.851 353.961 129.546 353.961 127.251 352.219C125.246 350.64 123.032 347.102 123.676 343.291C123.694 342.021 124.874 339.127 125.963 338.084C126.507 337.358 127.596 336.886 127.614 335.87C127.659 334.7 126.09 334.046 125.291 334.908C121.608 338.038 119.975 343.337 121.317 347.982C123.023 353.625 128.122 357.445 134.092 356.392C136.196 356.138 138.211 355.394 140.079 354.414C140.896 353.934 142.23 353.489 142.021 352.319Z" fill="#6D798A"/>
<path d="M135.48 278.568C135.18 278.051 134.518 277.778 133.947 277.942C132.277 278.205 132.495 278.187 130.962 278.35C128.213 278.577 126.67 278.541 124.584 278.033C116.981 276.254 112.327 269.25 113.697 262.31C114.386 259.053 115.366 257.256 117.389 254.244C117.407 253.981 118.496 253.337 118.65 252.176C118.696 251.005 117.126 250.352 116.328 251.214C112.699 255.605 109.995 261.312 110.957 267.118C111.909 274.921 119.294 280.645 126.897 281.153C129.156 281.344 131.415 281.072 133.647 280.745C134.137 280.636 134.727 280.691 135.126 280.337C135.688 279.947 135.806 279.139 135.48 278.568Z" fill="#6D798A"/>
<path d="M242.862 280.745C241.646 280.319 240.213 280.809 238.925 280.582C237.945 280.573 235.559 279.965 234.67 279.43C229.426 276.635 227.938 270.439 231.467 265.313C232.61 263.734 233.889 262.437 236.257 261.267C237.782 260.368 236.421 258.028 234.887 258.917C224.708 263.87 223.71 278.087 234.851 282.46C236.947 283.222 239.215 283.44 241.438 283.331C242.182 283.322 243.143 283.286 243.425 282.451C243.715 281.843 243.425 281.081 242.862 280.745Z" fill="#6D798A"/>
<path d="M237.7 339.453C230.37 335.643 221.66 340.869 217.831 347.355C215.482 351.293 215.019 356.301 216.607 360.611C217.205 362.216 218.004 363.75 219.002 365.147C219.356 365.573 219.61 366.19 220.163 366.39C220.644 366.635 221.279 366.48 221.651 366.108C222.74 364.575 221.342 364.14 220.707 362.797C219.564 360.837 219.337 360.402 218.775 358.379C216.815 351.22 222.286 343.609 229.208 341.368C231.204 340.687 234.489 340.932 235.323 341.304C235.995 341.558 236.63 342.166 237.392 341.939C238.508 341.667 238.725 340.007 237.7 339.453Z" fill="#6D798A"/>
<path d="M170.872 327.387C170.736 327.369 170.672 327.36 170.636 327.351C169.847 327.242 169.066 327.106 168.286 326.951C166.907 326.725 164.321 325.836 164.14 325.69C157.435 322.76 155.113 315.665 156.673 309.169C157.018 307.518 158.542 305.395 159.449 304.125C160.094 302.828 158.225 301.576 157.245 302.637C152.563 307.881 152.391 316.092 155.92 322.007C158.052 325.645 161.808 328.067 165.827 329.156C167.27 329.555 168.74 329.827 170.218 330.027C171.244 330.299 172.496 330.072 172.523 328.784C172.505 327.886 171.697 327.351 170.872 327.387Z" fill="#6D798A"/>
<path d="M188.672 303.263C186.821 299.498 183.637 296.186 179.699 294.644C176.379 293.238 172.632 293.229 169.175 294.109C167.859 294.508 165.845 295.007 164.856 295.905C163.913 297.012 165.392 298.672 166.616 297.901C172.84 294.953 180.107 295.642 184.762 301.984C187.075 304.678 187.774 309.85 186.222 314.322C186.059 314.939 185.233 316.6 184.254 317.879C184.226 317.915 184.217 317.924 184.199 317.952C184.19 317.961 184.19 317.97 184.172 317.979C183.809 318.523 183.228 318.931 182.947 319.521C182.448 320.51 183.51 321.68 184.553 321.354C185.206 321.163 185.551 320.501 185.986 320.029C186.594 319.276 187.175 318.496 187.647 317.652C190.051 313.361 190.441 307.854 188.672 303.263Z" fill="#6D798A"/>
<path d="M135.634 246.995C133.048 246.16 130.263 245.77 127.568 246.314C126.561 246.496 125.582 246.831 124.62 247.176C124.148 247.339 123.631 247.484 123.386 247.956C122.76 248.954 123.794 250.306 124.919 249.952C128.494 248.619 130.263 248.482 133.348 249.181C136.432 249.979 138.011 250.787 140.052 252.71C144.543 257.038 144.888 262.445 142.203 267.771C142.003 268.696 143.019 269.54 143.899 269.268C144.716 269.041 144.924 268.161 145.26 267.48C145.841 266.192 146.303 264.849 146.467 263.434C147.7 256.203 142.475 249.081 135.634 246.995Z" fill="#6D798A"/>
<path d="M154.432 398.897C152.518 393.208 147.31 387.983 140.914 388.845C138.011 389.189 135.516 391.085 133.683 393.281C132.304 395.005 131.606 397.146 131.043 399.242C130.898 400.222 130.218 401.292 130.698 402.245C131.252 403.27 132.912 403.052 133.184 401.918C134.073 398.325 134.618 396.021 136.532 394.179C140.905 389.398 147.637 391.285 150.785 397.382C151.493 398.752 151.502 398.77 151.892 399.813C152.028 400.249 152.2 400.702 152.627 400.929C153.942 401.673 155.194 400.131 154.432 398.897Z" fill="#6D798A"/>
<path d="M181.75 256.793C183.253 256.793 184.471 255.575 184.471 254.071C184.471 252.568 183.253 251.35 181.75 251.35C180.246 251.35 179.028 252.568 179.028 254.071C179.028 255.575 180.246 256.793 181.75 256.793Z" fill="#6D798A" stroke="#6D798A" stroke-miterlimit="10"/>
<path d="M189.77 265.195C191.569 265.195 193.027 263.737 193.027 261.938C193.027 260.139 191.569 258.681 189.77 258.681C187.971 258.681 186.513 260.139 186.513 261.938C186.513 263.737 187.971 265.195 189.77 265.195Z" fill="#6D798A" stroke="#6D798A" stroke-miterlimit="10"/>
<path d="M224.363 319.439C226.162 319.439 227.621 317.981 227.621 316.182C227.621 314.383 226.162 312.925 224.363 312.925C222.565 312.925 221.106 314.383 221.106 316.182C221.106 317.981 222.565 319.439 224.363 319.439Z" fill="#6D798A" stroke="#6D798A" stroke-miterlimit="10"/>
<path d="M205.32 254.072C207.119 254.072 208.577 252.614 208.577 250.815C208.577 249.016 207.119 247.558 205.32 247.558C203.521 247.558 202.063 249.016 202.063 250.815C202.063 252.614 203.521 254.072 205.32 254.072Z" fill="#6D798A" stroke="#6D798A" stroke-miterlimit="10"/>
<path d="M166.29 392.011C168.089 392.011 169.547 390.553 169.547 388.754C169.547 386.955 168.089 385.497 166.29 385.497C164.491 385.497 163.033 386.955 163.033 388.754C163.033 390.553 164.491 392.011 166.29 392.011Z" fill="#6D798A" stroke="#6D798A" stroke-miterlimit="10"/>
<path d="M177.168 381.087C178.967 381.087 180.425 379.629 180.425 377.83C180.425 376.031 178.967 374.573 177.168 374.573C175.369 374.573 173.911 376.031 173.911 377.83C173.911 379.629 175.369 381.087 177.168 381.087Z" fill="#6D798A" stroke="#6D798A" stroke-miterlimit="10"/>
<path d="M225.824 303.145C227.623 303.145 229.081 301.687 229.081 299.888C229.081 298.089 227.623 296.631 225.824 296.631C224.025 296.631 222.567 298.089 222.567 299.888C222.567 301.687 224.025 303.145 225.824 303.145Z" fill="#6D798A" stroke="#6D798A" stroke-miterlimit="10"/>
<path d="M110.766 395.268C112.565 395.268 114.023 393.81 114.023 392.011C114.023 390.212 112.565 388.754 110.766 388.754C108.967 388.754 107.509 390.212 107.509 392.011C107.509 393.81 108.967 395.268 110.766 395.268Z" fill="#6D798A" stroke="#6D798A" stroke-miterlimit="10"/>
<path d="M110.766 395.268C112.565 395.268 114.023 393.81 114.023 392.011C114.023 390.212 112.565 388.754 110.766 388.754C108.967 388.754 107.509 390.212 107.509 392.011C107.509 393.81 108.967 395.268 110.766 395.268Z" fill="#6D798A" stroke="#6D798A" stroke-miterlimit="10"/>
<path d="M103.753 326.933C105.552 326.933 107.01 325.475 107.01 323.676C107.01 321.877 105.552 320.419 103.753 320.419C101.954 320.419 100.496 321.877 100.496 323.676C100.496 325.475 101.954 326.933 103.753 326.933Z" fill="#6D798A" stroke="#6D798A" stroke-miterlimit="10"/>
<path d="M116.318 325.944C117.571 325.944 118.587 324.928 118.587 323.675C118.587 322.423 117.571 321.407 116.318 321.407C115.066 321.407 114.05 322.423 114.05 323.675C114.05 324.928 115.066 325.944 116.318 325.944Z" fill="#6D798A" stroke="#6D798A" stroke-miterlimit="10"/>
<path d="M95.8144 392.011C97.6132 392.011 99.0715 390.553 99.0715 388.754C99.0715 386.955 97.6132 385.497 95.8144 385.497C94.0156 385.497 92.5574 386.955 92.5574 388.754C92.5574 390.553 94.0156 392.011 95.8144 392.011Z" fill="#6D798A" stroke="#6D798A" stroke-miterlimit="10"/>
<path d="M87.8035 267.462C89.6023 267.462 91.0605 266.004 91.0605 264.205C91.0605 262.406 89.6023 260.948 87.8035 260.948C86.0046 260.948 84.5464 262.406 84.5464 264.205C84.5464 266.004 86.0046 267.462 87.8035 267.462Z" fill="#6D798A" stroke="#6D798A" stroke-miterlimit="10"/>
<path d="M80.9809 245.235C82.7797 245.235 84.238 243.777 84.238 241.978C84.238 240.179 82.7797 238.721 80.9809 238.721C79.1821 238.721 77.7239 240.179 77.7239 241.978C77.7239 243.777 79.1821 245.235 80.9809 245.235Z" fill="#6D798A" stroke="#6D798A" stroke-miterlimit="10"/>
<path d="M202.063 264.205C203.316 264.205 204.331 263.19 204.331 261.937C204.331 260.684 203.316 259.669 202.063 259.669C200.81 259.669 199.795 260.684 199.795 261.937C199.795 263.19 200.81 264.205 202.063 264.205Z" fill="#6D798A" stroke="#6D798A" stroke-miterlimit="10"/>
<path d="M238.363 318.45C239.615 318.45 240.631 317.435 240.631 316.182C240.631 314.93 239.615 313.914 238.363 313.914C237.11 313.914 236.094 314.93 236.094 316.182C236.094 317.435 237.11 318.45 238.363 318.45Z" fill="#6D798A" stroke="#6D798A" stroke-miterlimit="10"/>
<path d="M181.06 391.022C182.313 391.022 183.328 390.006 183.328 388.753C183.328 387.501 182.313 386.485 181.06 386.485C179.807 386.485 178.792 387.501 178.792 388.753C178.792 390.006 179.807 391.022 181.06 391.022Z" fill="#6D798A" stroke="#6D798A" stroke-miterlimit="10"/>
<path d="M106.021 341.694C107.274 341.694 108.289 340.679 108.289 339.426C108.289 338.174 107.274 337.158 106.021 337.158C104.768 337.158 103.753 338.174 103.753 339.426C103.753 340.679 104.768 341.694 106.021 341.694Z" fill="#6D798A" stroke="#6D798A" stroke-miterlimit="10"/>
<path d="M186.513 374.02C187.765 374.02 188.781 373.004 188.781 371.752C188.781 370.499 187.765 369.483 186.513 369.483C185.26 369.483 184.245 370.499 184.245 371.752C184.245 373.004 185.26 374.02 186.513 374.02Z" fill="#6D798A" stroke="#6D798A" stroke-miterlimit="10"/>
<path d="M108.353 380.099C109.605 380.099 110.621 379.083 110.621 377.831C110.621 376.578 109.605 375.562 108.353 375.562C107.1 375.562 106.084 376.578 106.084 377.831C106.084 379.083 107.1 380.099 108.353 380.099Z" fill="#6D798A" stroke="#6D798A" stroke-miterlimit="10"/>
<path d="M193.027 253.082C194.279 253.082 195.295 252.067 195.295 250.814C195.295 249.561 194.279 248.546 193.027 248.546C191.774 248.546 190.759 249.561 190.759 250.814C190.759 252.067 191.774 253.082 193.027 253.082Z" fill="#6D798A" stroke="#6D798A" stroke-miterlimit="10"/>
<path d="M210.374 313.868C211.626 313.868 212.642 312.853 212.642 311.6C212.642 310.348 211.626 309.332 210.374 309.332C209.121 309.332 208.105 310.348 208.105 311.6C208.105 312.853 209.121 313.868 210.374 313.868Z" fill="#6D798A" stroke="#6D798A" stroke-miterlimit="10"/>
<path d="M79.747 256.34C80.9997 256.34 82.0152 255.325 82.0152 254.072C82.0152 252.819 80.9997 251.804 79.747 251.804C78.4944 251.804 77.4789 252.819 77.4789 254.072C77.4789 255.325 78.4944 256.34 79.747 256.34Z" fill="#6D798A" stroke="#6D798A" stroke-miterlimit="10"/>
<path d="M92.5573 255.351C93.81 255.351 94.8255 254.335 94.8255 253.083C94.8255 251.83 93.81 250.814 92.5573 250.814C91.3047 250.814 90.2892 251.83 90.2892 253.083C90.2892 254.335 91.3047 255.351 92.5573 255.351Z" fill="#6D798A" stroke="#6D798A" stroke-miterlimit="10"/>
<path d="M68.5059 260.694C69.7586 260.694 70.7741 259.679 70.7741 258.426C70.7741 257.174 69.7586 256.158 68.5059 256.158C67.2533 256.158 66.2378 257.174 66.2378 258.426C66.2378 259.679 67.2533 260.694 68.5059 260.694Z" fill="#6D798A" stroke="#6D798A" stroke-miterlimit="10"/>
<path d="M214.919 325.944C216.172 325.944 217.187 324.928 217.187 323.675C217.187 322.423 216.172 321.407 214.919 321.407C213.666 321.407 212.651 322.423 212.651 323.675C212.651 324.928 213.666 325.944 214.919 325.944Z" fill="#6D798A" stroke="#6D798A" stroke-miterlimit="10"/>
<path d="M172.514 367.479C173.766 367.479 174.782 366.463 174.782 365.211C174.782 363.958 173.766 362.942 172.514 362.942C171.261 362.942 170.246 363.958 170.246 365.211C170.246 366.463 171.261 367.479 172.514 367.479Z" fill="#6D798A" stroke="#6D798A" stroke-miterlimit="10"/>
<path d="M560.694 351.354C561.402 351.688 562.18 352.204 562.442 352.976C562.577 353.368 562.489 353.713 562.281 353.989C562.362 354.228 562.356 354.501 562.23 354.778C561.712 356.022 560.82 357.265 559.387 357.392C557.653 357.599 555.863 356.238 555.687 354.47C555.51 351.889 558.523 350.421 560.694 351.354ZM560.049 353.78C559.998 353.746 559.959 353.696 559.907 353.671C559.661 353.595 559.246 353.325 558.478 353.697C558.398 353.751 558.326 353.816 558.276 353.855C558.243 353.897 558.211 353.939 558.178 353.98C558.154 354.032 558.13 354.075 558.115 354.128C558.109 354.173 558.102 354.227 558.097 354.272C558.096 354.281 558.104 354.291 558.103 354.3C558.116 354.338 558.138 354.387 558.167 354.445C558.229 354.535 558.308 354.636 558.357 354.688C558.448 354.763 558.54 354.829 558.591 354.863C558.643 354.887 558.704 354.913 558.757 354.929C558.873 354.952 558.99 354.966 559.117 354.973C559.136 354.966 559.154 354.968 559.173 354.961C559.25 354.934 559.318 354.897 559.387 354.86C559.407 354.844 559.428 354.819 559.449 354.803C559.809 354.399 559.688 354.339 560.049 353.78Z" fill="#6D798A"/>
<path d="M552.275 351.585C553.84 351.786 553.547 354.181 551.979 353.998C550.413 353.797 550.716 351.403 552.275 351.585Z" fill="#6D798A"/>
<path d="M557.162 340.493C558.728 340.694 558.434 343.089 556.866 342.906C555.3 342.705 555.603 340.311 557.162 340.493Z" fill="#6D798A"/>
<path d="M537.134 317.674C532.163 317.065 527.635 320.605 527.026 325.576L522.448 362.938C521.839 367.909 525.379 372.438 530.35 373.047L567.712 377.625C572.683 378.234 577.212 374.694 577.821 369.723L582.399 332.36C583.008 327.389 579.468 322.861 574.497 322.252L537.134 317.674ZM537.465 314.972L574.828 319.55C581.285 320.341 585.891 326.234 585.1 332.691L580.523 370.054C579.731 376.511 573.838 381.117 567.381 380.326L530.019 375.749C523.562 374.957 518.955 369.064 519.746 362.607L524.324 325.245C525.114 318.797 531.009 314.181 537.465 314.972Z" fill="#6D798A"/>
<path d="M534.53 339.155C539.247 336.013 543.597 332.213 548.933 330.143C551.473 329.257 554.669 327.939 557.153 329.523C557.178 329.545 557.185 329.564 557.209 329.585C557.296 329.623 557.373 329.669 557.456 329.734C558.214 330.485 559.116 331.254 559.34 332.341C559.423 332.48 559.497 332.626 559.511 332.81C560.914 338.741 563.839 345.826 566.2 352.441C567.277 355.735 570.15 362.577 567.05 365.277C565.555 366.511 563.438 366.553 561.638 366.104C558.581 365.391 555.883 363.69 553.195 362.127C549.237 359.814 545.313 357.45 541.448 354.975C539.252 353.581 537.167 352.247 535.571 351.394C534.878 351.007 533.743 350.575 533.371 349.881C532.584 349.666 531.859 349.239 531.315 348.605C530.427 347.646 530.023 346.317 529.953 345.029C529.75 342.207 532.616 340.675 534.53 339.155ZM555.798 360.873C557.329 361.81 561.147 363.841 563.184 363.926C564.756 364.082 565.584 363.516 565.822 362.988C566.414 361.361 565.454 357.632 564.52 354.968C562.364 348.388 559.296 341.952 557.679 335.227C557.185 335.45 556.637 335.602 556.095 335.7C556.082 335.726 556.069 335.761 556.065 335.788C555.881 336.917 555.927 338.111 555.37 339.149C554.243 341.488 551.51 341.711 549.343 340.824C546.52 339.838 547.341 339.929 545.622 342.47C545.007 343.309 544.193 343.986 543.26 344.438C541.882 344.946 540.609 345.338 540.09 345.841C539.155 346.385 538.48 348.167 536.998 349.292C536.949 349.323 536.901 349.344 536.851 349.375C538.384 350.221 539.869 351.152 541.355 352.084C546.111 355.116 550.925 358.046 555.798 360.873ZM532.796 346.593C533.23 347.45 534.69 348.068 535.647 347.271C536.195 346.973 537.17 345.054 538.374 344.105C540.05 342.592 542.296 342.611 543.282 341.498C543.345 341.432 543.365 341.417 543.365 341.417C543.579 341.168 543.916 340.652 544.039 340.466C544.447 339.748 544.822 338.999 545.488 338.487C547.049 337.243 548.949 338.07 550.575 338.671C551.805 339.005 552.521 339.056 553.151 338.164C553.26 337.949 553.341 337.73 553.406 337.501C553.446 337.25 553.556 336.578 553.544 336.375C553.593 335.229 553.957 333.903 555.136 333.453C556.357 333.109 556.698 333.087 556.904 332.902C556.914 332.894 556.924 332.886 556.934 332.878C556.935 332.869 556.945 332.861 556.955 332.853C556.956 332.844 556.956 332.845 556.966 332.837C556.968 332.828 556.96 332.817 556.961 332.808C556.946 332.779 556.931 332.75 556.911 332.693C556.828 332.472 556.376 332.134 555.841 331.501C555.407 331.393 555.31 331.208 554.486 331.226C553.309 331.209 551.351 331.746 549.297 332.619C545.696 334.18 543.688 335.579 540.476 337.991C538.106 339.657 535.641 341.201 533.426 343.087C532.19 344.225 532.018 344.66 532.796 346.593Z" fill="#6D798A"/>
<path d="M552.983 343.791C555.481 344.216 557.247 346.882 554.711 348.637C554.121 348.976 553.464 349.562 552.753 349.247C551.783 348.881 551.774 347.39 552.735 347.005C553.169 346.748 553.294 346.699 553.416 346.595C552.822 346.147 552.737 346.165 551.451 346.071C550.695 346.051 547.906 346.578 546.252 347.619C546.065 347.733 545.892 347.876 545.72 348.01C547.087 348.196 547.253 348.18 548.333 348.093C549.386 348.002 551.003 347.341 551.281 348.874C551.433 349.944 550.379 350.345 549.505 350.393C548.647 350.526 547.781 350.584 546.916 350.561C545.406 350.495 543.161 350.32 542.886 348.458C542.719 345.129 550.39 343.089 552.983 343.791Z" fill="#6D798A"/>
<path d="M611.471 219.039C606.548 219.962 603.302 224.706 604.225 229.628L611.16 266.626C612.083 271.548 616.827 274.794 621.749 273.872L658.747 266.936C663.669 266.013 666.915 261.27 665.992 256.347L659.057 219.35C658.134 214.427 653.39 211.181 648.468 212.104L611.471 219.039ZM610.969 216.364L647.967 209.429C654.36 208.23 660.534 212.455 661.732 218.848L668.667 255.846C669.866 262.24 665.642 268.413 659.248 269.611L622.251 276.547C615.857 277.745 609.684 273.521 608.485 267.127L601.55 230.13C600.351 223.736 604.575 217.563 610.969 216.364Z" fill="#6D798A"/>
<path d="M618.258 235.405C620.132 233.633 622.472 232.326 624.648 230.885C626.84 229.532 628.935 228.05 631.154 226.739C631.684 226.418 632.266 225.977 632.92 226.214C632.987 226.229 633.04 226.265 633.102 226.3C633.307 226.261 633.519 226.259 633.737 226.338C638.883 227.939 644.182 229.124 649.4 230.518C653.527 231.656 654.717 233.131 650.998 236.09C650.502 236.496 649.994 236.887 649.482 237.26C650.12 240.86 650.551 244.49 651.127 248.102C651.34 250.176 652.34 252.555 650.773 254.436C647.064 258.334 641.185 260.165 635.728 260.201C631.929 260.128 627.177 259.496 625.411 256.08C624.035 253.125 623.689 249.849 623.078 246.686C622.725 244.657 622.371 242.619 622.009 240.591C621.041 240.302 620.084 239.974 619.16 239.575C617.052 238.622 616.373 237.069 618.258 235.405ZM627.888 255.311C628.767 256.946 632.322 257.941 636.359 257.858C637.985 257.867 641.439 257.284 643.044 256.586C645.813 255.504 648.478 253.768 648.959 252.69C649.232 252.325 648.958 251.01 648.705 249.313C648.147 245.845 647.714 242.354 647.139 238.89C645.275 240.125 643.352 241.289 641.465 242.501C640.931 242.804 640.198 243.375 639.473 243.742C639.822 245.31 640.163 246.88 640.539 248.444C641.601 249.334 644.287 250.907 642.247 252.139C641.587 252.457 641.024 252.165 640.577 251.75C640.539 251.942 640.493 252.135 640.426 252.323C640.068 253.073 638.855 253.199 638.318 252.599C637.961 252.222 638.01 251.742 638.069 251.27C637.811 251.42 637.628 251.528 637.613 251.549C637.141 251.933 636.457 252.274 635.87 251.95C635.293 251.726 635.05 251.07 635.263 250.531C635.543 249.907 636.304 249.635 636.86 249.253C637.2 249.097 637.555 248.874 637.926 248.684C637.792 248.119 637.751 247.508 637.562 246.99C637.392 245.886 636.982 244.781 636.839 243.673C636.761 243.651 636.674 243.63 636.597 243.617C634.828 243.238 633.053 242.878 631.265 242.549C629.099 242.124 626.89 241.763 624.732 241.281C624.955 242.568 625.187 243.854 625.409 245.142C626.122 248.793 626.483 252.74 627.888 255.311ZM620.139 237.361C621.786 238.27 626.166 239.231 629.138 239.772C632.197 240.334 635.267 240.903 638.3 241.571C638.35 241.59 638.39 241.61 638.431 241.63C638.739 241.452 639.866 240.715 640.843 240.116C643.862 238.249 648.809 235.097 650.383 233.399C648.83 232.647 645.927 232.13 643.714 231.501C640.806 230.763 637.884 230.046 635.022 229.208C634.339 228.911 633.441 228.849 632.769 228.513C629.552 230.455 621.231 235.799 619.853 237.165C619.939 237.232 620.036 237.306 620.139 237.361Z" fill="#6D798A"/>
<path d="M541.466 107.08C536.478 107.535 532.8 111.952 533.255 116.94L536.677 154.426C537.132 159.413 541.549 163.091 546.537 162.636L584.023 159.215C589.01 158.76 592.688 154.342 592.233 149.355L588.812 111.869C588.356 106.882 583.939 103.203 578.952 103.659L541.466 107.08ZM541.218 104.37L578.704 100.948C585.183 100.357 590.931 105.143 591.522 111.621L594.944 149.108C595.535 155.586 590.748 161.334 584.27 161.925L546.784 165.347C540.306 165.938 534.558 161.151 533.966 154.673L530.545 117.187C529.954 110.709 534.74 104.961 541.218 104.37Z" fill="#6D798A"/>
<path d="M542.913 125.834C544.395 120.405 552.391 118.883 556.85 120.717C558.171 121.225 559.502 122.124 560.413 123.325C562.416 121.12 565.16 119.64 568.037 119.322C573.201 118.806 578.384 121.594 578.768 127.59C579.162 133.804 574.579 138.695 570.778 142.768C568.901 144.652 564.57 148.61 562.445 150.179C561.895 150.548 562.173 149.293 561.466 149.139C559.863 148.638 561.943 147.173 563.121 145.909C564.574 144.856 565.947 143.728 567.264 142.497C570.792 139.123 575.692 134.02 576.233 129.161C576.304 126.749 576.058 124.749 573.3 122.878C572.259 122.162 567.955 121.416 565.67 122.736C563.885 123.637 562.749 124.369 561.46 126.209C561.391 126.452 561.254 126.647 561.066 126.791C560.978 126.927 560.897 127.035 560.81 127.179C559.782 128.494 557.915 126.897 558.758 125.554C556.699 121.66 549.308 122.034 546.318 124.913C544.028 127.463 544.933 132.792 547.943 136.425C549.864 138.91 554.393 142.314 557.809 144.699C559.27 145.44 559.36 145.623 561.045 146.718C561.341 146.873 561.677 147.061 561.868 147.353C562.875 148.901 563.033 150.736 562.037 150.198C556.773 146.625 549.179 142.38 545.22 137.129C543.011 133.988 541.823 129.659 542.913 125.834Z" fill="#6D798A"/>
<path d="M382.004 107.543C386.905 106.515 391.718 109.658 392.746 114.559L400.478 151.399C401.506 156.3 398.363 161.112 393.462 162.141L356.622 169.872C351.721 170.901 346.909 167.758 345.88 162.857L338.149 126.017C337.12 121.116 340.263 116.303 345.164 115.275L382.004 107.543ZM381.445 104.88L344.605 112.611C338.239 113.947 334.149 120.21 335.485 126.576L343.216 163.416C344.552 169.782 350.815 173.872 357.181 172.536L394.021 164.805C400.387 163.469 404.477 157.206 403.141 150.839L395.41 114C394.076 107.643 387.811 103.543 381.445 104.88Z" fill="#6D798A"/>
<path d="M381.727 127.292C372.719 120.153 358.314 122.277 352.721 132.508C351.585 134.693 350.859 137.283 351.124 139.916C351.656 145.366 355.211 150.646 359.972 152.131C363.322 153.115 366.688 152.149 369.968 151.656C372.63 151.31 375.194 151.338 377.976 152.756C378.578 152.927 380.975 155.028 382.349 156.056C384.873 158.011 386.684 157.056 386.629 153.61C386.574 151.452 385.673 149.454 384.896 147.475C389.366 141.077 388.255 132.207 381.727 127.292ZM379.425 150.691C377.304 149.375 374.897 148.86 372.551 148.815C368.713 148.767 365.112 150.163 362.052 149.85C356.441 149.526 351.62 141.619 354.093 135.381C358.05 124.947 373.927 122.504 381.77 130.592C385.867 134.608 386.118 139.914 383.872 144.362C383.493 145.295 382.63 145.995 382.375 146.948C382.294 147.354 382.397 147.712 382.604 147.993C382.61 148.02 382.613 148.038 382.626 148.054C383.717 150.736 384.516 152.774 384.226 154.263C382.953 153.631 381.176 151.704 379.425 150.691Z" fill="#6D798A"/>
<path d="M360.876 139.649C359.395 139.969 359.939 142.562 361.425 142.269C362.906 141.949 362.36 139.347 360.876 139.649Z" fill="#6D798A"/>
<path d="M365.894 138.031C364.413 138.351 364.957 140.944 366.444 140.651C367.925 140.331 367.379 137.729 365.894 138.031Z" fill="#6D798A"/>
<path d="M372.254 136.974C370.773 137.294 371.317 139.886 372.804 139.593C374.285 139.273 373.74 136.68 372.254 136.974Z" fill="#6D798A"/>
<path d="M379.37 134.925C377.889 135.245 378.433 137.838 379.92 137.544C381.401 137.224 380.855 134.623 379.37 134.925Z" fill="#6D798A"/>
<path d="M477.14 205.81C482.041 206.841 485.182 211.654 484.152 216.555L476.406 253.392C475.376 258.293 470.562 261.434 465.661 260.404L428.825 252.658C423.924 251.628 420.783 246.814 421.813 241.913L429.558 205.077C430.589 200.176 435.403 197.034 440.303 198.065L477.14 205.81ZM477.7 203.147L440.863 195.401C434.498 194.063 428.233 198.151 426.895 204.517L419.149 241.353C417.811 247.719 421.899 253.983 428.265 255.322L465.101 263.067C471.467 264.406 477.731 260.318 479.07 253.952L486.815 217.115C488.154 210.75 484.066 204.485 477.7 203.147Z" fill="#6D798A"/>
<path d="M472.657 222.326L467.966 244.637L434.876 237.68L439.567 215.368L472.657 222.326ZM473.217 219.662L440.127 212.705C438.653 212.395 437.213 213.334 436.903 214.808L432.212 237.12C431.902 238.593 432.842 240.033 434.316 240.343L467.405 247.301C468.879 247.61 470.319 246.671 470.629 245.197L475.32 222.886C475.63 221.412 474.682 219.97 473.217 219.662Z" fill="#6D798A"/>
<path d="M473.162 219.085C473.202 218.231 473.193 217.349 472.856 216.527C472.627 215.987 472.17 215.511 471.598 215.28C469.311 214.474 466.967 213.805 464.592 213.325C462.582 212.967 459.338 212.563 458.797 214.961C458.578 216.046 458.547 217.162 458.408 218.264C458.347 218.557 458.418 218.878 458.597 219.128C459.16 219.979 460.664 219.748 460.832 218.773C460.98 217.673 460.995 216.545 461.233 215.455C461.314 215.426 461.421 215.402 461.517 215.385C461.861 215.291 463.732 215.387 465.427 215.836C467.112 216.246 469.782 216.993 470.599 217.341C470.741 217.723 470.738 218.223 470.712 219.098C470.676 219.313 470.617 219.857 470.687 220.011C470.827 220.93 472.19 221.282 472.807 220.596C473.204 220.206 473.109 219.602 473.162 219.085Z" fill="#6D798A"/>
<path d="M443.605 228C442.996 227.233 441.831 227.442 440.956 227.193C439.245 226.954 437.5 226.522 435.789 226.459C434.497 226.605 434.52 228.482 435.808 228.707C438.156 228.959 440.498 229.591 442.84 229.74C443.674 229.656 444.089 228.649 443.605 228Z" fill="#6D798A"/>
<path d="M470.22 232.503C468.983 231.862 467.405 232.003 466.053 231.645C464.627 231.503 462.944 230.778 461.667 230.723C460.375 230.868 460.398 232.746 461.686 232.97C463.992 233.687 466.394 234.034 468.782 234.407C469.229 234.482 469.711 234.574 470.108 234.315C470.753 233.94 470.812 232.998 470.22 232.503Z" fill="#6D798A"/>
<path d="M450.639 237.889C454.861 238.776 458.951 236.32 459.775 232.402C460.598 228.484 457.844 224.589 453.622 223.701C449.4 222.813 445.31 225.27 444.486 229.188C443.662 233.105 446.417 237.001 450.639 237.889Z" stroke="#6D798A" stroke-width="3" stroke-miterlimit="10"/>
<path d="M407.046 308.488C412.023 307.935 416.512 311.526 417.064 316.503L421.22 353.915C421.773 358.893 418.182 363.381 413.204 363.934L375.792 368.089C370.815 368.642 366.327 365.051 365.774 360.074L361.618 322.662C361.065 317.685 364.656 313.196 369.634 312.643L407.046 308.488ZM406.745 305.783L369.333 309.938C362.868 310.656 358.195 316.497 358.913 322.962L363.069 360.374C363.787 366.84 369.628 371.513 376.093 370.795L413.505 366.639C419.97 365.921 424.643 360.08 423.925 353.615L419.77 316.203C419.051 309.738 413.211 305.065 406.745 305.783Z" fill="#6D798A"/>
<path d="M371.396 338.453C371.397 338.462 371.397 338.462 371.389 338.473L371.39 338.482C371.39 338.482 371.399 338.472 371.397 338.462L371.396 338.453Z" fill="#6D798A"/>
<path d="M371.4 338.572C371.392 338.664 371.395 338.692 371.4 338.572V338.572Z" fill="#6D798A"/>
<path d="M411.344 328.037C410.707 327.807 410.039 327.872 409.392 327.962C409.014 327.52 408.611 327.099 408.137 326.778C406.309 325.438 403.889 325.762 401.957 326.615C401.603 326.792 401.247 326.959 400.892 327.135C400.834 327.105 400.792 327.055 400.725 327.026C396.054 325.737 391.593 322.472 386.606 323.263C382.546 323.942 381.682 327.754 384.195 330.898C385.1 331.984 386.193 332.866 387.325 333.681C385.928 334.338 384.54 334.994 383.143 335.643C381.499 336.382 379.844 337.095 378.187 337.791C378.085 337.692 377.983 337.594 377.882 337.505C376.975 336.656 375.977 335.891 374.875 335.338C372.089 334.004 368.607 335.203 368.685 338.782C368.822 341.496 370.977 343.311 372.235 345.508C372.283 345.612 372.368 345.803 372.422 345.962C372.6 346.91 372.672 347.887 373.072 348.774C374.397 351.831 377.17 351.642 379.281 349.609C380.628 348.346 380.844 346.998 381.898 346.543C384.155 345.827 391.765 342.426 394.169 341.967C394.214 341.962 394.269 341.965 394.314 341.96C394.323 341.959 394.334 341.967 394.343 341.966C394.353 341.974 394.364 341.991 394.373 341.99C396.225 344.121 397.978 346.345 399.57 348.679C400.268 349.706 401.019 350.709 401.957 351.508C403.471 352.819 405.863 352.571 407.345 351.366C409.153 349.65 409.069 346.757 408.646 344.421C408.261 342.027 406.973 337.66 407.222 336.537C407.231 336.454 407.25 336.379 407.26 336.305C407.276 336.285 407.301 336.264 407.316 336.235C407.35 336.213 407.385 336.2 407.409 336.169C409.395 334.735 411.938 333.713 413.183 331.439C413.861 329.985 412.75 328.365 411.344 328.037ZM385.57 326.847C385.618 326.778 385.675 326.717 385.731 326.647C385.822 326.564 385.939 326.468 386.04 326.393C386.317 326.253 386.607 326.157 386.9 326.079C389.999 325.543 392.439 326.887 396.184 328.379C396.576 328.546 396.985 328.692 397.385 328.839C394.925 330.034 392.456 331.231 389.986 332.409C389.672 331.722 388.886 331.463 388.357 330.974C386.063 329.147 385.375 328.293 385.57 326.847ZM409.568 331.356C408.337 332.278 407.02 333.073 405.735 333.918C405.692 333.941 405.65 333.973 405.608 334.005C405.6 334.015 405.591 334.016 405.583 334.026C405.574 334.027 405.575 334.036 405.567 334.046C405.517 334.088 405.476 334.13 405.435 334.171C405.411 334.201 405.386 334.222 405.362 334.252C405.355 334.271 405.338 334.282 405.321 334.293C403.736 336.304 404.82 339.241 405.283 341.518C406.144 344.909 406.586 348.237 405.63 349.156C405.605 349.177 405.589 349.197 405.564 349.218C405.538 349.239 405.504 349.261 405.478 349.273C405.357 349.332 405.183 349.406 405.025 349.47C405.016 349.471 405.016 349.471 405.016 349.471C404.858 349.525 404.485 349.539 404.304 349.55C404.185 349.545 404.064 349.522 403.951 349.498C403.922 349.483 403.893 349.467 403.855 349.453C403.835 349.437 403.816 349.43 403.795 349.405C402.824 348.555 403.242 348.947 402.555 348.101C400.537 345.221 398.466 342.357 396.09 339.782C395.375 339.095 394.326 339.019 393.415 339.203C389.602 340.21 386.047 342.066 382.318 343.338C380.987 343.769 379.67 344.399 378.826 345.597C377.718 347.537 376.775 348.171 376.129 348.27C376.093 348.274 376.084 348.275 376.048 348.279C375.701 348.035 375.455 347.378 375.375 347.076C375.193 346.174 375.168 345.209 374.738 344.381C373.335 341.689 371.361 340.192 371.399 338.481C371.393 338.509 371.392 338.5 371.398 338.472C371.402 338.425 371.397 338.38 371.401 338.334C371.406 338.379 371.401 338.416 371.405 338.452C371.411 338.424 371.417 338.396 371.431 338.358C371.418 338.405 371.413 338.442 371.406 338.462C371.411 338.507 371.406 338.544 371.409 338.571C371.412 338.516 371.422 338.442 371.44 338.357C371.466 338.263 371.509 338.158 371.554 338.062C371.562 338.052 371.562 338.052 371.57 338.042C371.619 337.991 371.642 337.952 371.675 337.921C371.741 337.858 371.817 337.804 371.893 337.75C372.374 337.56 372.312 337.658 372.738 337.629C374.345 337.715 375.017 338.919 377.206 340.465C377.436 340.558 377.682 340.558 377.913 340.496C378.231 340.652 378.592 340.694 378.948 340.536C385.64 337.748 392.135 334.498 398.678 331.361C400.539 330.442 403.469 328.885 404.371 328.784C405.561 328.652 405.136 328.608 406.119 328.828C406.234 328.87 406.378 328.936 406.466 328.99C406.476 328.998 406.485 328.997 406.486 329.006C406.663 329.123 406.825 329.26 406.986 329.398C407.274 329.53 407.4 330.164 408.353 330.697C408.987 330.974 409.639 330.764 410.289 330.701C410.316 330.698 410.334 330.696 410.362 330.702C410.204 330.838 409.961 331.039 409.568 331.356Z" fill="#6D798A"/>
<path d="M385.632 338.005C383.866 338.21 384.185 341.004 385.946 340.827C387.712 340.622 387.402 337.826 385.632 338.005Z" fill="#6D798A"/>
<path d="M390.784 335.652C389.018 335.857 389.337 338.652 391.098 338.474C392.864 338.269 392.543 335.466 390.784 335.652Z" fill="#6D798A"/>
<path d="M395.647 333.332C393.881 333.537 394.2 336.331 395.961 336.154C397.727 335.949 397.415 333.144 395.647 333.332Z" fill="#6D798A"/>
</svg>
