<svg width="993" height="506" viewBox="0 0 993 506" fill="none" xmlns="http://www.w3.org/2000/svg">
<path d="M230.886 46.3699C230.529 43.5466 229.807 40.7816 228.738 38.1444C228.602 37.6456 228.363 37.1808 228.037 36.7794C227.712 36.378 227.306 36.0489 226.846 35.813C226.231 35.6531 225.587 35.6459 224.969 35.792L215.33 37.2675C214.524 37.3043 213.751 37.6046 213.131 38.1224C211.876 39.4432 213.112 41.5701 213.073 43.3923C213.03 45.4414 211.211 47.1046 209.237 47.6549C207.223 48.0621 205.145 48.0363 203.141 47.5793L189.664 45.4839C193.633 44.2161 197.166 41.8573 199.86 38.6768C201.633 36.5748 202.577 32.6503 200.014 31.6549C199.252 31.4458 198.458 31.382 197.673 31.4668C191.567 31.5143 186.761 26.4136 181.045 24.2654C177.386 22.9793 173.415 22.8836 169.699 23.992C165.982 25.1004 162.712 27.3561 160.354 30.4364L167.534 30.7828C168.209 30.7455 168.879 30.9242 169.446 31.293C171.019 32.5864 169.063 35.0707 169.285 37.0959C169.573 39.7272 173.065 40.289 175.697 40.555C178.33 40.8211 181.669 42.9609 180.403 45.285C167.172 49.8443 153.709 36.3725 139.814 38.0309C136.297 38.4506 132.976 39.8328 129.543 40.7019C108.569 46.0111 86.8855 31.8455 65.4594 34.8455C60.6961 35.658 56.0146 36.8932 51.4704 38.5367C48.5543 39.4946 45.5126 40.5299 43.3937 42.7515C41.2749 44.9731 40.4685 48.7725 42.4757 51.0956C36.9432 51.5514 31.3736 51.0217 26.026 49.5312C27.4721 50.3354 28.6751 51.5143 29.5088 52.9441C30.3425 54.3739 30.7761 56.0018 30.764 57.6571C22.1256 59.0664 13.7158 61.6319 5.76107 65.2844C7.24573 67.7545 8.97982 70.0656 10.9361 72.1814L0 79.2106C3.69473 80.1419 5.605 85.1823 3.45638 88.3304C7.28739 86.6253 9.66167 82.2143 13.7583 81.32C16.4421 80.7341 19.173 81.8325 21.719 82.8644C24.2651 83.8962 27.0634 84.8968 29.6991 84.1224C32.3348 83.3479 34.2788 79.9288 32.604 77.7503C43.8696 74.4619 55.5124 72.642 67.2437 72.3359C68.1488 72.2222 69.0666 72.3965 69.8671 72.834C71.3943 73.894 70.9925 76.1834 70.9102 78.0412C70.8279 79.8989 72.2752 82.3404 73.9347 81.5031C71.9822 83.1969 73.6513 86.3858 75.5245 88.167C77.3977 89.9482 79.6555 92.406 78.5087 94.723C78.2094 95.3277 77.7017 95.8116 77.4137 96.4218C76.5636 98.223 77.9133 100.323 79.5053 101.519C81.0973 102.715 83.0473 103.551 84.1532 105.207C85.259 106.864 84.7568 109.763 82.7794 109.994L77.1587 102.855C75.2384 104.847 73.9219 107.343 73.3619 110.053C79.3221 114.928 80.2186 124.85 75.2288 130.715C72.6788 133.712 69.0526 135.533 65.8878 137.871C62.7229 140.208 59.7943 143.537 59.8023 147.473C59.8161 154.273 59.2607 160.59 61.8076 166.895C66.504 178.519 71.9262 189.837 78.042 200.781C79.6481 203.654 81.7237 206.804 84.9773 207.299C80.8654 197.284 77.164 187.114 73.8729 176.788C76.0165 176.796 78.4936 176.966 79.7502 178.704C80.7907 180.142 80.5672 182.098 80.8906 183.845C81.3018 185.536 81.9875 187.149 82.9205 188.619L102.556 223.611C104.183 226.512 106.05 229.626 109.161 230.801C111.15 231.552 113.451 231.41 115.282 232.492C116.717 233.339 117.684 234.844 119.146 235.642C123.283 237.9 129.034 233.57 132.9 236.266C134.005 237.036 134.708 238.26 135.727 239.143C139.297 242.236 145.153 240.167 149.274 242.474C151.93 243.961 153.307 246.935 154.724 249.63C158.272 256.381 164.014 262.995 171.619 263.533C174.008 263.702 176.449 263.249 178.784 263.78C181.119 264.312 183.418 266.351 183.043 268.717C182.4 272.774 184.404 277.217 183.866 281.289C182.885 288.707 172.369 291.966 171.466 299.394C171.268 301.02 171.577 302.699 171.19 304.291C170.716 306.242 169.251 307.83 168.731 309.769C167.745 313.444 170.376 317.101 173.267 319.574C176.158 322.046 179.607 324.178 181.187 327.639C182.858 331.297 182.037 335.562 182.581 339.547C183.767 348.247 191.277 354.696 199.007 358.854C201.362 360.121 203.89 361.348 205.414 363.546C207.404 366.415 207.206 370.196 207.87 373.624C209.497 382.019 216.561 388.936 216.761 397.485C216.904 403.561 213.528 409.073 211.511 414.806C209.62 420.299 208.936 426.136 209.505 431.917C210.074 437.699 211.883 443.29 214.808 448.308C216.317 450.857 218.121 453.26 219.188 456.023C221.093 460.953 220.475 466.558 222.231 471.543C224.552 478.134 230.931 483.578 230.321 490.539C233.217 496.556 239.612 499.512 246.042 501.303L257.567 504.513C259.774 505.127 262.08 505.747 264.327 505.302C266.574 504.857 268.718 502.99 268.66 500.699C263.009 499.424 257.176 498.068 252.517 494.622C247.858 491.177 244.667 485.041 246.434 479.521C247.254 476.962 248.998 474.006 247.34 471.891C246.391 470.68 244.655 470.364 243.584 469.259C241.914 467.536 242.488 464.641 243.689 462.563C244.889 460.484 246.624 458.627 247.109 456.277C247.353 454.961 247.19 453.603 246.641 452.383C246.091 451.164 245.182 450.141 244.036 449.453C246.173 448.646 248.116 447.398 249.74 445.791C251.24 444.077 251.933 441.435 250.753 439.487C254.258 439.931 258.395 440.149 260.695 437.467C262.532 435.325 262.406 432.124 261.68 429.396C260.954 426.669 259.728 424.021 259.689 421.199C267.773 421.582 275.875 421.307 283.914 420.377C282.752 416.46 280.11 413.15 276.549 411.149C280.19 410.532 283.507 406.171 284.657 402.66C285.808 399.15 285.514 395.326 284.803 391.7C284.53 390.767 284.493 389.78 284.694 388.829C285.104 387.522 286.388 386.724 287.576 386.042L305.648 375.657C306.727 375.117 307.704 374.395 308.538 373.523C310.432 371.298 310.151 367.939 309.182 365.182C308.212 362.425 306.659 359.833 306.286 356.935C305.169 348.266 314.444 342.047 317.574 333.887C318.802 330.685 319.052 327.205 319.29 323.783C319.546 320.108 319.564 315.839 316.744 313.471C314.041 311.201 309.816 311.707 306.987 309.596C304.393 307.66 303.499 303.9 300.665 302.336C298.092 300.916 294.866 301.819 292.004 301.151C286.965 299.975 283.794 294.165 278.647 293.627C275.744 293.324 272.458 294.744 270.078 293.052C267.981 291.561 267.897 288.565 267.498 286.022C266.798 282.071 264.905 278.429 262.073 275.587C259.242 272.745 255.608 270.839 251.66 270.127C248.667 269.646 245.408 269.829 242.861 268.183C240.282 266.516 239.1 263.396 237.074 261.088C233.809 257.368 228.667 256.046 223.85 254.913L204.257 250.305C200.779 249.487 196.296 249.053 194.429 252.101C193.877 253.262 193.485 254.492 193.267 255.759C192.567 258.051 191.16 260.061 189.246 261.502C187.333 262.943 185.012 263.74 182.618 263.778C180.976 260.976 178.316 258.916 175.192 258.029C173.206 257.476 171.079 257.414 169.184 256.599C168.152 256.095 167.234 255.386 166.485 254.514C165.737 253.643 165.174 252.628 164.831 251.532C164.488 250.435 164.373 249.28 164.492 248.137C164.61 246.995 164.961 245.888 165.522 244.886C166.652 242.874 167.088 240.546 166.763 238.261C166.439 235.976 165.372 233.861 163.727 232.243C160.395 229.251 155.575 228.527 151.107 228.827C149.937 226.272 151.894 223.39 154.002 221.534C156.11 219.678 158.67 217.853 159.13 215.081C159.852 210.72 154.291 207.408 150.068 208.708C145.846 210.008 143.151 214.112 141.369 218.156C140.347 220.477 139.478 222.921 137.866 224.878C136.253 226.835 133.657 228.236 131.201 227.608C127.724 226.719 126.381 222.586 125.612 219.079C124.579 214.374 123.541 209.604 123.757 204.792C123.974 199.98 125.595 195.039 129.142 191.781C134.922 186.472 143.788 186.993 151.588 187.84C149.745 185.762 150.201 182.261 152.172 180.306C153.213 179.381 154.464 178.724 155.816 178.391C157.168 178.059 158.581 178.062 159.932 178.399C162.282 178.888 164.4 180.155 165.943 181.995C168.16 184.699 168.79 188.349 170.465 191.418C172.141 194.487 175.908 197.104 178.992 195.458C181.655 194.036 182.078 190.341 181.415 187.394C180.752 184.448 179.344 181.582 179.584 178.572C180.042 172.827 185.995 169.369 191.248 167.003C196.5 164.637 202.515 161.455 203.347 155.752C203.375 154.635 203.586 153.531 203.97 152.482C204.553 151.556 205.362 150.794 206.322 150.27C221.652 140.134 237.237 129.874 254.759 124.336C255.67 124.048 255.777 124.368 256.706 124.142C258.007 123.39 257.145 121.31 255.898 120.473C254.652 119.635 252.986 118.992 252.669 117.524C252.437 116.444 253.073 115.384 253.238 114.292C253.644 111.608 250.435 109.131 247.944 110.204C246.536 108.339 249.321 106.172 251.573 105.552C258.335 103.69 265.276 102.555 272.279 102.168C273.087 102.039 273.915 102.18 274.635 102.569C275.811 103.384 275.661 105.253 274.828 106.417C273.994 107.58 272.697 108.311 271.659 109.295C270.524 110.401 269.714 111.798 269.319 113.333C268.923 114.868 268.956 116.482 269.415 117.999C273.071 119.859 277.045 121.775 281.094 121.119C285.143 120.464 288.737 115.912 286.834 112.277C285.061 108.892 279.738 108.129 278.822 104.419C277.751 100.075 283.897 96.2121 282.512 91.9578C281.906 90.0943 280.049 88.9976 278.625 87.6522C276.943 86.0027 275.798 83.8827 275.342 81.5707C274.886 79.2587 275.14 76.8628 276.069 74.6975C273.749 75.1059 271.365 74.9516 269.117 74.2477C266.869 73.5439 264.822 72.3109 263.149 70.6522C260.058 67.5317 257.592 62.6092 253.204 62.7489C249.176 62.877 245.708 67.5777 241.942 66.1436C241.015 65.7908 240.039 65.0727 239.141 65.4934C238.847 65.6845 238.6 65.94 238.419 66.2406C238.238 66.5412 238.128 66.879 238.096 67.2285C237.139 71.806 238.785 77.0214 236.292 80.9769C233.578 85.2813 227.302 85.878 224.012 89.7595C222.226 91.8665 221.534 94.7056 219.893 96.927C218.252 99.1484 214.768 100.561 212.798 98.6249C213.766 96.6337 214.03 94.3728 213.548 92.2119C213.065 90.0509 211.864 88.1176 210.141 86.7279C208.312 85.5342 206.341 84.5748 204.273 83.8724C201.963 82.8939 199.765 81.6684 197.718 80.2171C196.692 79.5982 195.859 78.7063 195.311 77.6409C194.878 76.3068 194.936 74.8616 195.476 73.5669C196.475 70.7017 198.237 68.164 200.572 66.2276C202.907 64.2912 205.726 63.0298 208.726 62.5794C211.349 62.2224 214.401 62.3482 216.137 60.3489C217.055 59.291 217.537 57.6917 218.87 57.262C219.723 57.0906 220.608 57.1997 221.394 57.5729L231.183 61.0203C232.275 61.5136 233.478 61.7126 234.671 61.5973C235.262 61.5176 235.801 61.2171 236.181 60.756C236.56 60.2949 236.751 59.7074 236.715 59.1114C236.402 57.4849 233.901 56.7045 234.128 55.0639C234.256 54.5323 234.541 54.0518 234.948 53.686C238.48 49.924 242.801 46.99 247.6 45.094C252.399 43.1981 257.557 42.3871 262.706 42.7191C263.942 44.7494 261.988 47.1535 260.362 48.8867C258.736 50.6199 257.429 53.7166 259.396 55.0508C260.201 55.4622 261.098 55.6642 262.002 55.6381C264.412 55.9644 266.754 56.6752 268.94 57.7434C272.323 59.2162 275.64 60.8277 278.893 62.5779C278.606 60.432 278.332 58.1714 279.145 56.165C279.958 54.1585 282.268 52.5848 284.286 53.3662C286.231 54.1192 287.229 56.6958 289.301 56.9318C292.065 57.2467 293.156 53.1613 292.001 50.6291C290.846 48.0968 288.561 45.9765 288.37 43.1998C288.241 41.3265 288.954 39.0032 287.458 37.8689C286.926 37.5284 286.322 37.3164 285.694 37.2499L248.349 30.3745C246.131 29.9662 242.927 30.2791 242.829 32.5329C242.774 33.7909 243.897 35.0355 243.399 36.1922C242.869 37.4267 241.124 37.3138 239.854 37.7505C237.883 38.428 236.893 40.7698 237.083 42.8465C237.429 44.91 238.228 46.8712 239.422 48.5894C236.993 47.5731 233.315 47.3862 230.886 46.3699Z" fill="white"/>
<path d="M201.088 14.654C198.733 13.8743 196.196 13.8379 193.82 14.5499C191.443 15.2619 189.343 16.6877 187.805 18.6341C187.19 19.4441 186.673 20.5607 187.188 21.4378C187.926 22.6953 189.807 22.1986 191.193 21.7488C193.231 21.0204 195.449 20.9675 197.519 21.5978C198.821 22.045 199.986 22.8354 201.293 23.2657C201.93 23.532 202.627 23.62 203.31 23.5202C203.992 23.4204 204.635 23.1365 205.169 22.6991C206.066 21.7834 206.122 20.3599 206.124 19.0775C206.186 18.6484 206.152 18.2108 206.023 17.7966C205.895 17.3825 205.676 17.0022 205.382 16.6836C204.859 16.3803 204.27 16.2063 203.666 16.1759C202.313 15.9254 201.09 15.2104 200.208 14.1542" fill="white"/>
<path d="M214.554 10.903C214.027 10.8743 213.502 10.9817 213.028 11.2149C212.555 11.4481 212.149 11.7993 211.85 12.2347C211.552 12.6701 211.37 13.175 211.323 13.7009C211.276 14.2268 211.364 14.756 211.581 15.2376C213.199 15.6792 214.89 15.7895 216.552 15.5619C217.381 15.4332 218.154 15.0618 218.772 14.4946C219.39 13.9273 219.827 13.1897 220.027 12.3746C218.07 12.7308 216.051 12.345 214.363 11.2923" fill="white"/>
<path d="M259.733 4.63844C255.328 5.57544 251.048 7.02974 246.984 8.97112C248.9 9.70791 250.529 11.041 251.63 12.7738C252.732 14.5067 253.248 16.5477 253.102 18.5961C252.93 19.3825 252.95 20.1988 253.16 20.9758C253.628 22.1114 254.985 22.5375 256.178 22.829C258.321 23.4815 260.558 23.7673 262.796 23.6742C263.916 23.6156 265.003 23.2786 265.96 22.6938C266.917 22.109 267.712 21.2947 268.275 20.3247C268.599 19.4041 268.98 18.5043 269.414 17.6303C272.274 13.2739 280.767 18.5414 283.837 14.3309C284.918 12.8477 284.819 10.6151 286.229 9.43985C286.958 8.9278 287.803 8.60517 288.688 8.50098C294.861 7.27394 301.096 6.38545 307.366 5.83948C310.337 5.58083 314.21 4.51357 314.234 1.53019C303.044 -0.668538 291.441 0.893082 281.23 5.97227C277.551 7.81587 272.685 11.694 269.141 9.24979C267.814 8.33464 267.88 5.87039 266.053 4.84133C264.186 3.78924 261.715 4.21714 259.733 4.63844Z" fill="white"/>
<path d="M296.328 11.4851L301.581 12.4949C300.614 12.452 299.649 12.616 298.75 12.9758C297.852 13.3356 297.04 13.8829 296.37 14.5814C295.699 15.2798 295.186 16.1132 294.863 17.0261C294.54 17.9389 294.415 18.9101 294.497 19.8749C299.416 21.519 304.779 19.9191 309.961 20.1377C315.142 20.3562 321.171 24.0593 320.287 29.172C320.019 30.7179 319.127 32.2628 319.591 33.7613C319.916 34.8117 320.842 35.557 321.365 36.5244C322.454 38.5402 321.583 41.0899 320.208 42.9223C318.833 44.7548 316.985 46.2169 315.778 48.1642C312.776 53.0076 314.481 59.2692 316.27 64.6802C316.787 66.7247 317.741 68.6324 319.068 70.2714C321.717 73.0898 326.035 73.3349 329.902 73.3913C332.716 73.4324 335.94 73.2933 337.72 71.1117C340.044 68.2635 338.419 63.8198 339.949 60.4771C341.338 57.4412 344.878 56.1388 348.085 55.215C353.961 53.5228 359.948 52.0841 365.503 49.5279C372.401 46.3538 378.847 41.4074 386.428 40.9988C388.555 40.8842 390.734 41.1353 392.783 40.5523C394.832 39.9693 396.778 38.1972 396.623 36.0719C396.49 34.256 394.955 32.9225 393.755 31.5536C392.555 30.1847 391.612 28.0796 392.715 26.6313L412.586 22.918C411.178 19.0775 410.081 14.0194 413.317 11.5196C414.485 10.6177 416.049 10.2572 417.043 9.16676C418.738 7.30829 417.886 4.10689 415.929 2.52636C413.973 0.945837 411.328 0.578927 408.822 0.370682C400.109 -0.353282 391.346 0.125099 382.616 0.60385C365.551 1.5397 348.486 2.47557 331.42 3.41141C327.985 3.5998 324.019 3.31199 320.868 4.48456C318.2 5.47725 316.304 7.29944 313.253 7.93965C307.622 9.12156 301.424 8.32178 296.328 11.4851Z" fill="white"/>
<path d="M390.431 53.0243C389.896 52.9396 389.348 53.0638 388.902 53.3712C388.607 53.6964 388.431 54.1124 388.404 54.5508C388.065 56.4855 388.469 58.4769 389.535 60.1263C390.078 60.9354 390.828 61.5843 391.706 62.0056C392.585 62.427 393.56 62.6054 394.53 62.5223C396.896 62.2206 398.639 60.2018 400.813 59.2167C404.165 57.6998 418.397 55.335 408.552 50.0134C405.159 48.1795 402.967 49.7984 400.292 51.0062C397.25 52.5635 393.84 53.2612 390.431 53.0243Z" fill="white"/>
<path d="M476.664 8.48089C475.515 8.95079 474.553 9.78835 473.929 10.8628C473.642 11.4083 473.575 12.0435 473.743 12.637C473.911 13.2304 474.3 13.7366 474.83 14.0509C475.26 14.2067 475.715 14.2789 476.171 14.2637L480.846 14.4035C482.832 14.4628 485.312 14.8859 485.846 16.8005C486.242 18.2222 485.355 20.049 486.425 21.0649C486.884 21.4207 487.437 21.6362 488.015 21.6854C489.555 22.0812 491.163 22.1331 492.725 21.8375C496.126 20.9248 494.339 18.848 495.411 16.9987C497.05 14.1692 496.766 15.8821 499.654 14.2604C501.787 13.0628 504.543 10.8904 502.762 7.83801C499.667 2.53005 481.232 6.20061 476.664 8.48089Z" fill="white"/>
<path d="M568.928 5.81228L566.214 6.17467C560.093 6.99185 553.937 7.81655 548.042 9.6555C550.594 10.6649 553.271 11.3222 556 11.6092C557.503 11.6829 558.995 11.8951 560.458 12.2432C563.062 13.0187 565.686 15.0213 568.201 13.9954C569.761 13.3594 570.27 11.7346 571.562 10.8735C572.454 10.2789 575.838 9.31645 576.216 8.7163C579.274 3.86451 571.279 5.49844 568.928 5.81228Z" fill="white"/>
<path d="M580.846 18.1547C577.22 20.183 573.856 22.6476 570.829 25.4937C569.554 26.6931 568.251 28.1849 568.367 29.9322C568.52 32.2546 570.993 33.6017 573.135 34.5091L581.812 38.1846C582.865 36.7002 581.902 34.6512 580.814 33.1925C579.726 31.7338 578.433 30.0461 578.914 28.2908C579.462 26.2876 581.903 25.605 583.951 25.2599C587.286 24.6977 596.284 24.7428 595.202 19.3649C593.929 13.0281 584.194 16.2823 580.846 18.1547Z" fill="white"/>
<path d="M579.102 376.759C578.276 379.152 578.198 381.97 579.627 384.059C581.23 386.403 584.439 387.277 587.215 386.683C589.98 385.947 592.444 384.362 594.261 382.151C595.922 380.298 597.289 378.201 598.313 375.933C599.743 372.399 600.751 368.708 601.317 364.938L604.011 350.786C604.613 347.623 604.59 337.926 598.779 341.085C597.192 341.948 593.517 348.763 591.853 350.695C588.855 354.178 588.459 357.557 586.88 361.776C584.903 367.061 580.93 371.466 579.102 376.759Z" fill="white"/>
<path d="M885.993 449.18C884.092 448.437 882.247 447.559 880.472 446.55C878.692 451.445 877.746 456.604 877.673 461.812L890.683 454.446C892.64 453.339 894.858 451.799 894.816 449.55C894.834 449.272 894.776 448.994 894.65 448.746C894.523 448.499 894.332 448.289 894.097 448.141C893.808 448.025 893.493 447.988 893.185 448.034C891.256 448.195 889.497 449.144 887.677 449.805C885.857 450.465 883.729 450.814 882.059 449.834" fill="white"/>
<path d="M954.623 453.552C953.195 453.941 951.8 454.442 950.451 455.05C947.465 456.57 945.434 459.457 942.748 461.459C940.177 463.374 937.082 464.426 934.044 465.448C933.15 466.239 933.56 467.831 934.531 468.525C935.574 469.119 936.77 469.388 937.967 469.298C941.123 469.367 944.449 469.398 947.213 467.872C948.771 466.861 950.229 465.704 951.567 464.416C954.799 461.717 958.681 459.937 962.524 458.216C963.923 457.688 965.216 456.914 966.343 455.932C968.758 453.552 968.927 449.88 965.446 449.07C962.632 448.415 957.302 452.685 954.623 453.552Z" fill="white"/>
<path d="M984.947 433.735C985.104 432.097 984.886 430.446 984.311 428.904C983.736 427.363 982.818 425.973 981.627 424.838C981.591 428.115 981.492 431.606 979.65 434.315C978.337 436.246 976.28 437.55 974.842 439.389C973.404 441.228 972.766 444.143 974.452 445.757C975.53 446.577 976.843 447.03 978.198 447.047C981.555 447.443 985.441 447.663 987.796 445.236C989.081 443.912 989.707 441.95 991.274 440.976C991.858 440.731 992.379 440.358 992.8 439.884C993.447 438.854 992.419 437.498 991.261 437.127C990.104 436.756 988.828 436.93 987.664 436.578C986.501 436.226 985.434 434.917 986.03 433.857" fill="white"/>
<path d="M931.052 313.599C929.29 314.028 927.466 314.135 925.667 313.917C922.678 313.367 920.351 311.114 917.938 309.265C912.202 304.896 905.228 302.458 898.02 302.303C891.463 302.179 884.844 303.957 878.404 302.716C878.825 305.058 880.828 306.814 882.964 307.858C885.101 308.901 887.459 309.427 889.606 310.449C893.045 312.103 895.772 314.942 897.288 318.444C897.979 320.059 898.414 321.816 899.462 323.226C901.603 326.108 905.661 326.741 909.242 326.506C913.911 326.198 918.788 324.855 923.132 326.595C926.455 327.927 928.834 330.837 931.608 333.099C934.383 335.362 938.291 337.041 941.477 335.409C938.168 334.337 935.287 332.235 933.257 329.409C931.226 326.583 930.151 323.183 930.189 319.703C933.314 319.99 942.314 319.879 941.829 314.566C941.419 310.064 933.735 313.113 931.052 313.599Z" fill="white"/>
<path d="M890.173 350.229C890.727 347.184 893.762 344.495 892.817 341.549C892.163 339.511 889.801 338.505 887.663 338.455C885.524 338.404 883.423 339.042 881.285 339.102C879.893 339.028 878.498 339.048 877.108 339.161C872.864 339.859 870.247 344.31 866.247 345.893C863.815 346.855 861.082 346.672 858.552 347.337C852.81 348.847 849.176 354.276 845.162 358.653C838.676 365.694 830.226 370.624 820.907 372.805C817.642 373.561 814.132 374.045 811.537 376.166C808.1 378.976 807.254 383.792 806.49 388.166C804.377 400.245 801.149 412.103 796.846 423.585L810.481 425.327C813.074 425.658 815.76 425.982 818.258 425.214C820.073 424.529 821.792 423.612 823.373 422.488C829.446 418.716 836.243 416.261 843.324 415.283C846.894 414.792 850.638 414.703 853.989 416.031C857.34 417.358 860.214 420.37 860.495 423.965C861.944 423.514 863.489 423.465 864.963 423.824C866.438 424.182 867.787 424.935 868.868 426.002C871.003 428.178 872.401 430.971 872.865 433.985C873.224 435.851 873.583 438.088 875.314 438.871C876.727 439.509 878.347 438.821 879.892 438.698C885.134 438.278 889.484 444.394 894.637 443.34C900.163 442.211 901.52 433.931 906.911 432.272C910.007 431.32 914.351 432.478 915.833 429.596C917.14 427.057 914.533 424.126 914.802 421.282C915.133 417.78 919.261 416.294 922.444 414.799C933.417 409.648 938.624 394.873 933.307 383.975C930.157 377.518 923.958 372.436 922.813 365.343C921.932 359.885 924.082 353.522 920.605 349.226C918.835 347.041 915.84 345.835 914.787 343.227C914.124 341.586 914.391 339.724 914.034 337.99C913.677 336.256 912.166 334.443 910.454 334.892C905.487 336.196 903.902 351.549 901.242 355.28C897.199 360.95 888.899 357.215 890.173 350.229Z" fill="white"/>
<path d="M798.354 319.4C796.657 318.924 794.803 318.455 793.176 319.135C791.55 319.816 790.6 322.205 791.905 323.391C802.118 322.993 812.394 322.597 822.52 323.985C834.187 325.584 845.733 329.544 857.451 328.379C850.757 326.403 843.953 324.823 837.074 323.648L825.602 321.456C822.525 320.811 819.415 320.33 816.287 320.016C809.742 319.475 804.789 321.205 798.354 319.4Z" fill="white"/>
<path d="M808.579 283.814C807.731 283.743 806.681 283.682 806.242 284.411C805.823 285.108 806.303 286.029 806.077 286.81C805.769 287.878 804.372 288.15 803.271 288.005C802.17 287.86 800.979 287.512 800.004 288.043C799.509 288.381 799.138 288.87 798.945 289.438C798.752 290.005 798.748 290.62 798.933 291.19C799.332 292.321 799.977 293.35 800.822 294.201C802.264 296.02 803.908 297.669 805.721 299.118C809.231 301.71 813.987 302.959 816.198 306.722C816.509 307.452 816.989 308.097 817.597 308.606C818.658 309.279 820.042 308.767 821.185 308.245L825.19 306.414C825.912 306.154 826.556 305.716 827.063 305.14C827.978 303.898 827.416 302.131 826.648 300.793C825.88 299.455 824.896 298.07 825.061 296.536C825.355 293.8 828.871 292.754 830.317 290.413C831.774 288.054 830.825 285.014 830.993 282.245C831.19 279.008 833.223 274.796 829.951 272.377C827.171 270.322 824.513 272.221 822.517 274.491C818.308 279.277 816.317 284.46 808.579 283.814Z" fill="white"/>
<path d="M832.892 235.44C834.259 238.059 837.11 239.622 838.601 242.174C840.218 244.939 840.033 248.511 841.787 251.192C843.586 253.941 847.206 255.401 848.215 258.529C849.317 261.944 846.818 266.094 848.81 269.077C849.181 269.565 849.65 269.97 850.186 270.267C850.722 270.564 851.314 270.746 851.925 270.802C852.535 270.859 853.15 270.787 853.732 270.593C854.313 270.399 854.848 270.086 855.302 269.674C856.142 268.759 856.591 267.552 856.555 266.31C856.518 265.069 855.998 263.89 855.105 263.027C853.926 261.951 852.232 261.486 851.247 260.229C850.734 259.504 850.393 258.672 850.248 257.795C849.711 255.267 849.797 252.645 850.499 250.158C850.762 249.526 850.829 248.83 850.691 248.16C850.247 246.871 848.502 246.779 847.277 246.181C844.496 244.823 844.563 240.895 845.049 237.837C844.726 239.873 837.476 236.41 836.717 235.256C835.209 232.965 836.03 228.545 835.731 226.013C832.475 227.583 831.22 232.237 832.892 235.44Z" fill="white"/>
<path d="M759.855 275.745C758.517 274.246 756.502 272.678 754.708 273.582C753.339 274.271 752.963 276.166 753.499 277.602C754.153 278.997 755.159 280.197 756.418 281.084C760.157 284.168 764.182 286.952 767.444 290.538C773.28 296.955 776.372 305.614 782.72 311.526C783.995 312.896 785.685 313.811 787.53 314.13C789.379 314.302 791.456 313.118 791.668 311.272C791.843 309.751 790.784 308.39 789.748 307.263C787.283 304.58 784.583 302.11 782.255 299.307C781.18 298.23 780.504 296.818 780.34 295.305C780.328 293.795 781.704 292.215 783.166 292.589C781.388 292.134 780.069 289.171 777.46 288.613C775.279 288.148 774.751 289.499 772.156 288.385C767.206 286.261 763.322 279.627 759.855 275.745Z" fill="white"/>
<path d="M876.172 129.821C874.752 129.399 873.356 128.9 871.99 128.327C868.314 127.223 863.451 129.926 863.941 133.734C864.267 136.264 866.62 137.969 867.92 140.164C869.847 143.418 869.333 147.546 868.321 151.191C868.072 152.319 867.599 153.386 866.93 154.328C865.994 155.323 864.876 156.127 863.636 156.699C858.673 159.483 854.296 163.204 850.747 167.654C850.361 168.065 850.092 168.572 849.968 169.122C849.793 170.408 851.085 171.344 851.815 172.417C853.437 174.799 852.265 178.004 852.425 180.882C852.4 181.289 852.48 181.695 852.656 182.063C852.833 182.43 853.1 182.746 853.433 182.982C854.411 183.478 855.569 182.634 856.099 181.674C857.858 178.486 856.533 173.369 859.833 171.832C860.457 171.541 861.213 171.419 861.63 170.87C862.29 170 861.653 168.712 861.988 167.672C862.49 166.11 864.625 166.04 866.263 166.109C869.085 166.227 871.906 165.852 874.599 164.999C875.656 164.748 876.615 164.192 877.359 163.4C878.345 162.169 878.258 160.418 878.06 158.852C877.073 151.047 874.602 143.502 870.78 136.627C873.678 136.997 876.831 137.318 879.332 135.807C880.733 134.96 882.412 132.43 881.717 130.708C880.619 127.984 878.635 130.277 876.172 129.821Z" fill="white"/>
<path d="M504.625 172.75C504.972 174.611 505.313 176.571 504.703 178.363C504.093 180.155 502.176 181.653 500.365 181.103C498.959 180.677 498.147 179.263 497.15 178.186C491.6 172.192 479.079 175.662 475.65 168.246C474.251 165.22 475.202 161.594 474.248 158.399C473.646 156.552 472.448 154.958 470.842 153.867C469.236 152.775 467.313 152.248 465.376 152.369C463.608 152.624 461.888 153.138 460.27 153.894C449.431 158.237 438.051 161.084 426.444 162.358C424.238 162.492 422.056 162.89 419.945 163.541C415.179 165.27 411.922 169.69 409.605 174.201C407.287 178.712 405.577 183.595 402.47 187.603C399.204 191.815 394.629 194.764 390.36 197.954C388.716 199.014 387.347 200.45 386.366 202.143C385.441 204.043 385.493 206.254 385.565 208.367L386.437 234.028C386.549 237.329 386.69 240.748 388.167 243.701C390.01 247.39 393.653 249.806 396.18 253.064C398.759 256.413 400.102 260.55 399.982 264.775C399.929 266.474 399.76 268.483 401.082 269.55C401.887 270.072 402.828 270.343 403.787 270.328L438.483 273.169C444.586 273.669 451.35 274.491 455.335 279.143C457.215 281.338 458.726 284.496 461.606 284.731C462.842 284.832 464.044 284.325 465.28 284.227C468.398 283.98 471.137 286.347 472.865 288.955C475.482 292.93 476.669 297.676 476.233 302.415C475.95 305.39 475.028 308.282 474.829 311.264C474.073 322.609 483.686 332.466 483.872 343.834C483.982 350.521 480.809 356.77 477.715 362.698C482.708 370.266 478.62 380.342 480.607 389.189C482.493 397.582 489.488 404.152 491.231 412.576C492.029 416.432 492.075 421.178 495.474 423.164C496.965 423.892 498.619 424.223 500.275 424.126C510.266 424.245 520.143 421.995 529.098 417.561C533.301 415.475 537.657 412.36 538.391 407.723C538.982 403.984 537.087 399.802 539.016 396.545C541.289 392.707 547.112 393.011 550.457 390.06C555.883 385.272 551.652 376.142 553.85 369.246C555.826 363.047 562.629 359.754 566.001 354.191C567.328 351.798 568.28 349.216 568.824 346.535C570.369 340.126 571.331 333.591 571.697 327.008C571.787 323.009 572.082 319.017 572.58 315.048C576.216 292.451 598.544 277.32 605.794 255.612C606.486 253.539 606.811 250.778 604.968 249.605C603.874 249.083 602.635 248.953 601.457 249.237L585.463 251.255C583.476 251.505 581.371 251.739 579.546 250.914C577.722 250.088 576.414 247.779 577.382 246.026C580.099 241.103 574.511 234.882 572.028 229.837C565.342 216.252 557.381 203.334 548.251 191.257C547.666 190.636 547.3 189.841 547.208 188.993L551.748 189.144C550.215 183.643 547.687 177.624 542.345 175.611C539.335 174.478 536.001 174.87 532.79 175.045C523.591 175.548 513.729 174.158 504.625 172.75Z" fill="white"/>
<path d="M532.796 48.7858C535.203 51.3433 537.901 54.0548 541.384 54.5005C547.535 55.2879 551.958 48.9237 554.774 43.3956C554.878 44.8049 555.528 46.1179 556.585 47.0554C557.642 47.9929 559.023 48.4808 560.434 48.4155C561.952 48.1599 563.401 47.5931 564.69 46.7505C576.879 40.0867 590.53 36.556 604.419 36.4754C604.286 35.4228 604.547 34.3581 605.152 33.4866C605.757 32.6152 606.663 31.9988 607.696 31.7565C610.52 31.1964 613.063 33.639 614.426 36.1764C615.788 38.7137 616.637 41.6548 618.802 43.554C620.966 45.4533 625.156 45.3705 626.011 42.6202C626.832 39.9798 624.082 37.728 621.798 36.1713C619.514 34.6146 617.106 31.7334 618.644 29.4361C630.314 26.8517 642.057 24.2574 653.998 23.7438C656.031 23.8146 658.057 23.4654 659.949 22.7181C661.77 21.824 663.217 19.7945 662.728 17.825C660.122 18.4379 657.393 18.2604 654.888 17.3153C652.383 16.3701 650.217 14.7 648.664 12.518C665.234 11.15 682.857 9.98403 697.542 17.7843C699.304 21.5689 690.323 24.7177 692.726 28.1312C693.492 29.2199 695.028 29.3476 696.358 29.3723C706.563 29.5619 716.826 29.7477 726.915 28.2064C730.602 27.6432 734.326 26.848 738.028 27.3048C744.193 28.0655 749.467 32.1813 755.533 33.5233C758.001 34.0694 760.77 34.0879 762.851 32.6513C764.932 31.2147 765.826 27.9434 764.121 26.0758C769.832 20.4757 779.311 21.8637 786.845 24.5447C794.38 27.2258 801.518 31.5494 809.492 32.147C815.211 32.5756 821.009 31.0367 826.659 32.0148C830.21 32.6295 833.514 34.2099 836.985 35.1808C843.549 37.0172 850.492 36.6296 857.307 36.718C874.695 36.9523 891.893 40.3713 908.05 46.8057C910.152 47.4903 912.077 48.6286 913.691 50.1401C915.194 51.7507 915.961 54.2536 914.95 56.2117L898.255 53.7712C899.828 56.8693 903.898 57.3972 907.203 58.466C910.507 59.5347 913.934 63.1861 911.948 66.0367C908.367 64.8961 905.122 68.4778 903.313 71.7734C901.504 75.0689 899.3 79.0157 895.548 79.2165C892.187 79.3962 888.123 76.5336 885.933 79.0895C888.959 82.9087 891.55 87.0534 893.659 91.4468C895.823 95.9571 897.364 101.64 894.439 105.698C893.979 106.423 893.281 106.964 892.465 107.23C890.076 107.835 888.524 104.911 886.811 103.139C884.653 100.906 881.388 100.274 878.465 99.2265C875.542 98.1793 872.463 96.1192 872.234 93.0212C872.092 91.0937 873.109 89.3019 873.858 87.5205C875.117 84.5177 875.668 81.2651 875.467 78.0149C875.303 75.4001 874.571 72.6802 872.694 70.8532C870.817 69.0263 867.576 68.4467 865.561 70.12C864.621 70.9008 863.867 72.1496 862.646 72.1963C860.489 72.2789 858.833 68.5159 857.097 69.8004C857.301 71.1691 857.017 72.5659 856.296 73.7465C851.116 78.2533 843.159 76.3466 836.482 77.9387C833.307 78.8478 830.267 80.176 827.442 81.8883C826.386 82.3403 825.486 83.0954 824.858 84.0581C824.025 85.6786 824.944 87.754 826.413 88.8315C827.971 89.7875 829.722 90.3854 831.539 90.5819C839.679 92.1244 847.938 94.5122 854.365 99.7433C860.792 104.974 865.007 113.622 862.973 121.657L846.92 106.311C847.529 112.754 847.876 119.216 847.958 125.695C848.062 126.96 847.888 128.232 847.449 129.423C846.304 131.952 843.203 132.803 840.485 133.362C839.729 133.505 839.012 133.807 838.381 134.248C837.75 134.689 837.219 135.258 836.823 135.918C836.428 136.579 836.176 137.315 836.086 138.08C835.995 138.844 836.067 139.619 836.297 140.354C837.263 143.503 839.671 145.959 841.875 148.405C844.08 150.852 846.25 153.632 846.538 156.914C846.827 160.195 844.352 163.894 841.068 163.666C838.578 163.493 836.731 161.262 835.668 159.003C834.606 156.743 833.974 154.225 832.379 152.305C827.549 146.494 816.7 148.984 812.373 142.788C811.27 144.039 810.505 145.552 810.151 147.183C809.797 148.814 809.865 150.508 810.349 152.104C812.362 150.844 815.118 152.015 816.63 153.847C818.143 155.679 818.856 158.028 820.044 160.085C821.647 162.861 824.197 165.323 824.421 168.521C824.362 169.731 824.382 170.943 824.482 172.149C824.879 174.087 826.517 175.479 827.652 177.098C830.293 180.868 830.163 186.045 828.46 190.322C826.758 194.598 823.699 198.172 820.67 201.636C815.378 207.687 809.979 213.703 803.706 218.728C801.916 220.162 800.006 221.572 798.891 223.577C797.776 225.581 797.719 228.395 799.432 229.92C798.206 229.982 796.008 230.585 794.782 230.646C794.351 225.727 794.257 220.783 794.502 215.851C789.664 213.527 784.456 219.75 785.08 225.083C785.704 230.415 789.559 234.694 792.304 239.307C794.311 242.681 795.802 246.614 795.132 250.483C794.462 254.351 791.011 257.919 787.102 257.578C780.884 257.035 778.283 248.105 772.125 247.082C771.582 246.955 771.012 247.012 770.505 247.243C769.59 247.745 769.432 248.969 769.38 250.011C769.128 255.124 768.91 260.441 770.905 265.156C773.824 272.053 781.365 277.846 779.783 285.166C771.262 281.204 766.832 271.643 764.82 262.46C762.809 253.277 762.473 243.637 758.868 234.955C756.13 238.466 750.375 235.564 747.873 231.88C745.501 228.388 744.041 224.349 741.74 220.81C739.439 217.271 735.914 214.102 731.699 213.907C727.279 213.703 723.446 216.738 720.075 219.605C717.303 221.962 714.457 224.413 712.837 227.672C710.479 232.414 711.096 238.005 710.982 243.3C710.86 249.025 709.647 255.065 705.747 259.256C701.847 263.447 694.648 264.907 690.347 261.13C688.101 259.158 687.014 256.212 686.045 253.384C681.376 239.752 677.488 225.864 674.399 211.789C673.677 215.002 670.857 219.142 668.163 217.25C667.559 216.741 667.069 216.11 666.727 215.398C661.702 206.878 652.398 201.768 642.997 198.704C633.596 195.64 623.705 194.211 614.408 190.843C609.198 188.956 604.222 186.476 599.577 183.453C598.393 185.193 597.702 187.221 597.576 189.323C597.451 191.424 597.896 193.52 598.864 195.389C600.927 199.043 605.593 201.156 609.588 199.879C611.652 199.22 613.396 197.786 615.444 197.078C617.492 196.37 620.242 196.717 621.137 198.692C621.995 200.581 620.699 202.867 621.341 204.841C622.321 207.846 626.851 208.077 628.435 210.812C629.614 212.847 628.644 215.549 626.961 217.191C625.278 218.833 623.033 219.733 620.978 220.876C614.312 224.584 609.572 230.915 603.747 235.84C597.921 240.766 589.702 244.362 582.759 241.202C584.414 232.818 574.432 226.663 572.596 218.317C571.991 215.57 572.305 212.652 571.442 209.975C570.192 206.099 566.755 203.434 563.936 200.497C560.516 196.896 557.852 192.646 556.1 187.998C554.349 183.35 553.545 178.398 553.738 173.434C553.89 169.985 554.524 166.479 553.738 163.117C552.953 159.755 550.17 156.501 546.723 156.653C538.848 157.001 528.928 157.587 524.797 150.872C523.323 148.475 522.681 144.964 524.813 143.128C526.317 141.833 528.536 141.955 530.511 142.149L548.254 143.895C552.403 144.303 556.889 144.64 560.45 142.47C564.011 140.3 565.554 134.539 562.256 131.985C559.847 130.119 555.531 130.22 554.83 127.254C554.247 124.783 556.981 121.98 555.504 119.916C554.446 118.435 552.066 118.846 550.624 119.956C549.182 121.066 548.136 122.689 546.522 123.529C543.691 125.003 540.308 123.6 537.262 122.647C534.216 121.693 530.133 121.612 528.655 124.442C527.003 127.608 530.121 131.755 528.481 134.927C526.313 139.121 518.972 136.734 515.927 140.341C512.433 144.48 518.304 150.652 517.126 155.94C515.622 156.685 513.95 157.027 512.274 156.933C510.598 156.839 508.975 156.311 507.564 155.402C506.176 154.457 505.069 153.154 504.363 151.631C503.656 150.107 503.375 148.421 503.55 146.75C503.842 144.371 505.081 141.943 504.251 139.695C503.579 137.878 501.755 136.796 500.06 135.859L482.819 126.327C481.218 129.298 483.242 132.981 485.773 135.212C488.304 137.444 491.474 139.124 493.136 142.061C494.188 144.096 494.424 146.455 493.796 148.658C493.167 150.86 491.722 152.74 489.755 153.913C489.509 154.083 489.228 154.198 488.933 154.249C488.638 154.301 488.336 154.288 488.046 154.211C487.771 154.049 487.531 153.834 487.341 153.578C487.151 153.322 487.014 153.03 486.938 152.72C483.896 144.931 479.328 137.252 472.026 133.183C464.724 129.115 454.232 129.951 449.444 136.805C448.306 138.433 447.543 140.289 446.552 142.01C441.288 151.154 430.003 155.484 419.46 155.201C418.429 155.258 417.403 155.017 416.504 154.506C414.8 153.329 414.877 150.83 415.138 148.775L416.245 140.053C416.467 138.301 416.789 136.365 418.175 135.272C420.128 133.73 422.946 134.703 425.433 134.667C427.317 134.579 429.129 133.913 430.623 132.76C432.116 131.607 433.219 130.022 433.782 128.221C434.285 126.401 434.281 124.48 433.773 122.662C433.264 120.845 432.27 119.2 430.896 117.907C429.756 116.835 428.226 115.49 428.828 114.045C429.068 113.646 429.393 113.304 429.78 113.044C430.166 112.783 430.605 112.611 431.065 112.538C435.533 111.24 440.254 110.9 444.648 109.368C449.042 107.836 453.302 104.703 454.343 100.166C454.662 98.7754 454.807 97.0911 456.055 96.4018C456.681 96.1372 457.354 95.9997 458.034 95.9973C460.416 95.6583 462.585 94.4394 464.113 92.5807C465.642 90.7219 466.42 88.358 466.294 85.9543C468.399 84.4823 471.349 85.5651 473.386 87.1307C475.423 88.6963 477.222 90.7647 479.7 91.4396C484.319 92.6974 488.783 88.6057 493.57 88.5868C495.583 88.5788 497.667 89.2909 499.561 88.6081C501.481 87.9159 502.627 86.0038 504.101 84.5912C505.574 83.1786 508.16 82.317 509.521 83.8387L508.362 75.2523C510.695 75.8421 513.128 75.9256 515.496 75.4972C517.864 75.0688 520.114 74.1385 522.093 72.7687L507.118 67.7066C506.597 67.5763 506.116 67.319 505.718 66.9575C504.629 65.7847 505.711 63.957 506.596 62.6237C508.714 59.4342 509.069 54.1804 505.587 52.5926C503.21 51.5087 500.481 52.8097 498.199 54.0825L487.27 60.1796C486.922 62.2581 489.463 63.436 491.037 64.8361C491.99 65.6831 492.664 66.7986 492.971 68.036C493.278 69.2734 493.204 70.5749 492.759 71.7694C492.313 72.9639 491.517 73.9956 490.474 74.7291C489.432 75.4625 488.192 75.8634 486.918 75.879C487.637 76.8152 488.138 77.9013 488.381 79.057C488.624 80.2127 488.605 81.4083 488.323 82.5554L480.97 83.0846C480.144 83.2507 479.287 83.0832 478.585 82.6188C477.798 81.92 477.905 80.6953 477.722 79.6588C477.282 77.1572 474.834 75.4038 472.335 74.9542C469.836 74.5047 467.28 75.0809 464.806 75.6499C463.755 76.0282 462.601 76.0015 461.569 75.5752C460.977 75.1906 460.528 74.6227 460.289 73.9583C459.204 71.3268 460.218 68.2337 461.96 65.9833C463.702 63.7329 466.088 62.0878 468.23 60.2143C473.352 55.7176 477.116 49.8775 479.095 43.3535C483.143 41.6566 487.334 39.3509 491.383 37.6539C497.624 34.4925 504.623 33.1358 511.593 33.7364L525.302 33.9984C529.361 34.0759 533.53 34.1753 537.283 35.7235C541.037 37.2716 544.335 40.6201 544.594 44.6735C544.672 45.1323 544.632 45.6035 544.478 46.0429C544.325 46.4822 544.062 46.8753 543.715 47.1852C543.185 47.4746 542.584 47.6099 541.981 47.576C538.196 47.7091 536.582 48.6528 532.796 48.7858Z" fill="white"/>
<path d="M423.523 91.7726C424.058 91.2654 424.444 90.6202 424.637 89.9081C424.83 89.196 424.823 88.4444 424.617 87.736C423.313 87.2328 421.895 87.1036 420.523 87.3629C419.15 87.6223 417.877 88.2598 416.847 89.2039C416.034 90.0258 415.334 90.9516 414.765 91.9571C412.963 94.8976 411.37 98.41 412.414 101.697C412.499 102.055 412.655 102.393 412.872 102.691C413.09 102.988 413.364 103.239 413.68 103.429C414.148 103.617 414.652 103.696 415.155 103.66C417.14 103.658 419.122 103.535 421.092 103.295C422.302 103.147 423.707 102.805 424.175 101.679C424.789 100.199 423.302 98.5234 423.735 96.9804C424.021 96.2904 424.453 95.671 425.002 95.1653C425.275 94.9107 425.484 94.5961 425.614 94.2464C425.743 93.8967 425.79 93.5216 425.749 93.1508C425.574 92.4269 424.466 92.0161 424.067 92.6451" fill="white"/>
<path d="M433.813 78.4243C432.05 78.0193 430.232 77.9051 428.433 78.0863C428.034 78.0744 427.64 78.1641 427.286 78.3469C426.943 78.5999 426.695 78.9601 426.58 79.3704C426.2 80.5911 426.293 81.9102 426.841 83.0651C427.39 84.2199 428.353 85.1257 429.539 85.602C430.185 85.7507 430.804 85.9996 431.374 86.3397C432.895 87.5209 431.925 89.9352 432.213 91.8404C432.537 93.9798 434.607 95.7755 434.227 97.9056C433.928 99.5838 432.137 100.913 432.425 102.593C432.727 104.352 434.959 104.881 436.738 105.022C437.769 105.203 438.83 105.081 439.794 104.672C440.759 104.011 441.446 103.016 441.721 101.878C442.45 99.7095 442.756 97.4211 442.623 95.137C442.615 94.0981 442.354 93.0768 441.863 92.1615C441.328 91.4363 440.734 90.7561 440.088 90.1273C436.679 86.1609 440.268 80.2444 433.813 78.4243Z" fill="white"/>
</svg>
