<svg width="686" height="716" viewBox="0 0 686 716" fill="none" xmlns="http://www.w3.org/2000/svg">
<ellipse opacity="0.15" cx="77.498" cy="79.5049" rx="79.5" ry="76.5" transform="rotate(90 77.498 79.5049)" fill="white"/>
<ellipse opacity="0.2" cx="210.498" cy="79.5049" rx="79.5" ry="76.5" transform="rotate(90 210.498 79.5049)" fill="white"/>
<ellipse opacity="0.3" cx="476.499" cy="79.5049" rx="79.5" ry="76.5" transform="rotate(90 476.499 79.5049)" fill="white"/>
<ellipse opacity="0.25" cx="609.499" cy="79.5049" rx="79.5" ry="76.5" transform="rotate(90 609.499 79.5049)" fill="white"/>
<ellipse opacity="0.1" cx="77.498" cy="218.505" rx="79.5" ry="76.5" transform="rotate(90 77.498 218.505)" fill="white"/>
<ellipse opacity="0.4" cx="210.498" cy="218.505" rx="79.5" ry="76.5" transform="rotate(90 210.498 218.505)" fill="white"/>
<ellipse opacity="0.05" cx="343.497" cy="218.505" rx="79.5" ry="76.5" transform="rotate(90 343.497 218.505)" fill="white"/>
<ellipse opacity="0.15" cx="77.498" cy="357.504" rx="79.5" ry="76.5" transform="rotate(90 77.498 357.504)" fill="white"/>
<ellipse opacity="0.1" cx="343.497" cy="357.504" rx="79.5" ry="76.5" transform="rotate(90 343.497 357.504)" fill="white"/>
<ellipse opacity="0.3" cx="476.499" cy="357.504" rx="79.5" ry="76.5" transform="rotate(90 476.499 357.504)" fill="white"/>
<ellipse opacity="0.15" cx="609.499" cy="357.504" rx="79.5" ry="76.5" transform="rotate(90 609.499 357.504)" fill="white"/>
<ellipse opacity="0.05" cx="77.498" cy="496.505" rx="79.5" ry="76.5" transform="rotate(90 77.498 496.505)" fill="white"/>
<ellipse opacity="0.15" cx="210.498" cy="496.505" rx="79.5" ry="76.5" transform="rotate(90 210.498 496.505)" fill="white"/>
<ellipse opacity="0.1" cx="343.497" cy="496.505" rx="79.5" ry="76.5" transform="rotate(90 343.497 496.505)" fill="white"/>
<ellipse opacity="0.2" cx="476.499" cy="496.505" rx="79.5" ry="76.5" transform="rotate(90 476.499 496.505)" fill="white"/>
<ellipse opacity="0.05" cx="609.499" cy="496.505" rx="79.5" ry="76.5" transform="rotate(90 609.499 496.505)" fill="white"/>
<ellipse opacity="0.3" cx="210.498" cy="635.507" rx="79.5" ry="76.5" transform="rotate(90 210.498 635.507)" fill="white"/>
<ellipse opacity="0.1" cx="343.497" cy="635.507" rx="79.5" ry="76.5" transform="rotate(90 343.497 635.507)" fill="white"/>
<ellipse opacity="0.5" cx="476.499" cy="635.507" rx="79.5" ry="76.5" transform="rotate(90 476.499 635.507)" fill="white"/>
</svg>
