<svg width="476" height="481" viewBox="0 0 476 481" fill="none" xmlns="http://www.w3.org/2000/svg">
<mask id="mask0" mask-type="alpha" maskUnits="userSpaceOnUse" x="0" y="0" width="476" height="481">
<path d="M238 481C106.556 481 1.4199e-05 373.325 2.0005e-05 240.5C2.58109e-05 107.676 106.556 1.43687e-05 238 2.01143e-05C369.444 2.58599e-05 476 107.676 476 240.5C476 373.325 369.444 481 238 481Z" fill="white"/>
</mask>
<g mask="url(#mask0)">
<ellipse opacity="0.075" cx="238" cy="240.5" rx="240.5" ry="238" transform="rotate(90 238 240.5)" fill="white"/>
<ellipse opacity="0.075" cx="238" cy="142.5" rx="237.5" ry="232" transform="rotate(90 238 142.5)" fill="white"/>
<ellipse opacity="0.075" cx="91" cy="251.5" rx="237.5" ry="232" transform="rotate(90 91 251.5)" fill="white"/>
<ellipse opacity="0.075" cx="295" cy="274.5" rx="237.5" ry="232" transform="rotate(90 295 274.5)" fill="white"/>
<ellipse opacity="0.075" cx="199" cy="329.5" rx="237.5" ry="232" transform="rotate(90 199 329.5)" fill="white"/>
<ellipse opacity="0.075" cx="361" cy="166.5" rx="237.5" ry="232" transform="rotate(90 361 166.5)" fill="white"/>
</g>
</svg>
