<svg width="450" height="450" viewBox="0 0 450 450" fill="none" xmlns="http://www.w3.org/2000/svg">
<rect width="450" height="450" fill="white"/>
<path fill-rule="evenodd" clip-rule="evenodd" d="M450 0H0V450H450V0ZM185.103 141.723C229.13 141.604 274.803 141.545 276.943 141.545C292.771 141.545 304.642 143.897 312.556 148.602C320.256 153.52 324.107 162.394 324.107 175.224C324.107 176.935 323.893 179.715 323.465 183.564L318.367 226.943C318.055 229.469 315.909 231.367 313.363 231.367H281.158C276.154 231.367 275.719 229.638 276.154 225.714L278.868 201.527C279.082 200.244 279.189 198.533 279.189 196.395C279.189 185.916 274.055 180.677 263.788 180.677H102.529C101.46 180.677 100.826 180.258 99.9625 179.394C99.0991 178.531 99 177.936 99 176.828L102.978 146.773C102.978 146.496 102.997 146.217 103.057 145.946C103.561 143.642 104.925 142.388 107.149 142.186C109.604 142.064 120.642 141.959 140.905 141.871C141.435 141.869 141.936 141.549 141.936 141.019L146.748 102.849C146.962 101.78 147.39 100.925 148.032 100.283C148.887 99.4277 149.85 99 150.919 99H185.891C186.838 99 187.618 99.3356 188.23 100.007C188.39 100.183 188.549 100.362 188.693 100.553C189.149 101.158 189.285 101.923 189.099 102.849L184.287 141.019C184.287 141.447 184.676 141.724 185.103 141.723ZM168.841 219.476C173.685 219.476 174.331 221.44 173.845 225.13L171.132 248.473C170.918 249.756 170.811 251.467 170.811 253.605C170.811 264.084 175.945 269.323 186.212 269.323H347.471C348.54 269.323 349.174 269.742 350.037 270.606C350.901 271.469 351 272.064 351 273.172L347.14 303.227C347.14 303.504 347.121 303.783 347.062 304.054C346.558 306.358 345.194 307.612 342.969 307.814C340.515 307.936 329.358 308.042 309.095 308.129C308.565 308.131 308.064 308.451 308.064 308.981L303.252 347.151C303.038 348.22 302.61 349.075 301.968 349.717C301.113 350.572 300.15 351 299.081 351H264.109C263.162 351 262.382 350.664 261.77 349.993C261.61 349.817 261.451 349.638 261.307 349.447C260.851 348.842 260.715 348.077 260.901 347.151L265.713 308.981C265.713 308.553 265.324 308.276 264.897 308.277C220.87 308.396 175.197 308.455 173.057 308.455C157.229 308.455 145.358 306.103 137.444 301.398C129.744 296.48 125.893 287.606 125.893 274.776C125.893 273.065 126.107 270.285 126.535 266.436L131.633 223.901C131.944 221.374 134.09 219.476 136.636 219.476H168.841Z" fill="black"/>
</svg>
