<svg width="400" height="400" viewBox="0 0 400 400" fill="none" xmlns="http://www.w3.org/2000/svg">
<path fill-rule="evenodd" clip-rule="evenodd" d="M200 0C89.5431 0 0 89.5431 0 200C0 310.457 89.5431 400 200 400C310.457 400 400 310.457 400 200C400 89.5431 310.457 0 200 0ZM166.87 130.848C203.43 130.749 241.356 130.7 243.132 130.7C256.276 130.7 266.134 132.653 272.705 136.56C279.099 140.644 282.297 148.013 282.297 158.667C282.297 160.088 282.119 162.396 281.764 165.592L277.53 201.614C277.272 203.711 275.489 205.287 273.375 205.287H246.633C242.478 205.287 242.116 203.851 242.478 200.593L244.731 180.508C244.908 179.443 244.997 178.022 244.997 176.246C244.997 167.546 240.734 163.195 232.209 163.195H98.3018C97.4137 163.195 96.8874 162.846 96.1704 162.13C95.4534 161.413 95.3712 160.919 95.3712 159.999L98.6744 135.042C98.6744 134.811 98.6906 134.58 98.7398 134.355C99.1582 132.441 100.291 131.401 102.138 131.233C104.176 131.131 113.342 131.044 130.168 130.971C130.608 130.969 131.024 130.704 131.024 130.264L135.021 98.5676C135.198 97.6798 135.553 96.9695 136.086 96.4368C136.797 95.7265 137.596 95.3714 138.484 95.3714H167.524C168.311 95.3714 168.958 95.6501 169.466 96.2074C169.6 96.3538 169.732 96.5027 169.851 96.6609C170.23 97.1633 170.342 97.7989 170.189 98.5676L166.192 130.264C166.192 130.618 166.515 130.849 166.87 130.848ZM153.367 195.413C157.389 195.413 157.925 197.044 157.522 200.108L155.269 219.492C155.091 220.557 155.002 221.978 155.002 223.754C155.002 232.455 159.265 236.805 167.791 236.805H301.698C302.586 236.805 303.112 237.154 303.829 237.87C304.546 238.587 304.628 239.081 304.628 240.001L301.423 264.958C301.423 265.189 301.407 265.42 301.358 265.645C300.94 267.559 299.807 268.6 297.96 268.767C295.922 268.869 286.658 268.957 269.831 269.029C269.391 269.031 268.975 269.297 268.975 269.736L264.979 301.432C264.801 302.32 264.446 303.031 263.913 303.563C263.203 304.274 262.404 304.629 261.516 304.629H232.475C231.689 304.629 231.041 304.35 230.533 303.793C230.4 303.646 230.268 303.497 230.149 303.339C229.77 302.837 229.657 302.201 229.811 301.432L233.807 269.736C233.807 269.382 233.484 269.152 233.129 269.152C196.57 269.251 158.644 269.3 156.867 269.3C143.724 269.3 133.866 267.347 127.294 263.44C120.9 259.356 117.703 251.987 117.703 241.333C117.703 239.912 117.881 237.604 118.236 234.408L122.469 199.087C122.727 196.989 124.51 195.413 126.624 195.413H153.367Z" fill="#20263D"/>
</svg>
