<svg width="567" height="200" viewBox="0 0 567 200" fill="none" xmlns="http://www.w3.org/2000/svg">
<rect x="1" y="1" width="565" height="198" rx="99" fill="#F3F5FA" stroke="#E8EAEE" stroke-width="2"/>
<path d="M267.056 78.6C267.296 78.6 267.488 78.696 267.632 78.888C267.824 79.032 267.92 79.224 267.92 79.464V85.008C267.92 85.248 267.824 85.464 267.632 85.656C267.488 85.8 267.296 85.872 267.056 85.872H255.896C255.656 85.872 255.536 85.992 255.536 86.232V128.136C255.536 128.376 255.44 128.592 255.248 128.784C255.104 128.928 254.912 129 254.672 129H248.048C247.808 129 247.592 128.928 247.4 128.784C247.256 128.592 247.184 128.376 247.184 128.136V86.232C247.184 85.992 247.064 85.872 246.824 85.872H236.096C235.856 85.872 235.64 85.8 235.448 85.656C235.304 85.464 235.232 85.248 235.232 85.008V79.464C235.232 79.224 235.304 79.032 235.448 78.888C235.64 78.696 235.856 78.6 236.096 78.6H267.056ZM302.404 129C301.876 129 301.54 128.76 301.396 128.28L299.524 120.576C299.476 120.384 299.356 120.288 299.164 120.288H284.332C284.14 120.288 284.02 120.384 283.972 120.576L282.172 128.28C282.028 128.76 281.692 129 281.164 129H274.324C273.7 129 273.46 128.688 273.604 128.064L286.708 79.32C286.852 78.84 287.188 78.6 287.716 78.6H295.924C296.452 78.6 296.788 78.84 296.932 79.32L310.036 128.064L310.108 128.352C310.108 128.784 309.844 129 309.316 129H302.404ZM285.7 113.304C285.652 113.448 285.676 113.568 285.772 113.664C285.868 113.712 285.964 113.736 286.06 113.736H297.436C297.532 113.736 297.628 113.712 297.724 113.664C297.82 113.568 297.844 113.448 297.796 113.304L291.892 89.688C291.844 89.544 291.772 89.472 291.676 89.472C291.58 89.472 291.508 89.544 291.46 89.688L285.7 113.304ZM335.535 129.576C332.415 129.576 329.655 128.952 327.255 127.704C324.903 126.456 323.055 124.704 321.711 122.448C320.415 120.144 319.767 117.504 319.767 114.528V93.072C319.767 90.096 320.415 87.48 321.711 85.224C323.055 82.92 324.903 81.144 327.255 79.896C329.655 78.648 332.415 78.024 335.535 78.024C338.655 78.024 341.415 78.648 343.815 79.896C346.215 81.096 348.063 82.8 349.359 85.008C350.703 87.216 351.375 89.736 351.375 92.568V94.224C351.375 94.464 351.279 94.68 351.087 94.872C350.943 95.016 350.751 95.088 350.511 95.088H343.887C343.647 95.088 343.431 95.016 343.239 94.872C343.095 94.68 343.023 94.464 343.023 94.224V92.568C343.023 90.408 342.327 88.656 340.935 87.312C339.591 85.92 337.791 85.224 335.535 85.224C333.327 85.224 331.527 85.944 330.135 87.384C328.791 88.776 328.119 90.624 328.119 92.928V114.672C328.119 116.976 328.815 118.848 330.207 120.288C331.647 121.68 333.495 122.376 335.751 122.376C337.959 122.376 339.711 121.752 341.007 120.504C342.351 119.208 343.023 117.456 343.023 115.248V109.56C343.023 109.32 342.903 109.2 342.663 109.2H336.111C335.871 109.2 335.655 109.128 335.463 108.984C335.319 108.792 335.247 108.576 335.247 108.336V103.08C335.247 102.84 335.319 102.648 335.463 102.504C335.655 102.312 335.871 102.216 336.111 102.216H350.511C350.751 102.216 350.943 102.312 351.087 102.504C351.279 102.648 351.375 102.84 351.375 103.08V114.312C351.375 119.064 349.935 122.808 347.055 125.544C344.175 128.232 340.335 129.576 335.535 129.576ZM366.143 129C365.903 129 365.687 128.928 365.495 128.784C365.351 128.592 365.279 128.376 365.279 128.136V79.464C365.279 79.224 365.351 79.032 365.495 78.888C365.687 78.696 365.903 78.6 366.143 78.6H372.767C373.007 78.6 373.199 78.696 373.343 78.888C373.535 79.032 373.631 79.224 373.631 79.464V128.136C373.631 128.376 373.535 128.592 373.343 128.784C373.199 128.928 373.007 129 372.767 129H366.143ZM403.45 129.648C400.282 129.648 397.474 129 395.026 127.704C392.626 126.408 390.754 124.584 389.41 122.232C388.114 119.832 387.466 117.072 387.466 113.952V93.648C387.466 90.576 388.114 87.864 389.41 85.512C390.754 83.112 392.626 81.264 395.026 79.968C397.474 78.672 400.282 78.024 403.45 78.024C406.666 78.024 409.474 78.672 411.874 79.968C414.322 81.264 416.218 83.112 417.562 85.512C418.906 87.864 419.578 90.576 419.578 93.648V113.952C419.578 117.072 418.906 119.832 417.562 122.232C416.218 124.584 414.322 126.408 411.874 127.704C409.474 129 406.666 129.648 403.45 129.648ZM403.45 122.448C405.802 122.448 407.674 121.704 409.066 120.216C410.506 118.68 411.226 116.712 411.226 114.312V93.432C411.226 90.984 410.506 89.016 409.066 87.528C407.674 85.992 405.802 85.224 403.45 85.224C401.146 85.224 399.298 85.992 397.906 87.528C396.514 89.016 395.818 90.984 395.818 93.432V114.312C395.818 116.712 396.514 118.68 397.906 120.216C399.298 121.704 401.146 122.448 403.45 122.448ZM458.311 79.464C458.311 79.224 458.383 79.032 458.527 78.888C458.719 78.696 458.935 78.6 459.175 78.6H465.799C466.039 78.6 466.231 78.696 466.375 78.888C466.567 79.032 466.663 79.224 466.663 79.464V128.136C466.663 128.376 466.567 128.592 466.375 128.784C466.231 128.928 466.039 129 465.799 129H458.815C458.383 129 458.047 128.784 457.807 128.352L442.111 96.096C442.015 95.952 441.919 95.904 441.823 95.952C441.727 95.952 441.679 96.048 441.679 96.24L441.751 128.136C441.751 128.376 441.655 128.592 441.463 128.784C441.319 128.928 441.127 129 440.887 129H434.263C434.023 129 433.807 128.928 433.615 128.784C433.471 128.592 433.399 128.376 433.399 128.136V79.464C433.399 79.224 433.471 79.032 433.615 78.888C433.807 78.696 434.023 78.6 434.263 78.6H441.175C441.655 78.6 441.991 78.816 442.183 79.248L457.951 111.648C458.047 111.792 458.143 111.864 458.239 111.864C458.335 111.816 458.383 111.696 458.383 111.504L458.311 79.464Z" fill="black"/>
<rect x="28.3999" y="26.4" width="147.2" height="147.2" rx="73.6" fill="white"/>
<path fill-rule="evenodd" clip-rule="evenodd" d="M102 20C57.8172 20 22 55.8172 22 100C22 144.183 57.8172 180 102 180C146.183 180 182 144.183 182 100C182 55.8172 146.183 20 102 20ZM88.7482 72.3391C103.372 72.2997 118.542 72.28 119.253 72.28C124.51 72.28 128.453 73.0613 131.082 74.6239C133.64 76.2576 134.919 79.2052 134.919 83.4669C134.919 84.0351 134.848 84.9584 134.706 86.2369L133.012 100.646C132.909 101.485 132.196 102.115 131.35 102.115H120.653C118.991 102.115 118.846 101.541 118.991 100.237L119.892 92.2032C119.963 91.7771 119.999 91.2089 119.999 90.4986C119.999 87.0182 118.294 85.2781 114.884 85.2781H61.3208C60.9655 85.2781 60.755 85.1386 60.4682 84.8519C60.1814 84.5652 60.1485 84.3675 60.1485 83.9996L61.4698 74.0167C61.4698 73.9245 61.4763 73.832 61.496 73.7419C61.6633 72.9765 62.1164 72.5602 62.8552 72.4931C63.6706 72.4523 67.3369 72.4174 74.0673 72.3884C74.2434 72.3876 74.4097 72.2814 74.4097 72.1055L76.0083 59.4271C76.0793 59.0719 76.2214 58.7878 76.4346 58.5747C76.7187 58.2906 77.0385 58.1486 77.3937 58.1486H89.0098C89.3244 58.1486 89.5834 58.26 89.7866 58.483C89.8399 58.5415 89.8928 58.6011 89.9405 58.6644C90.092 58.8654 90.137 59.1196 90.0755 59.4271L88.4769 72.1055C88.4769 72.2474 88.6062 72.3395 88.7482 72.3391ZM83.3467 98.1654C84.9555 98.1654 85.1702 98.8174 85.0087 100.043L84.1076 107.797C84.0365 108.223 84.001 108.791 84.001 109.501C84.001 112.982 85.7061 114.722 89.1163 114.722H142.679C143.034 114.722 143.245 114.861 143.532 115.148C143.819 115.435 143.851 115.633 143.851 116.001L142.569 125.983C142.569 126.076 142.563 126.168 142.543 126.258C142.376 127.024 141.923 127.44 141.184 127.507C140.369 127.548 136.663 127.583 129.933 127.612C129.757 127.612 129.59 127.719 129.59 127.895L127.992 140.573C127.921 140.928 127.779 141.212 127.565 141.425C127.281 141.709 126.961 141.852 126.606 141.852H114.99C114.675 141.852 114.417 141.74 114.213 141.517C114.16 141.459 114.107 141.399 114.059 141.336C113.908 141.135 113.863 140.88 113.924 140.573L115.523 127.895C115.523 127.753 115.394 127.661 115.252 127.661C100.628 127.7 85.4576 127.72 84.747 127.72C79.4896 127.72 75.5465 126.939 72.9178 125.376C70.3601 123.743 69.0813 120.795 69.0813 116.533C69.0813 115.965 69.1523 115.042 69.2944 113.763L70.9877 99.6348C71.091 98.7957 71.804 98.1654 72.6496 98.1654H83.3467Z" fill="black"/>
</svg>
