<svg width="469" height="160" viewBox="0 0 469 160" fill="none" xmlns="http://www.w3.org/2000/svg">
<path d="M182.59 60.44C182.51 60.84 182.31 61.2 181.99 61.52C181.75 61.76 181.43 61.88 181.03 61.88H169.87C169.55 61.88 169.31 62.08 169.15 62.48L166.03 87.92C165.95 88.4 165.91 89.04 165.91 89.84C165.91 93.76 167.83 95.72 171.67 95.72H175.51C175.91 95.72 176.23 95.88 176.47 96.2C176.79 96.44 176.91 96.76 176.83 97.16L175.39 108.56C175.23 109.52 174.71 110.04 173.83 110.12C170.63 110.28 168.27 110.36 166.75 110.36C160.83 110.36 156.39 109.48 153.43 107.72C150.55 105.88 149.11 102.56 149.11 97.76C149.11 97.12 149.19 96.08 149.35 94.64L153.31 62.48C153.47 62.08 153.31 61.88 152.83 61.88H146.23C145.83 61.88 145.51 61.76 145.27 61.52C145.03 61.2 144.95 60.84 145.03 60.44L146.35 49.76C146.35 49.36 146.51 49.04 146.83 48.8C147.15 48.48 147.51 48.32 147.91 48.32H154.51C154.91 48.32 155.11 48.12 155.11 47.72L156.91 33.44C156.99 33.04 157.15 32.72 157.39 32.48C157.71 32.16 158.07 32 158.47 32H171.55C171.95 32 172.27 32.16 172.51 32.48C172.75 32.72 172.83 33.04 172.75 33.44L170.95 47.72C170.95 48.12 171.15 48.32 171.55 48.32H182.71C183.11 48.32 183.43 48.48 183.67 48.8C183.91 49.04 183.99 49.36 183.91 49.76L182.59 60.44Z" fill="#15181B"/>
<path d="M230.732 49.76C230.812 49.36 230.973 49.04 231.213 48.8C231.533 48.48 231.893 48.32 232.293 48.32H245.973C246.373 48.32 246.693 48.48 246.933 48.8C247.173 49.04 247.252 49.36 247.173 49.76L239.973 108.56C239.893 108.96 239.693 109.32 239.373 109.64C239.133 109.88 238.812 110 238.412 110H224.733C224.333 110 224.012 109.88 223.772 109.64C223.532 109.32 223.453 108.96 223.533 108.56L224.132 103.4C224.213 103.08 224.173 102.92 224.013 102.92C223.853 102.84 223.693 102.92 223.533 103.16C219.693 108.36 214.493 110.96 207.933 110.96C202.813 110.96 198.453 109.36 194.853 106.16C191.253 102.88 189.052 98.48 188.252 92.96C188.012 91.28 187.892 89.56 187.892 87.8C187.892 85.4 188.093 82.48 188.493 79.04C189.293 72.8 190.573 67.68 192.333 63.68C194.493 58.88 197.692 54.96 201.932 51.92C206.252 48.88 211.092 47.36 216.452 47.36C222.852 47.36 227.213 49.68 229.533 54.32C229.693 54.56 229.813 54.68 229.893 54.68C230.053 54.68 230.173 54.52 230.253 54.2L230.732 49.76ZM224.493 89.36C225.132 88.16 225.652 86.84 226.052 85.4C226.452 83.96 226.813 81.92 227.132 79.28C227.453 77.12 227.613 75.24 227.613 73.64C227.613 72.28 227.373 70.64 226.893 68.72C226.493 66.64 225.573 65 224.132 63.8C222.693 62.52 220.853 61.88 218.613 61.88C216.293 61.88 214.212 62.52 212.372 63.8C210.612 65.08 209.253 66.76 208.292 68.84C207.013 71.24 206.133 74.68 205.653 79.16C205.333 81.4 205.173 83.36 205.173 85.04C205.173 86.56 205.372 88 205.772 89.36C206.172 91.52 207.133 93.24 208.653 94.52C210.173 95.8 212.092 96.44 214.412 96.44C216.732 96.44 218.732 95.8 220.412 94.52C222.172 93.24 223.533 91.52 224.493 89.36Z" fill="#15181B"/>
<path d="M295.758 49.76C295.838 49.36 295.998 49.04 296.238 48.8C296.558 48.48 296.918 48.32 297.318 48.32H310.998C311.398 48.32 311.718 48.48 311.958 48.8C312.198 49.04 312.278 49.36 312.198 49.76L305.478 104.48C304.118 114.96 300.237 122.44 293.837 126.92C287.437 131.4 279.678 133.64 270.558 133.64C267.838 133.64 264.798 133.44 261.438 133.04C260.637 132.88 260.318 132.36 260.478 131.48L262.518 119.12C262.598 118.08 263.158 117.64 264.198 117.8C266.998 118.28 269.558 118.52 271.878 118.52C276.918 118.52 280.878 117.4 283.758 115.16C286.718 112.92 288.478 109.32 289.038 104.36C289.118 104.12 289.077 104 288.917 104C288.757 103.92 288.598 103.96 288.438 104.12C284.997 107.4 280.478 109.04 274.878 109.04C269.838 109.04 265.358 107.8 261.438 105.32C257.517 102.76 254.998 98.68 253.878 93.08C253.558 91.4 253.397 89.36 253.397 86.96C253.397 84.88 253.558 82.16 253.878 78.8C254.758 72.4 256.078 67.32 257.838 63.56C260.078 58.68 263.318 54.76 267.558 51.8C271.798 48.84 276.478 47.36 281.598 47.36C287.678 47.36 292.038 49.2 294.678 52.88C294.838 53.04 294.998 53.12 295.158 53.12C295.318 53.04 295.398 52.88 295.398 52.64L295.758 49.76ZM290.118 88.52C290.998 86.2 291.717 82.92 292.277 78.68C292.597 76.36 292.758 74.4 292.758 72.8C292.758 71.36 292.638 70.12 292.398 69.08C291.998 66.92 291.038 65.2 289.518 63.92C288.078 62.56 286.158 61.88 283.758 61.88C281.438 61.88 279.358 62.56 277.518 63.92C275.758 65.2 274.358 66.92 273.318 69.08C271.958 71.4 270.997 74.64 270.438 78.8C270.198 80.8 270.077 82.56 270.077 84.08C270.077 85.76 270.277 87.2 270.677 88.4C271.077 90.56 272.078 92.32 273.678 93.68C275.278 94.96 277.278 95.6 279.678 95.6C282.158 95.6 284.278 94.96 286.038 93.68C287.878 92.32 289.238 90.6 290.118 88.52Z" fill="#15181B"/>
<path d="M333.805 41.36C331.405 41.36 329.445 40.6 327.925 39.08C326.405 37.56 325.645 35.6 325.645 33.2C325.645 30.08 326.645 27.52 328.645 25.52C330.725 23.44 333.205 22.4 336.085 22.4C338.565 22.4 340.525 23.12 341.965 24.56C343.485 26 344.245 27.96 344.245 30.44C344.245 33.48 343.205 36.08 341.125 38.24C339.125 40.32 336.685 41.36 333.805 41.36ZM318.445 110C317.565 110 317.125 109.52 317.125 108.56L324.445 49.64C324.525 49.24 324.685 48.92 324.925 48.68C325.245 48.36 325.605 48.2 326.005 48.2H339.565C339.965 48.2 340.285 48.36 340.525 48.68C340.765 48.92 340.845 49.24 340.765 49.64L333.565 108.56C333.485 108.96 333.285 109.32 332.965 109.64C332.725 109.88 332.405 110 332.005 110H318.445Z" fill="#15181B"/>
<path d="M372.453 110.96C365.973 110.96 360.613 109.2 356.373 105.68C352.133 102.16 349.533 97.36 348.573 91.28C348.253 89.6 348.093 87.52 348.093 85.04C348.093 83.04 348.213 81.04 348.453 79.04C349.093 74 350.173 69.76 351.693 66.32C354.253 60.4 358.053 55.76 363.093 52.4C368.133 49.04 373.893 47.36 380.373 47.36C386.773 47.36 392.013 49.04 396.093 52.4C400.173 55.68 402.773 60.28 403.893 66.2C404.373 68.44 404.613 70.92 404.613 73.64C404.613 75.4 404.493 77.12 404.253 78.8C403.773 82.8 402.733 86.84 401.133 90.92C398.653 97.16 394.893 102.08 389.853 105.68C384.813 109.2 379.013 110.96 372.453 110.96ZM374.253 96.44C376.813 96.44 379.053 95.64 380.973 94.04C382.973 92.44 384.573 90.24 385.773 87.44C386.733 84.8 387.373 82 387.693 79.04C387.933 77.12 388.053 75.32 388.053 73.64C388.053 69.96 387.213 67.08 385.533 65C383.853 62.92 381.453 61.88 378.333 61.88C375.773 61.88 373.493 62.64 371.493 64.16C369.573 65.68 368.053 67.8 366.933 70.52C366.053 72.44 365.413 75.28 365.013 79.04C364.773 81.04 364.653 83 364.653 84.92C364.653 88.44 365.493 91.24 367.173 93.32C368.853 95.4 371.213 96.44 374.253 96.44Z" fill="#15181B"/>
<path d="M449.858 47.36C455.458 47.36 459.898 48.96 463.178 52.16C466.458 55.36 468.098 59.8 468.098 65.48C468.098 66.2 468.018 67.44 467.858 69.2L463.058 108.56C462.978 108.96 462.778 109.32 462.458 109.64C462.218 109.88 461.898 110 461.498 110H447.938C447.058 110 446.618 109.52 446.618 108.56L451.058 72.68C451.138 72.28 451.178 71.64 451.178 70.76C451.178 68.12 450.418 66 448.898 64.4C447.378 62.72 445.378 61.88 442.898 61.88C440.018 61.88 437.578 62.88 435.578 64.88C433.578 66.8 432.378 69.4 431.978 72.68L427.538 108.56C427.458 108.96 427.258 109.32 426.938 109.64C426.698 109.88 426.378 110 425.978 110H412.418C412.018 110 411.698 109.88 411.458 109.64C411.218 109.32 411.138 108.96 411.218 108.56L418.418 49.76C418.498 49.36 418.658 49.04 418.898 48.8C419.218 48.48 419.578 48.32 419.978 48.32H433.538C433.938 48.32 434.258 48.48 434.498 48.8C434.738 49.04 434.818 49.36 434.738 49.76L434.258 53.96C434.258 54.2 434.298 54.36 434.378 54.44C434.538 54.52 434.698 54.48 434.858 54.32C438.458 49.68 443.458 47.36 449.858 47.36Z" fill="#15181B"/>
<path d="M65.6693 39.8699C64.8798 39.8699 48.0243 39.892 31.7763 39.9362C31.6186 39.9366 31.4749 39.8333 31.4749 39.6739L33.251 25.4358C33.3193 25.0905 33.2693 24.805 33.101 24.5793C33.048 24.5082 32.9893 24.4413 32.93 24.3756C32.7043 24.1252 32.4166 24 32.0669 24L19.1606 24C18.766 24 18.4107 24.1595 18.095 24.4786C17.8582 24.7179 17.7003 25.037 17.6214 25.4358L15.8453 39.6739C15.8453 39.8715 15.6604 39.9907 15.4648 39.9916C7.98678 40.0242 3.91326 40.0634 3.00735 40.1092C2.18648 40.1846 1.68307 40.6521 1.49712 41.5116C1.47523 41.6128 1.46805 41.7166 1.46805 41.8202L0 53.0312C0 53.4443 0.0365674 53.6664 0.35522 53.9884C0.673873 54.3103 0.907784 54.4669 1.30247 54.4669H60.8147C64.6037 54.4669 66.4982 56.4212 66.4982 60.3297C66.4982 61.1273 66.4587 61.7655 66.3798 62.2441L65.3784 71.2663C65.2176 72.7301 65.3784 73.3751 67.225 73.3751H79.1102C80.0498 73.3751 80.8419 72.6672 80.9567 71.7249L82.8382 55.5438C82.9961 54.108 83.0751 53.071 83.0751 52.4329C83.0751 47.647 81.6542 44.3367 78.8124 42.5021C75.8917 40.7473 71.5107 39.8699 65.6693 39.8699Z" fill="#15181B"/>
<path d="M27.6215 71.0485C27.8009 69.6719 27.5624 68.9396 25.7748 68.9396H13.8897C12.9501 68.9396 12.1579 69.6476 12.0431 70.5899L10.1618 86.4562C10.0039 87.892 9.92495 88.929 9.92495 89.5671C9.92495 94.353 11.3458 97.6632 14.1876 99.4979C17.1083 101.253 21.4893 102.13 27.3307 102.13C28.1202 102.13 44.9757 102.108 61.2237 102.064C61.3815 102.063 61.5251 102.167 61.5251 102.326L59.749 116.564C59.6807 116.91 59.7307 117.195 59.899 117.421C59.952 117.492 60.0107 117.559 60.07 117.624C60.2957 117.875 60.5834 118 60.9331 118H73.8394C74.234 118 74.5893 117.84 74.905 117.521C75.1418 117.282 75.2997 116.963 75.3786 116.564L77.1547 102.326C77.1547 102.129 77.3396 102.009 77.5352 102.008C85.0132 101.976 89.1304 101.937 90.0363 101.891C90.8572 101.815 91.3606 101.348 91.5465 100.488C91.5684 100.387 91.5756 100.283 91.5756 100.18L93 88.9688C93 88.5557 92.9634 88.3336 92.6448 88.0116C92.3261 87.6897 92.0922 87.5331 91.6975 87.5331H32.1853C28.3963 87.5331 26.5018 85.5788 26.5018 81.6703C26.5018 80.8727 26.5413 80.2345 26.6202 79.7559L27.6215 71.0485Z" fill="#15181B"/>
</svg>
