<svg width="450" height="450" viewBox="0 0 450 450" fill="none" xmlns="http://www.w3.org/2000/svg">
<rect width="450" height="450" fill="black"/>
<path d="M139.167 91.8528C139.167 89.1727 141.34 87 144.02 87L182.842 87C185.522 87 187.694 89.1727 187.694 91.8528L187.694 139.167L298.701 139.167C305.401 139.167 310.833 144.599 310.833 151.299V182.842L310.833 182.86V219.237C310.833 221.917 308.66 224.09 305.98 224.09H267.158C264.478 224.09 262.305 221.917 262.305 219.237V187.695L91.8527 187.695C89.1727 187.695 87 185.522 87 182.842L87 144.02C87 141.34 89.1727 139.167 91.8527 139.167H139.167V91.8528Z" fill="white"/>
<path d="M131.888 139.167C135.908 139.167 139.167 135.908 139.167 131.888V94.2792C139.167 90.259 142.426 87 146.446 87L180.415 87C184.436 87 187.695 90.259 187.695 94.2792V131.888C187.695 135.908 190.954 139.167 194.974 139.167H246.997C248.473 139.167 249.915 139.616 251.13 140.454L307.687 179.459C309.657 180.817 310.833 183.058 310.833 185.451V216.811C310.833 220.831 307.574 224.09 303.554 224.09H269.585C265.565 224.09 262.306 220.831 262.306 216.811V194.974C262.306 190.954 259.047 187.695 255.026 187.695L94.2792 187.695C90.259 187.695 87.0001 184.436 87.0001 180.415L87.0001 146.446C87.0001 142.426 90.259 139.167 94.2792 139.167L131.888 139.167Z" fill="white"/>
<path d="M310.833 358.147C310.833 360.827 308.66 363 305.98 363H267.158C264.478 363 262.305 360.827 262.305 358.147L262.305 310.833L151.299 310.833C144.599 310.833 139.167 305.401 139.167 298.701V267.158L139.167 267.14V230.763C139.167 228.082 141.34 225.91 144.02 225.91H182.842C185.522 225.91 187.694 228.082 187.694 230.763V262.305L358.147 262.305C360.827 262.305 363 264.478 363 267.158V305.98C363 308.66 360.827 310.833 358.147 310.833H310.833V358.147Z" fill="white"/>
<path d="M318.112 310.833C314.092 310.833 310.833 314.092 310.833 318.112V355.721C310.833 359.741 307.574 363 303.554 363H269.584C265.564 363 262.305 359.741 262.305 355.721V318.112C262.305 314.092 259.046 310.833 255.026 310.833H203.003C201.527 310.833 200.085 310.384 198.87 309.546L142.313 270.541C140.343 269.183 139.167 266.942 139.167 264.549V233.189C139.167 229.169 142.426 225.91 146.446 225.91H180.415C184.435 225.91 187.694 229.169 187.694 233.189V255.026C187.694 259.046 190.953 262.305 194.973 262.305H355.721C359.741 262.305 363 265.564 363 269.585V303.554C363 307.574 359.741 310.833 355.721 310.833H318.112Z" fill="white"/>
</svg>
