<svg width="450" height="450" viewBox="0 0 450 450" fill="none" xmlns="http://www.w3.org/2000/svg">
<rect width="450" height="450" fill="black"/>
<path d="M155.528 115.956C155.528 113.771 157.299 112 159.484 112L191.132 112C193.317 112 195.088 113.771 195.088 115.956L195.088 154.527L285.583 154.527C291.045 154.527 295.473 158.955 295.473 164.418V190.132L295.473 190.147L295.473 219.802C295.473 221.987 293.701 223.758 291.517 223.758L259.868 223.758C257.683 223.758 255.912 221.987 255.912 219.802L255.912 194.088L116.956 194.088C114.771 194.088 113 192.317 113 190.132L113 158.484C113 156.299 114.771 154.527 116.956 154.527L155.528 154.527L155.528 115.956Z" fill="white"/>
<path d="M149.594 154.528C152.871 154.528 155.528 151.871 155.528 148.593L155.528 117.934C155.528 114.657 158.184 112 161.462 112L189.154 112C192.431 112 195.088 114.657 195.088 117.934L195.088 148.593C195.088 151.871 197.745 154.528 201.022 154.528L243.433 154.528C244.636 154.528 245.811 154.893 246.802 155.577L292.908 187.374C294.514 188.481 295.473 190.308 295.473 192.259L295.473 217.824C295.473 221.102 292.816 223.758 289.539 223.758L261.846 223.758C258.569 223.758 255.912 221.102 255.912 217.824L255.912 200.022C255.912 196.745 253.256 194.088 249.978 194.088L118.934 194.088C115.657 194.088 113 191.431 113 188.154L113 160.462C113 157.184 115.657 154.528 118.934 154.528L149.594 154.528Z" fill="white"/>
<g opacity="0.8">
<path d="M295.473 333.044C295.473 335.229 293.701 337 291.516 337L259.868 337C257.683 337 255.912 335.229 255.912 333.044L255.912 294.472L165.418 294.472C159.955 294.472 155.527 290.045 155.527 284.582V258.868L155.527 258.853V229.198C155.527 227.013 157.299 225.242 159.484 225.242H191.132C193.317 225.242 195.088 227.013 195.088 229.198V254.912L334.044 254.912C336.229 254.912 338 256.683 338 258.868L338 290.516C338 292.701 336.229 294.472 334.044 294.472H295.473V333.044Z" fill="white"/>
<path d="M301.407 294.472C298.129 294.472 295.472 297.129 295.472 300.407V331.066C295.472 334.343 292.816 337 289.538 337L261.846 337C258.569 337 255.912 334.343 255.912 331.066V300.407C255.912 297.129 253.255 294.472 249.978 294.472H207.568C206.364 294.472 205.189 294.107 204.199 293.423L158.092 261.626C156.486 260.518 155.527 258.692 155.527 256.741V231.176C155.527 227.898 158.184 225.242 161.461 225.242H189.154C192.431 225.242 195.088 227.898 195.088 231.176V248.978C195.088 252.255 197.745 254.912 201.022 254.912L332.066 254.912C335.343 254.912 338 257.569 338 260.846L338 288.538C338 291.816 335.343 294.472 332.066 294.472L301.407 294.472Z" fill="white"/>
</g>
</svg>
