<svg width="400" height="400" viewBox="0 0 400 400" fill="none" xmlns="http://www.w3.org/2000/svg">
<rect width="400" height="400" rx="200" fill="black"/>
<path d="M137.802 103.516C137.802 101.574 139.377 100 141.319 100L169.451 100C171.393 100 172.967 101.574 172.967 103.516L172.967 137.802L253.407 137.802C258.262 137.802 262.198 141.738 262.198 146.593V169.451L262.198 169.464L262.198 195.824C262.198 197.766 260.623 199.341 258.681 199.341L230.549 199.341C228.607 199.341 227.033 197.766 227.033 195.824L227.033 172.967L103.516 172.967C101.574 172.967 100 171.393 100 169.451L100 141.319C100 139.377 101.574 137.802 103.516 137.802L137.802 137.802L137.802 103.516Z" fill="white"/>
<path d="M132.528 137.802C135.441 137.802 137.802 135.441 137.802 132.528L137.802 105.275C137.802 102.362 140.164 100 143.077 100L167.692 100C170.606 100 172.967 102.362 172.967 105.275L172.967 132.528C172.967 135.441 175.329 137.802 178.242 137.802L215.94 137.802C217.01 137.802 218.054 138.127 218.935 138.735L259.918 166.999C261.345 167.984 262.198 169.607 262.198 171.341L262.198 194.066C262.198 196.979 259.836 199.341 256.923 199.341L232.308 199.341C229.395 199.341 227.033 196.979 227.033 194.066L227.033 178.242C227.033 175.329 224.671 172.967 221.758 172.967L105.275 172.967C102.362 172.967 100 170.605 100 167.692L100 143.077C100 140.164 102.362 137.802 105.275 137.802L132.528 137.802Z" fill="white"/>
<g opacity="0.8">
<path d="M262.198 296.483C262.198 298.426 260.623 300 258.681 300L230.549 300C228.607 300 227.033 298.426 227.033 296.483L227.033 262.198L146.593 262.198C141.738 262.198 137.802 258.262 137.802 253.407L137.802 230.549L137.802 230.536L137.802 204.176C137.802 202.234 139.377 200.659 141.319 200.659L169.451 200.659C171.393 200.659 172.967 202.234 172.967 204.176L172.967 227.033L296.484 227.033C298.426 227.033 300 228.607 300 230.549L300 258.681C300 260.623 298.426 262.198 296.484 262.198L262.198 262.198L262.198 296.483Z" fill="white"/>
<path d="M267.472 262.198C264.559 262.198 262.198 264.559 262.198 267.472L262.198 294.725C262.198 297.638 259.836 300 256.923 300L232.308 300C229.394 300 227.033 297.638 227.033 294.725L227.033 267.472C227.033 264.559 224.671 262.198 221.758 262.198L184.06 262.198C182.99 262.198 181.946 261.873 181.065 261.265L140.082 233.001C138.655 232.016 137.802 230.393 137.802 228.659L137.802 205.934C137.802 203.021 140.164 200.659 143.077 200.659L167.692 200.659C170.605 200.659 172.967 203.021 172.967 205.934L172.967 221.758C172.967 224.671 175.329 227.033 178.242 227.033L294.725 227.033C297.638 227.033 300 229.394 300 232.308L300 256.923C300 259.836 297.638 262.198 294.725 262.198L267.472 262.198Z" fill="white"/>
</g>
</svg>
