<svg width="1080" height="1080" viewBox="0 0 1080 1080" fill="none" xmlns="http://www.w3.org/2000/svg">
<rect width="1080" height="1080" rx="540" fill="#20263D"/>
<circle opacity="0.7" r="37.25" transform="matrix(1.19249e-08 1 1 -1.19249e-08 279.25 800.75)" fill="#1EBBFF"/>
<ellipse opacity="0.7" rx="37.25" ry="37.25" transform="matrix(1.19249e-08 1 1 -1.19249e-08 383.55 800.75)" fill="#1EBBFF"/>
<ellipse opacity="0.7" rx="37.25" ry="37.25" transform="matrix(1.19249e-08 1 1 -1.19249e-08 487.85 800.75)" fill="#1EBBFF"/>
<ellipse opacity="0.1" rx="37.25" ry="37.25" transform="matrix(1.19249e-08 1 1 -1.19249e-08 592.15 800.75)" fill="#1EBBFF"/>
<circle opacity="0.7" r="37.25" transform="matrix(1.19249e-08 1 1 -1.19249e-08 696.45 800.75)" fill="#1EBBFF"/>
<circle opacity="0.7" r="37.25" transform="matrix(1.19249e-08 1 1 -1.19249e-08 800.75 800.75)" fill="#1EBBFF"/>
<ellipse opacity="0.4" rx="37.25" ry="37.25" transform="matrix(1.19249e-08 1 1 -1.19249e-08 383.55 696.45)" fill="#1EBBFF"/>
<circle r="37.25" transform="matrix(1.19249e-08 1 1 -1.19249e-08 279.25 696.45)" fill="#1EBBFF"/>
<ellipse opacity="0.1" rx="37.25" ry="37.25" transform="matrix(1.19249e-08 1 1 -1.19249e-08 279.25 592.15)" fill="#1EBBFF"/>
<ellipse opacity="0.7" rx="37.25" ry="37.25" transform="matrix(1.19249e-08 1 1 -1.19249e-08 279.25 487.85)" fill="#1EBBFF"/>
<ellipse opacity="0.1" rx="37.25" ry="37.25" transform="matrix(1.19249e-08 1 1 -1.19249e-08 279.25 383.55)" fill="#1EBBFF"/>
<circle opacity="0.7" r="37.25" transform="matrix(1.19249e-08 1 1 -1.19249e-08 279.25 279.25)" fill="#1EBBFF"/>
<ellipse opacity="0.6" rx="37.25" ry="37.25" transform="matrix(1.19249e-08 1 1 -1.19249e-08 383.55 592.15)" fill="#1EBBFF"/>
<ellipse opacity="0.2" rx="37.25" ry="37.25" transform="matrix(1.19249e-08 1 1 -1.19249e-08 383.55 487.85)" fill="#1EBBFF"/>
<circle opacity="0.1" r="37.25" transform="matrix(1.19249e-08 1 1 -1.19249e-08 383.55 383.55)" fill="#1EBBFF"/>
<ellipse opacity="0.7" rx="37.25" ry="37.25" transform="matrix(1.19249e-08 1 1 -1.19249e-08 383.55 279.25)" fill="#1EBBFF"/>
<ellipse opacity="0.7" rx="37.25" ry="37.25" transform="matrix(1.19249e-08 1 1 -1.19249e-08 487.85 592.15)" fill="#1EBBFF"/>
<circle opacity="0.4" r="37.25" transform="matrix(1.19249e-08 1 1 -1.19249e-08 487.85 487.85)" fill="#1EBBFF"/>
<ellipse rx="37.25" ry="37.25" transform="matrix(1.19249e-08 1 1 -1.19249e-08 487.85 383.55)" fill="#1EBBFF"/>
<ellipse opacity="0.7" rx="37.25" ry="37.25" transform="matrix(1.19249e-08 1 1 -1.19249e-08 487.85 279.25)" fill="#1EBBFF"/>
<ellipse opacity="0.9" rx="37.25" ry="37.25" transform="matrix(1.19249e-08 1 1 -1.19249e-08 592.15 279.25)" fill="#1EBBFF"/>
<ellipse rx="37.25" ry="37.25" transform="matrix(1.19249e-08 1 1 -1.19249e-08 487.85 696.45)" fill="#1EBBFF"/>
<ellipse opacity="0.7" rx="37.25" ry="37.25" transform="matrix(1.19249e-08 1 1 -1.19249e-08 592.15 696.45)" fill="#1EBBFF"/>
<circle opacity="0.4" r="37.25" transform="matrix(1.19249e-08 1 1 -1.19249e-08 696.45 696.45)" fill="#1EBBFF"/>
<circle opacity="0.7" r="37.25" transform="matrix(1.19249e-08 1 1 -1.19249e-08 800.75 696.45)" fill="#1EBBFF"/>
<circle opacity="0.1" r="37.25" transform="matrix(1.19249e-08 1 1 -1.19249e-08 592.15 592.15)" fill="#1EBBFF"/>
<ellipse opacity="0.4" rx="37.25" ry="37.25" transform="matrix(1.19249e-08 1 1 -1.19249e-08 592.15 487.85)" fill="#1EBBFF"/>
<ellipse opacity="0.4" rx="37.25" ry="37.25" transform="matrix(1.19249e-08 1 1 -1.19249e-08 592.15 383.55)" fill="#1EBBFF"/>
<ellipse rx="37.25" ry="37.25" transform="matrix(1.19249e-08 1 1 -1.19249e-08 696.45 592.15)" fill="#1EBBFF"/>
<ellipse opacity="0.7" rx="37.25" ry="37.25" transform="matrix(1.19249e-08 1 1 -1.19249e-08 800.75 592.15)" fill="#1EBBFF"/>
<ellipse opacity="0.7" rx="37.25" ry="37.25" transform="matrix(1.19249e-08 1 1 -1.19249e-08 696.45 487.85)" fill="#1EBBFF"/>
<ellipse opacity="0.4" rx="37.25" ry="37.25" transform="matrix(1.19249e-08 1 1 -1.19249e-08 696.45 383.55)" fill="#1EBBFF"/>
<ellipse opacity="0.6" rx="37.25" ry="37.25" transform="matrix(1.19249e-08 1 1 -1.19249e-08 800.75 487.85)" fill="#1EBBFF"/>
<ellipse opacity="0.5" rx="37.25" ry="37.25" transform="matrix(1.19249e-08 1 1 -1.19249e-08 800.75 383.55)" fill="#1EBBFF"/>
<circle opacity="0.7" r="37.25" transform="matrix(1.19249e-08 1 1 -1.19249e-08 800.75 279.25)" fill="#1EBBFF"/>
<circle opacity="0.7" r="37.25" transform="matrix(1.19249e-08 1 1 -1.19249e-08 696.45 279.25)" fill="#1EBBFF"/>
</svg>
