<svg width="1080" height="1080" viewBox="0 0 1080 1080" fill="none" xmlns="http://www.w3.org/2000/svg">
<g opacity="0.8">
<circle opacity="0.7" r="48.25" transform="matrix(1.19249e-08 1 1 -1.19249e-08 202.25 877.75)" fill="#20263D"/>
<circle opacity="0.7" r="48.25" transform="matrix(1.19249e-08 1 1 -1.19249e-08 337.35 877.75)" fill="#20263D"/>
<circle opacity="0.7" r="48.25" transform="matrix(1.19249e-08 1 1 -1.19249e-08 472.45 877.75)" fill="#20263D"/>
<ellipse opacity="0.1" rx="48.25" ry="48.25" transform="matrix(1.19249e-08 1 1 -1.19249e-08 607.55 877.75)" fill="#20263D"/>
<circle opacity="0.7" r="48.25" transform="matrix(1.19249e-08 1 1 -1.19249e-08 742.65 877.75)" fill="#20263D"/>
<circle opacity="0.7" r="48.25" transform="matrix(1.19249e-08 1 1 -1.19249e-08 877.75 877.75)" fill="#20263D"/>
<circle opacity="0.4" r="48.25" transform="matrix(1.19249e-08 1 1 -1.19249e-08 337.35 742.65)" fill="#20263D"/>
<circle r="48.25" transform="matrix(1.19249e-08 1 1 -1.19249e-08 202.25 742.65)" fill="#20263D"/>
<ellipse opacity="0.1" rx="48.25" ry="48.25" transform="matrix(1.19249e-08 1 1 -1.19249e-08 202.25 607.55)" fill="#20263D"/>
<circle opacity="0.7" r="48.25" transform="matrix(1.19249e-08 1 1 -1.19249e-08 202.25 472.45)" fill="#20263D"/>
<circle opacity="0.1" r="48.25" transform="matrix(1.19249e-08 1 1 -1.19249e-08 202.25 337.35)" fill="#20263D"/>
<circle opacity="0.7" r="48.25" transform="matrix(1.19249e-08 1 1 -1.19249e-08 202.25 202.25)" fill="#20263D"/>
<ellipse opacity="0.6" rx="48.25" ry="48.25" transform="matrix(1.19249e-08 1 1 -1.19249e-08 337.35 607.55)" fill="#20263D"/>
<circle opacity="0.2" r="48.25" transform="matrix(1.19249e-08 1 1 -1.19249e-08 337.35 472.45)" fill="#20263D"/>
<circle opacity="0.1" r="48.25" transform="matrix(1.19249e-08 1 1 -1.19249e-08 337.35 337.35)" fill="#20263D"/>
<circle opacity="0.7" r="48.25" transform="matrix(1.19249e-08 1 1 -1.19249e-08 337.35 202.25)" fill="#20263D"/>
<ellipse opacity="0.7" rx="48.25" ry="48.25" transform="matrix(1.19249e-08 1 1 -1.19249e-08 472.45 607.55)" fill="#20263D"/>
<circle opacity="0.4" r="48.25" transform="matrix(1.19249e-08 1 1 -1.19249e-08 472.45 472.45)" fill="#20263D"/>
<circle r="48.25" transform="matrix(1.19249e-08 1 1 -1.19249e-08 472.45 337.35)" fill="#20263D"/>
<circle opacity="0.7" r="48.25" transform="matrix(1.19249e-08 1 1 -1.19249e-08 472.45 202.25)" fill="#20263D"/>
<ellipse opacity="0.9" rx="48.25" ry="48.25" transform="matrix(1.19249e-08 1 1 -1.19249e-08 607.55 202.25)" fill="#20263D"/>
<circle r="48.25" transform="matrix(1.19249e-08 1 1 -1.19249e-08 472.45 742.65)" fill="#20263D"/>
<ellipse opacity="0.7" rx="48.25" ry="48.25" transform="matrix(1.19249e-08 1 1 -1.19249e-08 607.55 742.65)" fill="#20263D"/>
<circle opacity="0.4" r="48.25" transform="matrix(1.19249e-08 1 1 -1.19249e-08 742.65 742.65)" fill="#20263D"/>
<circle opacity="0.7" r="48.25" transform="matrix(1.19249e-08 1 1 -1.19249e-08 877.75 742.65)" fill="#20263D"/>
<circle opacity="0.1" r="48.25" transform="matrix(1.19249e-08 1 1 -1.19249e-08 607.55 607.55)" fill="#20263D"/>
<ellipse opacity="0.4" rx="48.25" ry="48.25" transform="matrix(1.19249e-08 1 1 -1.19249e-08 607.55 472.45)" fill="#20263D"/>
<ellipse opacity="0.4" rx="48.25" ry="48.25" transform="matrix(1.19249e-08 1 1 -1.19249e-08 607.55 337.35)" fill="#20263D"/>
<ellipse rx="48.25" ry="48.25" transform="matrix(1.19249e-08 1 1 -1.19249e-08 742.65 607.55)" fill="#20263D"/>
<ellipse opacity="0.7" rx="48.25" ry="48.25" transform="matrix(1.19249e-08 1 1 -1.19249e-08 877.75 607.55)" fill="#20263D"/>
<circle opacity="0.7" r="48.25" transform="matrix(1.19249e-08 1 1 -1.19249e-08 742.65 472.45)" fill="#20263D"/>
<circle opacity="0.4" r="48.25" transform="matrix(1.19249e-08 1 1 -1.19249e-08 742.65 337.35)" fill="#20263D"/>
<circle opacity="0.6" r="48.25" transform="matrix(1.19249e-08 1 1 -1.19249e-08 877.75 472.45)" fill="#20263D"/>
<circle opacity="0.5" r="48.25" transform="matrix(1.19249e-08 1 1 -1.19249e-08 877.75 337.35)" fill="#20263D"/>
<circle opacity="0.7" r="48.25" transform="matrix(1.19249e-08 1 1 -1.19249e-08 877.75 202.25)" fill="#20263D"/>
<circle opacity="0.7" r="48.25" transform="matrix(1.19249e-08 1 1 -1.19249e-08 742.65 202.25)" fill="#20263D"/>
</g>
</svg>
