<svg width="1080" height="1080" viewBox="0 0 1080 1080" fill="none" xmlns="http://www.w3.org/2000/svg">
<rect width="1080" height="1080" rx="540" fill="#20263D"/>
<circle opacity="0.2" r="34.75" transform="matrix(1.19249e-08 1 1 -1.19249e-08 296.75 783.25)" fill="#1EBBFF"/>
<ellipse opacity="0.3" rx="34.75" ry="34.75" transform="matrix(1.19249e-08 1 1 -1.19249e-08 394.05 783.25)" fill="#1EBBFF"/>
<ellipse opacity="0.5" rx="34.75" ry="34.75" transform="matrix(1.19249e-08 1 1 -1.19249e-08 491.35 783.25)" fill="#1EBBFF"/>
<ellipse opacity="0.6" rx="34.75" ry="34.75" transform="matrix(1.19249e-08 1 1 -1.19249e-08 588.65 783.25)" fill="#1EBBFF"/>
<circle opacity="0.6" r="34.75" transform="matrix(1.19249e-08 1 1 -1.19249e-08 685.95 783.25)" fill="#1EBBFF"/>
<circle opacity="0.7" r="34.75" transform="matrix(1.19249e-08 1 1 -1.19249e-08 783.25 783.25)" fill="#1EBBFF"/>
<ellipse opacity="0.4" rx="34.75" ry="34.75" transform="matrix(1.19249e-08 1 1 -1.19249e-08 394.05 685.95)" fill="#1EBBFF"/>
<ellipse opacity="0.5" rx="34.75" ry="34.75" transform="matrix(1.19249e-08 1 1 -1.19249e-08 491.35 685.95)" fill="#1EBBFF"/>
<ellipse opacity="0.6" rx="34.75" ry="34.75" transform="matrix(1.19249e-08 1 1 -1.19249e-08 588.65 685.95)" fill="#1EBBFF"/>
<circle opacity="0.7" r="34.75" transform="matrix(1.19249e-08 1 1 -1.19249e-08 685.95 685.95)" fill="#1EBBFF"/>
<circle opacity="0.8" r="34.75" transform="matrix(1.19249e-08 1 1 -1.19249e-08 783.25 685.95)" fill="#1EBBFF"/>
<circle opacity="0.67" r="34.75" transform="matrix(1.19249e-08 1 1 -1.19249e-08 588.65 588.65)" fill="#1EBBFF"/>
<ellipse opacity="0.7" rx="34.75" ry="34.75" transform="matrix(1.19249e-08 1 1 -1.19249e-08 685.95 588.65)" fill="#1EBBFF"/>
<ellipse opacity="0.8" rx="34.75" ry="34.75" transform="matrix(1.19249e-08 1 1 -1.19249e-08 783.25 588.65)" fill="#1EBBFF"/>
<ellipse opacity="0.8" rx="34.75" ry="34.75" transform="matrix(1.19249e-08 1 1 -1.19249e-08 685.95 491.35)" fill="#1EBBFF"/>
<ellipse opacity="0.8" rx="34.75" ry="34.75" transform="matrix(1.19249e-08 1 1 -1.19249e-08 685.95 394.05)" fill="#1EBBFF"/>
<ellipse opacity="0.9" rx="34.75" ry="34.75" transform="matrix(1.19249e-08 1 1 -1.19249e-08 783.25 491.35)" fill="#1EBBFF"/>
<ellipse opacity="0.9" rx="34.75" ry="34.75" transform="matrix(1.19249e-08 1 1 -1.19249e-08 783.25 394.05)" fill="#1EBBFF"/>
<circle r="34.75" transform="matrix(1.19249e-08 1 1 -1.19249e-08 783.25 296.75)" fill="#1EBBFF"/>
</svg>
