<svg width="1080" height="1080" viewBox="0 0 1080 1080" fill="none" xmlns="http://www.w3.org/2000/svg">
<g opacity="0.8">
<circle opacity="0.2" r="49.375" transform="matrix(1.19249e-08 1 1 -1.19249e-08 194.375 885.625)" fill="#20263D"/>
<circle opacity="0.3" r="49.375" transform="matrix(1.19249e-08 1 1 -1.19249e-08 332.625 885.625)" fill="#20263D"/>
<circle opacity="0.5" r="49.375" transform="matrix(1.19249e-08 1 1 -1.19249e-08 470.875 885.625)" fill="#20263D"/>
<circle opacity="0.6" r="49.375" transform="matrix(1.19249e-08 1 1 -1.19249e-08 609.125 885.625)" fill="#20263D"/>
<circle opacity="0.6" r="49.375" transform="matrix(1.19249e-08 1 1 -1.19249e-08 747.375 885.625)" fill="#20263D"/>
<circle opacity="0.7" r="49.375" transform="matrix(1.19249e-08 1 1 -1.19249e-08 885.625 885.625)" fill="#20263D"/>
<circle opacity="0.4" r="49.375" transform="matrix(1.19249e-08 1 1 -1.19249e-08 332.625 747.375)" fill="#20263D"/>
<circle opacity="0.5" r="49.375" transform="matrix(1.19249e-08 1 1 -1.19249e-08 470.875 747.375)" fill="#20263D"/>
<circle opacity="0.6" r="49.375" transform="matrix(1.19249e-08 1 1 -1.19249e-08 609.125 747.375)" fill="#20263D"/>
<circle opacity="0.7" r="49.375" transform="matrix(1.19249e-08 1 1 -1.19249e-08 747.375 747.375)" fill="#20263D"/>
<circle opacity="0.8" r="49.375" transform="matrix(1.19249e-08 1 1 -1.19249e-08 885.625 747.375)" fill="#20263D"/>
<circle opacity="0.67" r="49.375" transform="matrix(1.19249e-08 1 1 -1.19249e-08 609.125 609.125)" fill="#20263D"/>
<circle opacity="0.7" r="49.375" transform="matrix(1.19249e-08 1 1 -1.19249e-08 747.375 609.125)" fill="#20263D"/>
<circle opacity="0.8" r="49.375" transform="matrix(1.19249e-08 1 1 -1.19249e-08 885.625 609.125)" fill="#20263D"/>
<circle opacity="0.8" r="49.375" transform="matrix(1.19249e-08 1 1 -1.19249e-08 747.375 470.875)" fill="#20263D"/>
<circle opacity="0.8" r="49.375" transform="matrix(1.19249e-08 1 1 -1.19249e-08 747.375 332.625)" fill="#20263D"/>
<circle opacity="0.9" r="49.375" transform="matrix(1.19249e-08 1 1 -1.19249e-08 885.625 470.875)" fill="#20263D"/>
<circle opacity="0.9" r="49.375" transform="matrix(1.19249e-08 1 1 -1.19249e-08 885.625 332.625)" fill="#20263D"/>
<circle r="49.375" transform="matrix(1.19249e-08 1 1 -1.19249e-08 885.625 194.375)" fill="#20263D"/>
</g>
</svg>
