<svg width="1080" height="1080" viewBox="0 0 1080 1080" fill="none" xmlns="http://www.w3.org/2000/svg">
<rect width="1080" height="1080" rx="540" fill="#20263D"/>
<ellipse opacity="0.7" cx="517.935" cy="230.976" rx="52.96" ry="52.9756" fill="#1EBBFF"/>
<ellipse opacity="0.7" cx="562.068" cy="230.976" rx="52.96" ry="52.9756" fill="#1EBBFF"/>
<ellipse opacity="0.7" cx="517.934" cy="849.024" rx="52.96" ry="52.9756" fill="#1EBBFF"/>
<ellipse opacity="0.9" cx="562.067" cy="849.024" rx="52.96" ry="52.9756" fill="#1EBBFF"/>
<ellipse opacity="0.5" cx="385.533" cy="354.585" rx="52.96" ry="52.9755" fill="#1EBBFF"/>
<ellipse opacity="0.7" cx="447.32" cy="354.585" rx="52.96" ry="52.9755" fill="#1EBBFF"/>
<ellipse opacity="0.4" cx="509.107" cy="354.585" rx="52.96" ry="52.9755" fill="#1EBBFF"/>
<ellipse opacity="0.7" cx="570.894" cy="354.585" rx="52.96" ry="52.9756" fill="#1EBBFF"/>
<ellipse opacity="0.4" cx="632.68" cy="354.585" rx="52.96" ry="52.9755" fill="#1EBBFF"/>
<ellipse opacity="0.5" cx="694.467" cy="354.585" rx="52.96" ry="52.9755" fill="#1EBBFF"/>
<ellipse opacity="0.7" cx="385.533" cy="725.415" rx="52.96" ry="52.9756" fill="#1EBBFF"/>
<ellipse opacity="0.5" cx="447.319" cy="725.415" rx="52.96" ry="52.9756" fill="#1EBBFF"/>
<ellipse opacity="0.9" cx="509.107" cy="725.415" rx="52.96" ry="52.9756" fill="#1EBBFF"/>
<ellipse opacity="0.5" cx="570.894" cy="725.415" rx="52.96" ry="52.9756" fill="#1EBBFF"/>
<ellipse opacity="0.9" cx="632.68" cy="725.415" rx="52.96" ry="52.9756" fill="#1EBBFF"/>
<ellipse opacity="0.7" cx="694.467" cy="725.415" rx="52.96" ry="52.9756" fill="#1EBBFF"/>
<ellipse opacity="0.9" cx="323.747" cy="478.195" rx="52.96" ry="52.9756" fill="#1EBBFF"/>
<ellipse opacity="0.4" cx="385.534" cy="478.195" rx="52.96" ry="52.9756" fill="#1EBBFF"/>
<ellipse opacity="0.4" cx="447.32" cy="478.195" rx="52.96" ry="52.9756" fill="#1EBBFF"/>
<ellipse opacity="0.7" cx="509.107" cy="478.195" rx="52.96" ry="52.9756" fill="#1EBBFF"/>
<ellipse opacity="0.9" cx="570.894" cy="478.195" rx="52.96" ry="52.9756" fill="#1EBBFF"/>
<ellipse opacity="0.4" cx="632.681" cy="478.195" rx="52.96" ry="52.9756" fill="#1EBBFF"/>
<ellipse opacity="0.5" cx="694.467" cy="478.195" rx="52.96" ry="52.9756" fill="#1EBBFF"/>
<ellipse opacity="0.9" cx="756.254" cy="478.195" rx="52.96" ry="52.9756" fill="#1EBBFF"/>
<ellipse opacity="0.7" cx="261.96" cy="601.805" rx="52.96" ry="52.9756" fill="#1EBBFF"/>
<ellipse opacity="0.7" cx="323.747" cy="601.805" rx="52.96" ry="52.9756" fill="#1EBBFF"/>
<ellipse opacity="0.9" cx="385.533" cy="601.805" rx="52.96" ry="52.9756" fill="#1EBBFF"/>
<ellipse opacity="0.7" cx="447.32" cy="601.805" rx="52.96" ry="52.9756" fill="#1EBBFF"/>
<ellipse opacity="0.4" cx="509.107" cy="601.805" rx="52.96" ry="52.9756" fill="#1EBBFF"/>
<ellipse opacity="0.5" cx="570.894" cy="601.805" rx="52.96" ry="52.9756" fill="#1EBBFF"/>
<ellipse opacity="0.4" cx="632.68" cy="601.805" rx="52.96" ry="52.9756" fill="#1EBBFF"/>
<ellipse opacity="0.5" cx="694.467" cy="601.805" rx="52.96" ry="52.9756" fill="#1EBBFF"/>
<ellipse opacity="0.9" cx="756.253" cy="601.805" rx="52.96" ry="52.9756" fill="#1EBBFF"/>
<ellipse opacity="0.5" cx="818.04" cy="601.805" rx="52.96" ry="52.9756" fill="#1EBBFF"/>
</svg>
