<svg width="1080" height="1080" viewBox="0 0 1080 1080" fill="none" xmlns="http://www.w3.org/2000/svg">
<g opacity="0.8">
<ellipse opacity="0.7" cx="513.601" cy="170.366" rx="63.36" ry="63.3658" fill="#20263D"/>
<ellipse opacity="0.7" cx="566.401" cy="170.366" rx="63.36" ry="63.3658" fill="#20263D"/>
<ellipse opacity="0.7" cx="513.6" cy="909.634" rx="63.36" ry="63.3658" fill="#20263D"/>
<ellipse opacity="0.8" cx="566.4" cy="909.634" rx="63.36" ry="63.3658" fill="#20263D"/>
<ellipse opacity="0.5" cx="355.2" cy="318.219" rx="63.36" ry="63.3658" fill="#20263D"/>
<ellipse opacity="0.7" cx="429.12" cy="318.219" rx="63.36" ry="63.3658" fill="#20263D"/>
<ellipse opacity="0.4" cx="503.04" cy="318.219" rx="63.36" ry="63.3658" fill="#20263D"/>
<ellipse opacity="0.7" cx="576.96" cy="318.219" rx="63.36" ry="63.3658" fill="#20263D"/>
<ellipse opacity="0.4" cx="650.88" cy="318.219" rx="63.36" ry="63.3658" fill="#20263D"/>
<ellipse opacity="0.5" cx="724.799" cy="318.219" rx="63.36" ry="63.3658" fill="#20263D"/>
<ellipse opacity="0.7" cx="355.2" cy="761.78" rx="63.36" ry="63.3658" fill="#20263D"/>
<ellipse opacity="0.5" cx="429.12" cy="761.78" rx="63.36" ry="63.3658" fill="#20263D"/>
<ellipse opacity="0.7" cx="503.04" cy="761.78" rx="63.36" ry="63.3658" fill="#20263D"/>
<ellipse opacity="0.5" cx="576.96" cy="761.78" rx="63.36" ry="63.3658" fill="#20263D"/>
<ellipse opacity="0.8" cx="650.88" cy="761.78" rx="63.36" ry="63.3658" fill="#20263D"/>
<ellipse opacity="0.6" cx="724.799" cy="761.78" rx="63.36" ry="63.3658" fill="#20263D"/>
<ellipse opacity="0.8" cx="281.28" cy="466.073" rx="63.36" ry="63.3658" fill="#20263D"/>
<ellipse opacity="0.4" cx="355.2" cy="466.073" rx="63.36" ry="63.3658" fill="#20263D"/>
<ellipse opacity="0.4" cx="429.12" cy="466.073" rx="63.36" ry="63.3658" fill="#20263D"/>
<ellipse opacity="0.7" cx="503.04" cy="466.073" rx="63.36" ry="63.3658" fill="#20263D"/>
<ellipse opacity="0.8" cx="576.96" cy="466.073" rx="63.36" ry="63.3658" fill="#20263D"/>
<ellipse opacity="0.4" cx="650.88" cy="466.073" rx="63.36" ry="63.3658" fill="#20263D"/>
<ellipse opacity="0.5" cx="724.8" cy="466.073" rx="63.36" ry="63.3658" fill="#20263D"/>
<ellipse opacity="0.8" cx="798.72" cy="466.073" rx="63.36" ry="63.3658" fill="#20263D"/>
<ellipse opacity="0.7" cx="207.36" cy="613.927" rx="63.36" ry="63.3658" fill="#20263D"/>
<ellipse opacity="0.7" cx="281.28" cy="613.927" rx="63.36" ry="63.3658" fill="#20263D"/>
<ellipse opacity="0.7" cx="355.2" cy="613.927" rx="63.36" ry="63.3658" fill="#20263D"/>
<ellipse opacity="0.7" cx="429.12" cy="613.927" rx="63.36" ry="63.3658" fill="#20263D"/>
<ellipse opacity="0.4" cx="503.04" cy="613.927" rx="63.36" ry="63.3658" fill="#20263D"/>
<ellipse opacity="0.5" cx="576.96" cy="613.927" rx="63.36" ry="63.3658" fill="#20263D"/>
<ellipse opacity="0.4" cx="650.88" cy="613.927" rx="63.36" ry="63.3658" fill="#20263D"/>
<ellipse opacity="0.5" cx="724.8" cy="613.927" rx="63.36" ry="63.3658" fill="#20263D"/>
<ellipse opacity="0.8" cx="798.72" cy="613.927" rx="63.36" ry="63.3658" fill="#20263D"/>
<ellipse opacity="0.5" cx="872.64" cy="613.927" rx="63.36" ry="63.3658" fill="#20263D"/>
</g>
</svg>
