<svg width="512" height="512" viewBox="0 0 512 512" fill="none" xmlns="http://www.w3.org/2000/svg">
<rect width="512" height="512" fill="white"/>
<path d="M176.956 131.932C176.956 129.446 178.971 127.431 181.457 127.431L217.466 127.431C219.951 127.431 221.967 129.446 221.967 131.932L221.967 175.818L324.929 175.818C331.144 175.818 336.182 180.856 336.182 187.071L336.182 216.328L336.182 216.345L336.182 250.086C336.182 252.572 334.167 254.587 331.681 254.587L295.672 254.587C293.186 254.587 291.171 252.572 291.171 250.086L291.171 220.829L133.07 220.829C130.584 220.829 128.569 218.814 128.569 216.328L128.569 180.319C128.569 177.833 130.584 175.818 133.07 175.818L176.956 175.818L176.956 131.932Z" fill="black"/>
<path d="M170.204 175.818C173.933 175.818 176.956 172.795 176.956 169.066L176.956 134.183C176.956 130.454 179.979 127.431 183.707 127.431L215.215 127.431C218.944 127.431 221.967 130.454 221.967 134.183L221.967 169.066C221.967 172.795 224.99 175.818 228.718 175.818L276.972 175.818C278.341 175.818 279.678 176.234 280.805 177.012L333.264 213.19C335.091 214.45 336.182 216.528 336.182 218.748L336.182 247.836C336.182 251.564 333.159 254.587 329.43 254.587L297.923 254.587C294.194 254.587 291.171 251.564 291.171 247.836L291.171 227.581C291.171 223.852 288.148 220.829 284.419 220.829L135.321 220.829C131.592 220.829 128.569 217.806 128.569 214.077L128.569 182.57C128.569 178.841 131.592 175.818 135.321 175.818L170.204 175.818Z" fill="black"/>
<g opacity="0.8">
<path d="M336.182 378.93C336.182 381.416 334.167 383.431 331.681 383.431L295.672 383.431C293.186 383.431 291.171 381.416 291.171 378.93L291.171 335.044L188.208 335.044C181.994 335.044 176.956 330.006 176.956 323.792L176.956 294.534L176.956 294.517L176.956 260.776C176.956 258.29 178.971 256.275 181.457 256.275L217.466 256.275C219.951 256.275 221.967 258.29 221.967 260.776L221.967 290.033L380.068 290.033C382.554 290.033 384.569 292.049 384.569 294.534L384.569 330.543C384.569 333.029 382.554 335.044 380.068 335.044L336.182 335.044L336.182 378.93Z" fill="black"/>
<path d="M342.934 335.044C339.205 335.044 336.182 338.067 336.182 341.796L336.182 376.679C336.182 380.408 333.159 383.431 329.43 383.431L297.923 383.431C294.194 383.431 291.171 380.408 291.171 376.679L291.171 341.796C291.171 338.067 288.148 335.044 284.419 335.044L236.166 335.044C234.797 335.044 233.46 334.628 232.333 333.851L179.874 297.672C178.047 296.412 176.956 294.334 176.956 292.114L176.956 263.027C176.956 259.298 179.978 256.275 183.707 256.275L215.215 256.275C218.944 256.275 221.967 259.298 221.967 263.027L221.967 283.282C221.967 287.011 224.989 290.033 228.718 290.033L377.817 290.033C381.546 290.033 384.569 293.056 384.569 296.785L384.569 328.293C384.569 332.021 381.546 335.044 377.817 335.044L342.934 335.044Z" fill="black"/>
</g>
</svg>
