<svg width="512" height="512" viewBox="0 0 512 512" fill="none" xmlns="http://www.w3.org/2000/svg">
<rect width="512" height="512" rx="256" fill="black"/>
<path d="M176.387 132.501C176.387 130.015 178.402 128 180.888 128L216.897 128C219.383 128 221.398 130.015 221.398 132.501L221.398 176.387L324.36 176.387C330.575 176.387 335.613 181.425 335.613 187.64V216.897L335.613 216.914V250.655C335.613 253.141 333.598 255.156 331.112 255.156H295.103C292.617 255.156 290.602 253.141 290.602 250.655V221.398L132.501 221.398C130.015 221.398 128 219.383 128 216.897L128 180.888C128 178.402 130.015 176.387 132.501 176.387H176.387V132.501Z" fill="white"/>
<path d="M169.635 176.387C173.364 176.387 176.387 173.364 176.387 169.635V134.752C176.387 131.023 179.41 128 183.139 128L214.646 128C218.375 128 221.398 131.023 221.398 134.752V169.635C221.398 173.364 224.421 176.387 228.15 176.387H276.403C277.772 176.387 279.109 176.803 280.236 177.58L332.695 213.759C334.522 215.019 335.613 217.097 335.613 219.317V248.404C335.613 252.133 332.59 255.156 328.862 255.156H297.354C293.625 255.156 290.602 252.133 290.602 248.404V228.149C290.602 224.421 287.579 221.398 283.851 221.398L134.752 221.398C131.023 221.398 128 218.375 128 214.646L128 183.139C128 179.41 131.023 176.387 134.752 176.387L169.635 176.387Z" fill="white"/>
<g opacity="0.8">
<path d="M335.613 379.499C335.613 381.985 333.598 384 331.112 384L295.103 384C292.617 384 290.602 381.985 290.602 379.499L290.602 335.613L187.64 335.613C181.425 335.613 176.387 330.575 176.387 324.36L176.387 295.103L176.387 295.086L176.387 261.345C176.387 258.859 178.402 256.844 180.888 256.844L216.897 256.844C219.383 256.844 221.398 258.859 221.398 261.345L221.398 290.602L379.499 290.602C381.985 290.602 384 292.617 384 295.103L384 331.112C384 333.598 381.985 335.613 379.499 335.613L335.613 335.613L335.613 379.499Z" fill="white"/>
<path d="M342.365 335.613C338.636 335.613 335.613 338.636 335.613 342.365L335.613 377.248C335.613 380.977 332.59 384 328.861 384L297.354 384C293.625 384 290.602 380.977 290.602 377.248L290.602 342.365C290.602 338.636 287.579 335.613 283.85 335.613L235.597 335.613C234.228 335.613 232.891 335.197 231.764 334.42L179.305 298.241C177.478 296.981 176.387 294.903 176.387 292.683L176.387 263.596C176.387 259.867 179.41 256.844 183.138 256.844L214.646 256.844C218.375 256.844 221.398 259.867 221.398 263.596L221.398 283.85C221.398 287.579 224.421 290.602 228.149 290.602L377.248 290.602C380.977 290.602 384 293.625 384 297.354L384 328.861C384 332.59 380.977 335.613 377.248 335.613L342.365 335.613Z" fill="white"/>
</g>
</svg>
