<svg width="53" height="53" viewBox="0 0 53 53" fill="none" xmlns="http://www.w3.org/2000/svg">
<path d="M6.89 14.31C6.60887 14.31 6.33926 14.4217 6.14047 14.6205C5.94168 14.8193 5.83 15.0889 5.83 15.37C5.83 15.6511 5.94168 15.9207 6.14047 16.1195C6.33926 16.3183 6.60887 16.43 6.89 16.43C7.17113 16.43 7.44075 16.3183 7.63953 16.1195C7.83832 15.9207 7.95 15.6511 7.95 15.37C7.95 15.0889 7.83832 14.8193 7.63953 14.6205C7.44075 14.4217 7.17113 14.31 6.89 14.31Z" fill="#78A0CF"/>
<path d="M40.81 6.36C40.6694 6.36 40.5346 6.41584 40.4352 6.51523C40.3358 6.61463 40.28 6.74944 40.28 6.89C40.28 7.03056 40.3358 7.16537 40.4352 7.26477C40.5346 7.36416 40.6694 7.42 40.81 7.42C40.9506 7.42 41.0854 7.36416 41.1848 7.26477C41.2842 7.16537 41.34 7.03056 41.34 6.89C41.34 6.74944 41.2842 6.61463 41.1848 6.51523C41.0854 6.41584 40.9506 6.36 40.81 6.36Z" fill="#F1BC19"/>
<path opacity="0.2" d="M26.5 6.89C21.2991 6.89 16.3112 8.95605 12.6336 12.6336C8.95605 16.3112 6.89 21.2991 6.89 26.5C6.89 31.7009 8.95605 36.6888 12.6336 40.3664C16.3112 44.044 21.2991 46.11 26.5 46.11C31.7009 46.11 36.6888 44.044 40.3664 40.3664C44.044 36.6888 46.11 31.7009 46.11 26.5C46.11 21.2991 44.044 16.3112 40.3664 12.6336C36.6888 8.95605 31.7009 6.89 26.5 6.89V6.89Z" fill="white"/>
<path d="M43.99 5.83C43.4277 5.83 42.8885 6.05336 42.4909 6.45093C42.0934 6.84851 41.87 7.38774 41.87 7.95C41.87 8.51226 42.0934 9.05149 42.4909 9.44907C42.8885 9.84664 43.4277 10.07 43.99 10.07C44.5523 10.07 45.0915 9.84664 45.4891 9.44907C45.8866 9.05149 46.11 8.51226 46.11 7.95C46.11 7.38774 45.8866 6.84851 45.4891 6.45093C45.0915 6.05336 44.5523 5.83 43.99 5.83V5.83Z" fill="#F1BC19"/>
<path d="M46.11 11.66C45.8289 11.66 45.5593 11.7717 45.3605 11.9705C45.1617 12.1693 45.05 12.4389 45.05 12.72C45.05 13.0011 45.1617 13.2707 45.3605 13.4695C45.5593 13.6683 45.8289 13.78 46.11 13.78C46.3911 13.78 46.6607 13.6683 46.8595 13.4695C47.0583 13.2707 47.17 13.0011 47.17 12.72C47.17 12.4389 47.0583 12.1693 46.8595 11.9705C46.6607 11.7717 46.3911 11.66 46.11 11.66Z" fill="#78A0CF"/>
<path d="M42.93 39.22C42.6489 39.22 42.3793 39.3317 42.1805 39.5305C41.9817 39.7293 41.87 39.9989 41.87 40.28C41.87 40.5611 41.9817 40.8307 42.1805 41.0295C42.3793 41.2283 42.6489 41.34 42.93 41.34C43.2111 41.34 43.4807 41.2283 43.6795 41.0295C43.8783 40.8307 43.99 40.5611 43.99 40.28C43.99 39.9989 43.8783 39.7293 43.6795 39.5305C43.4807 39.3317 43.2111 39.22 42.93 39.22ZM7.95 31.27C7.38774 31.27 6.84851 31.4934 6.45094 31.8909C6.05336 32.2885 5.83 32.8277 5.83 33.39C5.83 33.9523 6.05336 34.4915 6.45094 34.8891C6.84851 35.2866 7.38774 35.51 7.95 35.51C8.51226 35.51 9.05149 35.2866 9.44907 34.8891C9.84664 34.4915 10.07 33.9523 10.07 33.39C10.07 32.8277 9.84664 32.2885 9.44907 31.8909C9.05149 31.4934 8.51226 31.27 7.95 31.27Z" fill="#FBCD59"/>
<path d="M13.25 45.05C12.9689 45.05 12.6993 45.1617 12.5005 45.3605C12.3017 45.5593 12.19 45.8289 12.19 46.11C12.19 46.3911 12.3017 46.6607 12.5005 46.8595C12.6993 47.0583 12.9689 47.17 13.25 47.17C13.5311 47.17 13.8007 47.0583 13.9995 46.8595C14.1983 46.6607 14.31 46.3911 14.31 46.11C14.31 45.8289 14.1983 45.5593 13.9995 45.3605C13.8007 45.1617 13.5311 45.05 13.25 45.05Z" fill="#78A0CF"/>
<path d="M9.805 27.03C9.45358 27.03 9.11657 27.1696 8.86808 27.4181C8.61959 27.6666 8.48 28.0036 8.48 28.355C8.48 28.7064 8.61959 29.0434 8.86808 29.2919C9.11657 29.5404 9.45358 29.68 9.805 29.68C10.1564 29.68 10.4934 29.5404 10.7419 29.2919C10.9904 29.0434 11.13 28.7064 11.13 28.355C11.13 28.0036 10.9904 27.6666 10.7419 27.4181C10.4934 27.1696 10.1564 27.03 9.805 27.03V27.03Z" fill="white"/>
<path d="M11.13 34.98C10.9894 34.98 10.8546 35.0358 10.7552 35.1352C10.6558 35.2346 10.6 35.3694 10.6 35.51C10.6 35.6506 10.6558 35.7854 10.7552 35.8848C10.8546 35.9842 10.9894 36.04 11.13 36.04C11.2706 36.04 11.4054 35.9842 11.5048 35.8848C11.6042 35.7854 11.66 35.6506 11.66 35.51C11.66 35.3694 11.6042 35.2346 11.5048 35.1352C11.4054 35.0358 11.2706 34.98 11.13 34.98Z" fill="#F1BC19"/>
<path d="M42.4 17.49C42.2594 17.49 42.1246 17.5458 42.0252 17.6452C41.9258 17.7446 41.87 17.8794 41.87 18.02C41.87 18.1606 41.9258 18.2954 42.0252 18.3948C42.1246 18.4942 42.2594 18.55 42.4 18.55C42.5406 18.55 42.6754 18.4942 42.7748 18.3948C42.8742 18.2954 42.93 18.1606 42.93 18.02C42.93 17.8794 42.8742 17.7446 42.7748 17.6452C42.6754 17.5458 42.5406 17.49 42.4 17.49Z" fill="white"/>
<path d="M33.9831 25.0801C33.8373 24.3063 33.522 23.8532 32.7784 23.629C32.7461 23.6195 32.7026 23.6036 32.6538 23.585C32.5977 23.5606 32.5261 23.532 32.4429 23.4991C31.9924 23.3089 29.3164 22.3215 29.3164 22.3215C29.0959 22.2653 28.9523 22.1084 28.8691 21.9314C28.7318 21.6388 28.7848 20.8809 28.7848 20.8809C28.7848 20.8809 27.6655 21.2636 26.9675 21.394C26.2827 21.4608 24.8104 20.5751 24.8104 20.5751C24.8104 20.5751 24.7759 21.6701 24.7293 21.9134C24.6927 22.1042 24.4871 22.2658 24.2666 22.322L21.6987 23.2532C21.4147 23.3274 21.1422 23.4334 20.9021 23.5813C20.2561 23.9804 19.9285 24.5793 19.7621 25.0812C19.7621 25.0812 19.593 26.2769 19.5999 26.3198C19.584 26.4873 19.5671 26.6712 19.5506 26.8646C22.3496 28.7599 24.5978 29.2904 28.4546 29.1219C30.2074 29.0451 32.8165 28.1801 34.1834 27.49C34.1103 25.9658 33.9831 25.0801 33.9831 25.0801Z" fill="#FABF82"/>
<path d="M32.7784 23.6433C32.746 23.6338 32.7026 23.6179 32.6538 23.5993C32.5976 23.5749 32.5261 23.5463 32.4429 23.5135C32.1646 23.3958 31.0352 22.9734 30.2137 22.6681L30.175 22.658C29.2682 23.1228 27.9776 23.8208 26.792 23.8208C25.6064 23.8208 24.4182 23.1901 23.409 22.658L23.2956 22.6877L21.6982 23.267C21.4141 23.3412 21.1417 23.4472 20.9016 23.5951C20.2555 23.9942 19.928 24.5931 19.7616 25.095C19.7616 25.095 19.5925 26.2906 19.5994 26.3336C19.5835 26.5011 19.5665 28.2962 19.5501 28.4896C22.349 30.3849 24.5973 30.9154 28.4541 30.7469C30.2068 30.67 32.816 29.8051 34.1829 29.115C34.1108 27.5923 33.9831 25.0955 33.9831 25.0955C33.8368 24.3212 33.5214 23.868 32.7784 23.6433Z" fill="#C98089"/>
<path d="M31.2059 15.5173C31.164 15.5147 31.1205 15.5142 31.076 15.5142C30.7278 15.4972 30.6292 15.6361 30.6446 15.4209C30.6727 15.0387 30.6192 13.4885 30.6192 13.4101C30.6192 11.8036 28.9417 10.4935 26.8461 10.4209V10.4161C26.8318 10.4161 26.818 10.4182 26.8042 10.4182C26.7899 10.4177 26.7761 10.4161 26.7624 10.4161V10.4209C24.6667 10.4935 22.9893 11.8036 22.9893 13.4101C22.9893 13.4885 22.9363 15.0387 22.9638 15.4209C22.9797 15.6361 22.8806 15.4972 22.5324 15.5142C22.4879 15.5142 22.445 15.5147 22.4026 15.5173C22.021 15.5428 21.7125 15.7855 21.6468 16.086C21.6934 16.1146 21.8673 17.4312 22.1482 17.95C22.3051 18.2394 22.5504 18.2802 22.8022 18.4668C22.9416 18.5701 22.9686 18.6873 23.0068 18.842C23.1483 19.4155 23.5405 19.9026 23.9708 20.3186C24.1834 20.5237 25.5926 22.0263 26.8037 21.9505C28.0206 21.9049 29.424 20.5242 29.6365 20.3186C30.0669 19.9026 30.4591 19.4155 30.6006 18.842C30.6388 18.6873 30.6658 18.5701 30.8052 18.4668C31.0569 18.2797 31.3023 18.2394 31.4592 17.95C31.7406 17.4312 31.914 16.1146 31.9606 16.086C31.8959 15.7855 31.5875 15.5428 31.2059 15.5173Z" fill="#FDDBBC"/>
<path d="M26.8265 18.0619C27.0724 18.0619 27.3114 17.9543 27.4651 17.7746C27.4805 17.7566 27.4784 17.729 27.4604 17.7137C27.4423 17.6983 27.4153 17.6999 27.3994 17.7179C27.2743 17.861 27.0655 17.9432 26.8265 17.9432C26.5874 17.9432 26.3786 17.861 26.2535 17.7179C26.2451 17.7084 26.2329 17.7031 26.2207 17.7031C26.2106 17.7031 26.2005 17.7062 26.1926 17.7137C26.1746 17.729 26.1725 17.7566 26.1878 17.7746C26.3415 17.9543 26.58 18.0619 26.8265 18.0619ZM26.041 14.7361L26.1974 14.4361C25.537 14.2814 24.7764 14.3063 24.1489 14.5008L24.3455 14.7934C24.8612 14.6227 25.4956 14.6015 26.041 14.7361ZM29.3472 14.7361L29.5035 14.4361C28.8431 14.2814 28.0831 14.3063 27.455 14.5008L27.6517 14.7934C28.1679 14.6227 28.8023 14.6015 29.3472 14.7361ZM25.0907 15.1596C24.9323 15.1596 24.7929 15.2645 24.7123 15.423C24.7324 15.4166 24.7531 15.4124 24.7748 15.4124C24.9047 15.4124 25.0102 15.5301 25.0102 15.6753C25.0102 15.8205 24.9047 15.9382 24.7748 15.9382C24.7324 15.9382 24.6927 15.9244 24.6582 15.9027C24.7139 16.1406 24.8861 16.3145 25.0902 16.3145C25.3393 16.3145 25.5412 16.0558 25.5412 15.7368C25.5418 15.4182 25.3398 15.1596 25.0907 15.1596ZM28.5431 15.1596C28.408 15.1596 28.2866 15.2364 28.2039 15.3573C28.2299 15.3462 28.2575 15.3398 28.2866 15.3398C28.4165 15.3398 28.5219 15.4575 28.5219 15.6027C28.5219 15.7479 28.4165 15.8656 28.2866 15.8656C28.2061 15.8656 28.135 15.82 28.0926 15.7511C28.0985 16.0632 28.2978 16.3145 28.5431 16.3145C28.7922 16.3145 28.9942 16.0558 28.9942 15.7368C28.9942 15.4182 28.7922 15.1596 28.5431 15.1596ZM28.7345 18.7313C28.753 18.7164 28.7557 18.6889 28.7408 18.6703C28.726 18.6518 28.6984 18.6486 28.6799 18.664C28.2728 18.9883 27.5976 19.1743 26.8265 19.1743C26.0553 19.1743 25.3796 18.9883 24.9731 18.664C24.9651 18.6576 24.9556 18.6544 24.946 18.6544C24.9333 18.6544 24.9206 18.6597 24.9121 18.6703C24.8973 18.6889 24.8999 18.7159 24.9185 18.7313C25.378 19.1065 26.0908 19.3307 26.8265 19.3307C27.5616 19.3307 28.275 19.1065 28.7345 18.7313ZM27.33 20.6308C27.3522 20.6308 27.3713 20.6048 27.3713 20.5741C27.3713 20.5433 27.3522 20.5174 27.33 20.5174H26.403C26.3807 20.5174 26.3617 20.5433 26.3617 20.5741C26.3617 20.6048 26.3807 20.6308 26.403 20.6308H27.33Z" fill="#512C2B"/>
<path d="M27.2038 31.0898C23.9756 31.0898 21.8916 30.4437 19.4012 28.7578C19.3222 28.7037 19.2777 28.6115 19.2856 28.5156C19.2888 28.4774 19.2904 28.3486 19.2931 28.1615C19.3047 27.3708 19.3291 25.7257 19.5056 25.0748C19.7494 24.176 20.105 23.8246 20.7622 23.4191C21.0081 23.2675 21.3007 23.1462 21.6309 23.0598L24.1754 22.136C24.3429 22.092 24.4563 21.9929 24.469 21.9261C24.4802 21.8683 24.4982 21.7024 24.5205 21.2504C24.1648 20.997 23.8749 20.7702 23.7869 20.6843C23.2124 20.1225 22.8833 19.6079 22.7508 19.0636C22.7126 18.9083 22.7004 18.8759 22.6442 18.8335C22.5727 18.7795 22.5011 18.7403 22.4338 18.7016C22.2579 18.6025 22.0586 18.4901 21.9155 18.224C21.6023 17.6395 21.3823 16.571 21.3823 16.2143C21.3823 16.1957 21.3844 16.1767 21.3887 16.1586C21.4809 15.7304 21.8906 15.4082 22.3851 15.3748C22.4349 15.3716 22.4831 15.3711 22.5329 15.3711C22.5912 15.3689 22.6458 15.3695 22.693 15.3726C22.6851 14.9153 22.7084 14.0837 22.72 13.6941L22.7248 13.5081C22.7248 11.7565 24.4685 10.3202 26.704 10.2221C26.7231 10.2179 26.7427 10.2152 26.7629 10.2152H26.8471C26.8678 10.2152 26.888 10.2179 26.907 10.2221C29.1421 10.3212 30.8852 11.757 30.8852 13.5081L30.89 13.692C30.9011 14.0863 30.9244 14.9312 30.917 15.3732C30.9695 15.3695 31.0262 15.3674 31.0893 15.3716C31.1306 15.3732 31.1762 15.3716 31.2228 15.3748C31.7189 15.4082 32.1286 15.7309 32.2208 16.1586C32.2251 16.1767 32.2272 16.1957 32.2272 16.2143C32.2272 16.6144 31.9982 17.658 31.694 18.224C31.5514 18.4901 31.3522 18.6025 31.1757 18.7016C31.1078 18.7403 31.0363 18.7795 30.9653 18.8335C30.9096 18.8749 30.8974 18.9078 30.8619 19.0535C30.7273 19.6074 30.3976 20.122 29.8231 20.6833C29.7362 20.7686 29.4357 21.0166 29.0403 21.3033C29.0419 21.6224 29.0753 21.81 29.1092 21.8821C29.1717 22.0151 29.2629 22.0978 29.3816 22.128C29.5178 22.1768 32.0952 23.1281 32.5462 23.3184C32.6263 23.3497 32.7005 23.3799 32.7593 23.4053C32.7911 23.417 32.8287 23.4308 32.8568 23.4387C33.6561 23.6804 34.0711 24.1759 34.2444 25.0944C34.2465 25.1061 34.2481 25.1183 34.2486 25.13C34.2486 25.13 34.3758 27.6273 34.4484 29.1511C34.4537 29.2549 34.3965 29.353 34.3037 29.4002C32.8377 30.14 30.1893 30.9849 28.4663 31.0607C28.0253 31.0803 27.6056 31.0898 27.2038 31.0898ZM19.8199 28.4C22.4572 30.1575 24.6535 30.7024 28.443 30.5312C30.0372 30.4617 32.4694 29.6996 33.9105 29.0032C33.8405 27.5515 33.7308 25.3955 33.7197 25.1755C33.5819 24.4621 33.3047 24.1282 32.7021 23.9465C32.665 23.9353 32.6157 23.9173 32.56 23.8966C32.4948 23.8686 32.427 23.8415 32.3464 23.8097C31.8996 23.621 29.2507 22.6432 29.2242 22.6331C28.9788 22.5727 28.7578 22.3824 28.629 22.1074C28.5416 21.9208 28.5018 21.6028 28.5108 21.1613C28.5124 21.0776 28.5538 20.9997 28.6221 20.9514C29.0371 20.6557 29.3779 20.378 29.451 20.3054C29.9519 19.8156 30.2354 19.3816 30.3441 18.9385C30.3876 18.7594 30.4342 18.5691 30.6467 18.4096C30.7379 18.3412 30.8285 18.2892 30.9149 18.241C31.0601 18.1589 31.1566 18.1043 31.2265 17.9739C31.4847 17.4932 31.6834 16.571 31.6961 16.245C31.641 16.0616 31.4327 15.9201 31.1879 15.9032C31.1534 15.9011 31.1152 15.9005 31.076 15.9005C30.9621 15.8942 30.8884 15.9074 30.8285 15.9164C30.7358 15.9313 30.5985 15.9525 30.4835 15.847C30.3648 15.7383 30.3759 15.5873 30.3807 15.5226C30.4029 15.2232 30.3717 14.1208 30.3605 13.7063C30.3573 13.5961 30.3552 13.5235 30.3552 13.5076C30.3552 12.0299 28.8103 10.8184 26.8376 10.7495C26.8265 10.7489 26.8154 10.7479 26.8042 10.7458C26.7931 10.7479 26.7825 10.7489 26.7714 10.7495C24.7987 10.8184 23.2538 12.0299 23.2538 13.5076C23.2538 13.5235 23.2516 13.5972 23.2485 13.7085C23.2373 14.1224 23.2061 15.2232 23.2278 15.5221C23.2326 15.5862 23.2431 15.7378 23.1255 15.8465C23.0094 15.953 22.8716 15.9313 22.7799 15.9164C22.7211 15.9069 22.6511 15.8968 22.5457 15.9C22.4937 15.9005 22.4561 15.9011 22.419 15.9032C22.1763 15.9196 21.9674 16.0616 21.9129 16.245C21.9256 16.5742 22.1333 17.5091 22.3824 17.9739C22.4529 18.1043 22.5483 18.1589 22.6941 18.241C22.781 18.2898 22.8711 18.3412 22.9623 18.4096C23.1753 18.5691 23.222 18.7604 23.2633 18.9295C23.3735 19.3821 23.6566 19.8156 24.1574 20.3048C24.2136 20.36 24.512 20.599 24.9439 20.9C25.0186 20.9525 25.0616 21.0389 25.0568 21.1295C25.034 21.6272 25.0134 21.9044 24.99 22.0268C24.9275 22.3522 24.6143 22.5701 24.3318 22.6416L21.7894 23.5649C21.4867 23.6454 21.2429 23.7461 21.0415 23.8701C20.4569 24.2305 20.2142 24.4876 20.0176 25.2132C19.8586 25.7999 19.8337 27.4598 19.8236 28.169C19.822 28.2591 19.8204 28.3375 19.8199 28.4Z" fill="#472B29"/>
<path d="M31.279 17.2822L30.9631 17.2473L31.0251 16.6929L30.7416 16.8153L30.6154 16.5233L31.1513 16.2911C31.2043 16.2689 31.2636 16.2763 31.3092 16.3092C31.3548 16.3425 31.3792 16.3982 31.3723 16.4544L31.279 17.2822ZM22.4476 17.1588L22.3543 16.332C22.3474 16.2763 22.3718 16.2201 22.4174 16.1867C22.463 16.1528 22.5229 16.1449 22.5753 16.1687L23.1117 16.4009L22.9856 16.6929L22.7015 16.5699L22.7635 17.1243L22.4476 17.1588Z" fill="#895D3D"/>
<path d="M22.9808 18.7885C22.9803 18.7885 22.9792 18.7885 22.9787 18.7885C22.9204 18.7874 22.8737 18.7387 22.8748 18.6804L22.9336 15.5629C22.9347 15.5046 22.9919 15.4617 23.0418 15.459C23.1001 15.4601 23.1467 15.5089 23.1456 15.5672L23.0868 18.6846C23.0863 18.7424 23.0386 18.7885 22.9808 18.7885ZM30.6875 18.7885C30.6303 18.7885 30.5826 18.7424 30.5815 18.6846L30.5227 15.5672C30.5216 15.5089 30.5683 15.4601 30.6266 15.459C30.6271 15.459 30.6282 15.459 30.6287 15.459C30.6859 15.459 30.7336 15.5052 30.7347 15.5629L30.7935 18.6804C30.7946 18.7387 30.748 18.7874 30.6897 18.7885C30.6891 18.7885 30.6881 18.7885 30.6875 18.7885Z" fill="#472B29"/>
<path d="M26.8466 22.0824C26.0659 22.0824 24.7658 21.1337 24.7086 21.0913C24.6498 21.0479 24.637 20.9652 24.6805 20.9058C24.724 20.8475 24.8072 20.8354 24.866 20.8778C25.2492 21.1587 26.3643 21.871 26.9123 21.8143C27.5923 21.7369 28.6889 20.9641 28.6995 20.9562C28.7594 20.9138 28.8421 20.9281 28.8845 20.988C28.9269 21.0479 28.9126 21.1306 28.8527 21.173C28.8055 21.2064 27.6898 21.9929 26.9425 22.0777C26.9113 22.0809 26.88 22.0824 26.8466 22.0824Z" fill="#472B29"/>
<path d="M22.3692 11.8248C22.4964 11.4825 22.9421 11.4565 22.9421 11.4565C22.9421 11.4565 22.5616 10.9715 22.6882 10.75C22.8149 10.5285 24.1781 8.95753 27.4906 9.30521C30.8031 9.65289 31.2138 11.8052 31.2138 11.8052L30.5396 15.7368C30.5396 15.7368 29.2184 11.837 23.8781 12.5737C23.8781 12.5737 24.1107 13.0698 22.9824 15.0393L22.3692 11.8248Z" fill="#512C2B"/>
<path d="M26.4194 31.3235C26.2753 30.5609 25.9647 30.1141 25.2317 29.8925C25.1999 29.883 25.157 29.8676 25.1088 29.8491C25.0531 29.8252 24.9831 29.7966 24.9005 29.7643C24.4563 29.5767 21.818 28.603 21.818 28.603C21.6007 28.5479 21.4592 28.3926 21.377 28.2183C21.2419 27.9299 21.2943 27.1826 21.2943 27.1826C21.2943 27.1826 20.1909 27.56 19.5029 27.6888C18.8277 27.7545 17.3761 26.8811 17.3761 26.8811C17.3761 26.8811 17.3421 27.9607 17.296 28.2002C17.26 28.3884 17.057 28.5479 16.8397 28.603L14.3079 29.521C14.028 29.5941 13.7588 29.6991 13.523 29.8448C12.8859 30.2381 12.5631 30.829 12.3988 31.3235C12.3988 31.3235 12.2324 32.5022 12.2388 32.5446C12.2229 32.7095 12.2064 32.8913 12.19 33.0821C14.9497 34.9503 17.1662 35.474 20.9684 35.3075C22.6962 35.2317 25.2688 34.379 26.6166 33.6985C26.5456 32.197 26.4194 31.3235 26.4194 31.3235Z" fill="#FABF82"/>
<path d="M25.2317 29.9074C25.1999 29.8978 25.157 29.8825 25.1087 29.8639C25.0531 29.8401 24.9831 29.8114 24.9005 29.7791C24.6259 29.663 23.5124 29.2465 22.7025 28.9454L22.6644 28.9354C21.7703 29.3938 20.4977 30.0823 19.3291 30.0823C18.1604 30.0823 16.9886 29.4601 15.9938 28.9354L15.882 28.9645L14.3073 29.5353C14.0275 29.6085 13.7583 29.7134 13.5224 29.8591C12.8854 30.2524 12.5626 30.8433 12.3983 31.3378C12.3983 31.3378 12.2319 32.5166 12.2382 32.559C12.2223 32.7238 12.2059 34.494 12.1895 34.6848C14.9492 36.553 17.1656 37.0767 20.9679 36.9103C22.6957 36.8345 25.2683 35.9817 26.6161 35.3012C26.545 33.7997 26.4189 31.3378 26.4189 31.3378C26.2758 30.5752 25.9647 30.1284 25.2317 29.9074Z" fill="#88CDD7"/>
<path d="M15.4696 22.7688C15.4129 22.6443 14.089 19.6884 15.1008 17.667C15.5221 16.8249 16.2821 16.2721 17.3612 16.024C17.984 15.5995 18.7281 15.3663 19.4643 15.3663C20.0865 15.3663 20.6907 15.5274 21.2599 15.8444C21.5562 16.0092 21.7952 16.148 21.9955 16.2646C22.6305 16.6335 22.8223 16.7454 23.1753 16.7454C23.2151 16.7454 23.2569 16.7438 23.3015 16.7411C23.4022 16.7348 23.4567 16.731 23.5082 16.731C23.9375 16.731 24.0201 17.0088 24.036 17.1285C24.0885 17.5223 23.9534 17.8541 23.8341 18.1467C23.7371 18.3852 23.6528 18.5919 23.7048 18.7609C24.3694 20.943 23.338 22.719 23.2935 22.7932L22.7948 23.6338L22.8011 22.6564C22.8011 22.6395 22.8064 21.0876 22.4513 20.0398C21.9521 20.2969 21.3579 20.432 20.7135 20.432C19.5591 20.432 18.2866 20.0181 17.0225 19.2326C15.9779 20.1252 15.9774 22.6299 15.9774 22.6559L15.9832 23.8913L15.4696 22.7688Z" fill="#BE7841"/>
<path d="M19.4643 15.6313C20.0017 15.6313 20.5693 15.7627 21.1311 16.076C22.3872 16.7766 22.6204 17.0109 23.1753 17.0109C23.2204 17.0109 23.267 17.0093 23.3168 17.0066C23.3825 17.0029 23.4483 16.9971 23.5087 16.9971C23.6449 16.9971 23.7541 17.0252 23.7726 17.164C23.8595 17.8186 23.294 18.3247 23.4504 18.8388C24.0885 20.9345 23.0645 22.6596 23.0645 22.6596C23.0645 22.6596 23.0767 20.7469 22.5833 19.6566C22.074 19.9932 21.4348 20.1686 20.7113 20.1686C19.618 20.1686 18.3311 19.7674 17.0077 18.9125C15.6949 19.786 15.7103 22.6596 15.7103 22.6596C15.7103 22.6596 13.2235 17.2006 17.4693 16.2721C18.0094 15.8915 18.7069 15.6313 19.4643 15.6313ZM19.4643 15.1013V15.6313V15.1013C18.692 15.1013 17.9108 15.3408 17.2536 15.7776C16.12 16.0495 15.3165 16.6446 14.8639 17.5483C13.7959 19.6815 15.1697 22.7492 15.2285 22.879L16.2503 25.122L16.2408 22.657C16.2381 22.0077 16.3881 20.3234 17.0596 19.5676C18.3073 20.3085 19.5628 20.6986 20.7119 20.6986C21.2795 20.6986 21.8127 20.5995 22.2839 20.4087C22.5388 21.3866 22.5351 22.6411 22.5351 22.6564L22.5239 24.61L23.5209 22.9299C23.5675 22.8515 24.6556 20.9769 23.9576 18.6841C23.9337 18.6051 24.0111 18.4149 24.0795 18.2474C24.2046 17.94 24.3599 17.5584 24.2984 17.0941C24.2581 16.7909 24.0297 16.4666 23.5092 16.4666C23.452 16.4666 23.3916 16.4703 23.3295 16.4745L23.2856 16.4772C23.2469 16.4793 23.2103 16.4803 23.1753 16.4803C22.9029 16.4803 22.7598 16.403 22.1286 16.0357C21.9272 15.9185 21.6865 15.7786 21.3897 15.6127C20.7797 15.2735 20.1321 15.1013 19.4643 15.1013Z" fill="#472B29"/>
<path d="M14.6132 36.2403C14.5252 36.2403 14.4542 36.1693 14.4542 36.0813V34.6779C14.4542 34.5899 14.5252 34.5189 14.6132 34.5189C14.7011 34.5189 14.7722 34.5899 14.7722 34.6779V36.0813C14.7722 36.1693 14.7011 36.2403 14.6132 36.2403ZM23.9714 36.4873C23.8834 36.4873 23.8124 36.4163 23.8124 36.3283V34.6779C23.8124 34.5899 23.8834 34.5189 23.9714 34.5189C24.0594 34.5189 24.1304 34.5899 24.1304 34.6779V36.3283C24.1298 36.4163 24.0594 36.4873 23.9714 36.4873Z" fill="#00A5A5"/>
<path d="M23.6815 21.8954C23.6401 21.8927 23.5977 21.8922 23.5537 21.8922C23.2108 21.8758 23.24 22.0051 23.2554 21.7925C23.2829 21.4157 23.1038 19.8946 23.1038 19.8178C23.1038 18.2341 21.4502 16.942 19.3837 16.8704V16.8657C19.3699 16.8657 19.3561 16.8678 19.3424 16.8678C19.3286 16.8673 19.3148 16.8657 19.301 16.8657V16.8704C17.2346 16.942 15.581 18.2336 15.581 19.8178C15.581 19.8951 15.5285 21.4231 15.556 21.8C15.5714 22.0125 15.4739 21.8752 15.131 21.8922C15.087 21.8922 15.0446 21.8927 15.0033 21.8954C14.627 21.9203 14.3227 22.1598 14.2581 22.4561C14.3042 22.4842 14.4754 23.7822 14.7526 24.2936C14.9073 24.5793 15.149 24.619 15.3976 24.8029C15.5354 24.9052 15.5619 25.0202 15.5995 25.1729C15.7389 25.7379 16.1258 26.2186 16.5498 26.6288C16.7591 26.8313 18.1488 28.3126 19.3424 28.2379C20.5418 28.1928 21.9256 26.8313 22.1349 26.6288C22.5589 26.2186 22.9458 25.7384 23.0852 25.1729C23.1229 25.0202 23.1494 24.9052 23.2872 24.8029C23.5357 24.6185 23.7774 24.5788 23.9322 24.2936C24.2094 23.7822 24.3805 22.4842 24.4267 22.4561C24.362 22.1598 24.0578 21.9208 23.6815 21.8954Z" fill="#FDDBBC"/>
<path d="M19.3636 24.4044C19.6063 24.4044 19.8416 24.2984 19.9932 24.1208C20.0086 24.1028 20.0064 24.0763 19.9884 24.0609C19.9709 24.0456 19.9439 24.0472 19.9285 24.0652C19.805 24.2062 19.5994 24.2873 19.3636 24.2873C19.1282 24.2873 18.9221 24.2062 18.7986 24.0652C18.7901 24.0556 18.7784 24.0509 18.7662 24.0509C18.7562 24.0509 18.7466 24.0541 18.7382 24.0609C18.7207 24.0763 18.7185 24.1033 18.7334 24.1208C18.8855 24.2984 19.1208 24.4044 19.3636 24.4044ZM18.5898 21.1253L18.744 20.8295C18.0926 20.6769 17.3432 20.7013 16.7247 20.8931L16.9187 21.1814C17.4264 21.014 18.0523 20.9922 18.5898 21.1253ZM21.8493 21.1253L22.0035 20.8295C21.3521 20.6769 20.6027 20.7013 19.9842 20.8931L20.1782 21.1814C20.6864 21.014 21.3118 20.9922 21.8493 21.1253ZM17.6522 21.5429C17.4958 21.5429 17.3586 21.6463 17.2791 21.8026C17.2987 21.7963 17.3193 21.792 17.3411 21.792C17.4693 21.792 17.5732 21.9081 17.5732 22.0512C17.5732 22.1943 17.4693 22.3104 17.3411 22.3104C17.2992 22.3104 17.26 22.2971 17.2261 22.2754C17.2812 22.5102 17.4508 22.6813 17.6522 22.6813C17.8981 22.6813 18.0969 22.4264 18.0969 22.1121C18.0974 21.7978 17.8981 21.5429 17.6522 21.5429ZM21.0564 21.5429C20.9228 21.5429 20.8036 21.6187 20.7219 21.7374C20.7474 21.7268 20.7749 21.7199 20.8036 21.7199C20.9318 21.7199 21.0357 21.836 21.0357 21.9791C21.0357 22.1222 20.9318 22.2383 20.8036 22.2383C20.7241 22.2383 20.6541 22.1937 20.6122 22.1254C20.6181 22.4333 20.8147 22.6808 21.0564 22.6808C21.3023 22.6808 21.501 22.4259 21.501 22.1116C21.501 21.7978 21.3018 21.5429 21.0564 21.5429ZM21.2451 25.0642C21.2631 25.0494 21.2657 25.0224 21.2514 25.0043C21.2366 24.9863 21.2095 24.9831 21.1915 24.998C20.7903 25.3176 20.1246 25.501 19.3641 25.501C18.6035 25.501 17.9379 25.3176 17.5366 24.998C17.5287 24.9916 17.5197 24.9884 17.5101 24.9884C17.4974 24.9884 17.4852 24.9937 17.4768 25.0043C17.4619 25.0224 17.4646 25.0494 17.4831 25.0642C17.9357 25.4342 18.639 25.6552 19.3641 25.6552C20.0886 25.6552 20.7919 25.4342 21.2451 25.0642ZM19.8602 26.9373C19.8824 26.9373 19.901 26.9118 19.901 26.8816C19.901 26.8514 19.8824 26.826 19.8602 26.826H18.9464C18.9242 26.826 18.9056 26.8514 18.9056 26.8816C18.9056 26.9118 18.9242 26.9373 18.9464 26.9373H19.8602Z" fill="#512C2B"/>
<path d="M19.7346 37.2521C16.5519 37.2521 14.4971 36.615 12.0411 34.9524C11.9621 34.8984 11.9176 34.8056 11.9255 34.7102C11.9287 34.6715 11.9303 34.5433 11.933 34.3572C11.9446 33.5787 11.9685 31.9585 12.1428 31.3172C12.3829 30.4305 12.7343 30.0839 13.3836 29.6826C13.6263 29.5327 13.9152 29.4134 14.2411 29.3286L16.7491 28.4175C16.9134 28.3746 17.0236 28.2781 17.0358 28.2135C17.0437 28.1748 17.0623 28.0338 17.0861 27.5494C16.7348 27.2992 16.4501 27.0756 16.3643 26.9913C15.7982 26.438 15.4723 25.9302 15.3414 25.3928C15.3048 25.2402 15.2926 25.2079 15.2386 25.1676C15.1681 25.114 15.0976 25.0754 15.0303 25.0377C14.8564 24.9391 14.6593 24.8278 14.5183 24.565C14.2093 23.9878 13.9925 22.9336 13.9925 22.5817C13.9925 22.5632 13.9947 22.5441 13.9989 22.5261C14.0901 22.1021 14.496 21.7835 14.9852 21.7501C15.0329 21.747 15.0812 21.7464 15.1304 21.7464C15.1861 21.7438 15.238 21.7443 15.2841 21.748C15.2767 21.2959 15.2995 20.4797 15.3106 20.0971L15.3154 19.9137C15.3154 18.1848 17.0358 16.7671 19.2411 16.6701C19.2602 16.6658 19.2798 16.6632 19.3 16.6632H19.3832C19.4038 16.6632 19.424 16.6658 19.4431 16.6701C21.6479 16.7681 23.3677 18.1848 23.3677 19.9137C23.3693 19.9359 23.3804 20.0356 23.3958 20.175C23.461 20.7728 23.5294 21.4279 23.5214 21.7443C23.603 21.7464 23.6502 21.747 23.6974 21.7501C24.1876 21.7835 24.5925 22.1021 24.6848 22.5255C24.689 22.5441 24.6911 22.5626 24.6911 22.5817C24.6911 22.976 24.4648 24.0058 24.1648 24.565C24.0238 24.8278 23.8267 24.9391 23.6528 25.0377C23.5861 25.0754 23.5156 25.1146 23.4451 25.1676C23.3905 25.2079 23.3794 25.2402 23.3444 25.3833C23.2114 25.9281 22.8865 26.4364 22.3194 26.9908C22.2335 27.075 21.9372 27.3194 21.5487 27.6013C21.5503 27.9135 21.5827 28.0979 21.6161 28.1679C21.677 28.2983 21.7666 28.3788 21.8821 28.4085C22.0167 28.4568 24.5586 29.3943 25.0033 29.583C25.0812 29.6127 25.1549 29.6424 25.2137 29.6683C25.2434 29.6795 25.2784 29.6922 25.3049 29.7001C26.0977 29.9397 26.508 30.4289 26.6791 31.3362C26.6813 31.3479 26.6829 31.3601 26.6834 31.3718C26.6834 31.3718 26.809 33.8341 26.88 35.3362C26.8853 35.4406 26.8281 35.5381 26.7353 35.5853C25.29 36.3145 22.6792 37.1477 20.9795 37.2224C20.546 37.2426 20.131 37.2521 19.7346 37.2521ZM12.4598 34.5947C15.0584 36.3267 17.2245 36.8583 20.9573 36.6935C22.5282 36.6251 24.9227 35.8741 26.3437 35.1888C26.2753 33.7583 26.1672 31.6362 26.156 31.4179C26.0204 30.7172 25.7479 30.3886 25.1554 30.2095C25.1204 30.1994 25.0706 30.1814 25.0134 30.1591C24.9508 30.1321 24.8846 30.1051 24.8061 30.0754C24.3641 29.8883 21.7523 28.9247 21.7258 28.9152C21.483 28.8553 21.2647 28.6672 21.1369 28.3947C21.0505 28.2103 21.0113 27.8965 21.0203 27.4604C21.0225 27.3766 21.0633 27.2987 21.1316 27.2505C21.5403 26.959 21.8758 26.6855 21.9489 26.6139C22.4423 26.1316 22.7211 25.7039 22.8276 25.2683C22.8706 25.0918 22.9167 24.9026 23.1276 24.7446C23.2177 24.6773 23.3068 24.6259 23.3921 24.5782C23.5479 24.4902 23.6322 24.4383 23.6979 24.3164C23.9518 23.842 24.1479 22.9357 24.1606 22.614C24.106 22.4381 23.8982 22.2966 23.6634 22.2807C23.6285 22.2785 23.5914 22.278 23.5532 22.278C23.549 22.278 23.4991 22.2759 23.4954 22.2754C23.2882 22.2658 23.1637 22.26 23.063 22.1455C22.9686 22.0379 22.9792 21.916 22.9866 21.8185C23.0094 21.5164 22.9146 20.6504 22.869 20.2343C22.8499 20.0594 22.8377 19.9375 22.8377 19.9153C22.8377 18.4604 21.3161 17.2674 19.3736 17.1996C19.3625 17.199 19.3519 17.198 19.3408 17.1964C19.3302 17.198 19.3196 17.199 19.3084 17.1996C17.366 17.2674 15.8444 18.4604 15.8444 19.9153C15.8444 19.9306 15.8422 20.0038 15.8391 20.1135C15.8279 20.5221 15.7977 21.6065 15.8189 21.9007C15.8237 21.9653 15.8343 22.1158 15.7166 22.2245C15.6011 22.3294 15.4643 22.3072 15.3732 22.2939C15.3144 22.2844 15.2386 22.2738 15.1426 22.2775C15.0912 22.278 15.0547 22.2785 15.0186 22.2807C14.7844 22.2966 14.5761 22.4375 14.522 22.614C14.5347 22.9389 14.7393 23.859 14.9842 24.3164C15.0494 24.4383 15.1342 24.4897 15.29 24.5777C15.3753 24.6264 15.4649 24.6773 15.555 24.7446C15.7664 24.9031 15.8126 25.0934 15.8534 25.2619C15.962 25.705 16.2408 26.1327 16.7337 26.6139C16.7888 26.6685 17.0814 26.9028 17.5086 27.2001C17.5833 27.2521 17.6257 27.339 17.6214 27.4296C17.5896 28.1345 17.5642 28.2702 17.5557 28.3147C17.4937 28.637 17.1842 28.8537 16.9044 28.9242L14.398 29.8348C14.0996 29.9137 13.8595 30.0123 13.6613 30.1342C13.0857 30.4898 12.8472 30.7426 12.6538 31.4566C12.4974 32.0337 12.473 33.6682 12.463 34.3657C12.4624 34.4548 12.4608 34.5321 12.4598 34.5947Z" fill="#472B29"/>
<path d="M23.7557 23.6364L23.4398 23.6014L23.5007 23.0587L23.2246 23.1785L23.0985 22.8865L23.6263 22.6575C23.6788 22.6352 23.7387 22.6421 23.7843 22.6755C23.8299 22.7089 23.8542 22.7646 23.8473 22.8207L23.7557 23.6364ZM15.0446 23.514L14.9529 22.6988C14.946 22.6427 14.9704 22.587 15.016 22.5536C15.0615 22.5197 15.1214 22.5123 15.1739 22.5356L15.7018 22.7646L15.5756 23.0566L15.2995 22.9368L15.3599 23.479L15.0446 23.514Z" fill="#895D3D"/>
<path d="M15.5725 25.122C15.5719 25.122 15.5709 25.122 15.5703 25.122C15.512 25.1209 15.4654 25.0722 15.4665 25.0139L15.5248 21.9404C15.5258 21.8821 15.5725 21.8381 15.6329 21.8365C15.6912 21.8376 15.7378 21.8863 15.7368 21.9446L15.6785 25.0181C15.6774 25.0759 15.6297 25.122 15.5725 25.122ZM23.1711 25.122C23.1138 25.122 23.0661 25.0759 23.0651 25.0181L23.0068 21.9446C23.0057 21.8863 23.0524 21.8376 23.1107 21.8365C23.1716 21.8466 23.2177 21.8821 23.2188 21.9404L23.2771 25.0139C23.2781 25.0722 23.2315 25.1209 23.1732 25.122C23.1727 25.122 23.1716 25.122 23.1711 25.122ZM19.3837 28.3698C18.6136 28.3698 17.3315 27.4333 17.2748 27.392C17.216 27.3485 17.2033 27.2658 17.2467 27.2065C17.2902 27.1482 17.3734 27.1355 17.4322 27.1784C17.8096 27.4561 18.9141 28.1711 19.4484 28.1011C20.1177 28.0248 21.1989 27.2637 21.2095 27.2558C21.2689 27.2134 21.3521 27.2282 21.3945 27.2876C21.4369 27.3469 21.4226 27.4301 21.3627 27.4725C21.3161 27.5059 20.2153 28.2808 19.478 28.3645C19.4478 28.3682 19.4166 28.3698 19.3837 28.3698Z" fill="#472B29"/>
<path d="M23.7726 17.1863C23.7461 16.9854 23.5299 17.0157 23.3168 17.0284C22.6517 17.0676 22.489 16.8556 21.1311 16.0982C19.7775 15.3435 18.3926 15.6445 17.4699 16.2943C13.2246 17.2223 15.7108 22.6819 15.7108 22.6819C15.7108 22.6819 15.6954 19.8082 17.0082 18.9348C19.2067 20.3552 21.3044 20.5237 22.5838 19.6789C23.0773 20.7691 23.0651 22.6819 23.0651 22.6819C23.0651 22.6819 24.0885 20.9567 23.4509 18.8611C23.294 18.347 23.8595 17.8409 23.7726 17.1863Z" fill="#BE7841"/>
<path d="M23.2654 22.667L23.0004 22.6649C23.0004 22.6469 23.0068 20.9244 22.5817 19.8565C21.1767 20.6658 19.053 20.3737 16.9727 19.0779C15.7813 19.9561 15.7808 22.6379 15.7808 22.6655L15.5158 22.6665C15.5152 22.5462 15.5158 19.7112 16.8964 18.8086C16.9388 18.7795 16.9955 18.7784 17.04 18.8076C19.1224 20.1289 21.2424 20.414 22.5716 19.5522C22.6045 19.5316 22.6448 19.5247 22.6803 19.5363C22.7174 19.5475 22.7476 19.5729 22.7635 19.6084C23.2728 20.7119 23.2659 22.5875 23.2654 22.667Z" fill="#472B29"/>
<path d="M40.1358 30.3663C39.8862 30.192 36.6866 29.0843 36.6866 29.0843C36.4831 29.0302 36.3702 28.8659 36.3336 28.682C36.2896 28.4605 36.2674 28.1054 36.2557 27.7545C37.117 27.2818 37.7922 26.5885 38.3201 25.7299C38.4075 25.5873 38.4764 25.3303 38.478 25.1633C38.4812 24.8316 38.4812 24.5003 38.4822 24.1685C38.6863 24.1399 38.8278 24.0238 38.9084 23.7694C39.0414 23.3497 39.2401 22.4736 39.2423 22.4662C39.4209 21.9224 39.1559 21.6415 38.6386 21.6516C38.7033 21.6118 38.9009 21.4094 38.9794 21.2535C38.9916 21.2541 39.0038 21.2557 39.0165 21.2557C39.0668 21.2557 39.1161 21.2514 39.1649 21.245C39.8459 21.4645 40.8826 21.3304 41.1556 19.7324C40.9054 20.0536 40.4899 20.1893 40.1417 20.158C40.139 20.0128 40.1072 19.8745 40.0505 19.7483C40.2519 19.5597 40.3775 19.2968 40.3775 19.0053C40.3775 18.4318 39.8926 17.967 39.2947 17.967C39.2905 17.967 39.2863 17.9675 39.282 17.9675C39.3239 17.8403 39.3467 17.7052 39.3467 17.5647C39.3467 16.828 38.7239 16.2302 37.9554 16.2302C37.8235 16.2302 37.6957 16.2487 37.5749 16.2821C37.5754 16.2646 37.5775 16.2477 37.5775 16.2302C37.5775 15.3568 36.8 14.6492 35.8407 14.6492C35.2863 14.6492 34.7934 14.8866 34.4754 15.2545C34.1219 15.0329 33.6773 14.8994 33.1934 14.8994C32.0427 14.8994 31.1105 15.6451 31.1105 16.5652C31.1105 16.606 31.1147 16.6457 31.1179 16.6855C30.8476 16.8153 30.6393 17.0257 30.5476 17.2981C30.457 17.5663 30.7538 18.3168 30.7427 18.3433C30.6669 18.3444 29.945 18.3968 30.1045 19.1351C30.139 19.2947 30.3976 21.5816 30.5354 21.6494C30.0181 21.6394 29.7547 21.9219 29.9333 22.4656C29.936 22.4731 30.1342 23.3492 30.2672 23.7689C30.3568 24.0514 30.5211 24.1638 30.7633 24.1744C30.766 24.4547 30.7665 24.7346 30.7543 25.0144C30.7389 25.3658 30.8449 25.6732 31.0426 25.9589C31.5472 26.6892 32.1843 27.2865 32.9559 27.7365C32.9443 28.0879 32.9215 28.4472 32.8786 28.682C32.8446 28.8665 32.7291 29.0302 32.5256 29.0843L29.91 29.9832C29.6482 30.0547 29.3964 30.157 29.1754 30.3001C28.0206 31.0463 27.9527 32.5309 27.975 32.6151H34.6064H41.2377C41.2594 32.5303 41.2091 31.1163 40.1358 30.3663Z" fill="#D8AD8F"/>
<path d="M36.3087 20.0282C36.5377 20.4845 37.0327 20.8014 37.6093 20.8014C37.7503 20.8014 37.8865 20.7818 38.0153 20.7463C38.2173 20.9853 38.5294 21.1396 38.8813 21.1396C38.9306 21.1396 38.9789 21.1353 39.0266 21.1295C39.6657 21.3298 40.7067 21.4512 41.0204 20.1029C40.7793 20.2857 40.3288 20.3345 40.121 20.2057C40.1184 20.0626 40.0844 19.8252 40.0277 19.7012C40.2281 19.5157 40.3526 19.257 40.3526 18.9708C40.3526 18.4069 39.8709 17.9495 39.2767 17.9495C39.2725 17.9495 39.2682 17.95 39.264 17.95C39.3059 17.825 39.3287 17.6919 39.3287 17.5536C39.3287 16.8291 38.7096 16.2413 37.9464 16.2413C37.815 16.2413 37.6888 16.2599 37.5685 16.2922C37.5691 16.2752 37.5712 16.2583 37.5712 16.2413C37.5712 15.3827 36.7984 14.6868 35.8455 14.6868C35.2948 14.6868 34.8051 14.92 34.4892 15.282C34.1378 15.0642 33.6963 14.9333 33.2151 14.9333C32.0719 14.9333 31.1455 15.6668 31.1455 16.571C31.1455 16.6107 31.1497 16.65 31.1529 16.6892C30.8842 16.8164 30.6775 17.0236 30.5863 17.2918C30.5799 17.3098 30.7517 18.1991 30.7766 18.2993C30.961 18.5389 31.2446 18.7371 31.5949 18.8426C31.9537 18.9507 32.3162 18.9411 32.621 18.841C32.8738 19.6842 33.8495 20.3122 35.015 20.3122C35.4888 20.3138 35.9324 20.2089 36.3087 20.0282Z" fill="#EFA21B"/>
<path d="M34.6042 32.5839H41.1895C41.2117 32.5028 41.1614 31.138 40.0956 30.4146C39.848 30.2466 36.6702 29.1776 36.6702 29.1776C36.4682 29.1256 36.3368 28.9788 36.2605 28.8145C36.1349 28.5421 36.1895 27.7179 36.1895 27.7179C36.1895 27.7179 35.4045 28.1928 34.7653 28.3142C34.1384 28.3762 33.0598 27.7683 33.0598 27.7683C33.0598 27.7683 33.0042 28.5712 32.9618 28.7976C32.9284 28.9751 32.7397 29.1256 32.5378 29.1781L29.9402 30.0452C29.68 30.1146 29.4304 30.2132 29.211 30.351C28.064 31.0707 27.9967 32.5033 28.019 32.5844H34.6042V32.5839Z" fill="#B2876B"/>
<path d="M35.0722 36.7603C37.3613 36.7603 39.5062 36.1481 41.3575 35.0828C41.2865 32.5007 41.357 30.785 40.0871 30.3955C39.8088 30.3102 38.7616 29.8056 38.7616 29.8056C38.7616 29.8056 36.0495 31.323 34.874 31.5626C32.9962 31.9452 30.5073 32.1689 28.0948 31.9203C28.0699 32.0237 28.028 33.8426 27.9851 34.5846C30.006 35.9573 32.445 36.7603 35.0722 36.7603Z" fill="#00A5A5"/>
<path opacity="0.34" d="M30.8768 18.4779C30.8126 18.4891 30.6955 18.5336 30.6446 18.5436C30.2386 18.6226 30.2741 18.9655 30.2741 18.9655L30.6563 21.4189C30.6685 21.2069 30.722 19.3159 31.3241 18.7991C31.2923 18.7832 30.9054 18.533 30.8768 18.4779Z" fill="#6D3C14"/>
<path d="M33.9645 21.3283C33.2904 21.1369 32.1445 21.0882 31.4629 21.1973C31.4242 21.2037 31.3961 21.2318 31.3967 21.2641C31.3972 21.2965 31.4253 21.324 31.464 21.3298C31.4778 21.332 33.1807 21.535 33.716 21.6934C33.725 21.6961 33.7345 21.6971 33.7435 21.6971C33.77 21.6971 33.796 21.6865 33.8114 21.6675L34.0053 21.4295C34.0196 21.412 34.0228 21.3903 34.0149 21.3707C34.0069 21.3505 33.9884 21.3351 33.9645 21.3283ZM35.3097 21.3283C35.9838 21.1369 37.1297 21.0882 37.8113 21.1973C37.85 21.2037 37.878 21.2318 37.8775 21.2641C37.877 21.2965 37.8489 21.324 37.8102 21.3298C37.7964 21.332 36.0935 21.535 35.5582 21.6934C35.5492 21.6961 35.5397 21.6971 35.5307 21.6971C35.5042 21.6971 35.4782 21.6865 35.4628 21.6675L35.2689 21.4295C35.2545 21.412 35.2508 21.3903 35.2593 21.3707C35.2667 21.3505 35.2853 21.3351 35.3097 21.3283ZM32.7757 22.0899C32.6061 22.0899 32.4572 22.2006 32.3713 22.3681C32.3925 22.3618 32.4148 22.357 32.4381 22.357C32.577 22.357 32.6899 22.481 32.6899 22.6347C32.6899 22.7879 32.577 22.9124 32.4381 22.9124C32.3925 22.9124 32.3507 22.8981 32.3136 22.8748C32.3729 23.126 32.5574 23.3094 32.7752 23.3094C33.0418 23.3094 33.2575 23.0364 33.2575 22.6999C33.258 22.3628 33.0423 22.0899 32.7757 22.0899ZM36.4661 22.0899C36.3214 22.0899 36.1921 22.171 36.1036 22.2982C36.1312 22.2865 36.1608 22.2796 36.1921 22.2796C36.331 22.2796 36.4439 22.4036 36.4439 22.5573C36.4439 22.7105 36.331 22.835 36.1921 22.835C36.1057 22.835 36.0299 22.7873 35.9844 22.7142C35.9907 23.0439 36.2038 23.3089 36.4661 23.3089C36.7327 23.3089 36.9484 23.0359 36.9484 22.6994C36.9484 22.3628 36.7322 22.0899 36.4661 22.0899Z" fill="#472B29"/>
<path opacity="0.41" d="M34.6117 25.2291C34.8936 25.2291 35.1671 25.1072 35.3436 24.9031C35.3833 24.857 35.3775 24.7876 35.3309 24.7484C35.2842 24.7091 35.2143 24.7144 35.1745 24.7595C35.0532 24.8968 34.8475 24.9752 34.6111 24.9752C34.3748 24.9752 34.1691 24.8968 34.0477 24.7595C34.0091 24.716 33.9375 24.7102 33.8914 24.7489C33.8453 24.7881 33.84 24.8575 33.8792 24.9036C34.0562 25.1072 34.3302 25.2291 34.6117 25.2291Z" fill="#472B29"/>
<path d="M34.7028 28.4038C34.0249 28.4038 32.9453 27.7985 32.8971 27.772C32.8335 27.736 32.8112 27.6549 32.8468 27.5913C32.8823 27.5271 32.9634 27.5065 33.0275 27.5409C33.0386 27.5473 34.1972 28.1965 34.776 28.1351C35.369 28.0752 36.2382 27.5351 36.2467 27.5298C36.3082 27.4927 36.3909 27.5107 36.4295 27.5717C36.4682 27.6337 36.4497 27.7153 36.3877 27.7545C36.35 27.7784 35.4575 28.3322 34.803 28.399C34.7701 28.4022 34.7367 28.4038 34.7028 28.4038Z" fill="#472B29"/>
<path d="M40.1205 20.1681C40.1178 20.0261 40.0839 19.7902 40.0272 19.6672C40.2275 19.4833 40.3521 19.2263 40.3521 18.9417C40.3521 18.3815 39.8703 17.9273 39.2762 17.9273C39.2719 17.9273 39.2677 17.9278 39.2635 17.9278C39.3053 17.8038 39.3281 17.6713 39.3281 17.5345C39.3281 16.8148 38.7091 16.2313 37.9459 16.2313C37.8144 16.2313 37.6883 16.2498 37.568 16.2816C37.5685 16.2646 37.5706 16.2482 37.5706 16.2313C37.5706 15.3785 36.7979 14.6874 35.845 14.6874C35.4162 14.6874 35.0256 14.8289 34.724 15.061C34.865 15.2041 34.7722 15.0414 34.865 15.2041C35.3155 15.0388 36.0787 15.1458 36.5626 15.4076C37.3995 15.8608 37.7376 17.0739 37.3268 17.8228C37.3184 17.8377 37.3088 17.8515 37.2998 17.8658C37.4212 17.8944 37.541 17.9389 37.656 18.0009C38.3264 18.364 38.5888 19.1701 38.2422 19.8024C38.1759 19.9227 38.0927 20.0282 37.9962 20.1172C37.9999 20.1193 38.0042 20.1209 38.0079 20.1225C38.3709 20.3191 38.5755 20.6827 38.5782 21.0511C38.6752 21.077 38.7753 21.0945 38.8813 21.0945C38.9306 21.0945 38.9789 21.0903 39.0266 21.0845C39.6657 21.2832 40.7067 21.4041 41.0204 20.0653C40.7787 20.2476 40.3277 20.2958 40.1205 20.1681Z" fill="#E2900E"/>
<path d="M39.6965 21.4549C39.4315 21.4549 39.1713 21.3908 39.0191 21.2869C38.6444 21.3166 38.2581 21.1777 37.9962 20.9149C37.3295 21.0606 36.6145 20.7654 36.2658 20.2232C35.8863 20.3817 35.4613 20.4644 35.0288 20.4644C33.8681 20.4644 32.8616 19.8798 32.5187 19.0249C32.2065 19.0954 31.8652 19.0827 31.5414 18.9862C31.1243 18.8616 30.7792 18.6157 30.5699 18.294C30.5216 18.2198 30.5423 18.1218 30.616 18.0741C30.6897 18.0264 30.7882 18.046 30.8359 18.1202C31.0018 18.3751 31.2923 18.5797 31.6325 18.682C31.9484 18.7763 32.2812 18.7768 32.5701 18.6814C32.612 18.6682 32.6554 18.6719 32.6931 18.692C32.7307 18.7122 32.7593 18.7461 32.7715 18.7869C33.0089 19.575 33.9582 20.1469 35.0288 20.1469C35.4666 20.1469 35.8937 20.0531 36.2637 19.8761C36.341 19.8379 36.4359 19.8702 36.4741 19.9481C36.7364 20.4681 37.4063 20.7506 38.0068 20.5852C38.0673 20.5672 38.1303 20.5884 38.1706 20.6356C38.38 20.8825 38.7229 21.0039 39.0488 20.9647C39.0965 20.9599 39.1463 20.9758 39.1803 21.0108C39.2873 21.1189 39.7924 21.2106 40.1035 21.0574C40.183 21.0193 40.2779 21.0505 40.3166 21.129C40.3558 21.2074 40.324 21.3028 40.245 21.342C40.0876 21.4205 39.891 21.4549 39.6965 21.4549Z" fill="#472B29"/>
<path opacity="0.8" d="M32.233 24.0514C32.058 24.0514 31.8902 24.122 31.7664 24.2476C31.6427 24.3733 31.5732 24.5436 31.5732 24.7213C31.5732 24.899 31.6427 25.0694 31.7664 25.195C31.8902 25.3207 32.058 25.3912 32.233 25.3912C32.408 25.3912 32.5759 25.3207 32.6996 25.195C32.8233 25.0694 32.8929 24.899 32.8929 24.7213C32.8929 24.5436 32.8233 24.3733 32.6996 24.2476C32.5759 24.122 32.408 24.0514 32.233 24.0514V24.0514ZM37.3088 24.0514C37.1338 24.0514 36.966 24.122 36.8422 24.2476C36.7185 24.3733 36.649 24.5436 36.649 24.7213C36.649 24.899 36.7185 25.0694 36.8422 25.195C36.966 25.3207 37.1338 25.3912 37.3088 25.3912C37.4838 25.3912 37.6517 25.3207 37.7754 25.195C37.8992 25.0694 37.9687 24.899 37.9687 24.7213C37.9687 24.5436 37.8992 24.3733 37.7754 24.2476C37.6517 24.122 37.4838 24.0514 37.3088 24.0514Z" fill="#BA8964"/>
<path opacity="0.8" d="M33.5919 23.3078C33.5721 23.3078 33.5531 23.3158 33.5391 23.33C33.5251 23.3442 33.5172 23.3635 33.5172 23.3836C33.5172 23.4037 33.5251 23.423 33.5391 23.4372C33.5531 23.4514 33.5721 23.4594 33.5919 23.4594C33.6118 23.4594 33.6308 23.4514 33.6448 23.4372C33.6588 23.423 33.6667 23.4037 33.6667 23.3836C33.6667 23.3635 33.6588 23.3442 33.6448 23.33C33.6308 23.3158 33.6118 23.3078 33.5919 23.3078V23.3078ZM33.6661 23.8844C33.6463 23.8844 33.6273 23.8924 33.6133 23.9066C33.5993 23.9209 33.5914 23.9401 33.5914 23.9602C33.5914 23.9803 33.5993 23.9996 33.6133 24.0138C33.6273 24.028 33.6463 24.036 33.6661 24.036C33.686 24.036 33.705 24.028 33.719 24.0138C33.733 23.9996 33.7409 23.9803 33.7409 23.9602C33.7409 23.9401 33.733 23.9209 33.719 23.9066C33.705 23.8924 33.686 23.8844 33.6661 23.8844V23.8844ZM34.1781 23.5691C34.1583 23.5691 34.1393 23.5771 34.1253 23.5913C34.1113 23.6055 34.1034 23.6248 34.1034 23.6449C34.1034 23.665 34.1113 23.6843 34.1253 23.6985C34.1393 23.7127 34.1583 23.7207 34.1781 23.7207C34.1979 23.7207 34.2169 23.7127 34.231 23.6985C34.245 23.6843 34.2528 23.665 34.2528 23.6449C34.2528 23.6248 34.245 23.6055 34.231 23.5913C34.2169 23.5771 34.1979 23.5691 34.1781 23.5691V23.5691ZM35.2545 23.5585C35.2347 23.5585 35.2157 23.5665 35.2017 23.5807C35.1877 23.5949 35.1798 23.6142 35.1798 23.6343C35.1798 23.6544 35.1877 23.6737 35.2017 23.6879C35.2157 23.7021 35.2347 23.7101 35.2545 23.7101C35.2744 23.7101 35.2934 23.7021 35.3074 23.6879C35.3214 23.6737 35.3293 23.6544 35.3293 23.6343C35.3293 23.6142 35.3214 23.5949 35.3074 23.5807C35.2934 23.5665 35.2744 23.5585 35.2545 23.5585V23.5585ZM35.546 24.0588C35.5262 24.0588 35.5072 24.0668 35.4932 24.081C35.4792 24.0952 35.4713 24.1145 35.4713 24.1346C35.4713 24.1547 35.4792 24.174 35.4932 24.1882C35.5072 24.2024 35.5262 24.2104 35.546 24.2104C35.5659 24.2104 35.5849 24.2024 35.5989 24.1882C35.6129 24.174 35.6208 24.1547 35.6208 24.1346C35.6208 24.1145 35.6129 24.0952 35.5989 24.081C35.5849 24.0668 35.5659 24.0588 35.546 24.0588V24.0588ZM35.8948 23.5649C35.875 23.5649 35.856 23.5728 35.8419 23.5871C35.8279 23.6013 35.8201 23.6205 35.8201 23.6406C35.8201 23.6608 35.8279 23.68 35.8419 23.6942C35.856 23.7085 35.875 23.7164 35.8948 23.7164C35.9146 23.7164 35.9336 23.7085 35.9476 23.6942C35.9616 23.68 35.9695 23.6608 35.9695 23.6406C35.9695 23.6205 35.9616 23.6013 35.9476 23.5871C35.9336 23.5728 35.9146 23.5649 35.8948 23.5649V23.5649Z" fill="#8E7469"/>
<path d="M30.8688 24.3302C30.7877 24.3302 30.7183 24.2682 30.7103 24.186L30.4771 21.6425C30.4692 21.5551 30.5333 21.4777 30.6208 21.4698C30.7061 21.4608 30.7856 21.5265 30.7935 21.6134L31.0267 24.1569C31.0347 24.2443 30.9706 24.3217 30.8831 24.3296C30.8789 24.3302 30.8736 24.3302 30.8688 24.3302ZM38.4483 24.2947C38.4451 24.2947 38.442 24.2947 38.4383 24.2947C38.3508 24.2888 38.284 24.2141 38.2893 24.1261L38.4409 21.6441C38.4462 21.5567 38.5061 21.4862 38.6094 21.4952C38.6969 21.501 38.7637 21.5758 38.7584 21.6638L38.6068 24.1457C38.602 24.23 38.5315 24.2947 38.4483 24.2947Z" fill="#472B29"/>
<path d="M35.0579 37.011C32.4604 37.011 29.954 36.2451 27.8102 34.7961C27.7307 34.742 27.6867 34.6493 27.6946 34.5533C27.7243 34.2205 27.7535 33.6513 27.7815 33.1149C27.8277 32.2245 27.8478 31.9002 27.8727 31.7682C27.8754 31.7475 27.8807 31.7274 27.8881 31.7083C28.0412 31.2085 28.3688 30.5264 29.0636 30.077C29.2921 29.9296 29.5634 29.812 29.8713 29.7272L32.4715 28.8336C32.5977 28.7991 32.6369 28.7064 32.6496 28.6338C32.6798 28.47 32.7026 28.2183 32.7169 27.8828C31.9813 27.4291 31.3559 26.8328 30.8561 26.1094C30.6139 25.758 30.5042 25.3955 30.5206 25.0027C30.5301 24.7992 30.5317 24.5962 30.5312 24.3938C30.2985 24.3137 30.1358 24.1314 30.0462 23.8489C29.9328 23.4912 29.7738 22.817 29.7107 22.543C29.5719 22.119 29.6742 21.8514 29.7844 21.7024C29.865 21.5927 30.0081 21.4692 30.2545 21.4136C30.2111 21.1629 30.1454 20.7728 30.0632 20.281C29.9747 19.7536 29.8931 19.2634 29.8772 19.1913C29.794 18.8044 29.909 18.5579 30.0203 18.4191C30.1263 18.2871 30.2625 18.2066 30.3902 18.1567C30.2429 17.791 30.2243 17.4646 30.3351 17.1964C30.4517 16.9155 30.6372 16.6897 30.8783 16.5339C30.898 15.4834 31.9436 14.6333 33.2257 14.6333C33.6667 14.6333 34.0896 14.7329 34.4606 14.9222C34.8343 14.5771 35.3378 14.3826 35.8731 14.3826C36.8811 14.3826 37.7175 15.0737 37.8553 15.9689C38.8151 15.8942 39.644 16.6388 39.644 17.5631C39.644 17.6214 39.6408 17.6792 39.6339 17.7364C40.2334 17.8742 40.6743 18.3899 40.6743 19.0037C40.6743 19.2999 40.5736 19.5798 40.3871 19.8087C40.3945 19.8342 40.4009 19.8596 40.4067 19.8856C40.6113 19.8554 40.8328 19.7563 40.9786 19.5681C41.0543 19.4722 41.1837 19.4388 41.295 19.4892C41.4057 19.5379 41.4693 19.6561 41.4492 19.7759C41.2928 20.6912 41.0591 21.2355 40.2731 21.492C39.8868 21.5948 39.5513 21.5885 39.3197 21.5662C39.3774 21.6107 39.4214 21.6584 39.4553 21.704C39.5656 21.853 39.6668 22.1201 39.5264 22.5483C39.3827 23.1695 39.2725 23.5993 39.1935 23.8489C39.114 24.1012 38.9746 24.274 38.7791 24.3652C38.7791 24.6317 38.7785 24.8989 38.7759 25.1655C38.7732 25.3881 38.6879 25.6902 38.5782 25.8688C38.0381 26.7475 37.3597 27.4323 36.5589 27.905C36.5764 28.3094 36.6045 28.5214 36.6262 28.6301C36.6479 28.7392 36.702 28.8055 36.7873 28.8283C37.5632 29.0986 40.0526 29.9726 40.3139 30.1453C41.4248 30.8762 41.4704 31.6267 41.5001 32.1233L41.5043 32.188L41.6257 35.0574C41.6299 35.1565 41.5785 35.2492 41.4927 35.2985C39.5401 36.4189 37.3147 37.011 35.0579 37.011ZM28.2358 34.4426C30.2625 35.7766 32.6183 36.481 35.0579 36.481C37.1684 36.481 39.2502 35.9409 41.0893 34.918L40.9717 32.1556C40.9436 31.6951 40.9123 31.173 40.023 30.5879C39.8454 30.4803 38.1431 29.8618 36.632 29.3344C36.3707 29.2655 36.1672 29.0382 36.1073 28.7329C36.0665 28.5267 36.0384 28.2002 36.0241 27.763C36.0209 27.6633 36.0745 27.5701 36.1619 27.5218C36.9431 27.0925 37.6046 26.4433 38.1277 25.5905C38.187 25.493 38.2453 25.2842 38.2469 25.1596C38.2496 24.8771 38.2501 24.5936 38.2506 24.31V24.168C38.2506 24.036 38.3482 23.9247 38.4785 23.9062C38.5596 23.895 38.6322 23.8707 38.6895 23.6889C38.7409 23.5267 38.8374 23.1801 39.0075 22.4497C39.0096 22.4413 39.0218 22.3898 39.0244 22.3819C39.079 22.2165 39.0806 22.0877 39.0308 22.0194C38.9794 21.9505 38.8501 21.9139 38.6778 21.916C38.6757 21.916 38.6741 21.916 38.6725 21.916C38.5549 21.916 38.4515 21.8386 38.4187 21.7258C38.3853 21.6113 38.4319 21.4883 38.5337 21.4258C38.5745 21.3961 38.725 21.2376 38.7764 21.1348C38.8236 21.0415 38.9222 20.9991 39.0244 20.9885C39.0658 20.9906 39.1024 20.9944 39.1575 21.005C39.2969 21.0325 39.6673 21.1078 40.1242 20.9848C40.4491 20.8788 40.6378 20.7087 40.7708 20.3403C40.5752 20.4108 40.3622 20.4405 40.1518 20.4214C40.0166 20.4092 39.9133 20.2974 39.9106 20.1623C39.9085 20.0557 39.8857 19.9529 39.8428 19.857C39.7961 19.7536 39.8205 19.6323 39.9032 19.5554C40.0595 19.4086 40.1459 19.213 40.1459 19.0053C40.1459 18.5786 39.7792 18.232 39.3281 18.232C39.2428 18.232 39.1564 18.1912 39.1066 18.1223C39.0568 18.0529 39.0366 17.9643 39.0637 17.8833C39.0981 17.7815 39.1156 17.6739 39.1156 17.5647C39.1156 16.8768 38.3932 16.3399 37.6793 16.5376C37.5982 16.5588 37.5113 16.5413 37.4456 16.4904C37.3793 16.4379 37.3417 16.3579 37.3443 16.2742C37.347 15.5046 36.6866 14.9142 35.8752 14.9142C35.4173 14.9142 34.9927 15.1018 34.7113 15.4283C34.6249 15.5274 34.4792 15.5486 34.3695 15.4797C34.0409 15.2735 33.646 15.1649 33.2278 15.1649C32.2251 15.1649 31.4099 15.7935 31.4099 16.5657C31.4099 16.5985 31.4131 16.6303 31.4163 16.6627C31.4264 16.7729 31.3665 16.8773 31.2668 16.9255C31.066 17.022 30.9181 17.1815 30.8269 17.4004C30.7527 17.5801 30.8147 17.8689 30.996 18.1917C31.0379 18.2659 31.0532 18.3783 31.0177 18.4557C30.9748 18.5489 30.8815 18.6088 30.7792 18.6094C30.7299 18.6104 30.5264 18.638 30.4353 18.753C30.3791 18.8245 30.3664 18.9342 30.3982 19.08C30.4135 19.1537 30.4978 19.6545 30.5884 20.1941C30.6865 20.7786 30.8079 21.5053 30.828 21.5901C30.846 21.669 30.8269 21.7533 30.7755 21.8169C30.7241 21.88 30.661 21.9261 30.5646 21.9155C30.4098 21.9229 30.2651 21.9499 30.2132 22.0183C30.1623 22.0872 30.165 22.2171 30.2196 22.3835C30.2922 22.6919 30.4469 23.3502 30.5545 23.6894C30.6118 23.8707 30.6822 23.9046 30.8094 23.9109C30.9504 23.9173 31.0612 24.0323 31.0628 24.1728C31.0654 24.4574 31.0665 24.7425 31.0532 25.0271C31.0421 25.3038 31.1184 25.5529 31.2955 25.8099C31.7809 26.5127 32.3963 27.0841 33.124 27.5086C33.2082 27.5573 33.2586 27.649 33.2554 27.746C33.2406 28.1923 33.2135 28.514 33.1743 28.7297C33.1187 29.036 32.9146 29.2645 32.6289 29.3408L30.0309 30.2338C29.759 30.3096 29.5369 30.4045 29.3546 30.5227C28.787 30.8895 28.5188 31.4624 28.3937 31.879C28.3937 31.88 28.3937 31.8806 28.3932 31.8811C28.3751 31.9738 28.3412 32.622 28.3147 33.1435C28.2872 33.6089 28.2612 34.1002 28.2358 34.4426Z" fill="#472B29"/>
<g opacity="0.49">
<path opacity="0.49" d="M36.5955 25.7792C36.578 25.758 36.5536 25.7448 36.526 25.7416C36.4985 25.7384 36.4714 25.7463 36.4508 25.7633C36.0586 26.0723 35.403 26.2493 34.653 26.2493C33.9031 26.2493 33.2474 26.0723 32.8552 25.7633C32.8128 25.7289 32.7439 25.7368 32.71 25.7787C32.6745 25.8221 32.6809 25.8863 32.7249 25.9218C33.1902 26.2975 33.911 26.5217 34.6525 26.5217C35.3939 26.5217 36.1147 26.2975 36.5801 25.9218C36.6241 25.8868 36.631 25.8221 36.5955 25.7792Z" fill="#472B29"/>
</g>
<path d="M34.432 35.1941C34.2825 34.4018 33.9592 33.938 33.1981 33.708C33.1653 33.6979 33.1208 33.682 33.0704 33.663C33.0126 33.638 32.9395 33.6084 32.8542 33.575C32.3931 33.3799 29.6519 32.3687 29.6519 32.3687C29.4261 32.3115 29.2788 32.1503 29.194 31.9691C29.0535 31.6696 29.1076 30.8932 29.1076 30.8932C29.1076 30.8932 27.9612 31.2854 27.2462 31.4189C26.545 31.4873 25.0372 30.5799 25.0372 30.5799C25.0372 30.5799 25.0017 31.7014 24.954 31.9505C24.9164 32.1461 24.7059 32.3115 24.4796 32.3687L21.8498 33.3222C21.5588 33.3985 21.2795 33.5071 21.0341 33.6582C20.3721 34.0668 20.0372 34.6806 19.8665 35.1941C19.8665 35.1941 19.6932 36.4184 19.7001 36.4624C19.6837 36.6336 19.6667 36.8223 19.6497 37.0205C22.5165 38.9614 24.8188 39.5051 28.7689 39.3324C30.5635 39.2539 33.2358 38.3678 34.636 37.6607C34.5624 36.1015 34.432 35.1941 34.432 35.1941Z" fill="#CE9065"/>
<path d="M34.432 35.209C34.2825 34.4166 33.9592 33.9529 33.1981 33.7228C33.1653 33.7128 33.1208 33.6969 33.0704 33.6778C33.0126 33.6529 32.9395 33.6232 32.8542 33.5898C32.6045 33.4843 30.1491 32.6273 29.3599 32.3332C28.2829 33.0921 27.7985 33.3842 27.0798 33.3842C26.314 33.3842 25.5948 33.0497 24.8061 32.2765L23.611 32.718C23.6078 32.7164 23.6051 32.7148 23.602 32.7132L23.4859 32.7439L21.8503 33.337C21.5593 33.4133 21.28 33.522 21.0346 33.673C20.3727 34.0817 20.0377 34.6954 19.8671 35.209C19.8671 35.209 19.6937 36.4333 19.7006 36.4773C19.6842 36.6484 19.6672 38.487 19.6503 38.6852C22.5171 40.6261 24.8194 41.1699 28.7695 40.9971C30.564 40.9187 33.2363 40.0325 34.6366 39.3255C34.5624 37.7662 34.432 35.209 34.432 35.209Z" fill="#88AE45"/>
<path d="M29.626 36.1789C29.3551 35.8386 29.1659 35.4437 28.8908 35.1072C28.8246 35.0261 28.8193 34.9265 28.8908 34.8459C29.0456 34.6715 29.2613 34.583 29.4723 34.4956C29.7049 34.3996 29.9302 34.2947 30.165 34.2078C30.0166 33.5919 29.7235 33.0344 29.3578 32.5197C29.309 32.4514 29.3191 32.3851 29.3562 32.3353C28.2819 33.0921 27.7975 33.3842 27.0798 33.3842C26.3474 33.3842 25.6176 33.09 24.9381 32.3586C24.848 32.9204 24.3381 33.6783 24.7155 34.23C24.865 34.4479 25.1713 34.5231 25.2704 34.7918C25.4114 35.1724 25.2005 35.7204 25.1904 36.1073C25.1697 36.8938 25.3865 37.4837 25.6801 38.1929C25.6928 38.2241 25.6949 38.2517 25.6918 38.2777C25.9271 38.7446 26.1921 39.2269 26.3691 39.7113C26.5244 40.1358 26.641 40.563 26.747 41.0008C26.9362 41.0072 27.0915 40.9976 27.2887 40.9992C27.4646 40.1544 27.9633 39.3615 28.2983 38.5713C28.6667 37.7047 29.0117 36.8938 29.626 36.1789Z" fill="#FDFCEF"/>
<path d="M27.7556 35.7829L27.56 40.253L27.2568 40.9854L27.0364 41.0225L26.8048 41.0172L26.3834 40.1369L26.4327 35.7835C26.7268 35.1745 27.4614 35.1745 27.7556 35.7829Z" fill="#D5E27B"/>
<path d="M26.4825 35.1008L25.8725 33.5813H28.3158L27.7058 35.1008C27.4339 35.6377 26.7544 35.6377 26.4825 35.1008Z" fill="#D5E27B"/>
<path d="M24.874 32.1705L24.3556 32.5865L25.7135 35.5185L27.1731 33.4154C27.1731 33.4154 24.9821 32.7598 24.874 32.1705Z" fill="#E1E0D8"/>
<path d="M29.2162 32.1705L29.8136 32.5303L28.3762 35.5185L26.9166 33.4154C26.9171 33.4154 29.1087 32.7598 29.2162 32.1705Z" fill="#E1E0D8"/>
<g opacity="0.59">
<path opacity="0.59" d="M22.1678 40.3542C22.0798 40.3542 22.0088 40.2832 22.0088 40.1952V39.0684C22.0088 38.9804 22.0798 38.9094 22.1678 38.9094C22.2558 38.9094 22.3268 38.9804 22.3268 39.0684V40.1952C22.3268 40.2832 22.2558 40.3542 22.1678 40.3542ZM31.888 40.5524C31.8 40.5524 31.729 40.4814 31.729 40.3934V39.0684C31.729 38.9804 31.8 38.9094 31.888 38.9094C31.976 38.9094 32.047 38.9804 32.047 39.0684V40.3934C32.047 40.4814 31.976 40.5524 31.888 40.5524Z" fill="#6F913D"/>
</g>
<path d="M29.1208 31.9919C29.1208 31.9919 29.9938 32.3629 30.6287 34.4028L29.1208 34.9593L30.0929 36.0723L27.2203 41.0782C27.2203 41.0782 28.6062 35.9695 29.1208 31.9919ZM24.954 31.9919C24.954 31.9919 24.0816 32.3629 23.4461 34.4028L24.954 34.9593L23.9825 36.0723L26.8058 41.0782C26.8053 41.0782 25.4686 35.9695 24.954 31.9919Z" fill="#6F913D"/>
<path d="M31.588 25.4002C31.5451 25.3976 31.5006 25.3971 31.455 25.3971C31.0983 25.3796 30.9971 25.5221 31.0135 25.3017C31.0421 24.91 30.9875 23.3226 30.9875 23.2421C30.9875 21.597 29.2698 20.255 27.1233 20.1803V20.1755C27.109 20.1755 27.0947 20.1776 27.0804 20.1782C27.066 20.1776 27.0517 20.176 27.0374 20.1755V20.1803C24.8909 20.2545 23.1732 21.5964 23.1732 23.2421C23.1732 23.3221 23.1186 24.91 23.1472 25.3017C23.1631 25.5221 23.0619 25.3801 22.7057 25.3971C22.6601 25.3971 22.6162 25.3976 22.5727 25.4002C22.1821 25.4262 21.8657 25.6748 21.7984 25.9827C21.8461 26.0119 22.0241 27.3602 22.3119 27.8912C22.4725 28.188 22.7237 28.2294 22.9819 28.4207C23.125 28.5267 23.1525 28.6465 23.1912 28.805C23.3359 29.3922 23.7382 29.8909 24.1786 30.3171C24.3959 30.5275 25.8396 32.0661 27.0798 31.9881C28.3259 31.9415 29.7632 30.5275 29.981 30.3171C30.4215 29.8909 30.8237 29.3922 30.9684 28.805C31.0077 28.6465 31.0352 28.5267 31.1778 28.4207C31.4359 28.2294 31.6871 28.188 31.8477 27.8912C32.1355 27.3602 32.3136 26.0119 32.3613 25.9827C32.2945 25.6753 31.9786 25.4267 31.588 25.4002Z" fill="#DB9E71"/>
<path d="M27.1026 28.0068C27.3549 28.0068 27.5992 27.8965 27.7566 27.7126C27.7725 27.6941 27.7704 27.666 27.7519 27.6501C27.7333 27.6342 27.7057 27.6358 27.6893 27.6543C27.5611 27.8011 27.3475 27.8849 27.1026 27.8849C26.8577 27.8849 26.6442 27.8006 26.5159 27.6543C26.5069 27.6443 26.4947 27.6395 26.4825 27.6395C26.4724 27.6395 26.4618 27.6432 26.4534 27.6501C26.4348 27.666 26.4327 27.6941 26.4486 27.7126C26.606 27.8965 26.8503 28.0068 27.1026 28.0068ZM26.2981 24.6005L26.4581 24.2931C25.7818 24.1346 25.0033 24.16 24.3604 24.3593L24.5618 24.6588C25.0902 24.4844 25.74 24.4621 26.2981 24.6005ZM29.6842 24.6005L29.8443 24.2931C29.168 24.1346 28.3894 24.16 27.7466 24.3593L27.948 24.6588C28.4764 24.4844 29.1261 24.4621 29.6842 24.6005ZM25.325 25.034C25.1628 25.034 25.0197 25.1416 24.9376 25.3038C24.9582 25.2974 24.9794 25.2932 25.0017 25.2932C25.1347 25.2932 25.2428 25.414 25.2428 25.5624C25.2428 25.7108 25.1347 25.8317 25.0017 25.8317C24.9582 25.8317 24.9179 25.8179 24.8824 25.7951C24.9397 26.0389 25.1156 26.217 25.325 26.217C25.5804 26.217 25.7871 25.952 25.7871 25.6255C25.7866 25.299 25.5799 25.034 25.325 25.034ZM28.8606 25.034C28.7218 25.034 28.5977 25.1125 28.5135 25.2365C28.54 25.2253 28.5681 25.2185 28.5983 25.2185C28.7313 25.2185 28.8394 25.3393 28.8394 25.4877C28.8394 25.6366 28.7313 25.7569 28.5983 25.7569C28.5156 25.7569 28.443 25.7103 28.3995 25.6398C28.4053 25.9599 28.6094 26.217 28.8611 26.217C29.1166 26.217 29.3233 25.952 29.3233 25.6255C29.3228 25.299 29.1155 25.034 28.8606 25.034Z" fill="#512C2B"/>
<path d="M27.4922 41.3426C24.185 41.3426 22.0507 40.6817 19.5019 38.9555C19.4224 38.9015 19.3784 38.8092 19.3863 38.7133C19.3895 38.6741 19.3911 38.5411 19.3943 38.3482C19.406 37.5399 19.4309 35.8566 19.6116 35.1904C19.8607 34.2719 20.2237 33.9131 20.8958 33.4987C21.1475 33.3434 21.4459 33.2199 21.7835 33.1319L24.3906 32.1858C24.5655 32.1397 24.681 32.0385 24.6943 31.9669C24.7044 31.9161 24.7234 31.7597 24.7473 31.27C24.3821 31.0098 24.0848 30.776 23.9947 30.6886C23.4069 30.1141 23.0704 29.5878 22.9347 29.0318C22.896 28.8712 22.8828 28.8373 22.8234 28.7928C22.7492 28.7377 22.6766 28.6963 22.6066 28.6571C22.427 28.5559 22.2234 28.4409 22.0793 28.1706C21.7592 27.5732 21.5339 26.4799 21.5339 26.1147C21.5339 26.0961 21.536 26.0771 21.5403 26.059C21.6346 25.6234 22.0517 25.2958 22.5552 25.2614C22.6056 25.2582 22.6549 25.2577 22.7057 25.2577C22.7677 25.2545 22.8255 25.2561 22.8764 25.2598C22.8674 24.7923 22.8918 23.9337 22.9029 23.532L22.9082 23.3433C22.9082 21.553 24.6922 20.0849 26.9786 19.9842C26.9977 19.9799 27.0173 19.9773 27.0374 19.9773C27.0427 19.9773 27.0862 19.9799 27.0915 19.9799C27.1053 19.9799 27.1196 19.981 27.1334 19.9831V19.981C29.4436 20.0621 31.253 21.5387 31.253 23.3423L31.2583 23.532C31.2695 23.9374 31.2939 24.8093 31.2859 25.2593C31.341 25.255 31.4009 25.2529 31.4688 25.2571C31.5053 25.2571 31.5557 25.2566 31.605 25.2603C32.1095 25.2942 32.5272 25.6223 32.622 26.0574C32.6263 26.076 32.6284 26.0945 32.6284 26.1136C32.6284 26.5223 32.3947 27.5881 32.083 28.1695C31.9383 28.4398 31.7348 28.5548 31.5557 28.656C31.4857 28.6953 31.4126 28.7361 31.3389 28.7912C31.2795 28.8362 31.2668 28.8696 31.2297 29.0233C31.0925 29.5862 30.7554 30.1125 30.1681 30.6875C30.078 30.7755 29.7685 31.0299 29.3641 31.3235C29.3662 31.7396 29.4182 31.8859 29.4357 31.9224C29.5003 32.0602 29.5963 32.1461 29.7187 32.1774C29.8576 32.2272 32.4975 33.2013 32.9591 33.3964C33.0402 33.4282 33.116 33.4584 33.1764 33.4843C33.2093 33.4965 33.2464 33.5114 33.275 33.5193C34.0923 33.7663 34.5168 34.2719 34.6938 35.21C34.6959 35.2217 34.6975 35.2339 34.698 35.2455C34.698 35.2455 34.8284 37.8033 34.9026 39.3636C34.9079 39.4675 34.8507 39.5656 34.7579 39.6127C33.2586 40.3701 30.5481 41.2356 28.7832 41.313C28.3317 41.332 27.9024 41.3426 27.4922 41.3426ZM19.9201 38.5978C22.6231 40.3998 24.8718 40.9515 28.7583 40.783C30.3944 40.7114 32.8881 39.9291 34.3636 39.2152C34.2921 37.728 34.1792 35.5142 34.168 35.2911C34.026 34.5576 33.7409 34.2147 33.1213 34.0271C33.0847 34.0159 33.0338 33.9974 32.9766 33.9751C32.9109 33.9476 32.8404 33.9195 32.7588 33.8871C32.3014 33.6937 29.5883 32.6925 29.5608 32.6825C29.3111 32.621 29.0864 32.428 28.9544 32.1471C28.921 32.0767 28.8214 31.8631 28.8336 31.182C28.8352 31.0977 28.8765 31.0193 28.9449 30.9711C29.3694 30.669 29.7192 30.3833 29.7955 30.3086C30.3091 29.8061 30.6001 29.3599 30.7114 28.9062C30.7548 28.7265 30.802 28.5304 31.0198 28.3677C31.1126 28.2978 31.2048 28.2453 31.2933 28.1949C31.4433 28.1107 31.5424 28.0545 31.6145 27.9193C31.8795 27.4238 32.0836 26.4777 32.0963 26.1444C32.0396 25.9541 31.8228 25.8062 31.5695 25.7893C31.5339 25.7871 31.4942 25.7866 31.4544 25.7866C31.34 25.7792 31.2615 25.793 31.2006 25.803C31.1078 25.8179 30.9684 25.8396 30.8524 25.7331C30.7331 25.6244 30.7442 25.4713 30.749 25.4055C30.7718 25.0992 30.7395 23.9714 30.7278 23.5468C30.7246 23.4329 30.7225 23.3582 30.7225 23.3417C30.7225 21.8254 29.1378 20.5815 27.1137 20.5105C27.1026 20.5099 27.091 20.5089 27.0798 20.5068C27.0687 20.5089 27.0576 20.5099 27.0464 20.5105C25.0229 20.5815 23.4377 21.8249 23.4377 23.3417C23.4377 23.3576 23.4355 23.4329 23.4324 23.5458C23.4207 23.9708 23.3889 25.0987 23.4117 25.4055C23.4165 25.4713 23.4271 25.6244 23.3083 25.7331C23.1928 25.8396 23.0539 25.8179 22.9601 25.803C22.8992 25.7924 22.8239 25.7829 22.7185 25.7861C22.6655 25.7866 22.6268 25.7871 22.5891 25.7893C22.3369 25.8062 22.1206 25.9541 22.0644 26.1438C22.0772 26.482 22.2907 27.4423 22.5462 27.9193C22.6188 28.0545 22.7174 28.1101 22.8669 28.1949C22.9559 28.2453 23.0481 28.2978 23.1414 28.3683C23.3587 28.531 23.4064 28.7276 23.4483 28.9009C23.5606 29.3609 23.8516 29.8067 24.3646 30.3086C24.4224 30.3648 24.7277 30.6096 25.1708 30.9186C25.2455 30.9711 25.2879 31.0575 25.2837 31.1481C25.254 31.8064 25.2301 31.9876 25.2153 32.0666C25.1522 32.3962 24.8337 32.6178 24.5459 32.6909L21.9409 33.6364C21.6314 33.7186 21.3807 33.8219 21.1746 33.9497C20.5746 34.3196 20.3255 34.5836 20.1236 35.3293C19.9598 35.9303 19.9344 37.63 19.9243 38.3561C19.9227 38.451 19.9211 38.5326 19.9201 38.5978Z" fill="#472B29"/>
<path d="M31.6585 27.2076L31.3426 27.1726L31.4067 26.5986L31.1099 26.7268L30.9838 26.4348L31.5324 26.1974C31.5848 26.1751 31.6447 26.1825 31.6903 26.2154C31.7359 26.2488 31.7603 26.3044 31.7534 26.3606L31.6585 27.2076Z" fill="#895D3D"/>
<path d="M22.622 27.0814L22.5266 26.2345C22.5197 26.1783 22.5441 26.1226 22.5897 26.0892C22.6352 26.0553 22.6951 26.0479 22.7476 26.0712L23.2962 26.3087L23.17 26.6007L22.8732 26.4724L22.9373 27.0464L22.622 27.0814Z" fill="#895D3D"/>
<path d="M23.1642 28.7483C23.1636 28.7483 23.1626 28.7483 23.162 28.7483C23.1037 28.7472 23.0571 28.6984 23.0582 28.6401L23.1186 25.4474C23.1196 25.3896 23.1673 25.3435 23.2246 25.3435C23.2251 25.3435 23.2262 25.3435 23.2267 25.3435C23.285 25.3446 23.3317 25.3934 23.3306 25.4517L23.2702 28.6444C23.2691 28.7021 23.2214 28.7483 23.1642 28.7483Z" fill="#472B29"/>
<path d="M31.0575 28.7483C31.0002 28.7483 30.9525 28.7021 30.9515 28.6444L30.891 25.4517C30.89 25.3934 30.9366 25.3446 30.9949 25.3435C30.9955 25.3435 30.9965 25.3435 30.997 25.3435C31.0543 25.3435 31.102 25.3896 31.103 25.4474L31.1635 28.6401C31.1645 28.6984 31.1179 28.7472 31.0596 28.7483C31.0591 28.7483 31.058 28.7483 31.0575 28.7483Z" fill="#472B29"/>
<path d="M25.8168 29.1929C25.802 29.2502 25.7935 29.309 25.7935 29.3689C25.7935 29.8846 26.3638 30.3027 27.0676 30.3027C27.7714 30.3027 28.3417 29.8846 28.3417 29.3689C28.3417 29.3085 28.3332 29.2496 28.3184 29.1929H25.8168Z" fill="#6D1B18"/>
<path d="M27.7407 30.1591C27.6289 30.0287 27.3697 29.937 27.0676 29.937C26.7655 29.937 26.5063 30.0287 26.3945 30.1591C26.5901 30.2487 26.8196 30.3027 27.0676 30.3027C27.3157 30.3027 27.5451 30.2487 27.7407 30.1591Z" fill="#C98089"/>
<path d="M26.182 29.1929C26.1815 29.1982 26.1793 29.2035 26.1793 29.2094V29.3673C26.1793 29.5051 26.3611 29.6185 26.5837 29.6185H27.552C27.7746 29.6185 27.9564 29.5056 27.9564 29.3673V29.2094C27.9564 29.2035 27.9543 29.1982 27.9538 29.1929H26.182Z" fill="#FDFCEF"/>
<path d="M27.0676 30.4088C26.3065 30.4088 25.6875 29.9423 25.6875 29.3689C25.6875 29.3016 25.697 29.2332 25.7145 29.1659C25.7267 29.1193 25.7691 29.0869 25.8168 29.0869H28.3189C28.3672 29.0869 28.409 29.1198 28.4212 29.1659C28.4387 29.2332 28.4483 29.3016 28.4483 29.3689C28.4483 29.9423 27.8287 30.4088 27.0676 30.4088ZM25.9037 29.2989C25.9011 29.3222 25.8995 29.3456 25.8995 29.3689C25.8995 29.8252 26.4231 30.1967 27.0676 30.1967C27.7121 30.1967 28.2357 29.8257 28.2357 29.3689C28.2357 29.3456 28.2341 29.3222 28.2315 29.2989H25.9037Z" fill="#472B29"/>
<path d="M31.076 27.7126C30.8057 28.4949 30.5243 29.1951 30.3165 29.6646C30.2291 29.8629 29.9344 29.8756 29.83 29.6848C29.653 29.3594 29.3482 29.0117 28.9375 28.8219C27.9405 28.3624 27.1657 28.9279 27.1657 28.9279C27.5807 28.9396 28.1197 29.0239 28.347 29.3991C29.1458 30.7172 27.2118 30.9313 27.1365 30.8614C27.0613 30.9319 25.1273 30.7172 25.926 29.3991C26.1534 29.0239 26.6924 28.9391 27.1074 28.9279C27.1074 28.9279 26.332 28.3624 25.3356 28.8219C24.9248 29.0117 24.6201 29.3594 24.4431 29.6848C24.3387 29.8761 24.044 29.8634 23.9565 29.6646C23.7663 29.2343 23.5145 28.6089 23.2659 27.9066C23.2304 28.3296 23.1652 28.7493 23.1292 29.1723C23.1409 29.2269 23.1525 29.2814 23.1652 29.335C23.3778 30.2407 23.6486 32.4121 26.5334 33.3646C26.8615 33.4732 27.4052 33.4737 27.7338 33.3667C30.4633 32.4779 30.8524 30.5243 31.0649 29.5316C31.0331 28.9269 31.049 28.3216 31.076 27.7126Z" fill="#512C2B"/>
</svg>
