<svg width="53" height="53" viewBox="0 0 53 53" fill="none" xmlns="http://www.w3.org/2000/svg">
<path d="M40.81 7.95C41.1027 7.95 41.34 7.71271 41.34 7.42C41.34 7.12729 41.1027 6.89 40.81 6.89C40.5173 6.89 40.28 7.12729 40.28 7.42C40.28 7.71271 40.5173 7.95 40.81 7.95Z" fill="#F1BC19"/>
<path opacity="0.2" d="M26.5 46.64C37.3303 46.64 46.11 37.8603 46.11 27.03C46.11 16.1997 37.3303 7.42 26.5 7.42C15.6697 7.42 6.89 16.1997 6.89 27.03C6.89 37.8603 15.6697 46.64 26.5 46.64Z" fill="white"/>
<path d="M43.99 10.6C45.1608 10.6 46.11 9.65084 46.11 8.48C46.11 7.30916 45.1608 6.36 43.99 6.36C42.8192 6.36 41.87 7.30916 41.87 8.48C41.87 9.65084 42.8192 10.6 43.99 10.6Z" fill="#F1BC19"/>
<path d="M46.11 14.31C46.6954 14.31 47.17 13.8354 47.17 13.25C47.17 12.6646 46.6954 12.19 46.11 12.19C45.5246 12.19 45.05 12.6646 45.05 13.25C45.05 13.8354 45.5246 14.31 46.11 14.31Z" fill="#88AE45"/>
<path d="M42.93 41.87C43.5154 41.87 43.99 41.3954 43.99 40.81C43.99 40.2246 43.5154 39.75 42.93 39.75C42.3446 39.75 41.87 40.2246 41.87 40.81C41.87 41.3954 42.3446 41.87 42.93 41.87Z" fill="#FBCD59"/>
<path d="M7.95 36.04C9.12085 36.04 10.07 35.0908 10.07 33.92C10.07 32.7492 9.12085 31.8 7.95 31.8C6.77916 31.8 5.83 32.7492 5.83 33.92C5.83 35.0908 6.77916 36.04 7.95 36.04Z" fill="#FBCD59"/>
<path d="M13.25 47.7C13.8354 47.7 14.31 47.2254 14.31 46.64C14.31 46.0546 13.8354 45.58 13.25 45.58C12.6646 45.58 12.19 46.0546 12.19 46.64C12.19 47.2254 12.6646 47.7 13.25 47.7Z" fill="#88AE45"/>
<path d="M9.805 29.15C10.5368 29.15 11.13 28.5568 11.13 27.825C11.13 27.0932 10.5368 26.5 9.805 26.5C9.07322 26.5 8.48 27.0932 8.48 27.825C8.48 28.5568 9.07322 29.15 9.805 29.15Z" fill="white"/>
<path d="M42.135 19.08C42.5741 19.08 42.93 18.7241 42.93 18.285C42.93 17.8459 42.5741 17.49 42.135 17.49C41.6959 17.49 41.34 17.8459 41.34 18.285C41.34 18.7241 41.6959 19.08 42.135 19.08Z" fill="white"/>
<path d="M18.2187 38.319C16.5604 38.319 15.211 36.9696 15.211 35.3113V18.7487C15.211 17.0904 16.5604 15.741 18.2187 15.741H34.7812C36.4396 15.741 37.789 17.0904 37.789 18.7487V35.3113C37.789 36.9696 36.4396 38.319 34.7812 38.319H18.2187Z" fill="#8889B9"/>
<path d="M34.7812 16.112C36.235 16.112 37.418 17.295 37.418 18.7488V35.3113C37.418 36.765 36.235 37.948 34.7812 37.948H18.2187C16.765 37.948 15.582 36.765 15.582 35.3113V18.7488C15.582 17.295 16.765 16.112 18.2187 16.112H34.7812ZM34.7812 15.37H18.2187C16.3526 15.37 14.84 16.8826 14.84 18.7488V35.3113C14.84 37.1774 16.3526 38.69 18.2187 38.69H34.7812C36.6474 38.69 38.16 37.1774 38.16 35.3113V18.7488C38.16 16.8826 36.6474 15.37 34.7812 15.37Z" fill="#472B29"/>
<path d="M34.4776 36.835H18.5224C17.5128 36.835 16.695 36.0167 16.695 35.0076V19.0524C16.695 18.0428 17.5133 17.225 18.5224 17.225H34.477C35.4867 17.225 36.3045 18.0433 36.3045 19.0524V35.007C36.305 36.0167 35.4867 36.835 34.4776 36.835Z" fill="white"/>
<path d="M16.695 24.2475C16.6219 24.2475 16.5625 24.1881 16.5625 24.115V18.8314C16.5625 17.8727 17.3427 17.0925 18.3014 17.0925H19.0466C19.1197 17.0925 19.1791 17.1519 19.1791 17.225C19.1791 17.2981 19.1197 17.3575 19.0466 17.3575H18.3014C17.4889 17.3575 16.8275 18.0189 16.8275 18.8314V24.115C16.8275 24.1881 16.7681 24.2475 16.695 24.2475Z" fill="#472B29"/>
<path d="M23.2209 36.9675H18.302C17.3427 36.9675 16.563 36.1873 16.563 35.2286V26.1025C16.563 26.0294 16.6224 25.97 16.6955 25.97C16.7687 25.97 16.828 26.0294 16.828 26.1025V35.2286C16.828 36.0416 17.4895 36.7025 18.302 36.7025H23.2209C23.294 36.7025 23.3534 36.7619 23.3534 36.835C23.3534 36.9081 23.2935 36.9675 23.2209 36.9675Z" fill="#472B29"/>
<path d="M30.7734 36.9675H24.9434C24.8703 36.9675 24.8109 36.9081 24.8109 36.835C24.8109 36.7619 24.8703 36.7025 24.9434 36.7025H30.7734C30.8465 36.7025 30.9059 36.7619 30.9059 36.835C30.9059 36.9081 30.846 36.9675 30.7734 36.9675Z" fill="#472B29"/>
<path d="M34.6986 36.9675H31.9659C31.8927 36.9675 31.8334 36.9081 31.8334 36.835C31.8334 36.7619 31.8927 36.7025 31.9659 36.7025H34.6986C35.5111 36.7025 36.1725 36.0411 36.1725 35.2286V33.0259C36.1725 32.9527 36.2319 32.8934 36.305 32.8934C36.3781 32.8934 36.4375 32.9527 36.4375 33.0259V35.2286C36.4375 36.1873 35.6573 36.9675 34.6986 36.9675Z" fill="#472B29"/>
<path d="M36.305 31.27C36.2319 31.27 36.1725 31.2106 36.1725 31.1375V18.8314C36.1725 18.0184 35.5111 17.3575 34.6986 17.3575H28.2559C28.1828 17.3575 28.1234 17.2981 28.1234 17.225C28.1234 17.1519 28.1828 17.0925 28.2559 17.0925H34.6986C35.6579 17.0925 36.4375 17.8727 36.4375 18.8314V31.1375C36.4375 31.2106 36.3781 31.27 36.305 31.27Z" fill="#472B29"/>
<path d="M26.5 17.3575H20.4712C20.3981 17.3575 20.3387 17.2981 20.3387 17.225C20.3387 17.1519 20.3981 17.0925 20.4712 17.0925H26.5C26.5731 17.0925 26.6325 17.1519 26.6325 17.225C26.6325 17.2981 26.5731 17.3575 26.5 17.3575Z" fill="#472B29"/>
<path d="M31.27 35.245C33.1726 35.245 34.715 33.7026 34.715 31.8C34.715 29.8974 33.1726 28.355 31.27 28.355C29.3674 28.355 27.825 29.8974 27.825 31.8C27.825 33.7026 29.3674 35.245 31.27 35.245Z" fill="#FBCD59"/>
<path d="M31.27 35.51C29.2247 35.51 27.56 33.8458 27.56 31.8C27.56 29.7542 29.2247 28.09 31.27 28.09C33.3153 28.09 34.98 29.7542 34.98 31.8C34.98 33.8458 33.3153 35.51 31.27 35.51ZM31.27 28.62C29.5162 28.62 28.09 30.0468 28.09 31.8C28.09 33.5532 29.5162 34.98 31.27 34.98C33.0238 34.98 34.45 33.5532 34.45 31.8C34.45 30.0468 33.0238 28.62 31.27 28.62Z" fill="#472B29"/>
<path d="M21.73 25.705C23.6326 25.705 25.175 24.1626 25.175 22.26C25.175 20.3574 23.6326 18.815 21.73 18.815C19.8274 18.815 18.285 20.3574 18.285 22.26C18.285 24.1626 19.8274 25.705 21.73 25.705Z" fill="#FBCD59"/>
<path d="M21.73 25.97C19.6847 25.97 18.02 24.3058 18.02 22.26C18.02 20.2142 19.6847 18.55 21.73 18.55C23.7753 18.55 25.44 20.2142 25.44 22.26C25.44 24.3058 23.7753 25.97 21.73 25.97ZM21.73 19.08C19.9762 19.08 18.55 20.5068 18.55 22.26C18.55 24.0132 19.9762 25.44 21.73 25.44C23.4838 25.44 24.91 24.0132 24.91 22.26C24.91 20.5068 23.4838 19.08 21.73 19.08Z" fill="#472B29"/>
<path d="M21.73 24.645C23.0472 24.645 24.115 23.5772 24.115 22.26C24.115 20.9428 23.0472 19.875 21.73 19.875C20.4128 19.875 19.345 20.9428 19.345 22.26C19.345 23.5772 20.4128 24.645 21.73 24.645Z" fill="#F1BC19"/>
<path d="M21.1343 20.9792V21.2805H20.8329V23.2395H21.1343V23.5408H21.4357V23.2395H21.7371V23.5408H22.0384V23.2253C22.0785 23.22 22.122 23.2177 22.1609 23.2112C22.2515 23.1812 22.3257 23.1482 22.401 23.1029C22.4611 23.0576 22.5205 22.9993 22.5658 22.924C22.6112 22.8486 22.6271 22.7703 22.6271 22.665C22.6271 22.5443 22.5788 22.4401 22.5188 22.3495C22.4434 22.2588 22.3528 22.2005 22.2174 22.1705C22.3227 22.1252 22.3981 22.0658 22.4434 22.0057C22.4887 21.9457 22.5188 21.8662 22.5188 21.7608C22.5188 21.6702 22.5064 21.5949 22.4764 21.5348C22.4464 21.4748 22.3999 21.4141 22.3398 21.3841C22.2798 21.3541 22.2186 21.3241 22.1279 21.3088C22.0985 21.3041 22.0685 21.2994 22.0384 21.2947V20.9792H21.7371V21.2805H21.4357V20.9792H21.1343ZM21.285 21.5819H21.7229C21.7683 21.5819 21.8106 21.5807 21.8407 21.596C21.886 21.596 21.919 21.6137 21.949 21.629C21.979 21.6443 22.009 21.6555 22.0243 21.6855C22.0396 21.7155 22.0526 21.7485 22.0526 21.7938C22.0526 21.8845 22.0373 21.9427 21.9772 21.9727C21.9172 22.0181 21.856 22.034 21.7653 22.034H21.285V21.5819ZM21.285 22.3353H21.8124C21.9178 22.3353 22.0102 22.3654 22.0855 22.4107C22.1609 22.456 22.1891 22.5455 22.1891 22.6508C22.1891 22.6962 22.1762 22.7574 22.1609 22.7874C22.1309 22.8327 22.0967 22.8616 22.0667 22.8769C22.0367 22.8922 21.9943 22.9087 21.949 22.924C21.9036 22.9393 21.8436 22.9381 21.7983 22.9381H21.285V22.3353Z" fill="#472B29"/>
<path d="M21.73 24.7775C20.3419 24.7775 19.2125 23.6481 19.2125 22.26C19.2125 20.8719 20.3419 19.7425 21.73 19.7425C23.1181 19.7425 24.2475 20.8719 24.2475 22.26C24.2475 23.6481 23.1181 24.7775 21.73 24.7775ZM21.73 20.0075C20.4877 20.0075 19.4775 21.0182 19.4775 22.26C19.4775 23.5018 20.4877 24.5125 21.73 24.5125C22.9723 24.5125 23.9825 23.5018 23.9825 22.26C23.9825 21.0182 22.9723 20.0075 21.73 20.0075Z" fill="#472B29"/>
<path d="M31.27 34.185C32.5872 34.185 33.655 33.1172 33.655 31.8C33.655 30.4828 32.5872 29.415 31.27 29.415C29.9528 29.415 28.885 30.4828 28.885 31.8C28.885 33.1172 29.9528 34.185 31.27 34.185Z" fill="#F1BC19"/>
<path d="M31.7798 30.9809C31.7588 30.9809 31.3105 30.9815 30.8784 30.9826C30.8742 30.9827 30.8704 30.9799 30.8704 30.9757L30.9176 30.6011C30.9195 30.592 30.9181 30.5845 30.9137 30.5786C30.9122 30.5767 30.9107 30.5749 30.9091 30.5732C30.9031 30.5666 30.8955 30.5633 30.8862 30.5633H30.5429C30.5324 30.5633 30.523 30.5675 30.5146 30.5759C30.5083 30.5822 30.5041 30.5906 30.502 30.6011L30.4547 30.9757C30.4547 30.9809 30.4498 30.9841 30.4446 30.9841C30.2457 30.985 30.1374 30.986 30.1133 30.9872C30.0915 30.9892 30.0781 31.0015 30.0731 31.0241C30.0726 31.0268 30.0724 31.0295 30.0724 31.0322L30.0333 31.3272C30.0333 31.3381 30.0343 31.3439 30.0428 31.3524C30.0513 31.3609 30.0575 31.365 30.068 31.365H31.6507C31.7515 31.365 31.8019 31.4164 31.8019 31.5192C31.8019 31.5402 31.8008 31.557 31.7987 31.5696L31.7721 31.807C31.7678 31.8455 31.7721 31.8625 31.8212 31.8625H32.1373C32.1623 31.8625 32.1833 31.8439 32.1864 31.8191L32.2364 31.3933C32.2406 31.3555 32.2427 31.3283 32.2427 31.3115C32.2427 31.1855 32.2049 31.0984 32.1293 31.0502C32.0517 31.004 31.9352 30.9809 31.7798 30.9809Z" fill="#472B29"/>
<path d="M30.7679 31.8013C30.7727 31.7651 30.7664 31.7458 30.7188 31.7458H30.4027C30.3777 31.7458 30.3567 31.7644 30.3536 31.7892L30.3036 32.2067C30.2994 32.2445 30.2973 32.2717 30.2973 32.2885C30.2973 32.4145 30.3351 32.5016 30.4107 32.5498C30.4883 32.596 30.6048 32.6191 30.7602 32.6191C30.7812 32.6191 31.2295 32.6185 31.6616 32.6174C31.6658 32.6173 31.6696 32.6201 31.6696 32.6243L31.6224 32.9989C31.6205 33.008 31.6219 33.0155 31.6263 33.0214C31.6278 33.0233 31.6293 33.0251 31.6309 33.0268C31.6369 33.0334 31.6445 33.0367 31.6538 33.0367H31.9971C32.0076 33.0367 32.017 33.0325 32.0254 33.0241C32.0317 33.0178 32.0359 33.0094 32.038 32.9989L32.0853 32.6243C32.0853 32.6191 32.0902 32.6159 32.0954 32.6159C32.2943 32.615 32.4038 32.614 32.4278 32.6128C32.4497 32.6108 32.4631 32.5985 32.468 32.5759C32.4686 32.5732 32.4688 32.5705 32.4688 32.5678L32.5067 32.2728C32.5067 32.2619 32.5057 32.2561 32.4972 32.2476C32.4887 32.2391 32.4825 32.235 32.472 32.235H30.8893C30.7885 32.235 30.7381 32.1836 30.7381 32.0808C30.7381 32.0598 30.7392 32.043 30.7413 32.0304L30.7679 31.8013Z" fill="#472B29"/>
<path d="M26.4337 32.33H23.9491C22.7259 32.33 21.73 31.3347 21.73 30.1109V26.9971C21.73 26.8509 21.8487 26.7321 21.995 26.7321C22.1413 26.7321 22.26 26.8509 22.26 26.9971V30.1109C22.26 31.0421 23.0179 31.8 23.9496 31.8H26.4343C26.5806 31.8 26.6993 31.9187 26.6993 32.065C26.6993 32.2113 26.58 32.33 26.4337 32.33Z" fill="#472B29"/>
<path d="M31.005 27.1296C30.8587 27.1296 30.74 27.0109 30.74 26.8646V24.4796C30.74 23.5479 29.9821 22.79 29.0509 22.79H26.3675C26.2212 22.79 26.1025 22.6713 26.1025 22.525C26.1025 22.3787 26.2212 22.26 26.3675 22.26H29.0509C30.2741 22.26 31.27 23.2553 31.27 24.4796V26.8646C31.27 27.0109 31.1513 27.1296 31.005 27.1296Z" fill="#472B29"/>
<path d="M31.27 34.3175C29.8819 34.3175 28.7525 33.1881 28.7525 31.8C28.7525 30.4119 29.8819 29.2825 31.27 29.2825C32.6581 29.2825 33.7875 30.4119 33.7875 31.8C33.7875 33.1881 32.6581 34.3175 31.27 34.3175ZM31.27 29.5475C30.0277 29.5475 29.0175 30.5582 29.0175 31.8C29.0175 33.0418 30.0277 34.0525 31.27 34.0525C32.5123 34.0525 33.5225 33.0418 33.5225 31.8C33.5225 30.5582 32.5123 29.5475 31.27 29.5475Z" fill="#472B29"/>
<path d="M31.005 27.56C30.9372 27.56 30.8693 27.534 30.8174 27.4826L29.7574 26.4226C29.654 26.3193 29.654 26.1513 29.7574 26.0479C29.8607 25.9446 30.0287 25.9446 30.1321 26.0479L31.0045 26.9203L31.8769 26.0479C31.9802 25.9446 32.1482 25.9446 32.2516 26.0479C32.3549 26.1513 32.3549 26.3193 32.2516 26.4226L31.1916 27.4826C31.1407 27.534 31.0728 27.56 31.005 27.56Z" fill="#472B29"/>
<path d="M23.055 28.09C22.9872 28.09 22.9193 28.064 22.8674 28.0126L21.995 27.1397L21.1226 28.0121C21.0193 28.1154 20.8513 28.1154 20.7479 28.0121C20.6446 27.9087 20.6446 27.7407 20.7479 27.6374L21.8079 26.5774C21.9113 26.474 22.0793 26.474 22.1826 26.5774L23.2426 27.6374C23.346 27.7407 23.346 27.9087 23.2426 28.0121C23.1907 28.064 23.1228 28.09 23.055 28.09Z" fill="#472B29"/>
</svg>
