<svg width="53" height="53" viewBox="0 0 53 53" fill="none" xmlns="http://www.w3.org/2000/svg">
<path d="M40.81 6.36C40.6694 6.36 40.5346 6.41584 40.4352 6.51523C40.3358 6.61463 40.28 6.74944 40.28 6.89C40.28 7.03057 40.3358 7.16537 40.4352 7.26477C40.5346 7.36416 40.6694 7.42 40.81 7.42C40.9506 7.42 41.0854 7.36416 41.1848 7.26477C41.2842 7.16537 41.34 7.03057 41.34 6.89C41.34 6.74944 41.2842 6.61463 41.1848 6.51523C41.0854 6.41584 40.9506 6.36 40.81 6.36Z" fill="#F1BC19"/>
<path opacity="0.2" d="M26.5 6.89C21.2991 6.89 16.3112 8.95605 12.6337 12.6336C8.95606 16.3112 6.89001 21.2991 6.89001 26.5C6.89001 31.7009 8.95606 36.6888 12.6337 40.3664C16.3112 44.044 21.2991 46.11 26.5 46.11C31.7009 46.11 36.6888 44.044 40.3664 40.3664C44.044 36.6888 46.11 31.7009 46.11 26.5C46.11 21.2991 44.044 16.3112 40.3664 12.6336C36.6888 8.95605 31.7009 6.89 26.5 6.89V6.89Z" fill="white"/>
<path d="M43.99 5.83C43.4277 5.83 42.8885 6.05336 42.4909 6.45094C42.0933 6.84851 41.87 7.38774 41.87 7.95C41.87 8.51226 42.0933 9.05149 42.4909 9.44907C42.8885 9.84664 43.4277 10.07 43.99 10.07C44.5523 10.07 45.0915 9.84664 45.4891 9.44907C45.8866 9.05149 46.11 8.51226 46.11 7.95C46.11 7.38774 45.8866 6.84851 45.4891 6.45094C45.0915 6.05336 44.5523 5.83 43.99 5.83V5.83Z" fill="#F1BC19"/>
<path d="M46.11 11.66C45.8289 11.66 45.5592 11.7717 45.3605 11.9705C45.1617 12.1693 45.05 12.4389 45.05 12.72C45.05 13.0011 45.1617 13.2707 45.3605 13.4695C45.5592 13.6683 45.8289 13.78 46.11 13.78C46.3911 13.78 46.6607 13.6683 46.8595 13.4695C47.0583 13.2707 47.17 13.0011 47.17 12.72C47.17 12.4389 47.0583 12.1693 46.8595 11.9705C46.6607 11.7717 46.3911 11.66 46.11 11.66Z" fill="#8889B9"/>
<path d="M42.93 39.22C42.6489 39.22 42.3792 39.3317 42.1805 39.5305C41.9817 39.7293 41.87 39.9989 41.87 40.28C41.87 40.5611 41.9817 40.8307 42.1805 41.0295C42.3792 41.2283 42.6489 41.34 42.93 41.34C43.2111 41.34 43.4807 41.2283 43.6795 41.0295C43.8783 40.8307 43.99 40.5611 43.99 40.28C43.99 39.9989 43.8783 39.7293 43.6795 39.5305C43.4807 39.3317 43.2111 39.22 42.93 39.22ZM7.94999 31.27C7.38773 31.27 6.8485 31.4934 6.45092 31.8909C6.05334 32.2885 5.82999 32.8277 5.82999 33.39C5.82999 33.9523 6.05334 34.4915 6.45092 34.8891C6.8485 35.2866 7.38773 35.51 7.94999 35.51C8.51225 35.51 9.05148 35.2866 9.44905 34.8891C9.84663 34.4915 10.07 33.9523 10.07 33.39C10.07 32.8277 9.84663 32.2885 9.44905 31.8909C9.05148 31.4934 8.51225 31.27 7.94999 31.27Z" fill="#FBCD59"/>
<path d="M13.25 45.05C12.9689 45.05 12.6993 45.1617 12.5005 45.3605C12.3017 45.5593 12.19 45.8289 12.19 46.11C12.19 46.3911 12.3017 46.6607 12.5005 46.8595C12.6993 47.0583 12.9689 47.17 13.25 47.17C13.5311 47.17 13.8007 47.0583 13.9995 46.8595C14.1983 46.6607 14.31 46.3911 14.31 46.11C14.31 45.8289 14.1983 45.5593 13.9995 45.3605C13.8007 45.1617 13.5311 45.05 13.25 45.05Z" fill="#8889B9"/>
<path d="M42.135 16.96C41.9241 16.96 41.7219 17.0438 41.5728 17.1928C41.4238 17.3419 41.34 17.5442 41.34 17.755C41.34 17.9658 41.4238 18.1681 41.5728 18.3171C41.7219 18.4662 41.9241 18.55 42.135 18.55C42.3458 18.55 42.5481 18.4662 42.6971 18.3171C42.8462 18.1681 42.93 17.9658 42.93 17.755C42.93 17.5442 42.8462 17.3419 42.6971 17.1928C42.5481 17.0438 42.3458 16.96 42.135 16.96Z" fill="white"/>
<path d="M25.811 16.801H27.189V38.849H25.811V16.801Z" fill="#F1BC19"/>
<path d="M26.818 17.172V38.478H26.182V17.172H26.818ZM27.56 16.43H25.44V39.22H27.56V16.43Z" fill="#472B29"/>
<path d="M12.6686 28.249C11.8174 28.249 11.0643 26.8938 10.9789 25.281H21.8805C21.7952 26.8938 21.0421 28.249 20.1909 28.249H12.6686Z" fill="#F1BC19"/>
<path d="M21.4783 25.652C21.3118 27.03 20.6599 27.878 20.1914 27.878H12.6686C12.2001 27.878 11.5482 27.03 11.3818 25.652H21.4783ZM22.2579 24.91H10.6021C10.6021 24.9323 10.6 24.954 10.6 24.9763C10.6 26.9802 11.5307 28.62 12.6686 28.62H20.1909C21.3293 28.62 22.26 26.9807 22.26 24.9763C22.26 24.9545 22.2579 24.9328 22.2579 24.91Z" fill="#472B29"/>
<path d="M21.2 24.115C21.1274 24.115 21.0553 24.0853 21.0028 24.0276L16.43 18.9459L11.8572 24.0276C11.7591 24.1362 11.5922 24.1452 11.483 24.0472C11.3743 23.9486 11.3653 23.7816 11.4634 23.6725L16.2334 18.3725C16.3335 18.2617 16.527 18.2617 16.6272 18.3725L21.3972 23.6725C21.4952 23.7816 21.4862 23.9486 21.3776 24.0472C21.3267 24.0927 21.2631 24.115 21.2 24.115Z" fill="#472B29"/>
<path d="M32.8086 28.249C31.9574 28.249 31.2043 26.8938 31.119 25.281H42.0205C41.9352 26.8938 41.1821 28.249 40.3309 28.249H32.8086Z" fill="#F1BC19"/>
<path d="M41.6182 25.652C41.4518 27.03 40.7999 27.878 40.3314 27.878H32.8086C32.3401 27.878 31.6882 27.03 31.5217 25.652H41.6182ZM42.3979 24.91H30.7421C30.7421 24.9323 30.74 24.954 30.74 24.9763C30.74 26.9802 31.6707 28.62 32.8086 28.62H40.3309C41.4693 28.62 42.4 26.9807 42.4 24.9763C42.4 24.9545 42.3979 24.9328 42.3979 24.91Z" fill="#472B29"/>
<path d="M41.34 24.115C41.269 24.115 41.1974 24.0864 41.1455 24.0302L36.4375 18.9401L31.7295 24.0302C31.6299 24.1373 31.4618 24.1431 31.3548 24.0445C31.2472 23.9449 31.2408 23.7774 31.3399 23.6698L36.2425 18.3698C36.3426 18.2622 36.5313 18.2622 36.6315 18.3698L41.534 23.6698C41.6336 23.7774 41.6267 23.9454 41.5191 24.0445C41.4688 24.0917 41.4047 24.115 41.34 24.115Z" fill="#472B29"/>
<path d="M14.681 15.741H38.319V17.119H14.681V15.741Z" fill="#F1BC19"/>
<path d="M37.948 16.112V16.748H15.052V16.112H37.948ZM38.69 15.37H14.31V17.49H38.69V15.37Z" fill="#472B29"/>
<path d="M18.4037 39.379C18.5309 37.7116 19.6598 36.411 21.0293 36.411H31.9712C33.3434 36.411 34.4738 37.7169 34.5984 39.379H18.4037Z" fill="#F1BC19"/>
<path d="M31.9706 36.782C33.0185 36.782 33.9274 37.7477 34.1728 39.008H18.8266C19.0715 37.7482 19.981 36.782 21.0293 36.782H31.9706ZM31.9706 36.04H21.0293C19.3741 36.04 18.02 37.6793 18.02 39.6837C18.02 39.706 18.0226 39.7277 18.0226 39.75H34.9779C34.9779 39.7277 34.98 39.706 34.98 39.6837C34.98 37.6798 33.6258 36.04 31.9706 36.04Z" fill="#472B29"/>
<path d="M26.765 38.5575H19.875C19.8019 38.5575 19.7425 38.4981 19.7425 38.425C19.7425 38.3519 19.8019 38.2925 19.875 38.2925H26.765C26.8381 38.2925 26.8975 38.3519 26.8975 38.425C26.8975 38.4981 26.8381 38.5575 26.765 38.5575Z" fill="#472B29"/>
<path d="M29.415 38.5575H28.355C28.2819 38.5575 28.2225 38.4981 28.2225 38.425C28.2225 38.3519 28.2819 38.2925 28.355 38.2925H29.415C29.4881 38.2925 29.5475 38.3519 29.5475 38.425C29.5475 38.4981 29.4881 38.5575 29.415 38.5575Z" fill="#472B29"/>
<path d="M32.595 38.5575H30.475C30.4019 38.5575 30.3425 38.4981 30.3425 38.425C30.3425 38.3519 30.4019 38.2925 30.475 38.2925H32.595C32.6681 38.2925 32.7275 38.3519 32.7275 38.425C32.7275 38.4981 32.6681 38.5575 32.595 38.5575Z" fill="#472B29"/>
</svg>
