<svg width="53" height="53" viewBox="0 0 53 53" fill="none" xmlns="http://www.w3.org/2000/svg">
<path d="M41.34 7.95C41.6327 7.95 41.87 7.71271 41.87 7.42C41.87 7.12729 41.6327 6.89 41.34 6.89C41.0473 6.89 40.81 7.12729 40.81 7.42C40.81 7.71271 41.0473 7.95 41.34 7.95Z" fill="#F1BC19"/>
<path opacity="0.2" d="M26.5 46.64C37.623 46.64 46.64 37.623 46.64 26.5C46.64 15.377 37.623 6.36 26.5 6.36C15.377 6.36 6.35999 15.377 6.35999 26.5C6.35999 37.623 15.377 46.64 26.5 46.64Z" fill="white"/>
<path d="M44.52 10.6C45.6908 10.6 46.64 9.65084 46.64 8.48C46.64 7.30916 45.6908 6.36 44.52 6.36C43.3491 6.36 42.4 7.30916 42.4 8.48C42.4 9.65084 43.3491 10.6 44.52 10.6Z" fill="#F1BC19"/>
<path d="M7.41999 14.84C8.00541 14.84 8.47999 14.3654 8.47999 13.78C8.47999 13.1946 8.00541 12.72 7.41999 12.72C6.83456 12.72 6.35999 13.1946 6.35999 13.78C6.35999 14.3654 6.83456 14.84 7.41999 14.84Z" fill="#C98089"/>
<path d="M41.34 41.87C41.9254 41.87 42.4 41.3954 42.4 40.81C42.4 40.2246 41.9254 39.75 41.34 39.75C40.7546 39.75 40.28 40.2246 40.28 40.81C40.28 41.3954 40.7546 41.87 41.34 41.87Z" fill="#FBCD59"/>
<path d="M9.01001 43.46C10.1809 43.46 11.13 42.5108 11.13 41.34C11.13 40.1692 10.1809 39.22 9.01001 39.22C7.83917 39.22 6.89001 40.1692 6.89001 41.34C6.89001 42.5108 7.83917 43.46 9.01001 43.46Z" fill="#FBCD59"/>
<path d="M12.72 45.05C13.3054 45.05 13.78 44.5754 13.78 43.99C13.78 43.4046 13.3054 42.93 12.72 42.93C12.1346 42.93 11.66 43.4046 11.66 43.99C11.66 44.5754 12.1346 45.05 12.72 45.05Z" fill="#C98089"/>
<path d="M34.176 42.93C34.9028 42.93 35.492 42.3408 35.492 41.614C35.492 40.8872 34.9028 40.298 34.176 40.298C33.4492 40.298 32.86 40.8872 32.86 41.614C32.86 42.3408 33.4492 42.93 34.176 42.93Z" fill="white"/>
<path d="M8.48001 25.97C8.77272 25.97 9.01001 25.7327 9.01001 25.44C9.01001 25.1473 8.77272 24.91 8.48001 24.91C8.1873 24.91 7.95001 25.1473 7.95001 25.44C7.95001 25.7327 8.1873 25.97 8.48001 25.97Z" fill="white"/>
<path d="M45.58 16.96C45.8727 16.96 46.11 16.7227 46.11 16.43C46.11 16.1373 45.8727 15.9 45.58 15.9C45.2873 15.9 45.05 16.1373 45.05 16.43C45.05 16.7227 45.2873 16.96 45.58 16.96Z" fill="#F1BC19"/>
<path d="M44.52 24.91C45.1054 24.91 45.58 24.4354 45.58 23.85C45.58 23.2646 45.1054 22.79 44.52 22.79C43.9346 22.79 43.46 23.2646 43.46 23.85C43.46 24.4354 43.9346 24.91 44.52 24.91Z" fill="white"/>
<path d="M37.3783 37.63H15.6218C14.019 37.63 12.72 36.331 12.72 34.7282V18.8017C12.72 17.199 14.019 15.9 15.6218 15.9H37.3777C38.981 15.9 40.28 17.199 40.28 18.8017V34.7277C40.28 36.331 38.981 37.63 37.3783 37.63Z" fill="#F4E238"/>
<path d="M31.27 35.51H16.43C15.5534 35.51 14.84 34.7966 14.84 33.92V19.61C14.84 18.7334 15.5534 18.02 16.43 18.02H18.3735C18.5198 18.02 18.6385 18.1387 18.6385 18.285C18.6385 18.4313 18.5198 18.55 18.3735 18.55H16.43C15.8454 18.55 15.37 19.0254 15.37 19.61V33.92C15.37 34.5046 15.8454 34.98 16.43 34.98H31.27C31.4163 34.98 31.535 35.0987 31.535 35.245C31.535 35.3913 31.4163 35.51 31.27 35.51Z" fill="#472B29"/>
<path d="M36.57 35.51H33.125C32.9787 35.51 32.86 35.3913 32.86 35.245C32.86 35.0987 32.9787 34.98 33.125 34.98H36.57C37.1546 34.98 37.63 34.5046 37.63 33.92V19.61C37.63 19.0254 37.1546 18.55 36.57 18.55H27.781C27.6347 18.55 27.516 18.4313 27.516 18.285C27.516 18.1387 27.6347 18.02 27.781 18.02H36.57C37.4466 18.02 38.16 18.7334 38.16 19.61V33.92C38.16 34.7966 37.4466 35.51 36.57 35.51Z" fill="#472B29"/>
<path d="M25.749 18.55H20.2725C20.1262 18.55 20.0075 18.4313 20.0075 18.285C20.0075 18.1387 20.1262 18.02 20.2725 18.02H25.749C25.8953 18.02 26.014 18.1387 26.014 18.285C26.014 18.4313 25.8953 18.55 25.749 18.55Z" fill="#472B29"/>
<path d="M37.3783 16.642C38.5692 16.642 39.538 17.6114 39.538 18.8023V34.7282C39.538 35.9192 38.5692 36.8885 37.3783 36.8885H15.6218C14.4308 36.8885 13.462 35.9192 13.462 34.7282V18.8023C13.462 17.6114 14.4308 16.642 15.6218 16.642H37.3783ZM37.3783 15.9H15.6218C14.019 15.9 12.72 17.199 12.72 18.8023V34.7282C12.72 36.331 14.019 37.63 15.6218 37.63H37.3777C38.981 37.63 40.28 36.331 40.28 34.7277V18.8023C40.28 17.199 38.981 15.9 37.3783 15.9Z" fill="#472B29"/>
<path d="M18.6412 30.545C18.6412 30.4973 18.6449 30.4612 18.6528 30.4374L21.0267 22.6898C21.1285 22.4036 21.4115 22.26 21.8768 22.26C22.3506 22.26 22.6374 22.3936 22.7397 22.6607L25.1066 30.4072C25.122 30.4575 25.13 30.4946 25.13 30.52C25.13 30.67 25.0377 30.7999 24.8517 30.908C24.6657 31.0167 24.4685 31.0707 24.2602 31.0707C24.009 31.0707 23.8527 30.9843 23.7922 30.8105L23.2972 29.0981H20.3594L19.8702 30.8057C19.8146 30.9822 19.6667 31.0702 19.4288 31.0702C19.238 31.0702 19.0593 31.0188 18.8919 30.9149C18.7249 30.8115 18.6412 30.6886 18.6412 30.545ZM20.6462 28.0937H23.019L21.8206 23.991L20.6462 28.0937Z" fill="#472B29"/>
<path d="M25.9774 30.652V22.7381C25.9774 22.6268 26.023 22.5308 26.1147 22.4513C26.2064 22.3718 26.324 22.3315 26.4677 22.3315H28.7986C29.5952 22.3315 30.2307 22.543 30.7055 22.9649C31.1794 23.3873 31.4168 24.0525 31.4168 24.9614V25.0568C31.4168 25.9652 31.1714 26.633 30.6812 27.0592C30.192 27.4858 29.5401 27.6989 28.7265 27.6989H27.2446V30.6515C27.2446 30.7792 27.1826 30.8805 27.0586 30.9562C26.9351 31.032 26.7851 31.0697 26.6102 31.0697C26.4428 31.0697 26.2959 31.032 26.1687 30.9562C26.0405 30.881 25.9774 30.7792 25.9774 30.652ZM27.2446 26.695H28.7265C29.1807 26.695 29.5321 26.5657 29.7791 26.3065C30.025 26.0479 30.1496 25.6589 30.1496 25.1411V24.9975C30.1496 24.4796 30.025 24.0933 29.7791 23.8378C29.5321 23.5829 29.1807 23.4552 28.7265 23.4552H27.2446V26.695Z" fill="#472B29"/>
<path d="M32.4922 30.652V22.7381C32.4922 22.6029 32.5537 22.5011 32.6772 22.4333C32.8006 22.3655 32.9506 22.3315 33.1255 22.3315C33.3004 22.3315 33.4504 22.3655 33.5739 22.4333C33.6974 22.5011 33.76 22.6029 33.76 22.7381V30.6515C33.76 30.7792 33.6979 30.8805 33.5739 30.9562C33.4504 31.032 33.3004 31.0697 33.1255 31.0697C32.9581 31.0697 32.8112 31.032 32.684 30.9562C32.5553 30.881 32.4922 30.7792 32.4922 30.652Z" fill="#472B29"/>
</svg>
