<svg width="53" height="53" viewBox="0 0 53 53" fill="none" xmlns="http://www.w3.org/2000/svg">
<path d="M40.81 6.36C40.6694 6.36 40.5346 6.41584 40.4352 6.51523C40.3358 6.61463 40.28 6.74944 40.28 6.89C40.28 7.03057 40.3358 7.16537 40.4352 7.26477C40.5346 7.36416 40.6694 7.42 40.81 7.42C40.9506 7.42 41.0854 7.36416 41.1848 7.26477C41.2842 7.16537 41.34 7.03057 41.34 6.89C41.34 6.74944 41.2842 6.61463 41.1848 6.51523C41.0854 6.41584 40.9506 6.36 40.81 6.36Z" fill="#F1BC19"/>
<path opacity="0.2" d="M26.5 6.89C21.2991 6.89 16.3112 8.95605 12.6336 12.6336C8.95605 16.3112 6.89 21.2991 6.89 26.5C6.89 31.7009 8.95605 36.6888 12.6336 40.3664C16.3112 44.044 21.2991 46.11 26.5 46.11C31.7009 46.11 36.6888 44.044 40.3664 40.3664C44.044 36.6888 46.11 31.7009 46.11 26.5C46.11 21.2991 44.044 16.3112 40.3664 12.6336C36.6888 8.95605 31.7009 6.89 26.5 6.89V6.89Z" fill="white"/>
<path d="M43.99 5.83C43.4277 5.83 42.8885 6.05336 42.4909 6.45094C42.0934 6.84851 41.87 7.38774 41.87 7.95C41.87 8.51226 42.0934 9.05149 42.4909 9.44907C42.8885 9.84664 43.4277 10.07 43.99 10.07C44.5523 10.07 45.0915 9.84664 45.4891 9.44907C45.8866 9.05149 46.11 8.51226 46.11 7.95C46.11 7.38774 45.8866 6.84851 45.4891 6.45094C45.0915 6.05336 44.5523 5.83 43.99 5.83V5.83Z" fill="#F1BC19"/>
<path d="M46.11 11.66C45.8289 11.66 45.5593 11.7717 45.3605 11.9705C45.1617 12.1693 45.05 12.4389 45.05 12.72C45.05 13.0011 45.1617 13.2707 45.3605 13.4695C45.5593 13.6683 45.8289 13.78 46.11 13.78C46.3911 13.78 46.6607 13.6683 46.8595 13.4695C47.0583 13.2707 47.17 13.0011 47.17 12.72C47.17 12.4389 47.0583 12.1693 46.8595 11.9705C46.6607 11.7717 46.3911 11.66 46.11 11.66Z" fill="#88AE45"/>
<path d="M42.93 39.22C42.6489 39.22 42.3793 39.3317 42.1805 39.5305C41.9817 39.7293 41.87 39.9989 41.87 40.28C41.87 40.5611 41.9817 40.8307 42.1805 41.0295C42.3793 41.2283 42.6489 41.34 42.93 41.34C43.2111 41.34 43.4807 41.2283 43.6795 41.0295C43.8783 40.8307 43.99 40.5611 43.99 40.28C43.99 39.9989 43.8783 39.7293 43.6795 39.5305C43.4807 39.3317 43.2111 39.22 42.93 39.22ZM7.95 31.27C7.38774 31.27 6.84851 31.4934 6.45094 31.8909C6.05336 32.2885 5.83 32.8277 5.83 33.39C5.83 33.9523 6.05336 34.4915 6.45094 34.8891C6.84851 35.2866 7.38774 35.51 7.95 35.51C8.51226 35.51 9.05149 35.2866 9.44907 34.8891C9.84664 34.4915 10.07 33.9523 10.07 33.39C10.07 32.8277 9.84664 32.2885 9.44907 31.8909C9.05149 31.4934 8.51226 31.27 7.95 31.27Z" fill="#FBCD59"/>
<path d="M13.25 45.05C12.9689 45.05 12.6993 45.1617 12.5005 45.3605C12.3017 45.5593 12.19 45.8289 12.19 46.11C12.19 46.3911 12.3017 46.6607 12.5005 46.8595C12.6993 47.0583 12.9689 47.17 13.25 47.17C13.5311 47.17 13.8007 47.0583 13.9995 46.8595C14.1983 46.6607 14.31 46.3911 14.31 46.11C14.31 45.8289 14.1983 45.5593 13.9995 45.3605C13.8007 45.1617 13.5311 45.05 13.25 45.05Z" fill="#88AE45"/>
<path d="M9.805 25.97C9.45358 25.97 9.11656 26.1096 8.86808 26.3581C8.61959 26.6066 8.48 26.9436 8.48 27.295C8.48 27.6464 8.61959 27.9834 8.86808 28.2319C9.11656 28.4804 9.45358 28.62 9.805 28.62C10.1564 28.62 10.4934 28.4804 10.7419 28.2319C10.9904 27.9834 11.13 27.6464 11.13 27.295C11.13 26.9436 10.9904 26.6066 10.7419 26.3581C10.4934 26.1096 10.1564 25.97 9.805 25.97ZM42.135 16.96C41.9242 16.96 41.7219 17.0438 41.5728 17.1928C41.4238 17.3419 41.34 17.5442 41.34 17.755C41.34 17.9658 41.4238 18.1681 41.5728 18.3171C41.7219 18.4662 41.9242 18.55 42.135 18.55C42.3458 18.55 42.5481 18.4662 42.6971 18.3171C42.8462 18.1681 42.93 17.9658 42.93 17.755C42.93 17.5442 42.8462 17.3419 42.6971 17.1928C42.5481 17.0438 42.3458 16.96 42.135 16.96Z" fill="white"/>
<path d="M24.91 38.849C19.831 38.849 15.741 36.7327 15.741 34.98V16.801H34.079V34.98C34.079 36.7327 29.989 38.849 24.91 38.849Z" fill="#D9C72A"/>
<path d="M33.708 17.172V34.98C33.708 36.3887 30.0139 38.478 24.91 38.478C19.8061 38.478 16.112 36.3887 16.112 34.98V17.172H33.708ZM34.45 16.43H15.37V34.98C15.37 37.029 19.6413 39.22 24.91 39.22C30.1787 39.22 34.45 37.029 34.45 34.98V16.43Z" fill="#472B29"/>
<path d="M24.91 13.091C23.7059 13.091 22.5136 13.1774 21.4012 13.3452C20.2887 13.513 19.278 13.7589 18.4265 14.069C17.5751 14.379 16.8997 14.7471 16.4389 15.1522C15.9782 15.5573 15.741 15.9915 15.741 16.43C15.741 16.8685 15.9782 17.3027 16.4389 17.7078C16.8997 18.1129 17.5751 18.481 18.4265 18.791C19.278 19.1011 20.2887 19.347 21.4012 19.5148C22.5136 19.6826 23.7059 19.769 24.91 19.769C26.1141 19.769 27.3064 19.6826 28.4188 19.5148C29.5313 19.347 30.542 19.1011 31.3935 18.791C32.2449 18.481 32.9203 18.1129 33.381 17.7078C33.8418 17.3027 34.079 16.8685 34.079 16.43C34.079 15.9915 33.8418 15.5573 33.381 15.1522C32.9203 14.7471 32.2449 14.379 31.3935 14.069C30.542 13.7589 29.5313 13.513 28.4188 13.3452C27.3064 13.1774 26.1141 13.091 24.91 13.091V13.091Z" fill="#D9C72A"/>
<path d="M24.91 13.462C30.361 13.462 33.708 15.1909 33.708 16.43C33.708 17.6691 30.361 19.398 24.91 19.398C19.4589 19.398 16.112 17.6691 16.112 16.43C16.112 15.1909 19.4589 13.462 24.91 13.462ZM24.91 12.72C19.6413 12.72 15.37 14.381 15.37 16.43C15.37 18.479 19.6413 20.14 24.91 20.14C30.1787 20.14 34.45 18.479 34.45 16.43C34.45 14.381 30.1787 12.72 24.91 12.72Z" fill="#472B29"/>
<path d="M18.5049 25.2084C18.4731 25.2084 18.4413 25.2026 18.4106 25.1909C16.4496 24.4415 15.37 23.4006 15.37 22.26C15.37 22.1137 15.4887 21.995 15.635 21.995C15.7813 21.995 15.9 22.1137 15.9 22.26C15.9 23.1525 16.8837 24.0403 18.5993 24.6959C18.736 24.7483 18.8044 24.9015 18.7525 25.0383C18.7122 25.1432 18.6115 25.2084 18.5049 25.2084ZM21.9128 26.0368C21.9012 26.0368 21.889 26.0362 21.8768 26.0341C21.0378 25.9202 20.2412 25.758 19.5093 25.5524C19.3683 25.5126 19.2862 25.3663 19.3259 25.2253C19.3657 25.0849 19.5135 25.0049 19.6529 25.042C20.3615 25.2412 21.1337 25.3987 21.9484 25.5094C22.093 25.529 22.1948 25.6626 22.1752 25.8078C22.1572 25.9403 22.0438 26.0368 21.9128 26.0368ZM24.91 26.235C24.3954 26.235 23.8781 26.218 23.3725 26.1846C23.2262 26.1746 23.1159 26.0484 23.1255 25.9027C23.1356 25.7569 23.2628 25.6446 23.4074 25.6557C23.9014 25.6886 24.407 25.705 24.91 25.705C29.7939 25.705 33.92 24.1272 33.92 22.26C33.92 22.1137 34.0387 21.995 34.185 21.995C34.3313 21.995 34.45 22.1137 34.45 22.26C34.45 24.4892 30.2598 26.235 24.91 26.235Z" fill="#472B29"/>
<path d="M17.7375 31.2371C17.6988 31.2371 17.6591 31.2281 17.6214 31.2101C16.1486 30.4925 15.37 29.5973 15.37 28.62C15.37 28.4737 15.4887 28.355 15.635 28.355C15.7813 28.355 15.9 28.4737 15.9 28.62C15.9 29.3694 16.5938 30.1204 17.8541 30.7342C17.9855 30.7983 18.0401 30.9568 17.976 31.0882C17.9299 31.1825 17.8356 31.2371 17.7375 31.2371ZM24.91 32.595C23.0258 32.595 21.2069 32.3724 19.6503 31.9505C19.5088 31.9124 19.4256 31.7666 19.4637 31.6256C19.5019 31.4836 19.646 31.3998 19.7886 31.4391C21.3007 31.8488 23.072 32.065 24.91 32.065C29.7939 32.065 33.92 30.4872 33.92 28.62C33.92 28.4737 34.0387 28.355 34.185 28.355C34.3313 28.355 34.45 28.4737 34.45 28.62C34.45 30.8492 30.2598 32.595 24.91 32.595Z" fill="#472B29"/>
<path d="M30.7845 40.3425C30.307 40.209 29.8459 40.0214 29.4097 39.7823C29.6519 38.9926 29.4728 38.2798 28.8839 37.7063C28.4838 37.3178 28.0211 37.1207 27.5081 37.1207C27.2881 37.1207 27.0597 37.1578 26.8265 37.232C26.5821 36.799 26.3898 36.3432 26.2509 35.8715C27.0024 35.4787 27.3867 34.838 27.3665 34.0016C27.3475 33.1997 26.9547 32.5913 26.2255 32.2256C26.3574 31.7512 26.544 31.2928 26.7809 30.8577C27.0231 30.9366 27.2595 30.9774 27.4874 30.9774C28.0142 30.9774 28.488 30.7681 28.8935 30.3558C29.4728 29.7664 29.6318 29.0451 29.3615 28.2538C29.7871 28.0158 30.2434 27.8245 30.7241 27.6835C31.103 28.4382 31.7258 28.8347 32.5415 28.8347C32.604 28.8347 32.6676 28.832 32.7333 28.8272C33.4923 28.7721 34.0636 28.3751 34.4012 27.675C34.874 27.8096 35.3309 27.9978 35.766 28.2384C35.4989 29.0424 35.6664 29.7685 36.26 30.3531C36.6633 30.7517 37.1297 30.9541 37.647 30.9541C37.8791 30.9541 38.1192 30.9123 38.3646 30.829C38.5522 31.1714 38.8124 31.7905 38.9264 32.1922C38.1648 32.5818 37.7742 33.2252 37.7917 34.0679C37.8081 34.8597 38.195 35.4671 38.9137 35.8397C38.7769 36.3135 38.5867 36.7703 38.3444 37.2044C38.1112 37.1329 37.8844 37.0974 37.6671 37.0974C37.083 37.0974 36.5737 37.3465 36.1534 37.8372C35.6796 38.389 35.5513 39.0504 35.775 39.767C35.3425 40.0065 34.882 40.1973 34.4034 40.3346C34.0387 39.6392 33.3709 39.2317 32.5759 39.2317C31.8122 39.2407 31.1433 39.6684 30.7845 40.3425ZM32.5733 32.4461C31.7141 32.4461 31.0124 33.142 31.0082 33.9984C31.0061 34.4161 31.1677 34.8093 31.4619 35.1056C31.756 35.4019 32.1487 35.5657 32.5674 35.5678C33.4229 35.563 34.1087 34.8973 34.1331 34.0525C34.1447 33.6296 33.99 33.2284 33.6969 32.9241C33.4043 32.6199 33.011 32.4503 32.5892 32.4466C32.5876 32.4461 32.5743 32.4461 32.5733 32.4461Z" fill="#AFABD4"/>
<path d="M34.5783 28.1181C34.8348 28.2045 35.086 28.3084 35.3309 28.4292C35.1554 29.2491 35.3828 30.0091 35.9992 30.6176C36.4677 31.0808 37.038 31.3251 37.647 31.3251C37.8197 31.3251 37.9957 31.3055 38.1732 31.2668C38.2814 31.4979 38.3969 31.7804 38.4828 32.0221C37.7752 32.4885 37.4026 33.1992 37.4212 34.0753C37.4381 34.8957 37.806 35.5641 38.4722 36.0082C38.3831 36.27 38.2766 36.5255 38.152 36.774C37.9877 36.7422 37.8261 36.7263 37.6676 36.7263C36.9802 36.7263 36.3596 37.0269 35.8715 37.595C35.3844 38.1626 35.2052 38.8485 35.3446 39.573C35.0934 39.6975 34.8342 39.8051 34.5682 39.8942C34.1156 39.2449 33.3926 38.8596 32.5754 38.8596C32.5722 38.8596 32.5452 38.8596 32.542 38.8596C31.7677 38.8697 31.0612 39.265 30.617 39.9042C30.3504 39.8168 30.0918 39.7113 29.839 39.5873C29.9916 38.7812 29.7542 38.0354 29.142 37.4403C28.6772 36.9876 28.1117 36.7486 27.5075 36.7486C27.3464 36.7486 27.1821 36.7656 27.0157 36.799C26.8906 36.552 26.783 36.2981 26.6934 36.0379C27.392 35.5699 27.7577 34.8618 27.737 33.991C27.7174 33.16 27.3422 32.4895 26.6659 32.0496C26.7512 31.791 26.854 31.5376 26.9733 31.2917C27.1471 31.3283 27.3183 31.3468 27.4869 31.3468C28.1085 31.3468 28.6862 31.093 29.1579 30.6139C29.759 30.0028 29.9768 29.248 29.7987 28.4403C30.0409 28.3195 30.2921 28.2145 30.5513 28.1255C31.0039 28.8262 31.6924 29.2035 32.542 29.2035C32.613 29.2035 32.6862 29.2009 32.7609 29.195C33.5421 29.1394 34.1691 28.7626 34.5783 28.1181ZM32.5696 35.9382C32.5706 35.9382 32.5722 35.9382 32.5733 35.9382C33.6258 35.9324 34.4738 35.1088 34.5041 34.0626C34.5189 33.5389 34.3276 33.0434 33.965 32.6665C33.6031 32.2902 33.1155 32.0804 32.5743 32.0751C31.5111 32.0751 30.6425 32.9368 30.6377 33.9963C30.6329 35.0621 31.4979 35.9335 32.5658 35.9382C32.5669 35.9382 32.568 35.9382 32.5696 35.9382ZM34.1813 27.2351C33.9348 27.9527 33.4562 28.4022 32.7063 28.4573C32.6501 28.4615 32.5955 28.4636 32.542 28.4636C31.7459 28.4636 31.2223 28.0116 30.9366 27.2425C30.2073 27.4206 29.5279 27.7031 28.8972 28.0974C29.2443 28.8299 29.1993 29.5152 28.629 30.095C28.2845 30.4453 27.8992 30.6064 27.4869 30.6064C27.2086 30.6064 26.9176 30.5333 26.6187 30.3955C26.2323 31.0315 25.9546 31.712 25.7882 32.4408C26.5297 32.7127 26.977 33.2215 26.9955 34.0101C27.0152 34.8305 26.5726 35.368 25.811 35.6637C25.9864 36.3866 26.2726 37.0592 26.6669 37.6894C26.9563 37.5606 27.2378 37.4917 27.5075 37.4917C27.9093 37.4917 28.2856 37.6432 28.6248 37.9729C29.2025 38.5347 29.2724 39.2136 28.9528 39.9472C29.5888 40.3341 30.2662 40.6107 30.9902 40.7777C31.0008 40.7559 31.0092 40.7432 31.0145 40.7294C31.2764 40.0468 31.871 39.6106 32.551 39.6021C32.559 39.6021 32.5669 39.6021 32.5749 39.6021C33.2914 39.6021 33.884 40.0065 34.1596 40.6918C34.1802 40.7427 34.2025 40.7586 34.2343 40.7586C34.2502 40.7586 34.2682 40.7549 34.2894 40.7496C34.945 40.5837 35.563 40.3288 36.1433 39.9827C36.1751 39.9636 36.2054 39.9419 36.2303 39.9254C35.9351 39.2603 35.9621 38.6285 36.4338 38.0789C36.7921 37.6613 37.2086 37.4689 37.6666 37.4689C37.9337 37.4689 38.2146 37.5346 38.5066 37.6586C38.8978 37.0263 39.1797 36.3522 39.3514 35.6303C38.6206 35.3505 38.1785 34.8496 38.1621 34.0604C38.1446 33.2283 38.5951 32.7015 39.3493 32.409C39.3032 31.9548 38.7743 30.6769 38.5061 30.3727C38.2114 30.5105 37.9231 30.5836 37.6459 30.5836C37.242 30.5836 36.8615 30.4284 36.5191 30.0902C35.9329 29.5115 35.8868 28.8187 36.2271 28.0794C35.5927 27.6872 34.9106 27.4042 34.1813 27.2351ZM32.569 35.1962C31.9081 35.1931 31.376 34.6578 31.3792 33.9995C31.3824 33.3434 31.9139 32.8165 32.5743 32.8165C32.578 32.8165 32.5823 32.8165 32.586 32.8165C33.2511 32.8229 33.7817 33.3741 33.7621 34.0414C33.7446 34.662 33.24 35.1925 32.569 35.1962Z" fill="#472B29"/>
<path d="M36.7454 32.9437C36.1587 30.6382 33.8135 29.2449 31.508 29.8321C29.2025 30.4188 27.8091 32.7641 28.3963 35.0696C28.9836 37.3751 31.3283 38.7684 33.6338 38.1812C35.9393 37.594 37.3327 35.2492 36.7454 32.9437ZM33.4197 37.3401C31.5785 37.8086 29.706 36.6961 29.2374 34.8549C28.7689 33.0137 29.8814 31.1412 31.7226 30.6727C33.5638 30.2042 35.4363 31.3166 35.9048 33.1579C36.3734 34.9991 35.2609 36.8716 33.4197 37.3401Z" fill="#7777AB"/>
<path d="M29.0832 34.1389C29.0101 34.1389 28.9507 34.0795 28.9507 34.0064C28.9507 32.0099 30.5741 30.3865 32.5706 30.3865C33.1075 30.3865 33.6243 30.5015 34.1082 30.7289C34.1744 30.7601 34.203 30.8391 34.1718 30.9054C34.14 30.9721 34.0605 30.9986 33.9953 30.969C33.5469 30.7585 33.0678 30.6515 32.5706 30.6515C30.7209 30.6515 29.2157 32.1567 29.2157 34.0064C29.2157 34.0795 29.1564 34.1389 29.0832 34.1389ZM32.5706 37.6263C30.9801 37.6263 29.592 36.6076 29.1161 35.0918C29.0938 35.0219 29.1325 34.9477 29.2025 34.9259C29.2751 34.9047 29.3466 34.9429 29.3684 35.0123C29.8093 36.4174 31.0962 37.3618 32.5701 37.3618C33.3275 37.3618 34.0424 37.1154 34.6376 36.6484C34.6954 36.6029 34.7781 36.6135 34.8242 36.6712C34.8692 36.7285 34.8586 36.8122 34.8014 36.8578C34.1596 37.3602 33.3879 37.6263 32.5706 37.6263ZM35.2964 36.3151C35.2673 36.3151 35.2381 36.3055 35.2137 36.2859C35.157 36.2403 35.1475 36.1571 35.1931 36.0994C35.6722 35.4994 35.9261 34.7759 35.9261 34.0064C35.9261 33.585 35.8487 33.1743 35.6966 32.7842C35.6695 32.7158 35.7035 32.6395 35.7718 32.613C35.8386 32.587 35.9165 32.6204 35.943 32.6883C36.1078 33.1086 36.1911 33.5522 36.1911 34.0064C36.1911 34.8252 35.9102 35.6271 35.4003 36.2652C35.3733 36.2976 35.3351 36.3151 35.2964 36.3151Z" fill="#472B29"/>
<path d="M35.4437 32.162C35.4019 32.162 35.3605 32.1419 35.3346 32.1048C35.1533 31.8424 34.9355 31.6065 34.6864 31.4036C34.6302 31.3574 34.6212 31.2742 34.6678 31.217C34.7134 31.1598 34.7966 31.1523 34.8544 31.1985C35.1226 31.4168 35.3574 31.6712 35.5529 31.9548C35.5943 32.0146 35.5794 32.0973 35.519 32.1392C35.4962 32.154 35.4697 32.162 35.4437 32.162Z" fill="#472B29"/>
</svg>
