<svg width="53" height="53" viewBox="0 0 53 53" fill="none" xmlns="http://www.w3.org/2000/svg">
<path d="M40.81 6.36C40.6694 6.36 40.5346 6.41584 40.4352 6.51523C40.3358 6.61463 40.28 6.74944 40.28 6.89C40.28 7.03057 40.3358 7.16537 40.4352 7.26477C40.5346 7.36416 40.6694 7.42 40.81 7.42C40.9506 7.42 41.0854 7.36416 41.1848 7.26477C41.2842 7.16537 41.34 7.03057 41.34 6.89C41.34 6.74944 41.2842 6.61463 41.1848 6.51523C41.0854 6.41584 40.9506 6.36 40.81 6.36Z" fill="#F1BC19"/>
<path opacity="0.2" d="M26.5 6.89C21.2991 6.89 16.3112 8.95605 12.6336 12.6336C8.95605 16.3112 6.89 21.2991 6.89 26.5C6.89 31.7009 8.95605 36.6888 12.6336 40.3664C16.3112 44.044 21.2991 46.11 26.5 46.11C31.7009 46.11 36.6888 44.044 40.3664 40.3664C44.044 36.6888 46.11 31.7009 46.11 26.5C46.11 21.2991 44.044 16.3112 40.3664 12.6336C36.6888 8.95605 31.7009 6.89 26.5 6.89V6.89Z" fill="white"/>
<path d="M43.99 5.83C43.4277 5.83 42.8885 6.05336 42.4909 6.45094C42.0934 6.84851 41.87 7.38774 41.87 7.95C41.87 8.51226 42.0934 9.05149 42.4909 9.44907C42.8885 9.84664 43.4277 10.07 43.99 10.07C44.5523 10.07 45.0915 9.84664 45.4891 9.44907C45.8866 9.05149 46.11 8.51226 46.11 7.95C46.11 7.38774 45.8866 6.84851 45.4891 6.45094C45.0915 6.05336 44.5523 5.83 43.99 5.83V5.83Z" fill="#F1BC19"/>
<path d="M46.11 11.66C45.8289 11.66 45.5593 11.7717 45.3605 11.9705C45.1617 12.1693 45.05 12.4389 45.05 12.72C45.05 13.0011 45.1617 13.2707 45.3605 13.4695C45.5593 13.6683 45.8289 13.78 46.11 13.78C46.3911 13.78 46.6607 13.6683 46.8595 13.4695C47.0583 13.2707 47.17 13.0011 47.17 12.72C47.17 12.4389 47.0583 12.1693 46.8595 11.9705C46.6607 11.7717 46.3911 11.66 46.11 11.66Z" fill="#88AE45"/>
<path d="M42.93 39.22C42.6489 39.22 42.3793 39.3317 42.1805 39.5305C41.9817 39.7293 41.87 39.9989 41.87 40.28C41.87 40.5611 41.9817 40.8307 42.1805 41.0295C42.3793 41.2283 42.6489 41.34 42.93 41.34C43.2111 41.34 43.4807 41.2283 43.6795 41.0295C43.8783 40.8307 43.99 40.5611 43.99 40.28C43.99 39.9989 43.8783 39.7293 43.6795 39.5305C43.4807 39.3317 43.2111 39.22 42.93 39.22ZM7.95 31.27C7.38774 31.27 6.84851 31.4934 6.45094 31.8909C6.05336 32.2885 5.83 32.8277 5.83 33.39C5.83 33.9523 6.05336 34.4915 6.45094 34.8891C6.84851 35.2866 7.38774 35.51 7.95 35.51C8.51226 35.51 9.05149 35.2866 9.44907 34.8891C9.84664 34.4915 10.07 33.9523 10.07 33.39C10.07 32.8277 9.84664 32.2885 9.44907 31.8909C9.05149 31.4934 8.51226 31.27 7.95 31.27Z" fill="#FBCD59"/>
<path d="M13.25 45.05C12.9689 45.05 12.6993 45.1617 12.5005 45.3605C12.3017 45.5593 12.19 45.8289 12.19 46.11C12.19 46.3911 12.3017 46.6607 12.5005 46.8595C12.6993 47.0583 12.9689 47.17 13.25 47.17C13.5311 47.17 13.8007 47.0583 13.9995 46.8595C14.1983 46.6607 14.31 46.3911 14.31 46.11C14.31 45.8289 14.1983 45.5593 13.9995 45.3605C13.8007 45.1617 13.5311 45.05 13.25 45.05Z" fill="#88AE45"/>
<path d="M9.805 25.97C9.45358 25.97 9.11656 26.1096 8.86808 26.3581C8.61959 26.6066 8.48 26.9436 8.48 27.295C8.48 27.6464 8.61959 27.9834 8.86808 28.2319C9.11656 28.4804 9.45358 28.62 9.805 28.62C10.1564 28.62 10.4934 28.4804 10.7419 28.2319C10.9904 27.9834 11.13 27.6464 11.13 27.295C11.13 26.9436 10.9904 26.6066 10.7419 26.3581C10.4934 26.1096 10.1564 25.97 9.805 25.97ZM42.135 16.96C41.9242 16.96 41.7219 17.0438 41.5728 17.1928C41.4238 17.3419 41.34 17.5442 41.34 17.755C41.34 17.9658 41.4238 18.1681 41.5728 18.3171C41.7219 18.4662 41.9242 18.55 42.135 18.55C42.3458 18.55 42.5481 18.4662 42.6971 18.3171C42.8462 18.1681 42.93 17.9658 42.93 17.755C42.93 17.5442 42.8462 17.3419 42.6971 17.1928C42.5481 17.0438 42.3458 16.96 42.135 16.96Z" fill="white"/>
<path d="M37.5251 16.4703L38.8776 16.4496C38.955 13.6899 35.6298 13.8584 35.6298 13.8584L19.2522 13.8563C17.9961 13.8563 16.9573 15.2274 16.9573 16.35V30.5084L13.701 30.4989C13.6984 30.6165 13.7026 37.2728 13.7127 37.3788C13.9257 39.5682 16.7803 39.3234 16.7803 39.3234L35.8381 39.3366C36.8652 39.432 37.5251 38.2066 37.5251 37.5256C37.5251 36.8445 37.5251 16.4703 37.5251 16.4703Z" fill="#EDF7F5"/>
<path d="M16.3076 38.3906C16.1051 38.3906 15.9419 38.2236 15.9419 38.0169C15.9419 37.8107 16.1056 37.6433 16.3076 37.6433C16.3797 37.6433 16.3998 37.6221 16.4109 37.6093C16.4798 37.5335 16.5524 37.3194 16.5095 36.729L16.5344 16.1995C16.5344 14.8941 17.7073 13.3168 19.1637 13.3168L35.8381 13.3184C35.8953 13.3141 37.6311 13.2389 38.6662 14.2718C39.1808 14.7854 39.4304 15.4718 39.4076 16.3108C39.4018 16.5122 39.2401 16.6733 39.0424 16.6738L26.7608 16.695H26.7602C26.5583 16.695 26.3951 16.5286 26.3945 16.3219C26.3945 16.1152 26.5578 15.9482 26.7597 15.9477L38.664 15.9276C38.6174 15.4686 38.4499 15.0997 38.1552 14.8056C37.3464 13.9984 35.8709 14.0641 35.8571 14.0646L19.1637 14.0636C18.1594 14.0636 17.2663 15.2576 17.2663 16.2L17.2404 36.7025C17.2764 37.1885 17.2711 37.762 16.9468 38.1176C16.7851 38.2957 16.5636 38.3906 16.3076 38.3906Z" fill="#472B29"/>
<path d="M36.1603 39.6997C36.1116 39.6997 36.0628 39.6975 36.014 39.6928L17.278 39.6811C16.2148 39.7765 14.0869 39.4219 13.8929 37.3915C13.8786 37.2452 13.878 30.4967 13.8791 30.4416C13.8839 30.2386 14.0461 30.0764 14.2448 30.0764C14.2453 30.0764 14.2453 30.0764 14.2459 30.0764L16.695 30.0855C16.8975 30.086 17.0602 30.2535 17.0596 30.4602C17.0591 30.6663 16.8953 30.8328 16.6939 30.8328C16.6934 30.8328 16.6934 30.8328 16.6929 30.8328L14.61 30.8248C14.6105 32.2171 14.6126 37.1133 14.6216 37.3348C14.7934 39.1304 17.145 38.9455 17.2462 38.9359L36.0469 38.9476C36.3257 38.9767 36.5663 38.8824 36.7852 38.6789C37.1334 38.355 37.3412 37.8266 37.3412 37.5033V16.3203C37.3412 16.1136 37.5049 15.9466 37.7069 15.9466C37.9093 15.9466 38.0726 16.1136 38.0726 16.3203V37.5028C38.0726 38.0847 37.7455 38.7955 37.2776 39.2306C36.9474 39.5391 36.5631 39.6997 36.1603 39.6997ZM25.1506 16.6939H23.5405C23.338 16.6939 23.1748 16.527 23.1748 16.3203C23.1748 16.1136 23.3386 15.9466 23.5405 15.9466H25.1506C25.3531 15.9466 25.5163 16.1136 25.5163 16.3203C25.5163 16.527 25.3531 16.6939 25.1506 16.6939Z" fill="#472B29"/>
<path d="M24.9556 36.1078V30.74H19.4054V36.8747H23.6497L24.9556 36.1078ZM19.4976 24.8162V29.15H25.0478V23.8161H20.4771" fill="#A8DBDB"/>
<path d="M23.0788 25.4723C23.0651 25.4723 23.0508 25.4676 23.0391 25.4591L20.9488 23.8691C20.9191 23.8468 20.9138 23.8055 20.9361 23.7763C20.9583 23.7466 20.9997 23.7424 21.0288 23.7636L23.1191 25.3536C23.1488 25.3759 23.1541 25.4172 23.1318 25.4464C23.1191 25.4638 23.099 25.4723 23.0788 25.4723Z" fill="#472B29"/>
<path d="M23.0788 25.4723C23.0651 25.4723 23.0508 25.4676 23.0391 25.4591L20.9488 23.8691C20.9191 23.8468 20.9138 23.8055 20.9361 23.7763C20.9583 23.7466 20.9997 23.7424 21.0288 23.7636L23.1191 25.3536C23.1488 25.3759 23.1541 25.4172 23.1318 25.4464C23.1191 25.4638 23.099 25.4723 23.0788 25.4723ZM21.7814 26.3193C21.7676 26.3193 21.7533 26.3145 21.7417 26.306L19.6508 24.716C19.6211 24.6938 19.6158 24.6524 19.6381 24.6233C19.6603 24.5936 19.7017 24.5893 19.7308 24.6105L21.8217 26.2005C21.8514 26.2228 21.8567 26.2641 21.8344 26.2933C21.8212 26.3103 21.8015 26.3193 21.7814 26.3193ZM22.2727 25.8073C22.2589 25.8073 22.2446 25.8025 22.233 25.794L20.1426 24.204C20.113 24.1818 20.1077 24.1404 20.1299 24.1113C20.1517 24.0816 20.1935 24.0779 20.2227 24.0986L22.313 25.6886C22.3427 25.7108 22.348 25.7522 22.3257 25.7813C22.3125 25.7983 22.2929 25.8073 22.2727 25.8073ZM21.5885 27.0311C21.5747 27.0311 21.5604 27.0263 21.5487 27.0178L19.4584 25.4278C19.4287 25.4055 19.4234 25.3642 19.4457 25.3351C19.468 25.3054 19.5098 25.3011 19.5384 25.3223L21.6288 26.9123C21.6584 26.9346 21.6637 26.9759 21.6415 27.0051C21.6282 27.022 21.6086 27.0311 21.5885 27.0311ZM21.6706 28.0338C21.6569 28.0338 21.6425 28.029 21.6309 28.0206L19.5406 26.4306C19.5109 26.4083 19.5056 26.367 19.5278 26.3378C19.5501 26.3081 19.592 26.3039 19.6206 26.3251L21.7109 27.9151C21.7406 27.9374 21.7459 27.9787 21.7236 28.0078C21.7104 28.0253 21.6908 28.0338 21.6706 28.0338ZM24.2952 25.4723C24.2814 25.4723 24.2671 25.4676 24.2554 25.4591L22.1651 23.8691C22.1354 23.8468 22.1301 23.8055 22.1524 23.7763C22.1747 23.7466 22.2165 23.7424 22.2452 23.7636L24.3355 25.3536C24.3652 25.3759 24.3705 25.4172 24.3482 25.4464C24.3349 25.4638 24.3153 25.4723 24.2952 25.4723ZM21.642 28.9608C21.6282 28.9608 21.6139 28.956 21.6023 28.9475L19.5119 27.3575C19.4823 27.3353 19.477 27.2939 19.4992 27.2648C19.5215 27.2351 19.5634 27.2309 19.592 27.2521L21.6823 28.8421C21.712 28.8643 21.7173 28.9057 21.695 28.9348C21.6823 28.9523 21.6627 28.9608 21.642 28.9608ZM24.1139 33.6142C24.1002 33.6142 24.0858 33.6094 24.0742 33.6009L20.9795 31.2472C20.9498 31.2249 20.9445 31.1836 20.9668 31.1545C20.9891 31.1242 21.0304 31.1205 21.0595 31.1417L24.1542 33.4955C24.1839 33.5177 24.1892 33.5591 24.1669 33.5882C24.1537 33.6052 24.1341 33.6142 24.1139 33.6142ZM21.8121 33.6974C21.7978 33.6974 21.783 33.6926 21.7708 33.6831L19.4462 31.8291C19.4176 31.8064 19.4134 31.7645 19.4356 31.7359C19.4579 31.7072 19.4992 31.7025 19.5289 31.7253L21.8535 33.5792C21.8821 33.602 21.8863 33.6439 21.8641 33.6725C21.8508 33.6889 21.8318 33.6974 21.8121 33.6974ZM23.1117 33.7992C23.0979 33.7992 23.0836 33.7944 23.072 33.7859L19.8013 31.2991C19.7716 31.2769 19.7663 31.2355 19.7886 31.2064C19.8109 31.1767 19.8522 31.1725 19.8814 31.1937L23.152 33.6804C23.1817 33.7027 23.187 33.744 23.1647 33.7732C23.1515 33.7907 23.1318 33.7992 23.1117 33.7992ZM21.6192 34.4092C21.6049 34.4092 21.5901 34.4044 21.5784 34.3949L19.3646 32.6411C19.3355 32.6183 19.3312 32.577 19.3535 32.5484C19.3757 32.5197 19.4176 32.5144 19.4462 32.5372L21.66 34.291C21.6892 34.3138 21.6934 34.3551 21.6712 34.3837C21.6584 34.4002 21.6394 34.4092 21.6192 34.4092ZM21.7019 35.4119C21.6881 35.4119 21.6738 35.4072 21.6622 35.3987L19.3662 33.6523C19.3365 33.6301 19.3312 33.5887 19.3535 33.5596C19.3757 33.5299 19.4171 33.5257 19.4462 33.5469L21.7422 35.2932C21.7719 35.3155 21.7772 35.3568 21.7549 35.386C21.7417 35.4029 21.722 35.4119 21.7019 35.4119ZM24.8379 33.2389C24.8241 33.2389 24.8098 33.2342 24.7982 33.2257L22.1959 31.2467C22.1662 31.2244 22.1609 31.1831 22.1831 31.1539C22.2054 31.1237 22.2467 31.12 22.2759 31.1412L24.8782 33.1202C24.9079 33.1425 24.9132 33.1838 24.8909 33.213C24.8777 33.2305 24.8581 33.2389 24.8379 33.2389ZM21.6733 36.3389C21.6595 36.3389 21.6452 36.3341 21.6335 36.3257L19.5427 34.7357C19.513 34.7134 19.5077 34.6721 19.53 34.6429C19.5522 34.6132 19.5936 34.609 19.6227 34.6302L21.7136 36.2202C21.7432 36.2425 21.7485 36.2838 21.7263 36.3129C21.713 36.3304 21.6934 36.3389 21.6733 36.3389ZM25.0308 32.4371C25.0171 32.4371 25.0027 32.4323 24.9911 32.4238L23.2956 31.1343C23.2659 31.1121 23.2606 31.0707 23.2829 31.0416C23.3052 31.0119 23.347 31.0076 23.3756 31.0288L25.0711 32.3183C25.1008 32.3406 25.1061 32.3819 25.0838 32.4111C25.0706 32.428 25.051 32.4371 25.0308 32.4371Z" fill="#472B29"/>
<path d="M35.7628 33.4101V16.6473H33.1133V33.4918V40.7263L34.495 39.6694L35.7628 40.7263V33.4101Z" fill="#C98089"/>
<path d="M35.7628 40.9245C35.7119 40.9245 35.6621 40.9075 35.6229 40.8747L34.4898 39.9297L33.2464 40.88C33.1828 40.9287 33.0948 40.9383 33.0232 40.9054C32.9496 40.8725 32.9029 40.8026 32.9029 40.7257V16.6473C32.9029 16.5376 32.9973 16.4485 33.1139 16.4485H35.7633C35.8799 16.4485 35.9743 16.5376 35.9743 16.6473V40.7263C35.9743 40.8042 35.9255 40.8752 35.8497 40.9075C35.8211 40.9192 35.7914 40.9245 35.7628 40.9245ZM33.3243 16.846V40.3091L34.3631 39.5157C34.4436 39.4543 34.5581 39.4569 34.636 39.521L35.5519 40.2848V16.846H33.3243Z" fill="#472B29"/>
<path d="M34.3191 32.6909C33.7044 32.6909 33.1149 32.9351 32.6802 33.3698C32.2456 33.8044 32.0014 34.3939 32.0014 35.0086C32.0014 35.6233 32.2456 36.2128 32.6802 36.6475C33.1149 37.0821 33.7044 37.3263 34.3191 37.3263C34.9338 37.3263 35.5233 37.0821 35.9579 36.6475C36.3926 36.2128 36.6368 35.6233 36.6368 35.0086C36.6368 34.3939 36.3926 33.8044 35.9579 33.3698C35.5233 32.9351 34.9338 32.6909 34.3191 32.6909V32.6909Z" fill="#F1BC19"/>
<path d="M34.3191 37.5245C32.9315 37.5245 31.8027 36.3956 31.8027 35.0086C31.8027 33.6211 32.9315 32.4922 34.3191 32.4922C35.7061 32.4922 36.835 33.6211 36.835 35.0086C36.835 36.3962 35.7066 37.5245 34.3191 37.5245ZM34.3191 32.8897C33.151 32.8897 32.2002 33.8405 32.2002 35.0086C32.2002 36.1767 33.151 37.127 34.3191 37.127C35.4872 37.127 36.4375 36.1767 36.4375 35.0086C36.4375 33.8405 35.4872 32.8897 34.3191 32.8897Z" fill="#472B29"/>
<path d="M35.9139 35.6462C35.9064 35.6462 35.899 35.6451 35.8916 35.642C35.8572 35.6303 35.8391 35.5916 35.8519 35.5577C35.9144 35.3823 35.9467 35.1973 35.9467 35.0091C35.9467 34.1119 35.2169 33.382 34.3196 33.382C34.2831 33.382 34.2534 33.3524 34.2534 33.3158C34.2534 33.2792 34.2831 33.2495 34.3196 33.2495C35.2901 33.2495 36.0792 34.0387 36.0792 35.0091C36.0792 35.2132 36.0448 35.413 35.9764 35.6022C35.9669 35.6292 35.9409 35.6462 35.9139 35.6462ZM33.2829 36.4147C33.2692 36.4147 33.2543 36.4099 33.2427 36.4009C32.8086 36.0644 32.5595 35.5572 32.5595 35.0091C32.5595 34.4272 32.8468 33.8834 33.3275 33.5548C33.3577 33.5342 33.399 33.5426 33.4197 33.5723C33.4404 33.602 33.4324 33.6439 33.4022 33.6645C32.9575 33.9682 32.692 34.4707 32.692 35.0091C32.692 35.5158 32.9225 35.9854 33.3232 36.2965C33.3524 36.3188 33.3571 36.3606 33.3349 36.3893C33.3227 36.4057 33.3026 36.4147 33.2829 36.4147ZM33.567 36.5928C33.557 36.5928 33.5469 36.5907 33.5373 36.5854C33.4918 36.5631 33.4472 36.5387 33.4043 36.5122C33.373 36.4931 33.3635 36.4523 33.3826 36.4211C33.4011 36.3898 33.4419 36.3803 33.4737 36.3993C33.5135 36.4237 33.5548 36.446 33.5962 36.4672C33.629 36.4831 33.6423 36.5228 33.6259 36.5557C33.6147 36.579 33.5914 36.5928 33.567 36.5928ZM34.3191 36.7687C34.1415 36.7687 33.9661 36.7422 33.7965 36.6898C33.7621 36.6786 33.7419 36.6421 33.7531 36.6071C33.7642 36.5726 33.7986 36.552 33.8357 36.5636C33.9926 36.6119 34.1553 36.6368 34.3191 36.6368C34.3557 36.6368 34.3853 36.6665 34.3853 36.703C34.3853 36.7396 34.3562 36.7687 34.3191 36.7687Z" fill="#472B29"/>
<path d="M13.5224 17.6697L13.9941 18.6253L15.0483 18.7784L14.2856 19.522L14.4653 20.5719L13.5224 20.0759L12.5795 20.5719L12.7597 19.522L11.9971 18.7784L13.0512 18.6253L13.5224 17.6697Z" fill="#F1BC19"/>
<path d="M12.5801 20.7574C12.5419 20.7574 12.5032 20.7458 12.4709 20.7225C12.4142 20.6811 12.3856 20.6106 12.3972 20.5407L12.561 19.5867L11.8678 18.9115C11.8169 18.8616 11.7989 18.7885 11.8206 18.7212C11.8423 18.6544 11.9001 18.6051 11.97 18.595L12.9278 18.4557L13.3565 17.5881C13.4185 17.4619 13.6268 17.4619 13.6888 17.5881L14.1176 18.4557L15.0758 18.595C15.1458 18.6056 15.2036 18.6539 15.2253 18.7212C15.247 18.7885 15.229 18.8622 15.1781 18.9115L14.4849 19.5867L14.6487 20.5407C14.6603 20.6106 14.6322 20.6811 14.575 20.7225C14.5178 20.7638 14.4425 20.7702 14.3794 20.7362L13.5229 20.2858L12.667 20.7362C12.6389 20.7506 12.6092 20.7574 12.5801 20.7574ZM13.5224 19.8909C13.5521 19.8909 13.5818 19.8978 13.6088 19.9121L14.2188 20.2327L14.1022 19.5533C14.0916 19.4929 14.1118 19.4319 14.1558 19.3885L14.6497 18.9072L13.9671 18.8081C13.9072 18.7991 13.8547 18.7609 13.8277 18.7069L13.5224 18.0889L13.2171 18.7069C13.1901 18.7615 13.1382 18.7996 13.0777 18.8081L12.3956 18.9072L12.8896 19.3885C12.9336 19.4314 12.9532 19.4923 12.9431 19.5533L12.8265 20.2327L13.436 19.9121C13.4631 19.8978 13.4927 19.8909 13.5224 19.8909Z" fill="#472B29"/>
<path d="M41.0734 32.5913L41.5451 33.5464L42.5993 33.6995L41.8366 34.4431L42.0163 35.493L41.0734 34.9975L40.1305 35.493L40.3107 34.4431L39.5481 33.6995L40.6022 33.5464L41.0734 32.5913Z" fill="#F1BC19"/>
<path d="M40.1305 35.6785C40.0924 35.6785 40.0537 35.6669 40.0214 35.6436C39.9647 35.6022 39.936 35.5317 39.9477 35.4618L40.1115 34.5078L39.4182 33.8331C39.3673 33.7838 39.3493 33.7101 39.3711 33.6428C39.3928 33.576 39.4506 33.5267 39.5205 33.5167L40.4788 33.3773L40.9075 32.5091C40.9695 32.383 41.1778 32.383 41.2398 32.5091L41.6686 33.3773L42.6263 33.5167C42.6963 33.5273 42.754 33.576 42.7758 33.6428C42.7975 33.7101 42.7795 33.7838 42.7286 33.8331L42.0359 34.5078L42.1991 35.4623C42.2108 35.5317 42.1827 35.6022 42.1255 35.6436C42.0677 35.6844 41.993 35.6907 41.9299 35.6573L41.0739 35.2068L40.2175 35.6573C40.1899 35.6716 40.1602 35.6785 40.1305 35.6785ZM39.9466 33.8294L40.4406 34.3101C40.4846 34.353 40.5042 34.414 40.4941 34.4749L40.3775 35.1544L40.9876 34.8337C41.0416 34.8046 41.1068 34.8046 41.1603 34.8337L41.7698 35.1544L41.6538 34.4744C41.6432 34.4145 41.6633 34.353 41.7073 34.3101L42.2007 33.8294L41.5186 33.7303C41.4587 33.7212 41.4063 33.6831 41.3792 33.629L41.0739 33.0105L40.7687 33.629C40.7416 33.6836 40.6897 33.7218 40.6293 33.7303L39.9466 33.8294Z" fill="#472B29"/>
<path d="M25.175 29.68H19.345C19.1987 29.68 19.08 29.5613 19.08 29.415V24.91C19.08 24.7637 19.1987 24.645 19.345 24.645C19.4913 24.645 19.61 24.7637 19.61 24.91V29.15H24.91V23.85H20.6366C20.4903 23.85 20.3716 23.7313 20.3716 23.585C20.3716 23.4387 20.4903 23.32 20.6366 23.32H25.175C25.3213 23.32 25.44 23.4387 25.44 23.585V29.415C25.44 29.5613 25.3213 29.68 25.175 29.68Z" fill="#472B29"/>
<path d="M23.8834 37.1H19.345C19.1987 37.1 19.08 36.9813 19.08 36.835V31.005C19.08 30.8587 19.1987 30.74 19.345 30.74H25.175C25.3213 30.74 25.44 30.8587 25.44 31.005V35.51C25.44 35.6563 25.3213 35.775 25.175 35.775C25.0287 35.775 24.91 35.6563 24.91 35.51V31.27H19.61V36.57H23.8834C24.0297 36.57 24.1484 36.6887 24.1484 36.835C24.1484 36.9813 24.0297 37.1 23.8834 37.1Z" fill="#472B29"/>
<path d="M31.005 24.38H26.765C26.6187 24.38 26.5 24.2613 26.5 24.115C26.5 23.9687 26.6187 23.85 26.765 23.85H31.005C31.1513 23.85 31.27 23.9687 31.27 24.115C31.27 24.2613 31.1513 24.38 31.005 24.38Z" fill="#472B29"/>
<path d="M31.005 21.73H24.115C23.9687 21.73 23.85 21.6113 23.85 21.465C23.85 21.3187 23.9687 21.2 24.115 21.2H31.005C31.1513 21.2 31.27 21.3187 31.27 21.465C31.27 21.6113 31.1513 21.73 31.005 21.73Z" fill="#472B29"/>
<path d="M22.79 21.73H19.345C19.1987 21.73 19.08 21.6113 19.08 21.465C19.08 21.3187 19.1987 21.2 19.345 21.2H22.79C22.9363 21.2 23.055 21.3187 23.055 21.465C23.055 21.6113 22.9363 21.73 22.79 21.73Z" fill="#472B29"/>
<path d="M21.465 19.61H19.345C19.1987 19.61 19.08 19.4913 19.08 19.345C19.08 19.1987 19.1987 19.08 19.345 19.08H21.465C21.6113 19.08 21.73 19.1987 21.73 19.345C21.73 19.4913 21.6113 19.61 21.465 19.61Z" fill="#472B29"/>
<path d="M24.645 19.61H22.525C22.3787 19.61 22.26 19.4913 22.26 19.345C22.26 19.1987 22.3787 19.08 22.525 19.08H24.645C24.7913 19.08 24.91 19.1987 24.91 19.345C24.91 19.4913 24.7913 19.61 24.645 19.61Z" fill="#472B29"/>
<path d="M27.825 19.61H25.705C25.5587 19.61 25.44 19.4913 25.44 19.345C25.44 19.1987 25.5587 19.08 25.705 19.08H27.825C27.9713 19.08 28.09 19.1987 28.09 19.345C28.09 19.4913 27.9713 19.61 27.825 19.61Z" fill="#472B29"/>
<path d="M31.005 19.61H28.885C28.7387 19.61 28.62 19.4913 28.62 19.345C28.62 19.1987 28.7387 19.08 28.885 19.08H31.005C31.1513 19.08 31.27 19.1987 31.27 19.345C31.27 19.4913 31.1513 19.61 31.005 19.61Z" fill="#472B29"/>
<path d="M31.005 26.5H26.765C26.6187 26.5 26.5 26.3813 26.5 26.235C26.5 26.0887 26.6187 25.97 26.765 25.97H31.005C31.1513 25.97 31.27 26.0887 31.27 26.235C31.27 26.3813 31.1513 26.5 31.005 26.5Z" fill="#472B29"/>
<path d="M31.005 28.62H26.765C26.6187 28.62 26.5 28.5013 26.5 28.355C26.5 28.2087 26.6187 28.09 26.765 28.09H31.005C31.1513 28.09 31.27 28.2087 31.27 28.355C31.27 28.5013 31.1513 28.62 31.005 28.62Z" fill="#472B29"/>
<path d="M31.005 31.8H26.765C26.6187 31.8 26.5 31.6813 26.5 31.535C26.5 31.3887 26.6187 31.27 26.765 31.27H31.005C31.1513 31.27 31.27 31.3887 31.27 31.535C31.27 31.6813 31.1513 31.8 31.005 31.8Z" fill="#472B29"/>
<path d="M31.005 33.92H26.765C26.6187 33.92 26.5 33.8013 26.5 33.655C26.5 33.5087 26.6187 33.39 26.765 33.39H31.005C31.1513 33.39 31.27 33.5087 31.27 33.655C31.27 33.8013 31.1513 33.92 31.005 33.92Z" fill="#472B29"/>
<path d="M31.005 36.04H26.765C26.6187 36.04 26.5 35.9213 26.5 35.775C26.5 35.6287 26.6187 35.51 26.765 35.51H31.005C31.1513 35.51 31.27 35.6287 31.27 35.775C31.27 35.9213 31.1513 36.04 31.005 36.04Z" fill="#472B29"/>
</svg>
