<svg width="1080" height="600" viewBox="0 0 1080 600" fill="none" xmlns="http://www.w3.org/2000/svg">
<rect width="1080" height="600" rx="6" fill="#20263D"/>
<circle opacity="0.7" r="27.75" transform="matrix(1.19249e-08 1 1 -1.19249e-08 345.75 494.25)" fill="#1EBBFF"/>
<circle opacity="0.7" r="27.75" transform="matrix(1.19249e-08 1 1 -1.19249e-08 423.45 494.25)" fill="#1EBBFF"/>
<circle opacity="0.7" r="27.75" transform="matrix(1.19249e-08 1 1 -1.19249e-08 501.15 494.25)" fill="#1EBBFF"/>
<ellipse opacity="0.1" rx="27.75" ry="27.75" transform="matrix(1.19249e-08 1 1 -1.19249e-08 578.85 494.25)" fill="#1EBBFF"/>
<circle opacity="0.7" r="27.75" transform="matrix(1.19249e-08 1 1 -1.19249e-08 656.55 494.25)" fill="#1EBBFF"/>
<circle opacity="0.7" r="27.75" transform="matrix(1.19249e-08 1 1 -1.19249e-08 734.25 494.25)" fill="#1EBBFF"/>
<circle opacity="0.4" r="27.75" transform="matrix(1.19249e-08 1 1 -1.19249e-08 423.45 416.55)" fill="#1EBBFF"/>
<circle r="27.75" transform="matrix(1.19249e-08 1 1 -1.19249e-08 345.75 416.55)" fill="#1EBBFF"/>
<ellipse opacity="0.1" rx="27.75" ry="27.75" transform="matrix(1.19249e-08 1 1 -1.19249e-08 345.75 338.85)" fill="#1EBBFF"/>
<circle opacity="0.7" r="27.75" transform="matrix(1.19249e-08 1 1 -1.19249e-08 345.75 261.15)" fill="#1EBBFF"/>
<circle opacity="0.1" r="27.75" transform="matrix(1.19249e-08 1 1 -1.19249e-08 345.75 183.45)" fill="#1EBBFF"/>
<circle opacity="0.7" r="27.75" transform="matrix(1.19249e-08 1 1 -1.19249e-08 345.75 105.75)" fill="#1EBBFF"/>
<ellipse opacity="0.6" rx="27.75" ry="27.75" transform="matrix(1.19249e-08 1 1 -1.19249e-08 423.45 338.85)" fill="#1EBBFF"/>
<circle opacity="0.2" r="27.75" transform="matrix(1.19249e-08 1 1 -1.19249e-08 423.45 261.15)" fill="#1EBBFF"/>
<circle opacity="0.1" r="27.75" transform="matrix(1.19249e-08 1 1 -1.19249e-08 423.45 183.45)" fill="#1EBBFF"/>
<circle opacity="0.7" r="27.75" transform="matrix(1.19249e-08 1 1 -1.19249e-08 423.45 105.75)" fill="#1EBBFF"/>
<ellipse opacity="0.7" rx="27.75" ry="27.75" transform="matrix(1.19249e-08 1 1 -1.19249e-08 501.15 338.85)" fill="#1EBBFF"/>
<circle opacity="0.4" r="27.75" transform="matrix(1.19249e-08 1 1 -1.19249e-08 501.15 261.15)" fill="#1EBBFF"/>
<circle r="27.75" transform="matrix(1.19249e-08 1 1 -1.19249e-08 501.15 183.45)" fill="#1EBBFF"/>
<circle opacity="0.7" r="27.75" transform="matrix(1.19249e-08 1 1 -1.19249e-08 501.15 105.75)" fill="#1EBBFF"/>
<ellipse opacity="0.9" rx="27.75" ry="27.75" transform="matrix(1.19249e-08 1 1 -1.19249e-08 578.85 105.75)" fill="#1EBBFF"/>
<circle r="27.75" transform="matrix(1.19249e-08 1 1 -1.19249e-08 501.15 416.55)" fill="#1EBBFF"/>
<ellipse opacity="0.7" rx="27.75" ry="27.75" transform="matrix(1.19249e-08 1 1 -1.19249e-08 578.85 416.55)" fill="#1EBBFF"/>
<circle opacity="0.4" r="27.75" transform="matrix(1.19249e-08 1 1 -1.19249e-08 656.55 416.55)" fill="#1EBBFF"/>
<circle opacity="0.7" r="27.75" transform="matrix(1.19249e-08 1 1 -1.19249e-08 734.25 416.55)" fill="#1EBBFF"/>
<circle opacity="0.1" r="27.75" transform="matrix(1.19249e-08 1 1 -1.19249e-08 578.85 338.85)" fill="#1EBBFF"/>
<ellipse opacity="0.4" rx="27.75" ry="27.75" transform="matrix(1.19249e-08 1 1 -1.19249e-08 578.85 261.15)" fill="#1EBBFF"/>
<ellipse opacity="0.4" rx="27.75" ry="27.75" transform="matrix(1.19249e-08 1 1 -1.19249e-08 578.85 183.45)" fill="#1EBBFF"/>
<ellipse rx="27.75" ry="27.75" transform="matrix(1.19249e-08 1 1 -1.19249e-08 656.55 338.85)" fill="#1EBBFF"/>
<ellipse opacity="0.7" rx="27.75" ry="27.75" transform="matrix(1.19249e-08 1 1 -1.19249e-08 734.25 338.85)" fill="#1EBBFF"/>
<circle opacity="0.7" r="27.75" transform="matrix(1.19249e-08 1 1 -1.19249e-08 656.55 261.15)" fill="#1EBBFF"/>
<circle opacity="0.4" r="27.75" transform="matrix(1.19249e-08 1 1 -1.19249e-08 656.55 183.45)" fill="#1EBBFF"/>
<circle opacity="0.6" r="27.75" transform="matrix(1.19249e-08 1 1 -1.19249e-08 734.25 261.15)" fill="#1EBBFF"/>
<circle opacity="0.5" r="27.75" transform="matrix(1.19249e-08 1 1 -1.19249e-08 734.25 183.45)" fill="#1EBBFF"/>
<circle opacity="0.7" r="27.75" transform="matrix(1.19249e-08 1 1 -1.19249e-08 734.25 105.75)" fill="#1EBBFF"/>
<circle opacity="0.7" r="27.75" transform="matrix(1.19249e-08 1 1 -1.19249e-08 656.55 105.75)" fill="#1EBBFF"/>
</svg>
