<svg width="1080" height="600" viewBox="0 0 1080 600" fill="none" xmlns="http://www.w3.org/2000/svg">
<rect width="1080" height="600" rx="6" fill="#20263D"/>
<circle opacity="0.7" r="27.875" transform="matrix(1.19249e-08 1 1 -1.19249e-08 344.875 495.125)" fill="#1EBBFF"/>
<ellipse opacity="0.7" rx="27.875" ry="27.875" transform="matrix(1.19249e-08 1 1 -1.19249e-08 422.925 495.125)" fill="#1EBBFF"/>
<circle opacity="0.7" r="27.875" transform="matrix(1.19249e-08 1 1 -1.19249e-08 500.975 495.125)" fill="#1EBBFF"/>
<ellipse opacity="0.1" rx="27.875" ry="27.875" transform="matrix(1.19249e-08 1 1 -1.19249e-08 579.025 495.125)" fill="#1EBBFF"/>
<circle opacity="0.7" r="27.875" transform="matrix(1.19249e-08 1 1 -1.19249e-08 657.075 495.125)" fill="#1EBBFF"/>
<circle opacity="0.7" r="27.875" transform="matrix(1.19249e-08 1 1 -1.19249e-08 735.125 495.125)" fill="#1EBBFF"/>
<ellipse opacity="0.4" rx="27.875" ry="27.875" transform="matrix(1.19249e-08 1 1 -1.19249e-08 422.925 417.075)" fill="#1EBBFF"/>
<ellipse opacity="0.6" rx="27.875" ry="27.875" transform="matrix(1.19249e-08 1 1 -1.19249e-08 422.925 339.025)" fill="#1EBBFF"/>
<ellipse opacity="0.7" rx="27.875" ry="27.875" transform="matrix(1.19249e-08 1 1 -1.19249e-08 500.975 339.025)" fill="#1EBBFF"/>
<circle opacity="0.4" r="27.875" transform="matrix(1.19249e-08 1 1 -1.19249e-08 500.975 260.975)" fill="#1EBBFF"/>
<ellipse opacity="0.4" rx="27.875" ry="27.875" transform="matrix(1.19249e-08 1 1 -1.19249e-08 735.125 182.925)" fill="#1EBBFF"/>
<ellipse opacity="0.9" rx="27.875" ry="27.875" transform="matrix(1.19249e-08 1 1 -1.19249e-08 579.025 104.875)" fill="#1EBBFF"/>
<circle r="27.875" transform="matrix(1.19249e-08 1 1 -1.19249e-08 500.975 417.075)" fill="#1EBBFF"/>
<ellipse opacity="0.7" rx="27.875" ry="27.875" transform="matrix(1.19249e-08 1 1 -1.19249e-08 579.025 417.075)" fill="#1EBBFF"/>
<circle opacity="0.4" r="27.875" transform="matrix(1.19249e-08 1 1 -1.19249e-08 657.075 417.075)" fill="#1EBBFF"/>
<circle opacity="0.7" r="27.875" transform="matrix(1.19249e-08 1 1 -1.19249e-08 735.125 417.075)" fill="#1EBBFF"/>
<circle opacity="0.1" r="27.875" transform="matrix(1.19249e-08 1 1 -1.19249e-08 579.025 339.025)" fill="#1EBBFF"/>
<ellipse opacity="0.7" rx="27.875" ry="27.875" transform="matrix(1.19249e-08 1 1 -1.19249e-08 735.125 339.025)" fill="#1EBBFF"/>
<circle opacity="0.1" r="27.875" transform="matrix(1.19249e-08 1 1 -1.19249e-08 735.125 260.975)" fill="#1EBBFF"/>
<ellipse opacity="0.4" rx="27.875" ry="27.875" transform="matrix(1.19249e-08 1 1 -1.19249e-08 579.025 260.975)" fill="#1EBBFF"/>
<ellipse opacity="0.4" rx="27.875" ry="27.875" transform="matrix(1.19249e-08 1 1 -1.19249e-08 579.025 182.925)" fill="#1EBBFF"/>
<ellipse rx="27.875" ry="27.875" transform="matrix(1.19249e-08 1 1 -1.19249e-08 657.075 339.025)" fill="#1EBBFF"/>
</svg>
