<svg width="1080" height="600" viewBox="0 0 1080 600" fill="none" xmlns="http://www.w3.org/2000/svg">
<rect width="1080" height="600" rx="6" fill="#20263D"/>
<circle opacity="0.2" r="27.375" transform="matrix(1.19249e-08 1 1 -1.19249e-08 348.375 491.625)" fill="#1EBBFF"/>
<ellipse opacity="0.3" rx="27.375" ry="27.375" transform="matrix(1.19249e-08 1 1 -1.19249e-08 425.025 491.625)" fill="#1EBBFF"/>
<circle opacity="0.5" r="27.375" transform="matrix(1.19249e-08 1 1 -1.19249e-08 501.675 491.625)" fill="#1EBBFF"/>
<ellipse opacity="0.6" rx="27.375" ry="27.375" transform="matrix(1.19249e-08 1 1 -1.19249e-08 578.325 491.625)" fill="#1EBBFF"/>
<circle opacity="0.6" r="27.375" transform="matrix(1.19249e-08 1 1 -1.19249e-08 654.975 491.625)" fill="#1EBBFF"/>
<circle opacity="0.7" r="27.375" transform="matrix(1.19249e-08 1 1 -1.19249e-08 731.625 491.625)" fill="#1EBBFF"/>
<ellipse opacity="0.4" rx="27.375" ry="27.375" transform="matrix(1.19249e-08 1 1 -1.19249e-08 425.025 414.975)" fill="#1EBBFF"/>
<circle opacity="0.5" r="27.375" transform="matrix(1.19249e-08 1 1 -1.19249e-08 501.675 414.975)" fill="#1EBBFF"/>
<ellipse opacity="0.6" rx="27.375" ry="27.375" transform="matrix(1.19249e-08 1 1 -1.19249e-08 578.325 414.975)" fill="#1EBBFF"/>
<circle opacity="0.7" r="27.375" transform="matrix(1.19249e-08 1 1 -1.19249e-08 654.975 414.975)" fill="#1EBBFF"/>
<circle opacity="0.8" r="27.375" transform="matrix(1.19249e-08 1 1 -1.19249e-08 731.625 414.975)" fill="#1EBBFF"/>
<circle opacity="0.67" r="27.375" transform="matrix(1.19249e-08 1 1 -1.19249e-08 578.325 338.325)" fill="#1EBBFF"/>
<ellipse opacity="0.7" rx="27.375" ry="27.375" transform="matrix(1.19249e-08 1 1 -1.19249e-08 654.975 338.325)" fill="#1EBBFF"/>
<ellipse opacity="0.8" rx="27.375" ry="27.375" transform="matrix(1.19249e-08 1 1 -1.19249e-08 731.625 338.325)" fill="#1EBBFF"/>
<circle opacity="0.8" r="27.375" transform="matrix(1.19249e-08 1 1 -1.19249e-08 654.975 261.675)" fill="#1EBBFF"/>
<ellipse opacity="0.8" rx="27.375" ry="27.375" transform="matrix(1.19249e-08 1 1 -1.19249e-08 654.975 185.025)" fill="#1EBBFF"/>
<circle opacity="0.9" r="27.375" transform="matrix(1.19249e-08 1 1 -1.19249e-08 731.625 261.675)" fill="#1EBBFF"/>
<ellipse opacity="0.9" rx="27.375" ry="27.375" transform="matrix(1.19249e-08 1 1 -1.19249e-08 731.625 185.025)" fill="#1EBBFF"/>
<circle r="27.375" transform="matrix(1.19249e-08 1 1 -1.19249e-08 731.625 108.375)" fill="#1EBBFF"/>
</svg>
