<svg width="1080" height="600" viewBox="0 0 1080 600" fill="none" xmlns="http://www.w3.org/2000/svg">
<rect width="1080" height="600" rx="6" fill="#20263D"/>
<ellipse opacity="0.7" cx="525.601" cy="98.5366" rx="34.56" ry="34.5366" fill="#1EBBFF"/>
<ellipse opacity="0.7" cx="554.401" cy="98.5366" rx="34.56" ry="34.5366" fill="#1EBBFF"/>
<ellipse opacity="0.7" cx="525.6" cy="501.463" rx="34.56" ry="34.5366" fill="#1EBBFF"/>
<ellipse opacity="0.9" cx="554.4" cy="501.463" rx="34.56" ry="34.5366" fill="#1EBBFF"/>
<ellipse opacity="0.5" cx="439.2" cy="179.122" rx="34.56" ry="34.5366" fill="#1EBBFF"/>
<ellipse opacity="0.7" cx="479.52" cy="179.122" rx="34.56" ry="34.5365" fill="#1EBBFF"/>
<ellipse opacity="0.4" cx="519.839" cy="179.122" rx="34.56" ry="34.5365" fill="#1EBBFF"/>
<ellipse opacity="0.7" cx="560.16" cy="179.122" rx="34.56" ry="34.5366" fill="#1EBBFF"/>
<ellipse opacity="0.4" cx="600.48" cy="179.122" rx="34.56" ry="34.5365" fill="#1EBBFF"/>
<ellipse opacity="0.5" cx="640.799" cy="179.122" rx="34.56" ry="34.5365" fill="#1EBBFF"/>
<ellipse opacity="0.7" cx="439.2" cy="420.878" rx="34.56" ry="34.5366" fill="#1EBBFF"/>
<ellipse opacity="0.5" cx="479.52" cy="420.878" rx="34.56" ry="34.5366" fill="#1EBBFF"/>
<ellipse opacity="0.9" cx="519.839" cy="420.878" rx="34.56" ry="34.5366" fill="#1EBBFF"/>
<ellipse opacity="0.5" cx="560.16" cy="420.878" rx="34.56" ry="34.5366" fill="#1EBBFF"/>
<ellipse opacity="0.9" cx="600.48" cy="420.878" rx="34.56" ry="34.5366" fill="#1EBBFF"/>
<ellipse opacity="0.7" cx="640.799" cy="420.878" rx="34.56" ry="34.5366" fill="#1EBBFF"/>
<ellipse opacity="0.9" cx="398.88" cy="259.707" rx="34.56" ry="34.5366" fill="#1EBBFF"/>
<ellipse opacity="0.4" cx="439.201" cy="259.707" rx="34.56" ry="34.5366" fill="#1EBBFF"/>
<ellipse opacity="0.4" cx="479.52" cy="259.707" rx="34.56" ry="34.5366" fill="#1EBBFF"/>
<ellipse opacity="0.7" cx="519.84" cy="259.707" rx="34.56" ry="34.5366" fill="#1EBBFF"/>
<ellipse opacity="0.9" cx="560.161" cy="259.707" rx="34.56" ry="34.5365" fill="#1EBBFF"/>
<ellipse opacity="0.4" cx="600.48" cy="259.707" rx="34.56" ry="34.5365" fill="#1EBBFF"/>
<ellipse opacity="0.5" cx="640.8" cy="259.707" rx="34.56" ry="34.5365" fill="#1EBBFF"/>
<ellipse opacity="0.9" cx="681.121" cy="259.707" rx="34.56" ry="34.5365" fill="#1EBBFF"/>
<ellipse opacity="0.7" cx="358.56" cy="340.293" rx="34.56" ry="34.5366" fill="#1EBBFF"/>
<ellipse opacity="0.7" cx="398.88" cy="340.293" rx="34.56" ry="34.5366" fill="#1EBBFF"/>
<ellipse opacity="0.9" cx="439.2" cy="340.293" rx="34.56" ry="34.5366" fill="#1EBBFF"/>
<ellipse opacity="0.7" cx="479.52" cy="340.293" rx="34.56" ry="34.5365" fill="#1EBBFF"/>
<ellipse opacity="0.4" cx="519.84" cy="340.293" rx="34.56" ry="34.5366" fill="#1EBBFF"/>
<ellipse opacity="0.5" cx="560.16" cy="340.293" rx="34.56" ry="34.5366" fill="#1EBBFF"/>
<ellipse opacity="0.4" cx="600.48" cy="340.293" rx="34.56" ry="34.5366" fill="#1EBBFF"/>
<ellipse opacity="0.5" cx="640.8" cy="340.293" rx="34.56" ry="34.5366" fill="#1EBBFF"/>
<ellipse opacity="0.9" cx="681.12" cy="340.293" rx="34.56" ry="34.5366" fill="#1EBBFF"/>
<ellipse opacity="0.5" cx="721.44" cy="340.293" rx="34.56" ry="34.5366" fill="#1EBBFF"/>
</svg>
