<svg width="600" height="400" viewBox="0 0 600 400" fill="none" xmlns="http://www.w3.org/2000/svg">
<mask id="mask0" mask-type="alpha" maskUnits="userSpaceOnUse" x="125" y="25" width="350" height="350">
<circle cx="300" cy="200" r="175" transform="rotate(90 300 200)" fill="white"/>
</mask>
<g mask="url(#mask0)">
<circle opacity="0.075" cx="55.4567" cy="198.833" r="189.22" transform="rotate(90 55.4567 198.833)" fill="white"/>
<circle opacity="0.075" cx="139.93" cy="198.833" r="189.22" transform="rotate(90 139.93 198.833)" fill="white"/>
<circle opacity="0.075" cx="224.403" cy="198.833" r="189.22" transform="rotate(90 224.403 198.833)" fill="white"/>
<circle opacity="0.075" cx="308.877" cy="198.833" r="189.22" transform="rotate(90 308.877 198.833)" fill="white"/>
<circle opacity="0.075" cx="308.877" cy="283.307" r="189.22" transform="rotate(90 308.877 283.307)" fill="white"/>
<circle opacity="0.075" cx="308.877" cy="367.78" r="189.22" transform="rotate(90 308.877 367.78)" fill="white"/>
<circle opacity="0.075" cx="308.877" cy="114.36" r="189.22" transform="rotate(90 308.877 114.36)" fill="white"/>
<circle opacity="0.075" cx="308.877" cy="29.8868" r="189.22" transform="rotate(90 308.877 29.8868)" fill="white"/>
<circle opacity="0.075" cx="298.833" cy="198.833" r="337.167" transform="rotate(90 298.833 198.833)" fill="white"/>
<ellipse opacity="0.075" cx="298.833" cy="198.833" rx="297.5" ry="297.5" transform="rotate(90 298.833 198.833)" fill="white"/>
<ellipse opacity="0.075" cx="298.833" cy="198.833" rx="232.167" ry="232.167" transform="rotate(90 298.833 198.833)" fill="white"/>
</g>
</svg>
