<svg width="600" height="400" viewBox="0 0 600 400" fill="none" xmlns="http://www.w3.org/2000/svg">
<line x1="131.923" y1="89.3627" x2="76.3836" y2="33.206" stroke="white" stroke-opacity="0.07" stroke-width="4"/>
<line x1="187.096" y1="199.93" x2="131.556" y2="88.8511" stroke="white" stroke-opacity="0.07" stroke-width="4"/>
<line x1="245.842" y1="33.21" x2="134.763" y2="144.906" stroke="white" stroke-opacity="0.07" stroke-width="4"/>
<line x1="131.962" y1="310.942" x2="73.9541" y2="255.403" stroke="white" stroke-opacity="0.07" stroke-width="4"/>
<line x1="190.672" y1="144.394" x2="135.132" y2="254.856" stroke="white" stroke-opacity="0.07" stroke-width="4"/>
<line x1="245.838" y1="255.989" x2="134.759" y2="367.069" stroke="white" stroke-opacity="0.07" stroke-width="4"/>
<line x1="187.221" y1="366.764" x2="76.1414" y2="200.145" stroke="white" stroke-opacity="0.07" stroke-width="4"/>
<line x1="298.55" y1="200.45" x2="243.01" y2="144.91" stroke="white" stroke-opacity="0.07" stroke-width="4"/>
<line x1="298.55" y1="144.91" x2="187.471" y2="33.8308" stroke="white" stroke-opacity="0.07" stroke-width="4"/>
<line x1="298.3" y1="310.607" x2="187.221" y2="143.988" stroke="white" stroke-opacity="0.07" stroke-width="4"/>
<line x1="300.581" y1="308.139" x2="411.833" y2="363.225" stroke="white" stroke-opacity="0.07" stroke-width="4"/>
<line x1="356.39" y1="200.829" x2="245.311" y2="255.751" stroke="white" stroke-opacity="0.07" stroke-width="4"/>
<line x1="356.879" y1="88.7907" x2="297.637" y2="144.947" stroke="white" stroke-opacity="0.07" stroke-width="4"/>
<line x1="409.102" y1="255.059" x2="353.563" y2="32.2837" stroke="white" stroke-opacity="0.07" stroke-width="4"/>
<line x1="357.292" y1="198.141" x2="412.832" y2="309.221" stroke="white" stroke-opacity="0.07" stroke-width="4"/>
<line x1="412.984" y1="32.2836" x2="357.444" y2="255.059" stroke="white" stroke-opacity="0.07" stroke-width="4"/>
<line x1="301.38" y1="86.5439" x2="412.362" y2="197.807" stroke="white" stroke-opacity="0.07" stroke-width="4"/>
<line x1="409.629" y1="142.082" x2="465.169" y2="86.542" stroke="white" stroke-opacity="0.07" stroke-width="4"/>
<line x1="520.182" y1="255.06" x2="464.642" y2="32.9021" stroke="white" stroke-opacity="0.07" stroke-width="4"/>
<line x1="465.168" y1="367.068" x2="409.629" y2="311.529" stroke="white" stroke-opacity="0.07" stroke-width="4"/>
<line x1="412.707" y1="197.925" x2="523.861" y2="364.447" stroke="white" stroke-opacity="0.07" stroke-width="4"/>
<line x1="522.121" y1="33.7997" x2="75.3365" y2="33.7997" stroke="white" stroke-opacity="0.07" stroke-width="4"/>
<line x1="522.122" y1="89.3392" x2="75.3373" y2="89.3392" stroke="white" stroke-opacity="0.07" stroke-width="4"/>
<line x1="467.652" y1="145.053" x2="75.5698" y2="145.053" stroke="white" stroke-opacity="0.07" stroke-width="4"/>
<line x1="522.122" y1="200.418" x2="75.3373" y2="200.418" stroke="white" stroke-opacity="0.07" stroke-width="4"/>
<line x1="522.122" y1="255.958" x2="75.3373" y2="255.958" stroke="white" stroke-opacity="0.07" stroke-width="4"/>
<line x1="411.043" y1="311.498" x2="75.3372" y2="311.498" stroke="white" stroke-opacity="0.07" stroke-width="4"/>
<line x1="522.122" y1="367.037" x2="75.3372" y2="367.037" stroke="white" stroke-opacity="0.07" stroke-width="4"/>
<path d="M66 32.8813C66 39.4431 71.3194 44.7626 77.8813 44.7626C84.4431 44.7626 89.7626 39.4431 89.7626 32.8813C89.7626 26.3194 84.4431 21 77.8813 21C71.3194 21 66 26.3194 66 32.8813Z" fill="#1966DB"/>
<path d="M77.8813 42.7626C72.424 42.7626 68 38.3386 68 32.8813C68 27.424 72.424 23 77.8813 23C83.3386 23 87.7626 27.424 87.7626 32.8813C87.7626 38.3386 83.3386 42.7626 77.8813 42.7626Z" stroke="white" stroke-opacity="0.07" stroke-width="4"/>
<path d="M177.079 32.8813C177.079 39.4432 182.399 44.7626 188.96 44.7626C195.522 44.7626 200.842 39.4432 200.842 32.8813C200.842 26.3195 195.522 21 188.96 21C182.399 21 177.079 26.3195 177.079 32.8813Z" fill="#1966DB"/>
<path d="M188.96 42.7626C183.503 42.7626 179.079 38.3386 179.079 32.8813C179.079 27.424 183.503 23 188.96 23C194.418 23 198.842 27.424 198.842 32.8813C198.842 38.3386 194.418 42.7626 188.96 42.7626Z" stroke="white" stroke-opacity="0.07" stroke-width="4"/>
<path d="M232.619 32.8813C232.619 39.4432 237.938 44.7626 244.5 44.7626C251.062 44.7626 256.381 39.4432 256.381 32.8813C256.381 26.3195 251.062 21 244.5 21C237.938 21 232.619 26.3195 232.619 32.8813Z" fill="#1966DB"/>
<path d="M244.5 42.7626C239.043 42.7626 234.619 38.3386 234.619 32.8813C234.619 27.424 239.043 23 244.5 23C249.957 23 254.381 27.424 254.381 32.8813C254.381 38.3386 249.957 42.7626 244.5 42.7626Z" stroke="white" stroke-opacity="0.07" stroke-width="4"/>
<path d="M343.698 32.8813C343.698 39.4432 349.017 44.7626 355.579 44.7626C362.141 44.7626 367.46 39.4432 367.46 32.8813C367.46 26.3195 362.141 21 355.579 21C349.017 21 343.698 26.3195 343.698 32.8813Z" fill="#1966DB"/>
<path d="M355.579 42.7626C350.122 42.7626 345.698 38.3386 345.698 32.8813C345.698 27.424 350.122 23 355.579 23C361.036 23 365.46 27.424 365.46 32.8813C365.46 38.3386 361.036 42.7626 355.579 42.7626Z" stroke="white" stroke-opacity="0.07" stroke-width="4"/>
<path d="M399.237 32.8813C399.237 39.4432 404.557 44.7626 411.119 44.7626C417.68 44.7626 423 39.4432 423 32.8813C423 26.3195 417.68 21 411.119 21C404.557 21 399.237 26.3195 399.237 32.8813Z" fill="#1966DB"/>
<path d="M411.119 42.7626C405.661 42.7626 401.237 38.3386 401.237 32.8813C401.237 27.424 405.661 23 411.119 23C416.576 23 421 27.424 421 32.8813C421 38.3386 416.576 42.7626 411.119 42.7626Z" stroke="white" stroke-opacity="0.07" stroke-width="4"/>
<path d="M454.777 32.8813C454.777 39.4432 460.096 44.7626 466.658 44.7626C473.22 44.7626 478.54 39.4432 478.54 32.8813C478.54 26.3195 473.22 21 466.658 21C460.096 21 454.777 26.3195 454.777 32.8813Z" fill="#1966DB"/>
<path d="M466.658 42.7626C461.201 42.7626 456.777 38.3386 456.777 32.8813C456.777 27.424 461.201 23 466.658 23C472.116 23 476.54 27.424 476.54 32.8813C476.54 38.3386 472.116 42.7626 466.658 42.7626Z" stroke="white" stroke-opacity="0.07" stroke-width="4"/>
<path d="M510.317 32.8813C510.317 39.4432 515.636 44.7626 522.198 44.7626C528.76 44.7626 534.079 39.4432 534.079 32.8813C534.079 26.3195 528.76 21 522.198 21C515.636 21 510.317 26.3195 510.317 32.8813Z" fill="#1966DB"/>
<path d="M522.198 42.7626C516.741 42.7626 512.317 38.3386 512.317 32.8813C512.317 27.424 516.741 23 522.198 23C527.655 23 532.079 27.424 532.079 32.8813C532.079 38.3386 527.655 42.7626 522.198 42.7626Z" stroke="white" stroke-opacity="0.07" stroke-width="4"/>
<path d="M66 88.4208C66 94.9827 71.3194 100.302 77.8813 100.302C84.4431 100.302 89.7626 94.9827 89.7626 88.4208C89.7626 81.859 84.4431 76.5396 77.8813 76.5396C71.3194 76.5396 66 81.859 66 88.4208Z" fill="#1966DB"/>
<path d="M77.8813 98.3021C72.424 98.3021 68 93.8781 68 88.4208C68 82.9636 72.424 78.5396 77.8813 78.5396C83.3386 78.5396 87.7626 82.9636 87.7626 88.4208C87.7626 93.8781 83.3386 98.3021 77.8813 98.3021Z" stroke="white" stroke-opacity="0.07" stroke-width="4"/>
<path d="M121.539 88.4208C121.539 94.9827 126.859 100.302 133.421 100.302C139.983 100.302 145.302 94.9827 145.302 88.4208C145.302 81.859 139.983 76.5396 133.421 76.5396C126.859 76.5396 121.539 81.859 121.539 88.4208Z" fill="#1966DB"/>
<path d="M133.421 98.3021C127.963 98.3021 123.539 93.8781 123.539 88.4208C123.539 82.9636 127.963 78.5396 133.421 78.5396C138.878 78.5396 143.302 82.9636 143.302 88.4208C143.302 93.8781 138.878 98.3021 133.421 98.3021Z" stroke="white" stroke-opacity="0.07" stroke-width="4"/>
<path d="M177.079 88.4208C177.079 94.9827 182.399 100.302 188.96 100.302C195.522 100.302 200.842 94.9827 200.842 88.4208C200.842 81.859 195.522 76.5396 188.96 76.5396C182.399 76.5396 177.079 81.859 177.079 88.4208Z" fill="#1966DB"/>
<path d="M188.96 98.3021C183.503 98.3021 179.079 93.8781 179.079 88.4208C179.079 82.9636 183.503 78.5396 188.96 78.5396C194.418 78.5396 198.842 82.9636 198.842 88.4208C198.842 93.8781 194.418 98.3021 188.96 98.3021Z" stroke="white" stroke-opacity="0.07" stroke-width="4"/>
<path d="M288.158 88.4208C288.158 94.9827 293.478 100.302 300.039 100.302C306.601 100.302 311.921 94.9827 311.921 88.4208C311.921 81.859 306.601 76.5396 300.039 76.5396C293.478 76.5396 288.158 81.859 288.158 88.4208Z" fill="#1966DB"/>
<path d="M300.039 98.3021C294.582 98.3021 290.158 93.8781 290.158 88.4208C290.158 82.9636 294.582 78.5396 300.039 78.5396C305.497 78.5396 309.921 82.9636 309.921 88.4208C309.921 93.8781 305.497 98.3021 300.039 98.3021Z" stroke="white" stroke-opacity="0.07" stroke-width="4"/>
<path d="M343.698 88.4209C343.698 94.9827 349.017 100.302 355.579 100.302C362.141 100.302 367.46 94.9827 367.46 88.4209C367.46 81.859 362.141 76.5396 355.579 76.5396C349.017 76.5396 343.698 81.859 343.698 88.4209Z" fill="#1966DB"/>
<path d="M355.579 98.3021C350.122 98.3021 345.698 93.8781 345.698 88.4209C345.698 82.9636 350.122 78.5396 355.579 78.5396C361.036 78.5396 365.46 82.9636 365.46 88.4209C365.46 93.8781 361.036 98.3021 355.579 98.3021Z" stroke="white" stroke-opacity="0.07" stroke-width="4"/>
<path d="M454.777 88.4209C454.777 94.9827 460.096 100.302 466.658 100.302C473.22 100.302 478.54 94.9827 478.54 88.4209C478.54 81.859 473.22 76.5396 466.658 76.5396C460.096 76.5396 454.777 81.859 454.777 88.4209Z" fill="#1966DB"/>
<path d="M466.658 98.3021C461.201 98.3021 456.777 93.8781 456.777 88.4209C456.777 82.9636 461.201 78.5396 466.658 78.5396C472.116 78.5396 476.54 82.9636 476.54 88.4209C476.54 93.8781 472.116 98.3021 466.658 98.3021Z" stroke="white" stroke-opacity="0.07" stroke-width="4"/>
<path d="M510.317 88.4209C510.317 94.9827 515.636 100.302 522.198 100.302C528.76 100.302 534.079 94.9827 534.079 88.4209C534.079 81.859 528.76 76.5396 522.198 76.5396C515.636 76.5396 510.317 81.859 510.317 88.4209Z" fill="#1966DB"/>
<path d="M522.198 98.3021C516.741 98.3021 512.317 93.8781 512.317 88.4209C512.317 82.9636 516.741 78.5396 522.198 78.5396C527.655 78.5396 532.079 82.9636 532.079 88.4209C532.079 93.8781 527.655 98.3021 522.198 98.3021Z" stroke="white" stroke-opacity="0.07" stroke-width="4"/>
<path d="M66 143.96C66 150.522 71.3194 155.842 77.8813 155.842C84.4431 155.842 89.7626 150.522 89.7626 143.96C89.7626 137.399 84.4431 132.079 77.8813 132.079C71.3194 132.079 66 137.399 66 143.96Z" fill="#1966DB"/>
<path d="M77.8813 153.842C72.424 153.842 68 149.418 68 143.96C68 138.503 72.424 134.079 77.8813 134.079C83.3386 134.079 87.7626 138.503 87.7626 143.96C87.7626 149.418 83.3386 153.842 77.8813 153.842Z" stroke="white" stroke-opacity="0.07" stroke-width="4"/>
<path d="M121.54 143.96C121.54 150.522 126.859 155.842 133.421 155.842C139.983 155.842 145.302 150.522 145.302 143.96C145.302 137.399 139.983 132.079 133.421 132.079C126.859 132.079 121.54 137.399 121.54 143.96Z" fill="#1966DB"/>
<path d="M133.421 153.842C127.964 153.842 123.54 149.418 123.54 143.96C123.54 138.503 127.964 134.079 133.421 134.079C138.878 134.079 143.302 138.503 143.302 143.96C143.302 149.418 138.878 153.842 133.421 153.842Z" stroke="white" stroke-opacity="0.07" stroke-width="4"/>
<path d="M177.079 143.96C177.079 150.522 182.399 155.842 188.96 155.842C195.522 155.842 200.842 150.522 200.842 143.96C200.842 137.399 195.522 132.079 188.96 132.079C182.399 132.079 177.079 137.399 177.079 143.96Z" fill="#1966DB"/>
<path d="M188.96 153.842C183.503 153.842 179.079 149.418 179.079 143.96C179.079 138.503 183.503 134.079 188.96 134.079C194.418 134.079 198.842 138.503 198.842 143.96C198.842 149.418 194.418 153.842 188.96 153.842Z" stroke="white" stroke-opacity="0.07" stroke-width="4"/>
<path d="M232.619 143.96C232.619 150.522 237.938 155.842 244.5 155.842C251.062 155.842 256.381 150.522 256.381 143.96C256.381 137.399 251.062 132.079 244.5 132.079C237.938 132.079 232.619 137.399 232.619 143.96Z" fill="#1966DB"/>
<path d="M244.5 153.842C239.043 153.842 234.619 149.418 234.619 143.96C234.619 138.503 239.043 134.079 244.5 134.079C249.957 134.079 254.381 138.503 254.381 143.96C254.381 149.418 249.957 153.842 244.5 153.842Z" stroke="white" stroke-opacity="0.07" stroke-width="4"/>
<path d="M288.158 143.96C288.158 150.522 293.478 155.842 300.04 155.842C306.601 155.842 311.921 150.522 311.921 143.96C311.921 137.399 306.601 132.079 300.04 132.079C293.478 132.079 288.158 137.399 288.158 143.96Z" fill="#1966DB"/>
<path d="M300.04 153.842C294.582 153.842 290.158 149.418 290.158 143.96C290.158 138.503 294.582 134.079 300.04 134.079C305.497 134.079 309.921 138.503 309.921 143.96C309.921 149.418 305.497 153.842 300.04 153.842Z" stroke="white" stroke-opacity="0.07" stroke-width="4"/>
<path d="M399.237 143.96C399.237 150.522 404.557 155.842 411.119 155.842C417.681 155.842 423 150.522 423 143.96C423 137.399 417.681 132.079 411.119 132.079C404.557 132.079 399.237 137.399 399.237 143.96Z" fill="#1966DB"/>
<path d="M411.119 153.842C405.661 153.842 401.237 149.418 401.237 143.96C401.237 138.503 405.661 134.079 411.119 134.079C416.576 134.079 421 138.503 421 143.96C421 149.418 416.576 153.842 411.119 153.842Z" stroke="white" stroke-opacity="0.07" stroke-width="4"/>
<path d="M454.777 143.96C454.777 150.522 460.096 155.842 466.658 155.842C473.22 155.842 478.54 150.522 478.54 143.96C478.54 137.399 473.22 132.079 466.658 132.079C460.096 132.079 454.777 137.399 454.777 143.96Z" fill="#1966DB"/>
<path d="M466.658 153.842C461.201 153.842 456.777 149.418 456.777 143.96C456.777 138.503 461.201 134.079 466.658 134.079C472.116 134.079 476.54 138.503 476.54 143.96C476.54 149.418 472.116 153.842 466.658 153.842Z" stroke="white" stroke-opacity="0.07" stroke-width="4"/>
<path d="M66 199.5C66 206.062 71.3194 211.381 77.8813 211.381C84.4431 211.381 89.7626 206.062 89.7626 199.5C89.7626 192.938 84.4431 187.619 77.8813 187.619C71.3194 187.619 66 192.938 66 199.5Z" fill="#1966DB"/>
<path d="M77.8813 209.381C72.424 209.381 68 204.957 68 199.5C68 194.043 72.424 189.619 77.8813 189.619C83.3386 189.619 87.7626 194.043 87.7626 199.5C87.7626 204.957 83.3386 209.381 77.8813 209.381Z" stroke="white" stroke-opacity="0.07" stroke-width="4"/>
<path d="M177.079 199.5C177.079 206.062 182.399 211.381 188.96 211.381C195.522 211.381 200.842 206.062 200.842 199.5C200.842 192.938 195.522 187.619 188.96 187.619C182.399 187.619 177.079 192.938 177.079 199.5Z" fill="#1966DB"/>
<path d="M188.96 209.381C183.503 209.381 179.079 204.957 179.079 199.5C179.079 194.043 183.503 189.619 188.96 189.619C194.418 189.619 198.842 194.043 198.842 199.5C198.842 204.957 194.418 209.381 188.96 209.381Z" stroke="white" stroke-opacity="0.07" stroke-width="4"/>
<path d="M288.158 199.5C288.158 206.062 293.478 211.381 300.039 211.381C306.601 211.381 311.921 206.062 311.921 199.5C311.921 192.938 306.601 187.619 300.039 187.619C293.478 187.619 288.158 192.938 288.158 199.5Z" fill="#1966DB"/>
<path d="M300.039 209.381C294.582 209.381 290.158 204.957 290.158 199.5C290.158 194.043 294.582 189.619 300.039 189.619C305.497 189.619 309.921 194.043 309.921 199.5C309.921 204.957 305.497 209.381 300.039 209.381Z" stroke="white" stroke-opacity="0.07" stroke-width="4"/>
<path d="M343.698 199.5C343.698 206.062 349.017 211.381 355.579 211.381C362.141 211.381 367.46 206.062 367.46 199.5C367.46 192.938 362.141 187.619 355.579 187.619C349.017 187.619 343.698 192.938 343.698 199.5Z" fill="#1966DB"/>
<path d="M355.579 209.381C350.122 209.381 345.698 204.957 345.698 199.5C345.698 194.043 350.122 189.619 355.579 189.619C361.036 189.619 365.46 194.043 365.46 199.5C365.46 204.957 361.036 209.381 355.579 209.381Z" stroke="white" stroke-opacity="0.07" stroke-width="4"/>
<path d="M399.237 199.5C399.237 206.062 404.557 211.381 411.119 211.381C417.68 211.381 423 206.062 423 199.5C423 192.938 417.68 187.619 411.119 187.619C404.557 187.619 399.237 192.938 399.237 199.5Z" fill="#1966DB"/>
<path d="M411.119 209.381C405.661 209.381 401.237 204.957 401.237 199.5C401.237 194.043 405.661 189.619 411.119 189.619C416.576 189.619 421 194.043 421 199.5C421 204.957 416.576 209.381 411.119 209.381Z" stroke="white" stroke-opacity="0.07" stroke-width="4"/>
<path d="M510.317 199.5C510.317 206.062 515.636 211.381 522.198 211.381C528.76 211.381 534.079 206.062 534.079 199.5C534.079 192.938 528.76 187.619 522.198 187.619C515.636 187.619 510.317 192.938 510.317 199.5Z" fill="#1966DB"/>
<path d="M522.198 209.381C516.741 209.381 512.317 204.957 512.317 199.5C512.317 194.043 516.741 189.619 522.198 189.619C527.655 189.619 532.079 194.043 532.079 199.5C532.079 204.957 527.655 209.381 522.198 209.381Z" stroke="white" stroke-opacity="0.07" stroke-width="4"/>
<path d="M66 255.04C66 261.601 71.3194 266.921 77.8812 266.921C84.4431 266.921 89.7625 261.601 89.7625 255.04C89.7625 248.478 84.4431 243.158 77.8812 243.158C71.3194 243.158 66 248.478 66 255.04Z" fill="#1966DB"/>
<path d="M77.8812 264.921C72.424 264.921 68 260.497 68 255.04C68 249.582 72.424 245.158 77.8812 245.158C83.3385 245.158 87.7625 249.582 87.7625 255.04C87.7625 260.497 83.3385 264.921 77.8812 264.921Z" stroke="white" stroke-opacity="0.07" stroke-width="4"/>
<path d="M121.539 255.04C121.539 261.601 126.859 266.921 133.421 266.921C139.983 266.921 145.302 261.601 145.302 255.04C145.302 248.478 139.983 243.158 133.421 243.158C126.859 243.158 121.539 248.478 121.539 255.04Z" fill="#1966DB"/>
<path d="M133.421 264.921C127.963 264.921 123.539 260.497 123.539 255.04C123.539 249.582 127.963 245.158 133.421 245.158C138.878 245.158 143.302 249.582 143.302 255.04C143.302 260.497 138.878 264.921 133.421 264.921Z" stroke="white" stroke-opacity="0.07" stroke-width="4"/>
<path d="M177.079 255.04C177.079 261.601 182.398 266.921 188.96 266.921C195.522 266.921 200.842 261.601 200.842 255.04C200.842 248.478 195.522 243.158 188.96 243.158C182.398 243.158 177.079 248.478 177.079 255.04Z" fill="#1966DB"/>
<path d="M188.96 264.921C183.503 264.921 179.079 260.497 179.079 255.04C179.079 249.582 183.503 245.158 188.96 245.158C194.418 245.158 198.842 249.582 198.842 255.04C198.842 260.497 194.418 264.921 188.96 264.921Z" stroke="white" stroke-opacity="0.07" stroke-width="4"/>
<path d="M232.619 255.04C232.619 261.602 237.938 266.921 244.5 266.921C251.062 266.921 256.381 261.602 256.381 255.04C256.381 248.478 251.062 243.158 244.5 243.158C237.938 243.158 232.619 248.478 232.619 255.04Z" fill="#1966DB"/>
<path d="M244.5 264.921C239.043 264.921 234.619 260.497 234.619 255.04C234.619 249.582 239.043 245.158 244.5 245.158C249.957 245.158 254.381 249.582 254.381 255.04C254.381 260.497 249.957 264.921 244.5 264.921Z" stroke="white" stroke-opacity="0.07" stroke-width="4"/>
<path d="M343.698 255.04C343.698 261.602 349.017 266.921 355.579 266.921C362.141 266.921 367.46 261.602 367.46 255.04C367.46 248.478 362.141 243.158 355.579 243.158C349.017 243.158 343.698 248.478 343.698 255.04Z" fill="#1966DB"/>
<path d="M355.579 264.921C350.122 264.921 345.698 260.497 345.698 255.04C345.698 249.582 350.122 245.158 355.579 245.158C361.036 245.158 365.46 249.582 365.46 255.04C365.46 260.497 361.036 264.921 355.579 264.921Z" stroke="white" stroke-opacity="0.07" stroke-width="4"/>
<path d="M399.237 255.04C399.237 261.602 404.557 266.921 411.119 266.921C417.68 266.921 423 261.602 423 255.04C423 248.478 417.68 243.158 411.119 243.158C404.557 243.158 399.237 248.478 399.237 255.04Z" fill="#1966DB"/>
<path d="M411.119 264.921C405.661 264.921 401.237 260.497 401.237 255.04C401.237 249.582 405.661 245.158 411.119 245.158C416.576 245.158 421 249.582 421 255.04C421 260.497 416.576 264.921 411.119 264.921Z" stroke="white" stroke-opacity="0.07" stroke-width="4"/>
<path d="M510.317 255.04C510.317 261.601 515.636 266.921 522.198 266.921C528.76 266.921 534.079 261.601 534.079 255.04C534.079 248.478 528.76 243.158 522.198 243.158C515.636 243.158 510.317 248.478 510.317 255.04Z" fill="#1966DB"/>
<path d="M522.198 264.921C516.741 264.921 512.317 260.497 512.317 255.04C512.317 249.582 516.741 245.158 522.198 245.158C527.655 245.158 532.079 249.582 532.079 255.04C532.079 260.497 527.655 264.921 522.198 264.921Z" stroke="white" stroke-opacity="0.07" stroke-width="4"/>
<path d="M66 310.579C66 317.141 71.3194 322.46 77.8813 322.46C84.4431 322.46 89.7626 317.141 89.7626 310.579C89.7626 304.017 84.4431 298.698 77.8813 298.698C71.3194 298.698 66 304.017 66 310.579Z" fill="#1966DB"/>
<path d="M77.8813 320.46C72.424 320.46 68 316.036 68 310.579C68 305.122 72.424 300.698 77.8813 300.698C83.3386 300.698 87.7626 305.122 87.7626 310.579C87.7626 316.036 83.3386 320.46 77.8813 320.46Z" stroke="white" stroke-opacity="0.07" stroke-width="4"/>
<path d="M121.54 310.579C121.54 317.141 126.859 322.46 133.421 322.46C139.983 322.46 145.302 317.141 145.302 310.579C145.302 304.017 139.983 298.698 133.421 298.698C126.859 298.698 121.54 304.017 121.54 310.579Z" fill="#1966DB"/>
<path d="M133.421 320.46C127.964 320.46 123.54 316.036 123.54 310.579C123.54 305.122 127.964 300.698 133.421 300.698C138.878 300.698 143.302 305.122 143.302 310.579C143.302 316.036 138.878 320.46 133.421 320.46Z" stroke="white" stroke-opacity="0.07" stroke-width="4"/>
<path d="M232.619 310.579C232.619 317.141 237.938 322.46 244.5 322.46C251.062 322.46 256.381 317.141 256.381 310.579C256.381 304.017 251.062 298.698 244.5 298.698C237.938 298.698 232.619 304.017 232.619 310.579Z" fill="#1966DB"/>
<path d="M244.5 320.46C239.043 320.46 234.619 316.036 234.619 310.579C234.619 305.122 239.043 300.698 244.5 300.698C249.957 300.698 254.381 305.122 254.381 310.579C254.381 316.036 249.957 320.46 244.5 320.46Z" stroke="white" stroke-opacity="0.07" stroke-width="4"/>
<path d="M288.158 310.579C288.158 317.141 293.478 322.46 300.04 322.46C306.601 322.46 311.921 317.141 311.921 310.579C311.921 304.017 306.601 298.698 300.04 298.698C293.478 298.698 288.158 304.017 288.158 310.579Z" fill="#1966DB"/>
<path d="M300.04 320.46C294.582 320.46 290.158 316.036 290.158 310.579C290.158 305.122 294.582 300.698 300.04 300.698C305.497 300.698 309.921 305.122 309.921 310.579C309.921 316.036 305.497 320.46 300.04 320.46Z" stroke="white" stroke-opacity="0.07" stroke-width="4"/>
<path d="M399.237 310.579C399.237 317.141 404.557 322.46 411.119 322.46C417.681 322.46 423 317.141 423 310.579C423 304.017 417.681 298.698 411.119 298.698C404.557 298.698 399.237 304.017 399.237 310.579Z" fill="#1966DB"/>
<path d="M411.119 320.46C405.661 320.46 401.237 316.036 401.237 310.579C401.237 305.122 405.661 300.698 411.119 300.698C416.576 300.698 421 305.122 421 310.579C421 316.036 416.576 320.46 411.119 320.46Z" stroke="white" stroke-opacity="0.07" stroke-width="4"/>
<path d="M66 366.119C66 372.681 71.3194 378 77.8812 378C84.4431 378 89.7625 372.681 89.7625 366.119C89.7625 359.557 84.4431 354.237 77.8812 354.237C71.3194 354.237 66 359.557 66 366.119Z" fill="#1966DB"/>
<path d="M77.8812 376C72.424 376 68 371.576 68 366.119C68 360.661 72.424 356.237 77.8812 356.237C83.3385 356.237 87.7625 360.661 87.7625 366.119C87.7625 371.576 83.3385 376 77.8812 376Z" stroke="white" stroke-opacity="0.07" stroke-width="4"/>
<path d="M121.539 366.119C121.539 372.681 126.859 378 133.421 378C139.983 378 145.302 372.681 145.302 366.119C145.302 359.557 139.983 354.237 133.421 354.237C126.859 354.237 121.539 359.557 121.539 366.119Z" fill="#1966DB"/>
<path d="M133.421 376C127.963 376 123.539 371.576 123.539 366.119C123.539 360.661 127.963 356.237 133.421 356.237C138.878 356.237 143.302 360.661 143.302 366.119C143.302 371.576 138.878 376 133.421 376Z" stroke="white" stroke-opacity="0.07" stroke-width="4"/>
<path d="M177.079 366.119C177.079 372.681 182.398 378 188.96 378C195.522 378 200.842 372.681 200.842 366.119C200.842 359.557 195.522 354.237 188.96 354.237C182.398 354.237 177.079 359.557 177.079 366.119Z" fill="#1966DB"/>
<path d="M188.96 376C183.503 376 179.079 371.576 179.079 366.119C179.079 360.661 183.503 356.237 188.96 356.237C194.418 356.237 198.842 360.661 198.842 366.119C198.842 371.576 194.418 376 188.96 376Z" stroke="white" stroke-opacity="0.07" stroke-width="4"/>
<path d="M232.619 366.119C232.619 372.681 237.938 378 244.5 378C251.062 378 256.381 372.681 256.381 366.119C256.381 359.557 251.062 354.237 244.5 354.237C237.938 354.237 232.619 359.557 232.619 366.119Z" fill="#1966DB"/>
<path d="M244.5 376C239.043 376 234.619 371.576 234.619 366.119C234.619 360.661 239.043 356.237 244.5 356.237C249.957 356.237 254.381 360.661 254.381 366.119C254.381 371.576 249.957 376 244.5 376Z" stroke="white" stroke-opacity="0.07" stroke-width="4"/>
<path d="M399.237 366.119C399.237 372.681 404.557 378 411.119 378C417.68 378 423 372.681 423 366.119C423 359.557 417.68 354.238 411.119 354.238C404.557 354.238 399.237 359.557 399.237 366.119Z" fill="#1966DB"/>
<path d="M411.119 376C405.661 376 401.237 371.576 401.237 366.119C401.237 360.662 405.661 356.238 411.119 356.238C416.576 356.238 421 360.662 421 366.119C421 371.576 416.576 376 411.119 376Z" stroke="white" stroke-opacity="0.07" stroke-width="4"/>
<path d="M454.777 366.119C454.777 372.681 460.096 378 466.658 378C473.22 378 478.54 372.681 478.54 366.119C478.54 359.557 473.22 354.238 466.658 354.238C460.096 354.238 454.777 359.557 454.777 366.119Z" fill="#1966DB"/>
<path d="M466.658 376C461.201 376 456.777 371.576 456.777 366.119C456.777 360.662 461.201 356.238 466.658 356.238C472.116 356.238 476.54 360.662 476.54 366.119C476.54 371.576 472.116 376 466.658 376Z" stroke="white" stroke-opacity="0.07" stroke-width="4"/>
<path d="M510.317 366.119C510.317 372.681 515.636 378 522.198 378C528.76 378 534.079 372.681 534.079 366.119C534.079 359.557 528.76 354.237 522.198 354.237C515.636 354.237 510.317 359.557 510.317 366.119Z" fill="#1966DB"/>
<path d="M522.198 376C516.741 376 512.317 371.576 512.317 366.119C512.317 360.661 516.741 356.237 522.198 356.237C527.655 356.237 532.079 360.661 532.079 366.119C532.079 371.576 527.655 376 522.198 376Z" stroke="white" stroke-opacity="0.07" stroke-width="4"/>
<circle opacity="0.075" cx="395" cy="200" r="168" transform="rotate(90 395 200)" fill="white"/>
<ellipse opacity="0.075" cx="245" cy="200" rx="112" ry="112" transform="rotate(90 245 200)" fill="white"/>
<circle opacity="0.075" cx="357" cy="200" r="68" transform="rotate(90 357 200)" fill="white"/>
</svg>
